G04*
G04 #@! TF.GenerationSoftware,Altium Limited,Altium Designer,21.1.1 (26)*
G04*
G04 Layer_Color=16711935*
%FSLAX25Y25*%
%MOIN*%
G70*
G04*
G04 #@! TF.SameCoordinates,F0776300-378F-46C5-BA81-3E012C389C30*
G04*
G04*
G04 #@! TF.FilePolarity,Positive*
G04*
G01*
G75*
%ADD11C,0.01000*%
%ADD12C,0.00787*%
%ADD13C,0.00500*%
%ADD116C,0.00394*%
%ADD117R,0.02282X0.16969*%
D11*
X34787Y-256379D02*
X43777Y-266329D01*
X28226Y-247444D02*
X34787Y-256379D01*
X49419Y-271971D02*
X55339Y-277320D01*
X43777Y-266329D02*
X49419Y-271971D01*
X114173Y-25591D02*
X200787D01*
X114173D02*
Y-0D01*
X200787Y-25591D02*
Y-0D01*
X265979Y-271621D02*
X271621Y-265979D01*
X276970Y-260059D01*
X282012Y-253875D01*
X314961Y-0D02*
X314961Y-157480D01*
X200787Y-0D02*
X314961D01*
X23835Y-240782D02*
X28226Y-247444D01*
X16094Y-226834D02*
X19788Y-233906D01*
X23835Y-240782D01*
X67517Y-286735D02*
X74179Y-291125D01*
X54902Y-276970D02*
X61085Y-282012D01*
X67517Y-286735D01*
X74179Y-291125D02*
X81055Y-295173D01*
X88127Y-298867D01*
X95377Y-302198D01*
X314758Y-165457D02*
X314961Y-157480D01*
X314153Y-173412D02*
X314758Y-165457D01*
X313144Y-181327D02*
X314153Y-173412D01*
X311737Y-189181D02*
X313144Y-181327D01*
X309933Y-196953D02*
X311737Y-189181D01*
X307738Y-204624D02*
X309933Y-196953D01*
X305158Y-212174D02*
X307738Y-204624D01*
X302198Y-219584D02*
X305158Y-212174D01*
X298867Y-226834D02*
X302198Y-219584D01*
X295173Y-233906D02*
X298867Y-226834D01*
X291125Y-240782D02*
X295173Y-233906D01*
X286734Y-247444D02*
X291125Y-240782D01*
X282012Y-253875D02*
X286734Y-247444D01*
X260058Y-276970D02*
X265979Y-271621D01*
X253875Y-282012D02*
X260058Y-276970D01*
X247444Y-286735D02*
X253875Y-282012D01*
X240782Y-291125D02*
X247444Y-286735D01*
X233906Y-295173D02*
X240782Y-291125D01*
X226834Y-298867D02*
X233906Y-295173D01*
X219583Y-302198D02*
X226834Y-298867D01*
X212174Y-305158D02*
X219583Y-302198D01*
X204624Y-307739D02*
X212174Y-305158D01*
X196953Y-309933D02*
X204624Y-307739D01*
X189181Y-311737D02*
X196953Y-309933D01*
X181327Y-313145D02*
X189181Y-311737D01*
X173412Y-314153D02*
X181327Y-313145D01*
X165456Y-314759D02*
X173412Y-314153D01*
X157480Y-314961D02*
X165456Y-314759D01*
X149504D02*
X157480Y-314961D01*
X141548Y-314153D02*
X149504Y-314759D01*
X133633Y-313145D02*
X141548Y-314153D01*
X125780Y-311737D02*
X133633Y-313145D01*
X118007Y-309933D02*
X125780Y-311737D01*
X110336Y-307739D02*
X118007Y-309933D01*
X102786Y-305158D02*
X110336Y-307739D01*
X95377Y-302198D02*
X102786Y-305158D01*
X12762Y-219584D02*
X16094Y-226834D01*
X9803Y-212174D02*
X12762Y-219584D01*
X7222Y-204624D02*
X9803Y-212174D01*
X5027Y-196953D02*
X7222Y-204624D01*
X3224Y-189181D02*
X5027Y-196953D01*
X1816Y-181327D02*
X3224Y-189181D01*
X808Y-173412D02*
X1816Y-181327D01*
X202Y-165457D02*
X808Y-173412D01*
X-0Y-157480D02*
X202Y-165457D01*
X-0Y-157480D02*
Y-0D01*
X114173D01*
D12*
X220185Y-254921D02*
X231996D01*
X220185Y-266732D02*
Y-254921D01*
Y-266732D02*
X231996D01*
Y-254921D01*
D13*
X248594Y-201195D02*
Y-163005D01*
X210405Y-201195D02*
X248594D01*
X210405D02*
Y-171667D01*
X219067Y-163005D02*
X248594D01*
X210405Y-171667D02*
X219067Y-163005D01*
X253834Y-189187D02*
Y-191186D01*
X254834Y-190186D02*
X252835D01*
X206196Y-189974D02*
Y-191973D01*
D116*
X288726Y-38511D02*
G03*
X289513Y-37724I0J787D01*
G01*
X277702Y-38511D02*
G03*
X278489Y-39299I787J0D01*
G01*
X284395Y-38511D02*
G03*
X285182Y-37724I0J787D01*
G01*
X282033D02*
G03*
X282820Y-38511I787J0D01*
G01*
X267525Y-30204D02*
G03*
X266344Y-31385I0J-1181D01*
G01*
X272308Y-9850D02*
G03*
X274277Y-11818I1969J0D01*
G01*
X274159Y-35362D02*
G03*
X273371Y-36149I0J-787D01*
G01*
X269493Y-31385D02*
G03*
X268312Y-30204I-1181J0D01*
G01*
X283902Y-12212D02*
G03*
X284295Y-11818I0J394D01*
G01*
X273371Y-37724D02*
G03*
X274159Y-38511I787J0D01*
G01*
X298174Y-35165D02*
G03*
X297387Y-34378I-787J0D01*
G01*
X306048Y-38511D02*
G03*
X306836Y-37724I0J787D01*
G01*
X266344Y-32567D02*
G03*
X267525Y-33748I1181J0D01*
G01*
X266383Y-16740D02*
G03*
X265596Y-17527I0J-787D01*
G01*
X276521Y-36149D02*
G03*
X275733Y-35362I-787J0D01*
G01*
X309415Y-49929D02*
G03*
X308233Y-51110I0J-1181D01*
G01*
X289513Y-35165D02*
G03*
X288726Y-34378I-787J0D01*
G01*
X300143Y-35362D02*
G03*
X299356Y-36149I0J-787D01*
G01*
X304474Y-35362D02*
G03*
X303686Y-36149I0J-787D01*
G01*
X299356Y-37724D02*
G03*
X300143Y-38511I787J0D01*
G01*
X291481Y-35362D02*
G03*
X290694Y-36149I0J-787D01*
G01*
X302505D02*
G03*
X301718Y-35362I-787J0D01*
G01*
X275733Y-38511D02*
G03*
X276521Y-37724I0J787D01*
G01*
X280852Y-36937D02*
G03*
X280064Y-36149I-787J0D01*
G01*
X268312Y-33748D02*
G03*
X269493Y-32567I0J1181D01*
G01*
X294138Y-11818D02*
G03*
X294531Y-12212I394J0D01*
G01*
X306836Y-36149D02*
G03*
X306048Y-35362I-787J0D01*
G01*
X280064Y-39299D02*
G03*
X280852Y-38511I0J787D01*
G01*
X286363Y-37724D02*
G03*
X287151Y-38511I787J0D01*
G01*
X301718D02*
G03*
X302505Y-37724I0J787D01*
G01*
X290694D02*
G03*
X291481Y-38511I787J0D01*
G01*
X295025Y-37724D02*
G03*
X295812Y-38511I787J0D01*
G01*
X272308Y-8275D02*
G03*
X270340Y-6307I-1969J0D01*
G01*
X287151Y-34378D02*
G03*
X286363Y-35165I0J-787D01*
G01*
X304611Y-49929D02*
G03*
X304218Y-50323I0J-394D01*
G01*
X272249Y-48708D02*
G03*
X274611Y-46346I0J2362D01*
G01*
X295812Y-34378D02*
G03*
X295025Y-35165I0J-787D01*
G01*
X266541Y-47133D02*
G03*
X268115Y-48708I1575J0D01*
G01*
X293844Y-36149D02*
G03*
X293056Y-35362I-787J0D01*
G01*
X307584Y-6307D02*
G03*
X306403Y-7488I0J-1181D01*
G01*
X267171Y-20677D02*
G03*
X267958Y-19889I0J787D01*
G01*
X304434Y-11818D02*
G03*
X306403Y-9850I0J1969D01*
G01*
X278489Y-36149D02*
G03*
X277702Y-36937I0J-787D01*
G01*
X268903Y-40047D02*
G03*
X266541Y-42409I0J-2362D01*
G01*
X282820Y-35362D02*
G03*
X282033Y-36149I0J-787D01*
G01*
X293056Y-38511D02*
G03*
X293844Y-37724I0J787D01*
G01*
X265596Y-19889D02*
G03*
X266383Y-20677I787J0D01*
G01*
X274611Y-42409D02*
G03*
X272249Y-40047I-2362J0D01*
G01*
X294531Y-12212D02*
G03*
X294925Y-11818I0J394D01*
G01*
X305871Y-51110D02*
G03*
X304690Y-49929I-1181J0D01*
G01*
X303686Y-37724D02*
G03*
X304474Y-38511I787J0D01*
G01*
X285182Y-36149D02*
G03*
X284395Y-35362I-787J0D01*
G01*
X297387Y-38511D02*
G03*
X298174Y-37724I0J787D01*
G01*
X267958Y-17527D02*
G03*
X267171Y-16740I-787J0D01*
G01*
X283508Y-11818D02*
G03*
X283902Y-12212I394J0D01*
G01*
X17461Y-127426D02*
G03*
X17462Y-142652I-5257J-7614D01*
G01*
X30906Y-164665D02*
X37598D01*
X30906Y-168405D02*
X37598D01*
X30906D02*
Y-164665D01*
X37598Y-168405D02*
Y-164665D01*
X6990Y-114272D02*
X13683D01*
X6990Y-118012D02*
X13683D01*
X6990D02*
Y-114272D01*
X13683Y-118012D02*
Y-114272D01*
X10335Y-165845D02*
Y-159152D01*
X14075Y-165845D02*
Y-159152D01*
X10335Y-165845D02*
X14075D01*
X10335Y-159152D02*
X14075D01*
X249330Y-45217D02*
Y-38524D01*
X253070Y-45217D02*
Y-38524D01*
X249330Y-45217D02*
X253070D01*
X249330Y-38524D02*
X253070D01*
X114930Y-47618D02*
Y-40925D01*
X118670Y-47618D02*
Y-40925D01*
X114930Y-47618D02*
X118670D01*
X114930Y-40925D02*
X118670D01*
X203270Y-201013D02*
Y-194320D01*
X199530Y-201013D02*
Y-194320D01*
X203270D01*
X199530Y-201013D02*
X203270D01*
X192424Y-187782D02*
X197936D01*
X192424Y-175971D02*
X197936D01*
Y-187782D02*
Y-175971D01*
X192424Y-187782D02*
Y-175971D01*
X8661Y-103248D02*
Y-98327D01*
X14173Y-103248D02*
Y-98327D01*
X7480Y-103248D02*
Y-98327D01*
X15354Y-103248D02*
Y-98327D01*
X7480D02*
X15354D01*
X7480Y-103248D02*
X15354D01*
X295812Y-34378D02*
X297387D01*
X295930Y-8652D02*
Y-8305D01*
X309415Y-49929D02*
X309828D01*
X274277Y-11818D02*
X283508D01*
X287269Y-10244D02*
Y-9406D01*
X304592Y-8003D02*
Y-6504D01*
X291600Y-9406D02*
Y-8652D01*
X303686Y-37724D02*
Y-36149D01*
X304218Y-50716D02*
X305804D01*
X288608Y-10244D02*
X291600D01*
X282033Y-37724D02*
Y-36149D01*
X309828Y-49929D02*
X310694D01*
X282938Y-8003D02*
Y-6504D01*
X305930Y-9406D02*
Y-8652D01*
X287269Y-8305D02*
Y-8003D01*
X294925Y-11818D02*
X304434D01*
X297269Y-8652D02*
Y-8305D01*
X274277Y-6504D02*
X275615D01*
X300143Y-35362D02*
X301718D01*
X282938Y-9406D02*
Y-8652D01*
X279946Y-10244D02*
X282938D01*
X297269D02*
Y-9406D01*
X300261D02*
Y-8652D01*
X284277Y-9406D02*
Y-8652D01*
X280852Y-38511D02*
Y-36937D01*
X291600Y-8003D02*
Y-6504D01*
X293844Y-37724D02*
Y-36149D01*
X288608Y-8305D02*
Y-8003D01*
X305871Y-51189D02*
Y-51110D01*
X288608Y-8652D02*
Y-8305D01*
X305930Y-10244D02*
X306363D01*
X275871Y-51094D02*
X275989D01*
X288608Y-9406D02*
Y-8652D01*
X263647Y-49929D02*
Y-6307D01*
X264513Y-49929D02*
X264848D01*
X291600Y-8652D02*
Y-8305D01*
X274277Y-8652D02*
Y-8305D01*
X305930D02*
Y-8003D01*
X292938Y-8652D02*
Y-8305D01*
X275615Y-9406D02*
Y-8652D01*
X300261D02*
Y-8305D01*
X284277Y-8652D02*
Y-8305D01*
X274277Y-8003D02*
Y-6504D01*
X282938Y-10244D02*
Y-9406D01*
X266383Y-20677D02*
X267171D01*
X275615Y-8003D02*
Y-6504D01*
X307584Y-6307D02*
X309828D01*
X297269Y-10244D02*
X300261D01*
X304611Y-49929D02*
X304690D01*
X284277Y-10244D02*
X287269D01*
X306836Y-37724D02*
Y-36149D01*
X299356Y-37724D02*
Y-36149D01*
X266541Y-47133D02*
Y-42409D01*
X278608Y-8003D02*
Y-6504D01*
X297269Y-8305D02*
Y-8003D01*
X264848Y-51189D02*
X275871D01*
X300261Y-6504D02*
X301600D01*
Y-8652D02*
Y-8305D01*
X274159Y-38511D02*
X275733D01*
X295930Y-8305D02*
Y-8003D01*
X291481Y-35362D02*
X293056D01*
X301600Y-10244D02*
X304592D01*
X275989Y-51189D02*
Y-51094D01*
X309828Y-6307D02*
X310694D01*
X300261Y-8305D02*
Y-8003D01*
X272308Y-9850D02*
Y-8275D01*
X284277Y-8305D02*
Y-8003D01*
X305930D02*
Y-6504D01*
X302505Y-37724D02*
Y-36149D01*
X308233Y-51189D02*
X310222D01*
X310694Y-49929D02*
Y-6307D01*
X282938Y-8652D02*
Y-8305D01*
X291600Y-10244D02*
Y-9406D01*
X278608Y-10244D02*
Y-9406D01*
X275615Y-8305D02*
Y-8003D01*
X297269D02*
Y-6504D01*
X291481Y-38511D02*
X293056D01*
X275615Y-8652D02*
Y-8305D01*
X263647Y-6307D02*
X264513D01*
X295930Y-6504D02*
X297269D01*
X286363Y-37724D02*
Y-35165D01*
X279946Y-9406D02*
Y-8652D01*
X287269D02*
Y-8305D01*
X295930Y-10244D02*
Y-9406D01*
X273371Y-37724D02*
Y-36149D01*
X266383Y-16740D02*
X267171D01*
X304474Y-35362D02*
X306048D01*
X291600Y-8305D02*
Y-8003D01*
X282820Y-35362D02*
X284395D01*
X264848Y-51189D02*
Y-49929D01*
X279946Y-8652D02*
Y-8305D01*
X310222Y-51189D02*
Y-49929D01*
X274277Y-9406D02*
Y-8652D01*
X266344Y-32567D02*
Y-31385D01*
X292938Y-9406D02*
Y-8652D01*
X287269Y-6504D02*
X288608D01*
X277702Y-38511D02*
Y-36937D01*
X301600Y-8305D02*
Y-8003D01*
X274277Y-10244D02*
Y-9406D01*
X304218Y-51189D02*
Y-50323D01*
X304592Y-6504D02*
X305930D01*
X297269Y-9406D02*
Y-8652D01*
X276521Y-37724D02*
Y-36149D01*
X288608Y-10244D02*
Y-9406D01*
X282820Y-38511D02*
X284395D01*
X272348Y-10244D02*
X274277D01*
X275989Y-51189D02*
X304218D01*
X269493Y-32567D02*
Y-31385D01*
X290694Y-37724D02*
Y-36149D01*
X304592Y-9406D02*
Y-8652D01*
X279946Y-8305D02*
Y-8003D01*
X288608D02*
Y-6504D01*
X267525Y-33748D02*
X268312D01*
X279946Y-10244D02*
Y-9406D01*
X292938Y-8003D02*
Y-6504D01*
X282938Y-8305D02*
Y-8003D01*
X300143Y-38511D02*
X301718D01*
X268115Y-48708D02*
X272249D01*
X308233Y-51189D02*
Y-51110D01*
X291600Y-6504D02*
X292938D01*
X267958Y-19889D02*
Y-17527D01*
X301600Y-8003D02*
Y-6504D01*
X267525Y-30204D02*
X268312D01*
X264119Y-51189D02*
X264848D01*
X275615Y-10244D02*
Y-9406D01*
X301600Y-10244D02*
Y-9406D01*
X300261Y-8003D02*
Y-6504D01*
X275871Y-51189D02*
Y-50323D01*
X275615Y-10244D02*
X278608D01*
X304592Y-8305D02*
Y-8003D01*
X274159Y-35362D02*
X275733D01*
X306403Y-9850D02*
Y-7488D01*
X278608Y-6504D02*
X279946D01*
X278608Y-8652D02*
Y-8305D01*
X274277D02*
Y-8003D01*
X268903Y-40047D02*
X272249D01*
X287269Y-9406D02*
Y-8652D01*
X265596Y-19889D02*
Y-17527D01*
X278489Y-36149D02*
X280064D01*
X263647Y-49929D02*
X264513D01*
X264119Y-51189D02*
Y-49929D01*
X292938Y-10244D02*
Y-9406D01*
X287151Y-38511D02*
X288726D01*
X295930Y-9406D02*
Y-8652D01*
X282938Y-6504D02*
X284277D01*
X298174Y-37724D02*
Y-35165D01*
X300261Y-10244D02*
Y-9406D01*
X289513Y-37724D02*
Y-35165D01*
X305930Y-8652D02*
Y-8305D01*
X284277Y-10244D02*
Y-9406D01*
X278608D02*
Y-8652D01*
X295812Y-38511D02*
X297387D01*
X305930Y-10244D02*
Y-9406D01*
X292938Y-8305D02*
Y-8003D01*
X305871Y-51189D02*
X308233D01*
X295930Y-8003D02*
Y-6504D01*
X279946Y-8003D02*
Y-6504D01*
X304474Y-38511D02*
X306048D01*
X292938Y-10244D02*
X295930D01*
X278489Y-39299D02*
X280064D01*
X295025Y-37724D02*
Y-35165D01*
X304592Y-8652D02*
Y-8305D01*
X264513Y-6307D02*
X270340D01*
X287269Y-8003D02*
Y-6504D01*
X304592Y-10244D02*
Y-9406D01*
X278608Y-8305D02*
Y-8003D01*
X287151Y-34378D02*
X288726D01*
X284277Y-8003D02*
Y-6504D01*
X285182Y-37724D02*
Y-36149D01*
X301600Y-9406D02*
Y-8652D01*
X284295Y-11818D02*
X294138D01*
X274611Y-46346D02*
Y-42409D01*
X164814Y-243261D02*
X173475D01*
X164814Y-237946D02*
X173475D01*
Y-243261D02*
Y-237946D01*
X164814Y-243261D02*
Y-237946D01*
X95436Y-234960D02*
X99176D01*
X95436Y-241652D02*
X99176D01*
Y-234960D01*
X95436Y-241652D02*
Y-234960D01*
X89322Y-234796D02*
X93062D01*
X89322Y-241686D02*
X93062D01*
Y-234796D01*
X89322Y-241686D02*
Y-234796D01*
X219976Y-143390D02*
X226669D01*
X219976Y-139650D02*
X226669D01*
Y-143390D02*
Y-139650D01*
X219976Y-143390D02*
Y-139650D01*
X289449Y-163425D02*
Y-133425D01*
X311968D01*
Y-163425D02*
Y-133425D01*
X289449Y-163425D02*
X311968D01*
X312106Y-129095D02*
Y-69095D01*
X289587Y-129095D02*
X312106D01*
X289587Y-69095D02*
X312106D01*
X289587Y-129095D02*
Y-69095D01*
X229839Y-60827D02*
X232202D01*
X229839Y-65158D02*
X232202D01*
Y-60827D01*
X229839Y-65158D02*
Y-60827D01*
X116671Y-215826D02*
X120412D01*
X116671Y-208937D02*
X120412D01*
X116671Y-215826D02*
Y-208937D01*
X120412Y-215826D02*
Y-208937D01*
X129194Y-208149D02*
X132934D01*
X129194Y-215039D02*
X132934D01*
Y-208149D01*
X129194Y-215039D02*
Y-208149D01*
X136756Y-209013D02*
X139118D01*
X136756Y-213344D02*
X139118D01*
Y-209013D01*
X136756Y-213344D02*
Y-209013D01*
X147117Y-233382D02*
Y-229248D01*
X149283Y-233382D02*
Y-229248D01*
X147117Y-233382D02*
X149283D01*
X147117Y-229248D02*
X149283D01*
X137255Y-234618D02*
X139617D01*
X137255Y-238949D02*
X139617D01*
Y-234618D01*
X137255Y-238949D02*
Y-234618D01*
X152495Y-241686D02*
Y-239521D01*
X156629Y-241686D02*
Y-239521D01*
X152495D02*
X156629D01*
X152495Y-241686D02*
X156629D01*
X129479Y-230170D02*
X133220D01*
X129479Y-236863D02*
X133220D01*
Y-230170D01*
X129479Y-236863D02*
Y-230170D01*
X123574D02*
X127314D01*
X123574Y-236863D02*
X127314D01*
Y-230170D01*
X123574Y-236863D02*
Y-230170D01*
X107494Y-215826D02*
X111234D01*
X107494Y-208937D02*
X111234D01*
X107494Y-215826D02*
Y-208937D01*
X111234Y-215826D02*
Y-208937D01*
X101567Y-266055D02*
X105307D01*
X101567Y-272945D02*
X105307D01*
Y-266055D01*
X101567Y-272945D02*
Y-266055D01*
X93767Y-263439D02*
X97507D01*
X93767Y-256549D02*
X97507D01*
X93767Y-263439D02*
Y-256549D01*
X97507Y-263439D02*
Y-256549D01*
X87075Y-264620D02*
X90816D01*
X87075Y-257730D02*
X90816D01*
X87075Y-264620D02*
Y-257730D01*
X90816Y-264620D02*
Y-257730D01*
X79667Y-264620D02*
X83407D01*
X79667Y-257730D02*
X83407D01*
X79667Y-264620D02*
Y-257730D01*
X83407Y-264620D02*
Y-257730D01*
X72115Y-264620D02*
X75855D01*
X72115Y-257730D02*
X75855D01*
X72115Y-264620D02*
Y-257730D01*
X75855Y-264620D02*
Y-257730D01*
X283480Y-199900D02*
X306000D01*
Y-169900D01*
X283480D02*
X306000D01*
X283480Y-199900D02*
Y-169900D01*
X55866Y-24331D02*
X85866D01*
X55866D02*
Y-1811D01*
X85866D01*
Y-24331D02*
Y-1811D01*
X207400Y-24750D02*
Y-2230D01*
Y-24750D02*
X247400D01*
Y-2230D01*
X207400D02*
X247400D01*
X251153Y-29930D02*
X257846D01*
X251153Y-33670D02*
X257846D01*
X251153D02*
Y-29930D01*
X257846Y-33670D02*
Y-29930D01*
X251242Y-255029D02*
X256557D01*
X251242Y-263691D02*
X256557D01*
Y-255029D01*
X251242Y-263691D02*
Y-255029D01*
X246555Y-263779D02*
Y-255118D01*
X240846Y-263779D02*
Y-255118D01*
X246555D01*
X240846Y-263779D02*
X246555D01*
X227736Y-242342D02*
X244705D01*
X227736Y-225374D02*
X244705D01*
Y-242342D02*
Y-225374D01*
X227736Y-242342D02*
Y-225374D01*
X213103Y-238107D02*
Y-231414D01*
X209363Y-238107D02*
Y-231414D01*
X213103D01*
X209363Y-238107D02*
X213103D01*
X215794Y-238386D02*
Y-231693D01*
X219535Y-238386D02*
Y-231693D01*
X215794Y-238386D02*
X219535D01*
X215794Y-231693D02*
X219535D01*
X98305Y-52770D02*
Y-49030D01*
X105195Y-52770D02*
Y-49030D01*
X98305D02*
X105195D01*
X98305Y-52770D02*
X105195D01*
X219233Y-130004D02*
X225926D01*
X219233Y-126264D02*
X225926D01*
Y-130004D02*
Y-126264D01*
X219233Y-130004D02*
Y-126264D01*
X243642Y-130595D02*
Y-125673D01*
X238131Y-130595D02*
Y-125673D01*
X244824Y-130594D02*
Y-125673D01*
X236950Y-130594D02*
Y-125673D01*
Y-130594D02*
X244824D01*
X236950Y-125673D02*
X244824D01*
X243642Y-143980D02*
Y-139059D01*
X238131Y-143980D02*
Y-139059D01*
X244824Y-143980D02*
Y-139059D01*
X236950Y-143980D02*
Y-139059D01*
Y-143980D02*
X244824D01*
X236950Y-139059D02*
X244824D01*
X243956Y-156386D02*
Y-151465D01*
X238444Y-156386D02*
Y-151465D01*
X245137Y-156386D02*
Y-151464D01*
X237263Y-156386D02*
Y-151464D01*
Y-156386D02*
X245137D01*
X237263Y-151464D02*
X245137D01*
X219976Y-152055D02*
X226669D01*
X219976Y-155795D02*
X226669D01*
X219976D02*
Y-152055D01*
X226669Y-155795D02*
Y-152055D01*
X100030Y-120247D02*
X103770D01*
X100030Y-113554D02*
X103770D01*
X100030Y-120247D02*
Y-113554D01*
X103770Y-120247D02*
Y-113554D01*
X245866Y-55315D02*
X250197D01*
X245866Y-52953D02*
X250197D01*
Y-55315D02*
Y-52953D01*
X245866Y-55315D02*
Y-52953D01*
X252530Y-8155D02*
X256270D01*
X252530Y-15045D02*
X256270D01*
Y-8155D01*
X252530Y-15045D02*
Y-8155D01*
X265030Y-95746D02*
X268770D01*
X265030Y-89053D02*
X268770D01*
X265030Y-95746D02*
Y-89053D01*
X268770Y-95746D02*
Y-89053D01*
X205709Y-85965D02*
X212402D01*
X205709Y-82224D02*
X212402D01*
Y-85965D02*
Y-82224D01*
X205709Y-85965D02*
Y-82224D01*
X206254Y-94070D02*
X212947D01*
X206254Y-90330D02*
X212947D01*
Y-94070D02*
Y-90330D01*
X206254Y-94070D02*
Y-90330D01*
X3760Y-62874D02*
Y-2874D01*
X26280D01*
X3760Y-62874D02*
X26280D01*
Y-2874D01*
X2161Y-90531D02*
X27161D01*
X2161D02*
Y-71122D01*
X27161D01*
Y-90531D02*
Y-71122D01*
X25197Y-109252D02*
X28346D01*
Y-113976D02*
Y-109252D01*
X25197Y-113976D02*
Y-109252D01*
Y-113976D02*
X28346D01*
X17461Y-142652D02*
Y-127427D01*
X202165Y-250098D02*
Y-246358D01*
X208858Y-250098D02*
Y-246358D01*
X202165D02*
X208858D01*
X202165Y-250098D02*
X208858D01*
X226772Y-274311D02*
X235433D01*
X226772Y-280020D02*
X235433D01*
X226772D02*
Y-274311D01*
X235433Y-280020D02*
Y-274311D01*
X202461Y-261027D02*
X209350D01*
X202461Y-257287D02*
X209350D01*
Y-261027D02*
Y-257287D01*
X202461Y-261027D02*
Y-257287D01*
X203642Y-270374D02*
X210531D01*
X203642Y-266634D02*
X210531D01*
Y-270374D02*
Y-266634D01*
X203642Y-270374D02*
Y-266634D01*
D117*
X228877Y-233858D02*
D03*
M02*
