G04*
G04 #@! TF.GenerationSoftware,Altium Limited,Altium Designer,21.1.1 (26)*
G04*
G04 Layer_Color=32896*
%FSLAX25Y25*%
%MOIN*%
G70*
G04*
G04 #@! TF.SameCoordinates,C68D4824-2329-4DC3-A8B2-0020690D2EBA*
G04*
G04*
G04 #@! TF.FilePolarity,Positive*
G04*
G01*
G75*
%ADD13C,0.00500*%
%ADD115R,0.88329X0.39000*%
G36*
X281983Y-83159D02*
X282566D01*
Y-83232D01*
X283004D01*
Y-83305D01*
X283368D01*
Y-83377D01*
X283660D01*
Y-83450D01*
X283952D01*
Y-83523D01*
X284170D01*
Y-83596D01*
X284389D01*
Y-83669D01*
X284608D01*
Y-83742D01*
X284826D01*
Y-83815D01*
X285045D01*
Y-83888D01*
X285191D01*
Y-83961D01*
X285410D01*
Y-84034D01*
X285555D01*
Y-84106D01*
X285701D01*
Y-84179D01*
X285847D01*
Y-84252D01*
X285993D01*
Y-84325D01*
X286139D01*
Y-84398D01*
X286284D01*
Y-84471D01*
X286430D01*
Y-84544D01*
X286503D01*
Y-84617D01*
X286649D01*
Y-84690D01*
X286795D01*
Y-84763D01*
X286867D01*
Y-84835D01*
X287013D01*
Y-84908D01*
X287086D01*
Y-84981D01*
X287232D01*
Y-85054D01*
X287305D01*
Y-85127D01*
X287451D01*
Y-85200D01*
X287524D01*
Y-85273D01*
X287597D01*
Y-85346D01*
X287742D01*
Y-85419D01*
X287815D01*
Y-85491D01*
X287888D01*
Y-85564D01*
X287961D01*
Y-85637D01*
X288107D01*
Y-85710D01*
X288180D01*
Y-85783D01*
X288253D01*
Y-85856D01*
X288326D01*
Y-85929D01*
X288398D01*
Y-86002D01*
X288471D01*
Y-86075D01*
X288617D01*
Y-86147D01*
X288690D01*
Y-86220D01*
X288763D01*
Y-86293D01*
X288836D01*
Y-86366D01*
X288909D01*
Y-86439D01*
X288982D01*
Y-86512D01*
X289054D01*
Y-86585D01*
X289127D01*
Y-86658D01*
X289200D01*
Y-86731D01*
Y-86804D01*
X289273D01*
Y-86876D01*
Y-86949D01*
X289346D01*
Y-87022D01*
Y-87095D01*
Y-87168D01*
Y-87241D01*
Y-87314D01*
X289273D01*
Y-87387D01*
Y-87460D01*
Y-87533D01*
X289200D01*
Y-87606D01*
X289127D01*
Y-87678D01*
X289054D01*
Y-87751D01*
X288836D01*
Y-87824D01*
X288544D01*
Y-87751D01*
X288326D01*
Y-87678D01*
X288253D01*
Y-87606D01*
X288180D01*
Y-87533D01*
X288107D01*
Y-87460D01*
X288034D01*
Y-87387D01*
X287961D01*
Y-87314D01*
X287888D01*
Y-87241D01*
X287815D01*
Y-87168D01*
X287742D01*
Y-87095D01*
X287669D01*
Y-87022D01*
X287597D01*
Y-86949D01*
X287524D01*
Y-86876D01*
X287378D01*
Y-86804D01*
X287305D01*
Y-86731D01*
X287232D01*
Y-86658D01*
X287159D01*
Y-86585D01*
X287086D01*
Y-86512D01*
X286940D01*
Y-86439D01*
X286867D01*
Y-86366D01*
X286795D01*
Y-86293D01*
X286649D01*
Y-86220D01*
X286576D01*
Y-86147D01*
X286430D01*
Y-86075D01*
X286357D01*
Y-86002D01*
X286211D01*
Y-85929D01*
X286139D01*
Y-85856D01*
X285993D01*
Y-85783D01*
X285847D01*
Y-85710D01*
X285774D01*
Y-85637D01*
X285628D01*
Y-85564D01*
X285483D01*
Y-85491D01*
X285337D01*
Y-85419D01*
X285191D01*
Y-85346D01*
X285045D01*
Y-85273D01*
X284899D01*
Y-85200D01*
X284681D01*
Y-85127D01*
X284535D01*
Y-85054D01*
X284316D01*
Y-84981D01*
X284170D01*
Y-84908D01*
X283952D01*
Y-84835D01*
X283660D01*
Y-84763D01*
X283441D01*
Y-84690D01*
X283150D01*
Y-84617D01*
X282785D01*
Y-84544D01*
X282348D01*
Y-84471D01*
X281765D01*
Y-84398D01*
X279942D01*
Y-84471D01*
X279359D01*
Y-84544D01*
X278922D01*
Y-84617D01*
X278557D01*
Y-84690D01*
X278266D01*
Y-84763D01*
X278047D01*
Y-84835D01*
X277755D01*
Y-84908D01*
X277537D01*
Y-84981D01*
X277318D01*
Y-85054D01*
X277172D01*
Y-85127D01*
X276953D01*
Y-85200D01*
X276807D01*
Y-85273D01*
X276662D01*
Y-85346D01*
X276516D01*
Y-85419D01*
X276370D01*
Y-85491D01*
X276224D01*
Y-85564D01*
X276079D01*
Y-85637D01*
X275933D01*
Y-85710D01*
X275787D01*
Y-85783D01*
X275714D01*
Y-85856D01*
X275568D01*
Y-85929D01*
X275495D01*
Y-86002D01*
X275350D01*
Y-86075D01*
X275204D01*
Y-86147D01*
X275131D01*
Y-86220D01*
X275058D01*
Y-86293D01*
X274912D01*
Y-86366D01*
X274839D01*
Y-86439D01*
X274766D01*
Y-86512D01*
X274621D01*
Y-86585D01*
X274548D01*
Y-86658D01*
X274475D01*
Y-86731D01*
X274402D01*
Y-86804D01*
X274256D01*
Y-86876D01*
X274183D01*
Y-86949D01*
X274110D01*
Y-87022D01*
X274037D01*
Y-87095D01*
X273965D01*
Y-87168D01*
X273892D01*
Y-87241D01*
X273819D01*
Y-87314D01*
X273746D01*
Y-87387D01*
X273673D01*
Y-87460D01*
X273600D01*
Y-87533D01*
X273527D01*
Y-87606D01*
X273454D01*
Y-87678D01*
X273381D01*
Y-87751D01*
X273163D01*
Y-87824D01*
X272871D01*
Y-87751D01*
X272652D01*
Y-87678D01*
X272579D01*
Y-87606D01*
X272506D01*
Y-87533D01*
X272434D01*
Y-87460D01*
Y-87387D01*
Y-87314D01*
X272361D01*
Y-87241D01*
Y-87168D01*
Y-87095D01*
Y-87022D01*
Y-86949D01*
X272434D01*
Y-86876D01*
Y-86804D01*
X272506D01*
Y-86731D01*
Y-86658D01*
X272579D01*
Y-86585D01*
X272652D01*
Y-86512D01*
X272725D01*
Y-86439D01*
X272798D01*
Y-86366D01*
X272871D01*
Y-86293D01*
X272944D01*
Y-86220D01*
X273017D01*
Y-86147D01*
X273090D01*
Y-86075D01*
X273236D01*
Y-86002D01*
X273308D01*
Y-85929D01*
X273381D01*
Y-85856D01*
X273454D01*
Y-85783D01*
X273527D01*
Y-85710D01*
X273600D01*
Y-85637D01*
X273746D01*
Y-85564D01*
X273819D01*
Y-85491D01*
X273892D01*
Y-85419D01*
X273965D01*
Y-85346D01*
X274110D01*
Y-85273D01*
X274183D01*
Y-85200D01*
X274256D01*
Y-85127D01*
X274402D01*
Y-85054D01*
X274475D01*
Y-84981D01*
X274621D01*
Y-84908D01*
X274693D01*
Y-84835D01*
X274839D01*
Y-84763D01*
X274912D01*
Y-84690D01*
X275058D01*
Y-84617D01*
X275204D01*
Y-84544D01*
X275277D01*
Y-84471D01*
X275423D01*
Y-84398D01*
X275568D01*
Y-84325D01*
X275714D01*
Y-84252D01*
X275860D01*
Y-84179D01*
X276006D01*
Y-84106D01*
X276151D01*
Y-84034D01*
X276297D01*
Y-83961D01*
X276516D01*
Y-83888D01*
X276662D01*
Y-83815D01*
X276880D01*
Y-83742D01*
X277099D01*
Y-83669D01*
X277318D01*
Y-83596D01*
X277537D01*
Y-83523D01*
X277755D01*
Y-83450D01*
X278047D01*
Y-83377D01*
X278338D01*
Y-83305D01*
X278703D01*
Y-83232D01*
X279140D01*
Y-83159D01*
X279724D01*
Y-83086D01*
X281983D01*
Y-83159D01*
D02*
G37*
G36*
X281910Y-87022D02*
X282348D01*
Y-87095D01*
X282712D01*
Y-87168D01*
X283004D01*
Y-87241D01*
X283223D01*
Y-87314D01*
X283441D01*
Y-87387D01*
X283660D01*
Y-87460D01*
X283806D01*
Y-87533D01*
X284025D01*
Y-87606D01*
X284170D01*
Y-87678D01*
X284316D01*
Y-87751D01*
X284462D01*
Y-87824D01*
X284608D01*
Y-87897D01*
X284753D01*
Y-87970D01*
X284899D01*
Y-88043D01*
X285045D01*
Y-88116D01*
X285118D01*
Y-88189D01*
X285264D01*
Y-88262D01*
X285337D01*
Y-88335D01*
X285483D01*
Y-88407D01*
X285555D01*
Y-88480D01*
X285628D01*
Y-88553D01*
X285774D01*
Y-88626D01*
X285847D01*
Y-88699D01*
X285920D01*
Y-88772D01*
X286066D01*
Y-88845D01*
X286139D01*
Y-88918D01*
X286211D01*
Y-88991D01*
X286284D01*
Y-89064D01*
X286357D01*
Y-89136D01*
X286430D01*
Y-89209D01*
X286503D01*
Y-89282D01*
X286576D01*
Y-89355D01*
X286722D01*
Y-89428D01*
X286795D01*
Y-89501D01*
Y-89574D01*
X286867D01*
Y-89647D01*
Y-89720D01*
X286940D01*
Y-89793D01*
Y-89865D01*
Y-89938D01*
Y-90011D01*
Y-90084D01*
X286867D01*
Y-90157D01*
Y-90230D01*
X286795D01*
Y-90303D01*
X286722D01*
Y-90376D01*
X286649D01*
Y-90449D01*
X286576D01*
Y-90522D01*
X286357D01*
Y-90594D01*
X286139D01*
Y-90522D01*
X285993D01*
Y-90449D01*
X285847D01*
Y-90376D01*
X285774D01*
Y-90303D01*
X285701D01*
Y-90230D01*
X285628D01*
Y-90157D01*
X285555D01*
Y-90084D01*
X285483D01*
Y-90011D01*
X285337D01*
Y-89938D01*
X285264D01*
Y-89865D01*
X285191D01*
Y-89793D01*
X285118D01*
Y-89720D01*
X285045D01*
Y-89647D01*
X284899D01*
Y-89574D01*
X284826D01*
Y-89501D01*
X284681D01*
Y-89428D01*
X284608D01*
Y-89355D01*
X284462D01*
Y-89282D01*
X284389D01*
Y-89209D01*
X284243D01*
Y-89136D01*
X284097D01*
Y-89064D01*
X283952D01*
Y-88991D01*
X283879D01*
Y-88918D01*
X283660D01*
Y-88845D01*
X283514D01*
Y-88772D01*
X283368D01*
Y-88699D01*
X283150D01*
Y-88626D01*
X282931D01*
Y-88553D01*
X282712D01*
Y-88480D01*
X282494D01*
Y-88407D01*
X282129D01*
Y-88335D01*
X281692D01*
Y-88262D01*
X280015D01*
Y-88335D01*
X279578D01*
Y-88407D01*
X279213D01*
Y-88480D01*
X278994D01*
Y-88553D01*
X278776D01*
Y-88626D01*
X278557D01*
Y-88699D01*
X278338D01*
Y-88772D01*
X278193D01*
Y-88845D01*
X278047D01*
Y-88918D01*
X277828D01*
Y-88991D01*
X277755D01*
Y-89064D01*
X277609D01*
Y-89136D01*
X277464D01*
Y-89209D01*
X277318D01*
Y-89282D01*
X277245D01*
Y-89355D01*
X277099D01*
Y-89428D01*
X277026D01*
Y-89501D01*
X276880D01*
Y-89574D01*
X276807D01*
Y-89647D01*
X276662D01*
Y-89720D01*
X276589D01*
Y-89793D01*
X276516D01*
Y-89865D01*
X276443D01*
Y-89938D01*
X276370D01*
Y-90011D01*
X276224D01*
Y-90084D01*
X276151D01*
Y-90157D01*
X276079D01*
Y-90230D01*
X276006D01*
Y-90303D01*
X275933D01*
Y-90376D01*
X275860D01*
Y-90449D01*
X275714D01*
Y-90522D01*
X275495D01*
Y-90594D01*
X275350D01*
Y-90522D01*
X275131D01*
Y-90449D01*
X275058D01*
Y-90376D01*
X274985D01*
Y-90303D01*
X274912D01*
Y-90230D01*
X274839D01*
Y-90157D01*
Y-90084D01*
X274766D01*
Y-90011D01*
Y-89938D01*
Y-89865D01*
Y-89793D01*
Y-89720D01*
X274839D01*
Y-89647D01*
Y-89574D01*
X274912D01*
Y-89501D01*
Y-89428D01*
X274985D01*
Y-89355D01*
X275131D01*
Y-89282D01*
X275204D01*
Y-89209D01*
X275277D01*
Y-89136D01*
X275350D01*
Y-89064D01*
X275423D01*
Y-88991D01*
X275495D01*
Y-88918D01*
X275568D01*
Y-88845D01*
X275641D01*
Y-88772D01*
X275714D01*
Y-88699D01*
X275860D01*
Y-88626D01*
X275933D01*
Y-88553D01*
X276079D01*
Y-88480D01*
X276151D01*
Y-88407D01*
X276224D01*
Y-88335D01*
X276370D01*
Y-88262D01*
X276443D01*
Y-88189D01*
X276589D01*
Y-88116D01*
X276735D01*
Y-88043D01*
X276807D01*
Y-87970D01*
X276953D01*
Y-87897D01*
X277099D01*
Y-87824D01*
X277245D01*
Y-87751D01*
X277391D01*
Y-87678D01*
X277537D01*
Y-87606D01*
X277682D01*
Y-87533D01*
X277901D01*
Y-87460D01*
X278047D01*
Y-87387D01*
X278266D01*
Y-87314D01*
X278484D01*
Y-87241D01*
X278703D01*
Y-87168D01*
X278994D01*
Y-87095D01*
X279359D01*
Y-87022D01*
X279796D01*
Y-86949D01*
X281910D01*
Y-87022D01*
D02*
G37*
G36*
X281473Y-90886D02*
X281838D01*
Y-90959D01*
X282056D01*
Y-91032D01*
X282275D01*
Y-91105D01*
X282494D01*
Y-91177D01*
X282639D01*
Y-91250D01*
X282785D01*
Y-91323D01*
X282931D01*
Y-91396D01*
X283077D01*
Y-91469D01*
X283223D01*
Y-91542D01*
X283295D01*
Y-91615D01*
X283441D01*
Y-91688D01*
X283514D01*
Y-91761D01*
X283660D01*
Y-91834D01*
X283733D01*
Y-91906D01*
X283806D01*
Y-91979D01*
X283879D01*
Y-92052D01*
X283952D01*
Y-92125D01*
X284025D01*
Y-92198D01*
X284097D01*
Y-92271D01*
X284170D01*
Y-92344D01*
X284243D01*
Y-92417D01*
Y-92490D01*
Y-92563D01*
Y-92636D01*
Y-92708D01*
Y-92781D01*
Y-92854D01*
Y-92927D01*
X284170D01*
Y-93000D01*
Y-93073D01*
X284097D01*
Y-93146D01*
X284025D01*
Y-93219D01*
X283879D01*
Y-93292D01*
X283368D01*
Y-93219D01*
X283223D01*
Y-93146D01*
X283150D01*
Y-93073D01*
X283077D01*
Y-93000D01*
X282931D01*
Y-92927D01*
X282858D01*
Y-92854D01*
X282785D01*
Y-92781D01*
X282712D01*
Y-92708D01*
X282566D01*
Y-92636D01*
X282421D01*
Y-92563D01*
X282348D01*
Y-92490D01*
X282202D01*
Y-92417D01*
X281983D01*
Y-92344D01*
X281838D01*
Y-92271D01*
X281619D01*
Y-92198D01*
X281254D01*
Y-92125D01*
X280380D01*
Y-92198D01*
X280015D01*
Y-92271D01*
X279796D01*
Y-92344D01*
X279651D01*
Y-92417D01*
X279432D01*
Y-92490D01*
X279286D01*
Y-92563D01*
X279213D01*
Y-92636D01*
X279067D01*
Y-92708D01*
X278994D01*
Y-92781D01*
X278849D01*
Y-92854D01*
X278776D01*
Y-92927D01*
X278703D01*
Y-93000D01*
X278630D01*
Y-93073D01*
X278557D01*
Y-93146D01*
X278411D01*
Y-93219D01*
X278266D01*
Y-93292D01*
X277755D01*
Y-93219D01*
X277609D01*
Y-93146D01*
X277537D01*
Y-93073D01*
X277464D01*
Y-93000D01*
Y-92927D01*
X277391D01*
Y-92854D01*
Y-92781D01*
Y-92708D01*
Y-92636D01*
Y-92563D01*
Y-92490D01*
Y-92417D01*
X277464D01*
Y-92344D01*
Y-92271D01*
X277537D01*
Y-92198D01*
X277609D01*
Y-92125D01*
X277682D01*
Y-92052D01*
X277755D01*
Y-91979D01*
X277828D01*
Y-91906D01*
X277901D01*
Y-91834D01*
X278047D01*
Y-91761D01*
X278120D01*
Y-91688D01*
X278193D01*
Y-91615D01*
X278338D01*
Y-91542D01*
X278411D01*
Y-91469D01*
X278557D01*
Y-91396D01*
X278703D01*
Y-91323D01*
X278849D01*
Y-91250D01*
X278994D01*
Y-91177D01*
X279140D01*
Y-91105D01*
X279359D01*
Y-91032D01*
X279578D01*
Y-90959D01*
X279796D01*
Y-90886D01*
X280161D01*
Y-90813D01*
X281473D01*
Y-90886D01*
D02*
G37*
G36*
X280963Y-94895D02*
X281254D01*
Y-94968D01*
X281400D01*
Y-95041D01*
X281473D01*
Y-95114D01*
X281546D01*
Y-95187D01*
X281619D01*
Y-95260D01*
X281692D01*
Y-95333D01*
X281765D01*
Y-95406D01*
Y-95478D01*
X281838D01*
Y-95551D01*
Y-95624D01*
X281910D01*
Y-95697D01*
Y-95770D01*
Y-95843D01*
Y-95916D01*
Y-95989D01*
Y-96062D01*
Y-96135D01*
Y-96207D01*
X281838D01*
Y-96280D01*
Y-96353D01*
Y-96426D01*
X281765D01*
Y-96499D01*
Y-96572D01*
X281692D01*
Y-96645D01*
X281619D01*
Y-96718D01*
X281546D01*
Y-96791D01*
X281473D01*
Y-96864D01*
X281327D01*
Y-96937D01*
X281181D01*
Y-97009D01*
X280452D01*
Y-96937D01*
X280307D01*
Y-96864D01*
X280161D01*
Y-96791D01*
X280088D01*
Y-96718D01*
X280015D01*
Y-96645D01*
X279942D01*
Y-96572D01*
X279869D01*
Y-96499D01*
Y-96426D01*
X279796D01*
Y-96353D01*
Y-96280D01*
Y-96207D01*
X279724D01*
Y-96135D01*
Y-96062D01*
Y-95989D01*
Y-95916D01*
Y-95843D01*
Y-95770D01*
Y-95697D01*
X279796D01*
Y-95624D01*
Y-95551D01*
Y-95478D01*
X279869D01*
Y-95406D01*
Y-95333D01*
X279942D01*
Y-95260D01*
X280015D01*
Y-95187D01*
X280088D01*
Y-95114D01*
X280161D01*
Y-95041D01*
X280234D01*
Y-94968D01*
X280380D01*
Y-94895D01*
X280671D01*
Y-94823D01*
X280963D01*
Y-94895D01*
D02*
G37*
G36*
X267549Y-90376D02*
X268205D01*
Y-90449D01*
X268716D01*
Y-90522D01*
X269080D01*
Y-90594D01*
X269299D01*
Y-90667D01*
X269591D01*
Y-90740D01*
X269882D01*
Y-90813D01*
X270101D01*
Y-90886D01*
X270247D01*
Y-90959D01*
X270465D01*
Y-91032D01*
X270684D01*
Y-91105D01*
X270830D01*
Y-91177D01*
X270976D01*
Y-91250D01*
X271122D01*
Y-91323D01*
X271267D01*
Y-91396D01*
X271413D01*
Y-91469D01*
X271632D01*
Y-91542D01*
X271705D01*
Y-91615D01*
X271850D01*
Y-91688D01*
X271996D01*
Y-91761D01*
X272069D01*
Y-91834D01*
X272215D01*
Y-91906D01*
X272361D01*
Y-91979D01*
X272434D01*
Y-92052D01*
X272579D01*
Y-92125D01*
X272652D01*
Y-92198D01*
X272725D01*
Y-92271D01*
X272871D01*
Y-92344D01*
X272944D01*
Y-92417D01*
X273017D01*
Y-92490D01*
X273163D01*
Y-92563D01*
X273236D01*
Y-92636D01*
X273308D01*
Y-92708D01*
X273381D01*
Y-92781D01*
X273454D01*
Y-92854D01*
X273527D01*
Y-92927D01*
X273600D01*
Y-93000D01*
X273746D01*
Y-93073D01*
X273819D01*
Y-93146D01*
X273892D01*
Y-93219D01*
X273965D01*
Y-93292D01*
X274037D01*
Y-93365D01*
X274110D01*
Y-93437D01*
X274183D01*
Y-93510D01*
X274256D01*
Y-93583D01*
Y-93656D01*
X274329D01*
Y-93729D01*
X274402D01*
Y-93802D01*
X274475D01*
Y-93875D01*
X274548D01*
Y-93948D01*
X274621D01*
Y-94021D01*
X274693D01*
Y-94094D01*
Y-94166D01*
X274766D01*
Y-94239D01*
X274839D01*
Y-94312D01*
X274912D01*
Y-94385D01*
Y-94458D01*
X274985D01*
Y-94531D01*
X275058D01*
Y-94604D01*
X275131D01*
Y-94677D01*
Y-94750D01*
X275204D01*
Y-94823D01*
X275277D01*
Y-94895D01*
Y-94968D01*
X275350D01*
Y-95041D01*
X275423D01*
Y-95114D01*
Y-95187D01*
X275495D01*
Y-95260D01*
Y-95333D01*
X275568D01*
Y-95406D01*
X275641D01*
Y-95478D01*
Y-95551D01*
X275714D01*
Y-95624D01*
Y-95697D01*
X275787D01*
Y-95770D01*
Y-95843D01*
X275860D01*
Y-95916D01*
Y-95989D01*
X275933D01*
Y-96062D01*
Y-96135D01*
X276006D01*
Y-96207D01*
Y-96280D01*
X276079D01*
Y-96353D01*
Y-96426D01*
X276151D01*
Y-96499D01*
Y-96572D01*
Y-96645D01*
X276224D01*
Y-96718D01*
Y-96791D01*
X276297D01*
Y-96864D01*
Y-96937D01*
Y-97009D01*
X276370D01*
Y-97082D01*
Y-97155D01*
Y-97228D01*
X276443D01*
Y-97301D01*
Y-97374D01*
Y-97447D01*
X276516D01*
Y-97520D01*
Y-97593D01*
Y-97666D01*
X276589D01*
Y-97738D01*
Y-97811D01*
Y-97884D01*
Y-97957D01*
X276662D01*
Y-98030D01*
Y-98103D01*
Y-98176D01*
Y-98249D01*
X276735D01*
Y-98322D01*
Y-98395D01*
Y-98467D01*
Y-98540D01*
Y-98613D01*
Y-98686D01*
X276807D01*
Y-98759D01*
Y-98832D01*
Y-98905D01*
Y-98978D01*
Y-99051D01*
Y-99124D01*
X276880D01*
Y-99196D01*
Y-99269D01*
Y-99342D01*
Y-99415D01*
Y-99488D01*
Y-99561D01*
Y-99634D01*
Y-99707D01*
Y-99780D01*
Y-99853D01*
Y-99925D01*
Y-99998D01*
Y-100071D01*
X276953D01*
Y-100144D01*
Y-100217D01*
Y-100290D01*
Y-100363D01*
Y-100436D01*
Y-100509D01*
Y-100581D01*
Y-100654D01*
Y-100727D01*
Y-100800D01*
Y-100873D01*
Y-100946D01*
Y-101019D01*
Y-101092D01*
Y-101165D01*
Y-101237D01*
Y-101310D01*
Y-101383D01*
Y-101456D01*
Y-101529D01*
Y-101602D01*
Y-101675D01*
Y-101748D01*
Y-101821D01*
Y-101894D01*
Y-101967D01*
Y-102039D01*
Y-102112D01*
Y-102185D01*
Y-102258D01*
Y-102331D01*
Y-102404D01*
Y-102477D01*
Y-102550D01*
Y-102623D01*
Y-102696D01*
Y-102768D01*
Y-102841D01*
Y-102914D01*
Y-102987D01*
Y-103060D01*
Y-103133D01*
Y-103206D01*
Y-103279D01*
Y-103352D01*
Y-103425D01*
Y-103497D01*
Y-103570D01*
Y-103643D01*
Y-103716D01*
Y-103789D01*
Y-103862D01*
Y-103935D01*
Y-104008D01*
Y-104081D01*
Y-104154D01*
Y-104226D01*
Y-104299D01*
Y-104372D01*
Y-104445D01*
Y-104518D01*
Y-104591D01*
Y-104664D01*
Y-104737D01*
Y-104810D01*
Y-104883D01*
Y-104955D01*
Y-105028D01*
Y-105101D01*
Y-105174D01*
Y-105247D01*
Y-105320D01*
Y-105393D01*
Y-105466D01*
Y-105539D01*
Y-105611D01*
Y-105684D01*
Y-105757D01*
Y-105830D01*
Y-105903D01*
Y-105976D01*
Y-106049D01*
Y-106122D01*
Y-106195D01*
Y-106267D01*
Y-106340D01*
Y-106413D01*
Y-106486D01*
Y-106559D01*
Y-106632D01*
Y-106705D01*
Y-106778D01*
Y-106851D01*
Y-106924D01*
Y-106997D01*
Y-107069D01*
Y-107142D01*
Y-107215D01*
Y-107288D01*
Y-107361D01*
Y-107434D01*
Y-107507D01*
Y-107580D01*
Y-107653D01*
Y-107726D01*
Y-107798D01*
Y-107871D01*
Y-107944D01*
Y-108017D01*
Y-108090D01*
Y-108163D01*
Y-108236D01*
Y-108309D01*
Y-108382D01*
Y-108455D01*
Y-108527D01*
Y-108600D01*
Y-108673D01*
Y-108746D01*
Y-108819D01*
Y-108892D01*
Y-108965D01*
Y-109038D01*
Y-109111D01*
Y-109184D01*
Y-109256D01*
Y-109329D01*
Y-109402D01*
Y-109475D01*
Y-109548D01*
Y-109621D01*
Y-109694D01*
Y-109767D01*
Y-109840D01*
Y-109913D01*
Y-109985D01*
Y-110058D01*
Y-110131D01*
Y-110204D01*
Y-110277D01*
Y-110350D01*
Y-110423D01*
Y-110496D01*
Y-110569D01*
Y-110642D01*
Y-110714D01*
Y-110787D01*
Y-110860D01*
Y-110933D01*
Y-111006D01*
Y-111079D01*
Y-111152D01*
Y-111225D01*
Y-111298D01*
Y-111370D01*
Y-111443D01*
Y-111516D01*
Y-111589D01*
Y-111662D01*
Y-111735D01*
Y-111808D01*
Y-111881D01*
Y-111954D01*
Y-112027D01*
Y-112099D01*
Y-112172D01*
Y-112245D01*
Y-112318D01*
Y-112391D01*
Y-112464D01*
Y-112537D01*
Y-112610D01*
Y-112683D01*
Y-112756D01*
Y-112828D01*
Y-112901D01*
Y-112974D01*
Y-113047D01*
Y-113120D01*
Y-113193D01*
Y-113266D01*
Y-113339D01*
Y-113412D01*
Y-113485D01*
Y-113557D01*
Y-113630D01*
Y-113703D01*
Y-113776D01*
Y-113849D01*
Y-113922D01*
Y-113995D01*
Y-114068D01*
Y-114141D01*
Y-114214D01*
Y-114286D01*
Y-114359D01*
Y-114432D01*
Y-114505D01*
Y-114578D01*
Y-114651D01*
Y-114724D01*
Y-114797D01*
Y-114870D01*
Y-114943D01*
Y-115015D01*
Y-115088D01*
Y-115161D01*
Y-115234D01*
Y-115307D01*
Y-115380D01*
Y-115453D01*
Y-115526D01*
Y-115599D01*
Y-115672D01*
Y-115744D01*
Y-115817D01*
Y-115890D01*
Y-115963D01*
Y-116036D01*
Y-116109D01*
Y-116182D01*
Y-116255D01*
Y-116328D01*
Y-116400D01*
Y-116473D01*
Y-116546D01*
Y-116619D01*
Y-116692D01*
Y-116765D01*
Y-116838D01*
Y-116911D01*
Y-116984D01*
Y-117057D01*
Y-117129D01*
Y-117202D01*
X278484D01*
Y-117275D01*
X278776D01*
Y-117348D01*
X278922D01*
Y-117421D01*
X279067D01*
Y-117494D01*
X279213D01*
Y-117567D01*
X279286D01*
Y-117640D01*
X279359D01*
Y-117713D01*
X279432D01*
Y-117786D01*
X279578D01*
Y-117858D01*
Y-117931D01*
X279651D01*
Y-118004D01*
X279724D01*
Y-118077D01*
X279796D01*
Y-118150D01*
Y-118223D01*
X279869D01*
Y-118296D01*
X279942D01*
Y-118369D01*
Y-118442D01*
X280015D01*
Y-118515D01*
Y-118587D01*
Y-118660D01*
X280088D01*
Y-118733D01*
Y-118806D01*
Y-118879D01*
Y-118952D01*
Y-119025D01*
X280161D01*
Y-119098D01*
Y-119171D01*
Y-119244D01*
Y-119316D01*
Y-119389D01*
Y-119462D01*
Y-119535D01*
Y-119608D01*
Y-119681D01*
Y-119754D01*
Y-119827D01*
Y-119900D01*
Y-119973D01*
Y-120045D01*
Y-120118D01*
Y-120191D01*
Y-120264D01*
Y-120337D01*
Y-120410D01*
Y-120483D01*
Y-120556D01*
Y-120628D01*
Y-120701D01*
Y-120774D01*
Y-120847D01*
Y-120920D01*
Y-120993D01*
Y-121066D01*
Y-121139D01*
Y-121212D01*
Y-121285D01*
Y-121358D01*
Y-121430D01*
Y-121503D01*
Y-121576D01*
Y-121649D01*
Y-121722D01*
Y-121795D01*
Y-121868D01*
Y-121941D01*
Y-122014D01*
Y-122087D01*
Y-122159D01*
Y-122232D01*
Y-122305D01*
Y-122378D01*
Y-122451D01*
Y-122524D01*
Y-122597D01*
Y-122670D01*
Y-122743D01*
Y-122816D01*
Y-122888D01*
Y-122961D01*
Y-123034D01*
Y-123107D01*
Y-123180D01*
Y-123253D01*
Y-123326D01*
Y-123399D01*
Y-123472D01*
Y-123545D01*
Y-123617D01*
Y-123690D01*
Y-123763D01*
Y-123836D01*
Y-123909D01*
Y-123982D01*
Y-124055D01*
Y-124128D01*
Y-124201D01*
Y-124274D01*
Y-124346D01*
Y-124419D01*
Y-124492D01*
Y-124565D01*
Y-124638D01*
Y-124711D01*
Y-124784D01*
Y-124857D01*
Y-124930D01*
Y-125003D01*
Y-125075D01*
Y-125148D01*
Y-125221D01*
Y-125294D01*
Y-125367D01*
Y-125440D01*
Y-125513D01*
Y-125586D01*
Y-125659D01*
Y-125731D01*
Y-125804D01*
X280088D01*
Y-125877D01*
Y-125950D01*
Y-126023D01*
Y-126096D01*
X280015D01*
Y-126169D01*
Y-126242D01*
Y-126315D01*
X279942D01*
Y-126388D01*
Y-126460D01*
X279869D01*
Y-126533D01*
Y-126606D01*
X279796D01*
Y-126679D01*
Y-126752D01*
X279724D01*
Y-126825D01*
X279651D01*
Y-126898D01*
X279578D01*
Y-126971D01*
X279505D01*
Y-127044D01*
X279432D01*
Y-127117D01*
X279359D01*
Y-127189D01*
X279286D01*
Y-127262D01*
X279140D01*
Y-127335D01*
X278994D01*
Y-127408D01*
X278849D01*
Y-127481D01*
X278630D01*
Y-127554D01*
X278411D01*
Y-127627D01*
X268643D01*
Y-127554D01*
X268278D01*
Y-127481D01*
X268133D01*
Y-127408D01*
X267987D01*
Y-127335D01*
X267841D01*
Y-127262D01*
X267768D01*
Y-127189D01*
X267622D01*
Y-127117D01*
X267549D01*
Y-127044D01*
X267477D01*
Y-126971D01*
X267404D01*
Y-126898D01*
X267331D01*
Y-126825D01*
X267258D01*
Y-126752D01*
X267185D01*
Y-126679D01*
X255375D01*
Y-126606D01*
X255011D01*
Y-126533D01*
X254792D01*
Y-126460D01*
X254646D01*
Y-126388D01*
X254501D01*
Y-126315D01*
X254428D01*
Y-126242D01*
X254282D01*
Y-126169D01*
X254209D01*
Y-126096D01*
X254136D01*
Y-126023D01*
X254063D01*
Y-125950D01*
X253990D01*
Y-125877D01*
X253917D01*
Y-125804D01*
Y-125731D01*
X253844D01*
Y-125659D01*
X253772D01*
Y-125586D01*
Y-125513D01*
X253699D01*
Y-125440D01*
Y-125367D01*
X253626D01*
Y-125294D01*
Y-125221D01*
Y-125148D01*
X253553D01*
Y-125075D01*
Y-125003D01*
Y-124930D01*
Y-124857D01*
X253480D01*
Y-124784D01*
Y-124711D01*
Y-124638D01*
Y-124565D01*
Y-124492D01*
Y-124419D01*
Y-124346D01*
Y-124274D01*
Y-124201D01*
Y-124128D01*
Y-124055D01*
Y-123982D01*
Y-123909D01*
Y-123836D01*
Y-123763D01*
Y-123690D01*
Y-123617D01*
Y-123545D01*
Y-123472D01*
Y-123399D01*
Y-123326D01*
Y-123253D01*
Y-123180D01*
Y-123107D01*
Y-123034D01*
Y-122961D01*
Y-122888D01*
Y-122816D01*
Y-122743D01*
Y-122670D01*
Y-122597D01*
Y-122524D01*
Y-122451D01*
Y-122378D01*
Y-122305D01*
Y-122232D01*
Y-122159D01*
Y-122087D01*
Y-122014D01*
Y-121941D01*
Y-121868D01*
Y-121795D01*
Y-121722D01*
Y-121649D01*
Y-121576D01*
Y-121503D01*
Y-121430D01*
Y-121358D01*
Y-121285D01*
Y-121212D01*
Y-121139D01*
Y-121066D01*
Y-120993D01*
Y-120920D01*
Y-120847D01*
Y-120774D01*
Y-120701D01*
Y-120628D01*
Y-120556D01*
Y-120483D01*
Y-120410D01*
Y-120337D01*
Y-120264D01*
Y-120191D01*
Y-120118D01*
Y-120045D01*
Y-119973D01*
X253553D01*
Y-119900D01*
Y-119827D01*
Y-119754D01*
Y-119681D01*
X253626D01*
Y-119608D01*
Y-119535D01*
Y-119462D01*
X253699D01*
Y-119389D01*
Y-119316D01*
X253772D01*
Y-119244D01*
Y-119171D01*
X253844D01*
Y-119098D01*
Y-119025D01*
X253917D01*
Y-118952D01*
X253990D01*
Y-118879D01*
X254063D01*
Y-118806D01*
X254136D01*
Y-118733D01*
X254209D01*
Y-118660D01*
X254282D01*
Y-118587D01*
X254355D01*
Y-118515D01*
X254501D01*
Y-118442D01*
X254573D01*
Y-118369D01*
X254719D01*
Y-118296D01*
X254938D01*
Y-118223D01*
X255157D01*
Y-118150D01*
X256687D01*
Y-118077D01*
Y-118004D01*
Y-117931D01*
Y-117858D01*
Y-117786D01*
Y-117713D01*
Y-117640D01*
Y-117567D01*
Y-117494D01*
Y-117421D01*
Y-117348D01*
Y-117275D01*
Y-117202D01*
Y-117129D01*
Y-117057D01*
Y-116984D01*
Y-116911D01*
Y-116838D01*
Y-116765D01*
Y-116692D01*
Y-116619D01*
Y-116546D01*
Y-116473D01*
Y-116400D01*
Y-116328D01*
Y-116255D01*
Y-116182D01*
Y-116109D01*
Y-116036D01*
Y-115963D01*
Y-115890D01*
Y-115817D01*
Y-115744D01*
Y-115672D01*
Y-115599D01*
Y-115526D01*
Y-115453D01*
Y-115380D01*
Y-115307D01*
Y-115234D01*
Y-115161D01*
Y-115088D01*
Y-115015D01*
Y-114943D01*
Y-114870D01*
Y-114797D01*
Y-114724D01*
Y-114651D01*
Y-114578D01*
Y-114505D01*
Y-114432D01*
Y-114359D01*
Y-114286D01*
Y-114214D01*
Y-114141D01*
Y-114068D01*
Y-113995D01*
Y-113922D01*
Y-113849D01*
Y-113776D01*
Y-113703D01*
Y-113630D01*
Y-113557D01*
Y-113485D01*
Y-113412D01*
Y-113339D01*
Y-113266D01*
Y-113193D01*
Y-113120D01*
Y-113047D01*
Y-112974D01*
Y-112901D01*
Y-112828D01*
Y-112756D01*
Y-112683D01*
Y-112610D01*
Y-112537D01*
Y-112464D01*
Y-112391D01*
Y-112318D01*
Y-112245D01*
Y-112172D01*
Y-112099D01*
Y-112027D01*
Y-111954D01*
Y-111881D01*
Y-111808D01*
Y-111735D01*
Y-111662D01*
Y-111589D01*
Y-111516D01*
Y-111443D01*
Y-111370D01*
Y-111298D01*
Y-111225D01*
Y-111152D01*
Y-111079D01*
Y-111006D01*
Y-110933D01*
Y-110860D01*
Y-110787D01*
Y-110714D01*
Y-110642D01*
Y-110569D01*
Y-110496D01*
Y-110423D01*
Y-110350D01*
Y-110277D01*
Y-110204D01*
Y-110131D01*
Y-110058D01*
Y-109985D01*
Y-109913D01*
Y-109840D01*
Y-109767D01*
Y-109694D01*
Y-109621D01*
Y-109548D01*
Y-109475D01*
Y-109402D01*
Y-109329D01*
Y-109256D01*
Y-109184D01*
Y-109111D01*
Y-109038D01*
Y-108965D01*
Y-108892D01*
Y-108819D01*
Y-108746D01*
Y-108673D01*
Y-108600D01*
Y-108527D01*
Y-108455D01*
Y-108382D01*
Y-108309D01*
Y-108236D01*
Y-108163D01*
Y-108090D01*
Y-108017D01*
Y-107944D01*
Y-107871D01*
Y-107798D01*
Y-107726D01*
Y-107653D01*
Y-107580D01*
Y-107507D01*
Y-107434D01*
Y-107361D01*
Y-107288D01*
Y-107215D01*
Y-107142D01*
Y-107069D01*
Y-106997D01*
Y-106924D01*
Y-106851D01*
Y-106778D01*
Y-106705D01*
Y-106632D01*
Y-106559D01*
Y-106486D01*
Y-106413D01*
Y-106340D01*
Y-106267D01*
Y-106195D01*
Y-106122D01*
Y-106049D01*
Y-105976D01*
Y-105903D01*
Y-105830D01*
Y-105757D01*
Y-105684D01*
Y-105611D01*
Y-105539D01*
Y-105466D01*
Y-105393D01*
Y-105320D01*
Y-105247D01*
Y-105174D01*
Y-105101D01*
Y-105028D01*
Y-104955D01*
Y-104883D01*
Y-104810D01*
Y-104737D01*
Y-104664D01*
Y-104591D01*
Y-104518D01*
Y-104445D01*
Y-104372D01*
Y-104299D01*
Y-104226D01*
Y-104154D01*
Y-104081D01*
Y-104008D01*
Y-103935D01*
Y-103862D01*
Y-103789D01*
Y-103716D01*
Y-103643D01*
Y-103570D01*
Y-103497D01*
Y-103425D01*
Y-103352D01*
Y-103279D01*
Y-103206D01*
Y-103133D01*
Y-103060D01*
Y-102987D01*
Y-102914D01*
Y-102841D01*
Y-102768D01*
Y-102696D01*
Y-102623D01*
Y-102550D01*
Y-102477D01*
Y-102404D01*
Y-102331D01*
Y-102258D01*
Y-102185D01*
Y-102112D01*
Y-102039D01*
Y-101967D01*
Y-101894D01*
Y-101821D01*
Y-101748D01*
Y-101675D01*
Y-101602D01*
Y-101529D01*
Y-101456D01*
Y-101383D01*
Y-101310D01*
Y-101237D01*
Y-101165D01*
Y-101092D01*
Y-101019D01*
Y-100946D01*
Y-100873D01*
Y-100800D01*
Y-100727D01*
Y-100654D01*
Y-100581D01*
Y-100509D01*
Y-100436D01*
Y-100363D01*
Y-100290D01*
Y-100217D01*
Y-100144D01*
Y-100071D01*
Y-99998D01*
X256760D01*
Y-99925D01*
Y-99853D01*
Y-99780D01*
Y-99707D01*
Y-99634D01*
Y-99561D01*
Y-99488D01*
Y-99415D01*
Y-99342D01*
Y-99269D01*
Y-99196D01*
Y-99124D01*
X256833D01*
Y-99051D01*
Y-98978D01*
Y-98905D01*
Y-98832D01*
Y-98759D01*
Y-98686D01*
Y-98613D01*
X256906D01*
Y-98540D01*
Y-98467D01*
Y-98395D01*
Y-98322D01*
Y-98249D01*
X256979D01*
Y-98176D01*
Y-98103D01*
Y-98030D01*
Y-97957D01*
X257052D01*
Y-97884D01*
Y-97811D01*
Y-97738D01*
Y-97666D01*
X257125D01*
Y-97593D01*
Y-97520D01*
Y-97447D01*
X257198D01*
Y-97374D01*
Y-97301D01*
Y-97228D01*
X257271D01*
Y-97155D01*
Y-97082D01*
Y-97009D01*
X257344D01*
Y-96937D01*
Y-96864D01*
Y-96791D01*
X257417D01*
Y-96718D01*
Y-96645D01*
X257489D01*
Y-96572D01*
Y-96499D01*
Y-96426D01*
X257562D01*
Y-96353D01*
Y-96280D01*
X257635D01*
Y-96207D01*
Y-96135D01*
X257708D01*
Y-96062D01*
Y-95989D01*
X257781D01*
Y-95916D01*
Y-95843D01*
X257854D01*
Y-95770D01*
Y-95697D01*
X257927D01*
Y-95624D01*
Y-95551D01*
X258000D01*
Y-95478D01*
Y-95406D01*
X258073D01*
Y-95333D01*
X258145D01*
Y-95260D01*
Y-95187D01*
X258218D01*
Y-95114D01*
Y-95041D01*
X258291D01*
Y-94968D01*
X258364D01*
Y-94895D01*
Y-94823D01*
X258437D01*
Y-94750D01*
X258510D01*
Y-94677D01*
Y-94604D01*
X258583D01*
Y-94531D01*
X258656D01*
Y-94458D01*
X258729D01*
Y-94385D01*
Y-94312D01*
X258802D01*
Y-94239D01*
X258875D01*
Y-94166D01*
Y-94094D01*
X258947D01*
Y-94021D01*
X259020D01*
Y-93948D01*
X259093D01*
Y-93875D01*
X259166D01*
Y-93802D01*
X259239D01*
Y-93729D01*
X259312D01*
Y-93656D01*
X259385D01*
Y-93583D01*
Y-93510D01*
X259458D01*
Y-93437D01*
X259531D01*
Y-93365D01*
X259604D01*
Y-93292D01*
X259676D01*
Y-93219D01*
X259749D01*
Y-93146D01*
X259822D01*
Y-93073D01*
X259895D01*
Y-93000D01*
X260041D01*
Y-92927D01*
X260114D01*
Y-92854D01*
X260187D01*
Y-92781D01*
X260260D01*
Y-92708D01*
X260332D01*
Y-92636D01*
X260405D01*
Y-92563D01*
X260478D01*
Y-92490D01*
X260624D01*
Y-92417D01*
X260697D01*
Y-92344D01*
X260770D01*
Y-92271D01*
X260916D01*
Y-92198D01*
X260988D01*
Y-92125D01*
X261062D01*
Y-92052D01*
X261207D01*
Y-91979D01*
X261280D01*
Y-91906D01*
X261426D01*
Y-91834D01*
X261572D01*
Y-91761D01*
X261645D01*
Y-91688D01*
X261790D01*
Y-91615D01*
X261936D01*
Y-91542D01*
X262009D01*
Y-91469D01*
X262228D01*
Y-91396D01*
X262374D01*
Y-91323D01*
X262519D01*
Y-91250D01*
X262665D01*
Y-91177D01*
X262811D01*
Y-91105D01*
X262957D01*
Y-91032D01*
X263176D01*
Y-90959D01*
X263394D01*
Y-90886D01*
X263540D01*
Y-90813D01*
X263759D01*
Y-90740D01*
X264050D01*
Y-90667D01*
X264342D01*
Y-90594D01*
X264561D01*
Y-90522D01*
X264925D01*
Y-90449D01*
X265435D01*
Y-90376D01*
X266091D01*
Y-90303D01*
X267549D01*
Y-90376D01*
D02*
G37*
%LPC*%
G36*
X267622Y-93510D02*
X266019D01*
Y-93583D01*
X265581D01*
Y-93656D01*
X265217D01*
Y-93729D01*
X264925D01*
Y-93802D01*
X264706D01*
Y-93875D01*
X264488D01*
Y-93948D01*
X264269D01*
Y-94021D01*
X264123D01*
Y-94094D01*
X263977D01*
Y-94166D01*
X263832D01*
Y-94239D01*
X263686D01*
Y-94312D01*
X263540D01*
Y-94385D01*
X263394D01*
Y-94458D01*
X263248D01*
Y-94531D01*
X263176D01*
Y-94604D01*
X263030D01*
Y-94677D01*
X262884D01*
Y-94750D01*
X262811D01*
Y-94823D01*
X262738D01*
Y-94895D01*
X262592D01*
Y-94968D01*
X262519D01*
Y-95041D01*
X262446D01*
Y-95114D01*
X262374D01*
Y-95187D01*
X262301D01*
Y-95260D01*
X262155D01*
Y-95333D01*
X262082D01*
Y-95406D01*
X262009D01*
Y-95478D01*
X261936D01*
Y-95551D01*
X261863D01*
Y-95624D01*
X261790D01*
Y-95697D01*
X261718D01*
Y-95770D01*
Y-95843D01*
X261645D01*
Y-95916D01*
X261572D01*
Y-95989D01*
X261499D01*
Y-96062D01*
X261426D01*
Y-96135D01*
X261353D01*
Y-96207D01*
Y-96280D01*
X261280D01*
Y-96353D01*
X261207D01*
Y-96426D01*
X261134D01*
Y-96499D01*
Y-96572D01*
X261062D01*
Y-96645D01*
X260988D01*
Y-96718D01*
Y-96791D01*
X260916D01*
Y-96864D01*
X260843D01*
Y-96937D01*
Y-97009D01*
X260770D01*
Y-97082D01*
Y-97155D01*
X260697D01*
Y-97228D01*
Y-97301D01*
X260624D01*
Y-97374D01*
Y-97447D01*
X260551D01*
Y-97520D01*
Y-97593D01*
X260478D01*
Y-97666D01*
Y-97738D01*
X260405D01*
Y-97811D01*
Y-97884D01*
Y-97957D01*
X260332D01*
Y-98030D01*
Y-98103D01*
Y-98176D01*
X260260D01*
Y-98249D01*
Y-98322D01*
X260187D01*
Y-98395D01*
Y-98467D01*
Y-98540D01*
Y-98613D01*
X260114D01*
Y-98686D01*
Y-98759D01*
Y-98832D01*
Y-98905D01*
X260041D01*
Y-98978D01*
Y-99051D01*
Y-99124D01*
Y-99196D01*
Y-99269D01*
X259968D01*
Y-99342D01*
Y-99415D01*
Y-99488D01*
Y-99561D01*
Y-99634D01*
Y-99707D01*
Y-99780D01*
Y-99853D01*
X259895D01*
Y-99925D01*
Y-99998D01*
Y-100071D01*
Y-100144D01*
Y-100217D01*
Y-100290D01*
Y-100363D01*
Y-100436D01*
Y-100509D01*
Y-100581D01*
Y-100654D01*
Y-100727D01*
Y-100800D01*
Y-100873D01*
Y-100946D01*
Y-101019D01*
Y-101092D01*
Y-101165D01*
Y-101237D01*
Y-101310D01*
Y-101383D01*
Y-101456D01*
Y-101529D01*
Y-101602D01*
Y-101675D01*
Y-101748D01*
Y-101821D01*
Y-101894D01*
Y-101967D01*
Y-102039D01*
Y-102112D01*
Y-102185D01*
Y-102258D01*
Y-102331D01*
Y-102404D01*
Y-102477D01*
Y-102550D01*
Y-102623D01*
Y-102696D01*
Y-102768D01*
Y-102841D01*
Y-102914D01*
Y-102987D01*
Y-103060D01*
Y-103133D01*
Y-103206D01*
Y-103279D01*
Y-103352D01*
Y-103425D01*
Y-103497D01*
Y-103570D01*
Y-103643D01*
Y-103716D01*
Y-103789D01*
Y-103862D01*
Y-103935D01*
Y-104008D01*
Y-104081D01*
Y-104154D01*
Y-104226D01*
Y-104299D01*
Y-104372D01*
Y-104445D01*
Y-104518D01*
Y-104591D01*
Y-104664D01*
Y-104737D01*
Y-104810D01*
Y-104883D01*
Y-104955D01*
Y-105028D01*
Y-105101D01*
Y-105174D01*
Y-105247D01*
Y-105320D01*
Y-105393D01*
Y-105466D01*
Y-105539D01*
Y-105611D01*
Y-105684D01*
Y-105757D01*
Y-105830D01*
Y-105903D01*
Y-105976D01*
Y-106049D01*
Y-106122D01*
Y-106195D01*
Y-106267D01*
Y-106340D01*
Y-106413D01*
Y-106486D01*
Y-106559D01*
Y-106632D01*
Y-106705D01*
Y-106778D01*
Y-106851D01*
Y-106924D01*
Y-106997D01*
Y-107069D01*
Y-107142D01*
Y-107215D01*
Y-107288D01*
Y-107361D01*
Y-107434D01*
Y-107507D01*
Y-107580D01*
Y-107653D01*
Y-107726D01*
Y-107798D01*
Y-107871D01*
Y-107944D01*
Y-108017D01*
Y-108090D01*
Y-108163D01*
Y-108236D01*
Y-108309D01*
Y-108382D01*
Y-108455D01*
Y-108527D01*
Y-108600D01*
Y-108673D01*
Y-108746D01*
Y-108819D01*
Y-108892D01*
Y-108965D01*
Y-109038D01*
Y-109111D01*
Y-109184D01*
Y-109256D01*
Y-109329D01*
Y-109402D01*
Y-109475D01*
Y-109548D01*
Y-109621D01*
Y-109694D01*
Y-109767D01*
Y-109840D01*
Y-109913D01*
Y-109985D01*
Y-110058D01*
Y-110131D01*
Y-110204D01*
Y-110277D01*
Y-110350D01*
Y-110423D01*
Y-110496D01*
Y-110569D01*
Y-110642D01*
Y-110714D01*
Y-110787D01*
Y-110860D01*
Y-110933D01*
Y-111006D01*
Y-111079D01*
Y-111152D01*
Y-111225D01*
Y-111298D01*
Y-111370D01*
Y-111443D01*
Y-111516D01*
Y-111589D01*
Y-111662D01*
Y-111735D01*
Y-111808D01*
Y-111881D01*
Y-111954D01*
Y-112027D01*
Y-112099D01*
Y-112172D01*
Y-112245D01*
Y-112318D01*
Y-112391D01*
Y-112464D01*
Y-112537D01*
Y-112610D01*
Y-112683D01*
Y-112756D01*
Y-112828D01*
Y-112901D01*
Y-112974D01*
Y-113047D01*
Y-113120D01*
Y-113193D01*
Y-113266D01*
Y-113339D01*
Y-113412D01*
Y-113485D01*
Y-113557D01*
Y-113630D01*
Y-113703D01*
Y-113776D01*
Y-113849D01*
Y-113922D01*
Y-113995D01*
Y-114068D01*
Y-114141D01*
Y-114214D01*
Y-114286D01*
Y-114359D01*
Y-114432D01*
Y-114505D01*
Y-114578D01*
Y-114651D01*
Y-114724D01*
Y-114797D01*
Y-114870D01*
Y-114943D01*
Y-115015D01*
Y-115088D01*
Y-115161D01*
Y-115234D01*
Y-115307D01*
Y-115380D01*
Y-115453D01*
Y-115526D01*
Y-115599D01*
Y-115672D01*
Y-115744D01*
Y-115817D01*
Y-115890D01*
Y-115963D01*
Y-116036D01*
Y-116109D01*
Y-116182D01*
Y-116255D01*
Y-116328D01*
Y-116400D01*
Y-116473D01*
Y-116546D01*
Y-116619D01*
Y-116692D01*
Y-116765D01*
Y-116838D01*
Y-116911D01*
Y-116984D01*
Y-117057D01*
Y-117129D01*
Y-117202D01*
Y-117275D01*
Y-117348D01*
Y-117421D01*
Y-117494D01*
Y-117567D01*
Y-117640D01*
Y-117713D01*
Y-117786D01*
Y-117858D01*
Y-117931D01*
Y-118004D01*
Y-118077D01*
Y-118150D01*
X267185D01*
Y-118077D01*
X267258D01*
Y-118004D01*
X267331D01*
Y-117931D01*
X267404D01*
Y-117858D01*
X267477D01*
Y-117786D01*
Y-117713D01*
X267622D01*
Y-117640D01*
X267695D01*
Y-117567D01*
X267768D01*
Y-117494D01*
X267914D01*
Y-117421D01*
X268060D01*
Y-117348D01*
X268278D01*
Y-117275D01*
X268424D01*
Y-117202D01*
X273746D01*
Y-117129D01*
Y-117057D01*
Y-116984D01*
Y-116911D01*
Y-116838D01*
Y-116765D01*
Y-116692D01*
Y-116619D01*
Y-116546D01*
Y-116473D01*
Y-116400D01*
Y-116328D01*
Y-116255D01*
Y-116182D01*
Y-116109D01*
Y-116036D01*
Y-115963D01*
Y-115890D01*
Y-115817D01*
Y-115744D01*
Y-115672D01*
Y-115599D01*
Y-115526D01*
Y-115453D01*
Y-115380D01*
Y-115307D01*
Y-115234D01*
Y-115161D01*
Y-115088D01*
Y-115015D01*
Y-114943D01*
Y-114870D01*
Y-114797D01*
Y-114724D01*
Y-114651D01*
Y-114578D01*
Y-114505D01*
Y-114432D01*
Y-114359D01*
Y-114286D01*
Y-114214D01*
Y-114141D01*
Y-114068D01*
Y-113995D01*
Y-113922D01*
Y-113849D01*
Y-113776D01*
Y-113703D01*
Y-113630D01*
Y-113557D01*
Y-113485D01*
Y-113412D01*
Y-113339D01*
Y-113266D01*
Y-113193D01*
Y-113120D01*
Y-113047D01*
Y-112974D01*
Y-112901D01*
Y-112828D01*
Y-112756D01*
Y-112683D01*
Y-112610D01*
Y-112537D01*
Y-112464D01*
Y-112391D01*
Y-112318D01*
Y-112245D01*
Y-112172D01*
Y-112099D01*
Y-112027D01*
Y-111954D01*
Y-111881D01*
Y-111808D01*
Y-111735D01*
Y-111662D01*
Y-111589D01*
Y-111516D01*
Y-111443D01*
Y-111370D01*
Y-111298D01*
Y-111225D01*
Y-111152D01*
Y-111079D01*
Y-111006D01*
Y-110933D01*
Y-110860D01*
Y-110787D01*
Y-110714D01*
Y-110642D01*
Y-110569D01*
Y-110496D01*
Y-110423D01*
Y-110350D01*
Y-110277D01*
Y-110204D01*
Y-110131D01*
Y-110058D01*
Y-109985D01*
Y-109913D01*
Y-109840D01*
Y-109767D01*
Y-109694D01*
Y-109621D01*
Y-109548D01*
Y-109475D01*
Y-109402D01*
Y-109329D01*
Y-109256D01*
Y-109184D01*
Y-109111D01*
Y-109038D01*
Y-108965D01*
Y-108892D01*
Y-108819D01*
Y-108746D01*
Y-108673D01*
Y-108600D01*
Y-108527D01*
Y-108455D01*
Y-108382D01*
Y-108309D01*
Y-108236D01*
Y-108163D01*
Y-108090D01*
Y-108017D01*
Y-107944D01*
Y-107871D01*
Y-107798D01*
Y-107726D01*
Y-107653D01*
Y-107580D01*
Y-107507D01*
Y-107434D01*
Y-107361D01*
Y-107288D01*
Y-107215D01*
Y-107142D01*
Y-107069D01*
Y-106997D01*
Y-106924D01*
Y-106851D01*
Y-106778D01*
Y-106705D01*
Y-106632D01*
Y-106559D01*
Y-106486D01*
Y-106413D01*
Y-106340D01*
Y-106267D01*
Y-106195D01*
Y-106122D01*
Y-106049D01*
Y-105976D01*
Y-105903D01*
Y-105830D01*
Y-105757D01*
Y-105684D01*
Y-105611D01*
Y-105539D01*
Y-105466D01*
Y-105393D01*
Y-105320D01*
Y-105247D01*
Y-105174D01*
Y-105101D01*
Y-105028D01*
Y-104955D01*
Y-104883D01*
Y-104810D01*
Y-104737D01*
Y-104664D01*
Y-104591D01*
Y-104518D01*
Y-104445D01*
Y-104372D01*
Y-104299D01*
Y-104226D01*
Y-104154D01*
Y-104081D01*
Y-104008D01*
Y-103935D01*
Y-103862D01*
Y-103789D01*
Y-103716D01*
Y-103643D01*
Y-103570D01*
Y-103497D01*
Y-103425D01*
Y-103352D01*
Y-103279D01*
Y-103206D01*
Y-103133D01*
Y-103060D01*
Y-102987D01*
Y-102914D01*
Y-102841D01*
Y-102768D01*
Y-102696D01*
Y-102623D01*
Y-102550D01*
Y-102477D01*
Y-102404D01*
Y-102331D01*
Y-102258D01*
Y-102185D01*
Y-102112D01*
Y-102039D01*
Y-101967D01*
Y-101894D01*
Y-101821D01*
Y-101748D01*
Y-101675D01*
Y-101602D01*
Y-101529D01*
Y-101456D01*
Y-101383D01*
Y-101310D01*
Y-101237D01*
Y-101165D01*
Y-101092D01*
Y-101019D01*
Y-100946D01*
Y-100873D01*
Y-100800D01*
Y-100727D01*
Y-100654D01*
Y-100581D01*
Y-100509D01*
Y-100436D01*
Y-100363D01*
Y-100290D01*
Y-100217D01*
Y-100144D01*
Y-100071D01*
Y-99998D01*
Y-99925D01*
Y-99853D01*
X273673D01*
Y-99780D01*
Y-99707D01*
Y-99634D01*
Y-99561D01*
Y-99488D01*
Y-99415D01*
Y-99342D01*
Y-99269D01*
X273600D01*
Y-99196D01*
Y-99124D01*
Y-99051D01*
Y-98978D01*
Y-98905D01*
X273527D01*
Y-98832D01*
Y-98759D01*
Y-98686D01*
Y-98613D01*
X273454D01*
Y-98540D01*
Y-98467D01*
Y-98395D01*
Y-98322D01*
X273381D01*
Y-98249D01*
Y-98176D01*
X273308D01*
Y-98103D01*
Y-98030D01*
Y-97957D01*
X273236D01*
Y-97884D01*
Y-97811D01*
Y-97738D01*
X273163D01*
Y-97666D01*
Y-97593D01*
X273090D01*
Y-97520D01*
Y-97447D01*
X273017D01*
Y-97374D01*
Y-97301D01*
X272944D01*
Y-97228D01*
Y-97155D01*
X272871D01*
Y-97082D01*
Y-97009D01*
X272798D01*
Y-96937D01*
Y-96864D01*
X272725D01*
Y-96791D01*
X272652D01*
Y-96718D01*
Y-96645D01*
X272579D01*
Y-96572D01*
X272506D01*
Y-96499D01*
Y-96426D01*
X272434D01*
Y-96353D01*
X272361D01*
Y-96280D01*
X272288D01*
Y-96207D01*
Y-96135D01*
X272215D01*
Y-96062D01*
X272142D01*
Y-95989D01*
X272069D01*
Y-95916D01*
X271996D01*
Y-95843D01*
X271923D01*
Y-95770D01*
Y-95697D01*
X271850D01*
Y-95624D01*
X271778D01*
Y-95551D01*
X271705D01*
Y-95478D01*
X271632D01*
Y-95406D01*
X271559D01*
Y-95333D01*
X271486D01*
Y-95260D01*
X271340D01*
Y-95187D01*
X271267D01*
Y-95114D01*
X271194D01*
Y-95041D01*
X271122D01*
Y-94968D01*
X271048D01*
Y-94895D01*
X270903D01*
Y-94823D01*
X270830D01*
Y-94750D01*
X270757D01*
Y-94677D01*
X270611D01*
Y-94604D01*
X270465D01*
Y-94531D01*
X270392D01*
Y-94458D01*
X270247D01*
Y-94385D01*
X270101D01*
Y-94312D01*
X269955D01*
Y-94239D01*
X269809D01*
Y-94166D01*
X269664D01*
Y-94094D01*
X269518D01*
Y-94021D01*
X269372D01*
Y-93948D01*
X269153D01*
Y-93875D01*
X268934D01*
Y-93802D01*
X268716D01*
Y-93729D01*
X268424D01*
Y-93656D01*
X268060D01*
Y-93583D01*
X267622D01*
Y-93510D01*
D02*
G37*
%LPD*%
D13*
X248500Y-95489D02*
X246501D01*
X247500D01*
Y-98488D01*
X244002D02*
X245001D01*
X245501Y-97988D01*
Y-96988D01*
X245001Y-96489D01*
X244002D01*
X243502Y-96988D01*
Y-97488D01*
X245501D01*
X242002Y-96489D02*
X241002D01*
X240503Y-96988D01*
Y-98488D01*
X242002D01*
X242502Y-97988D01*
X242002Y-97488D01*
X240503D01*
X239503Y-98488D02*
Y-96489D01*
X239003D01*
X238503Y-96988D01*
Y-98488D01*
Y-96988D01*
X238003Y-96489D01*
X237504Y-96988D01*
Y-98488D01*
X236504Y-96489D02*
X236004D01*
Y-96988D01*
X236504D01*
Y-96489D01*
Y-97988D02*
X236004D01*
Y-98488D01*
X236504D01*
Y-97988D01*
X231006Y-95489D02*
Y-98488D01*
Y-97488D01*
X229006Y-95489D01*
X230506Y-96988D01*
X229006Y-98488D01*
X226507Y-95489D02*
X227507D01*
X228007Y-95989D01*
Y-97988D01*
X227507Y-98488D01*
X226507D01*
X226007Y-97988D01*
Y-95989D01*
X226507Y-95489D01*
X225008D02*
X224008D01*
X224508D01*
Y-98488D01*
X225008D01*
X224008D01*
X222508D02*
Y-95489D01*
X220509Y-98488D01*
Y-95489D01*
X246501Y-100788D02*
X247001Y-100288D01*
X248000D01*
X248500Y-100788D01*
Y-101287D01*
X248000Y-101787D01*
X247001D01*
X246501Y-102287D01*
Y-102787D01*
X247001Y-103287D01*
X248000D01*
X248500Y-102787D01*
X245501Y-100288D02*
Y-103287D01*
Y-101787D01*
X245001Y-101287D01*
X244002D01*
X243502Y-101787D01*
Y-103287D01*
X242502D02*
X241502D01*
X242002D01*
Y-101287D01*
X242502D01*
X240003D02*
X239003Y-103287D01*
X238003Y-101287D01*
X236504D02*
X235504D01*
X235004Y-101787D01*
Y-103287D01*
X236504D01*
X237004Y-102787D01*
X236504Y-102287D01*
X235004D01*
X234005Y-103287D02*
Y-101287D01*
X233505D01*
X233005Y-101787D01*
Y-103287D01*
Y-101787D01*
X232505Y-101287D01*
X232005Y-101787D01*
Y-103287D01*
X228007Y-100288D02*
Y-103287D01*
X226507D01*
X226007Y-102787D01*
Y-100788D01*
X226507Y-100288D01*
X228007D01*
X223508Y-103287D02*
X224508D01*
X225008Y-102787D01*
Y-101787D01*
X224508Y-101287D01*
X223508D01*
X223008Y-101787D01*
Y-102287D01*
X225008D01*
X222009Y-100288D02*
Y-103287D01*
Y-101787D01*
X221509Y-101287D01*
X220509D01*
X220009Y-101787D01*
Y-103287D01*
X219009D02*
X218010D01*
X218510D01*
Y-101287D01*
X219009D01*
X216510Y-103287D02*
Y-101287D01*
X215011D01*
X214511Y-101787D01*
Y-103287D01*
X213511Y-101287D02*
Y-102787D01*
X213012Y-103287D01*
X212512Y-102787D01*
X212012Y-103287D01*
X211512Y-102787D01*
Y-101287D01*
X210012D02*
X209013D01*
X208513Y-101787D01*
Y-103287D01*
X210012D01*
X210512Y-102787D01*
X210012Y-102287D01*
X208513D01*
X207513Y-103287D02*
X206514D01*
X207013D01*
Y-100288D01*
X207513D01*
X246501Y-105087D02*
X247500D01*
X247001D01*
Y-107586D01*
X247500Y-108086D01*
X248000D01*
X248500Y-107586D01*
X245501Y-106086D02*
Y-107586D01*
X245001Y-108086D01*
X243502D01*
Y-106086D01*
X242502Y-108086D02*
Y-106086D01*
X241002D01*
X240503Y-106586D01*
Y-108086D01*
X236504Y-105087D02*
Y-108086D01*
X235004D01*
X234505Y-107586D01*
Y-107086D01*
X235004Y-106586D01*
X236504D01*
X235004D01*
X234505Y-106086D01*
Y-105587D01*
X235004Y-105087D01*
X236504D01*
X232005Y-108086D02*
X233005D01*
X233505Y-107586D01*
Y-106586D01*
X233005Y-106086D01*
X232005D01*
X231505Y-106586D01*
Y-107086D01*
X233505D01*
X230006Y-108086D02*
X229006D01*
X228506Y-107586D01*
Y-106586D01*
X229006Y-106086D01*
X230006D01*
X230506Y-106586D01*
Y-107586D01*
X230006Y-108086D01*
X227507D02*
Y-106086D01*
X227007D01*
X226507Y-106586D01*
Y-108086D01*
Y-106586D01*
X226007Y-106086D01*
X225507Y-106586D01*
Y-108086D01*
X221509D02*
Y-105087D01*
X220009D01*
X219509Y-105587D01*
Y-106586D01*
X220009Y-107086D01*
X221509D01*
X218510Y-106086D02*
Y-107586D01*
X218010Y-108086D01*
X216510D01*
Y-108586D01*
X217010Y-109085D01*
X217510D01*
X216510Y-108086D02*
Y-106086D01*
X215011Y-108086D02*
X214011D01*
X213511Y-107586D01*
Y-106586D01*
X214011Y-106086D01*
X215011D01*
X215511Y-106586D01*
Y-107586D01*
X215011Y-108086D01*
X248500Y-118683D02*
Y-116684D01*
X247500Y-115684D01*
X246501Y-116684D01*
Y-118683D01*
Y-117183D01*
X248500D01*
X245501Y-118683D02*
Y-116684D01*
X244002D01*
X243502Y-117183D01*
Y-118683D01*
X242002Y-116184D02*
Y-116684D01*
X242502D01*
X241502D01*
X242002D01*
Y-118183D01*
X241502Y-118683D01*
X240003D02*
X239003D01*
X239503D01*
Y-116684D01*
X240003D01*
X237504Y-117183D02*
X235504D01*
X234005Y-116184D02*
Y-116684D01*
X234505D01*
X233505D01*
X234005D01*
Y-118183D01*
X233505Y-118683D01*
X232005Y-115684D02*
Y-118683D01*
Y-117183D01*
X231505Y-116684D01*
X230506D01*
X230006Y-117183D01*
Y-118683D01*
X227507D02*
X228506D01*
X229006Y-118183D01*
Y-117183D01*
X228506Y-116684D01*
X227507D01*
X227007Y-117183D01*
Y-117683D01*
X229006D01*
X225507Y-118683D02*
Y-116184D01*
Y-117183D01*
X226007D01*
X225008D01*
X225507D01*
Y-116184D01*
X225008Y-115684D01*
X223008Y-116184D02*
Y-116684D01*
X223508D01*
X222508D01*
X223008D01*
Y-118183D01*
X222508Y-118683D01*
X218010Y-115684D02*
Y-118683D01*
X216510D01*
X216010Y-118183D01*
Y-117683D01*
Y-117183D01*
X216510Y-116684D01*
X218010D01*
X215011Y-118683D02*
X214011D01*
X214511D01*
Y-116684D01*
X215011D01*
X212512Y-118683D02*
Y-115684D01*
Y-117683D02*
X211012Y-116684D01*
X212512Y-117683D02*
X211012Y-118683D01*
X208013D02*
X209013D01*
X209513Y-118183D01*
Y-117183D01*
X209013Y-116684D01*
X208013D01*
X207513Y-117183D01*
Y-117683D01*
X209513D01*
X203515Y-118683D02*
X202515D01*
X203015D01*
Y-115684D01*
X203515D01*
X200516Y-118683D02*
X199516D01*
X199016Y-118183D01*
Y-117183D01*
X199516Y-116684D01*
X200516D01*
X201015Y-117183D01*
Y-118183D01*
X200516Y-118683D01*
X196017Y-116684D02*
X197517D01*
X198016Y-117183D01*
Y-118183D01*
X197517Y-118683D01*
X196017D01*
X195017D02*
Y-115684D01*
Y-117683D02*
X193518Y-116684D01*
X195017Y-117683D02*
X193518Y-118683D01*
X248500Y-123482D02*
Y-120483D01*
X247001D01*
X246501Y-120983D01*
Y-121982D01*
X247001Y-122482D01*
X248500D01*
X247500D02*
X246501Y-123482D01*
X243502Y-120483D02*
X245501D01*
Y-123482D01*
X243502D01*
X245501Y-121982D02*
X244501D01*
X242502Y-120483D02*
Y-122482D01*
X241502Y-123482D01*
X240503Y-122482D01*
Y-120483D01*
X239503Y-123482D02*
Y-122982D01*
X239003D01*
Y-123482D01*
X239503D01*
X234005D02*
X233005D01*
X233505D01*
Y-120483D01*
X234005Y-120983D01*
X231505Y-123482D02*
Y-122982D01*
X231006D01*
Y-123482D01*
X231505D01*
X229006Y-120983D02*
X228506Y-120483D01*
X227507D01*
X227007Y-120983D01*
Y-122982D01*
X227507Y-123482D01*
X228506D01*
X229006Y-122982D01*
Y-120983D01*
X226007Y-123482D02*
Y-122982D01*
X225507D01*
Y-123482D01*
X226007D01*
X223508Y-120983D02*
X223008Y-120483D01*
X222009D01*
X221509Y-120983D01*
Y-122982D01*
X222009Y-123482D01*
X223008D01*
X223508Y-122982D01*
Y-120983D01*
X283780Y-37600D02*
Y-35600D01*
X282780Y-34601D01*
X281780Y-35600D01*
Y-37600D01*
Y-36100D01*
X283780D01*
X280781Y-37600D02*
X279281D01*
X278781Y-37100D01*
X279281Y-36600D01*
X280281D01*
X280781Y-36100D01*
X280281Y-35600D01*
X278781D01*
X277782Y-37600D02*
X276282D01*
X275782Y-37100D01*
X276282Y-36600D01*
X277282D01*
X277782Y-36100D01*
X277282Y-35600D01*
X275782D01*
X273283Y-37600D02*
X274283D01*
X274782Y-37100D01*
Y-36100D01*
X274283Y-35600D01*
X273283D01*
X272783Y-36100D01*
Y-36600D01*
X274782D01*
X271783Y-37600D02*
Y-35600D01*
X271284D01*
X270784Y-36100D01*
Y-37600D01*
Y-36100D01*
X270284Y-35600D01*
X269784Y-36100D01*
Y-37600D01*
X268784Y-34601D02*
Y-37600D01*
X267285D01*
X266785Y-37100D01*
Y-36600D01*
Y-36100D01*
X267285Y-35600D01*
X268784D01*
X265786Y-37600D02*
X264786D01*
X265286D01*
Y-34601D01*
X265786D01*
X263286Y-35600D02*
Y-37100D01*
X262786Y-37600D01*
X261287D01*
Y-38100D01*
X261787Y-38599D01*
X262287D01*
X261287Y-37600D02*
Y-35600D01*
X257288Y-37600D02*
Y-34601D01*
X255789D01*
X255289Y-35100D01*
Y-36100D01*
X255789Y-36600D01*
X257288D01*
X256289D02*
X255289Y-37600D01*
X252290Y-34601D02*
X254289D01*
Y-37600D01*
X252290D01*
X254289Y-36100D02*
X253290D01*
X251290Y-34601D02*
Y-36600D01*
X250290Y-37600D01*
X249291Y-36600D01*
Y-34601D01*
X248291Y-37600D02*
Y-37100D01*
X247791D01*
Y-37600D01*
X248291D01*
D115*
X242865Y-59900D02*
D03*
M02*
