G04*
G04 #@! TF.GenerationSoftware,Altium Limited,Altium Designer,21.1.1 (26)*
G04*
G04 Layer_Color=8388736*
%FSLAX25Y25*%
%MOIN*%
G70*
G04*
G04 #@! TF.SameCoordinates,1EF24474-C81F-45A5-81BD-A50C78BF7B70*
G04*
G04*
G04 #@! TF.FilePolarity,Negative*
G04*
G01*
G75*
%ADD20C,0.05000*%
%ADD23R,0.09500X0.13500*%
%ADD25R,0.07874X0.07874*%
%ADD29R,0.01378X0.02264*%
%ADD30R,0.02264X0.01378*%
%ADD40R,0.05733X0.04940*%
G04:AMPARAMS|DCode=41|XSize=23.62mil|YSize=9.45mil|CornerRadius=1.98mil|HoleSize=0mil|Usage=FLASHONLY|Rotation=0.000|XOffset=0mil|YOffset=0mil|HoleType=Round|Shape=RoundedRectangle|*
%AMROUNDEDRECTD41*
21,1,0.02362,0.00548,0,0,0.0*
21,1,0.01965,0.00945,0,0,0.0*
1,1,0.00397,0.00983,-0.00274*
1,1,0.00397,-0.00983,-0.00274*
1,1,0.00397,-0.00983,0.00274*
1,1,0.00397,0.00983,0.00274*
%
%ADD41ROUNDEDRECTD41*%
G04:AMPARAMS|DCode=42|XSize=9.45mil|YSize=23.62mil|CornerRadius=1.98mil|HoleSize=0mil|Usage=FLASHONLY|Rotation=0.000|XOffset=0mil|YOffset=0mil|HoleType=Round|Shape=RoundedRectangle|*
%AMROUNDEDRECTD42*
21,1,0.00945,0.01965,0,0,0.0*
21,1,0.00548,0.02362,0,0,0.0*
1,1,0.00397,0.00274,-0.00983*
1,1,0.00397,-0.00274,-0.00983*
1,1,0.00397,-0.00274,0.00983*
1,1,0.00397,0.00274,0.00983*
%
%ADD42ROUNDEDRECTD42*%
%ADD43R,0.03197X0.02975*%
%ADD47R,0.03788X0.03400*%
%ADD48R,0.04724X0.03543*%
%ADD58R,0.04154X0.05733*%
%ADD59R,0.06127X0.04942*%
G04:AMPARAMS|DCode=61|XSize=9.42mil|YSize=38.03mil|CornerRadius=4.71mil|HoleSize=0mil|Usage=FLASHONLY|Rotation=270.000|XOffset=0mil|YOffset=0mil|HoleType=Round|Shape=RoundedRectangle|*
%AMROUNDEDRECTD61*
21,1,0.00942,0.02861,0,0,270.0*
21,1,0.00000,0.03803,0,0,270.0*
1,1,0.00942,-0.01431,0.00000*
1,1,0.00942,-0.01431,0.00000*
1,1,0.00942,0.01431,0.00000*
1,1,0.00942,0.01431,0.00000*
%
%ADD61ROUNDEDRECTD61*%
G04:AMPARAMS|DCode=62|XSize=38.03mil|YSize=9.42mil|CornerRadius=4.71mil|HoleSize=0mil|Usage=FLASHONLY|Rotation=270.000|XOffset=0mil|YOffset=0mil|HoleType=Round|Shape=RoundedRectangle|*
%AMROUNDEDRECTD62*
21,1,0.03803,0.00000,0,0,270.0*
21,1,0.02861,0.00942,0,0,270.0*
1,1,0.00942,0.00000,-0.01431*
1,1,0.00942,0.00000,0.01431*
1,1,0.00942,0.00000,0.01431*
1,1,0.00942,0.00000,-0.01431*
%
%ADD62ROUNDEDRECTD62*%
%ADD63R,0.00942X0.03803*%
%ADD64R,0.04337X0.03943*%
%ADD65C,0.10000*%
%ADD66R,0.04534X0.05912*%
%ADD67R,0.03943X0.03156*%
%ADD68R,0.04731X0.04731*%
%ADD69R,0.08819X0.08819*%
%ADD70R,0.08274X0.08274*%
%ADD71R,0.03156X0.05124*%
%ADD72R,0.05124X0.03156*%
%ADD73R,0.02447X0.02447*%
%ADD74R,0.03550X0.03550*%
%ADD75R,0.03943X0.04337*%
%ADD76R,0.02959X0.04534*%
%ADD77R,0.04731X0.07880*%
%ADD78R,0.04928X0.06109*%
%ADD79R,0.04731X0.04731*%
%ADD80R,0.02841X0.02841*%
%ADD81R,0.03353X0.02959*%
%ADD82R,0.02565X0.02959*%
%ADD83R,0.05912X0.04534*%
%ADD84R,0.06109X0.04928*%
%ADD85R,0.06306X0.09849*%
G04:AMPARAMS|DCode=86|XSize=15.75mil|YSize=27.56mil|CornerRadius=1.97mil|HoleSize=0mil|Usage=FLASHONLY|Rotation=0.000|XOffset=0mil|YOffset=0mil|HoleType=Round|Shape=RoundedRectangle|*
%AMROUNDEDRECTD86*
21,1,0.01575,0.02362,0,0,0.0*
21,1,0.01181,0.02756,0,0,0.0*
1,1,0.00394,0.00591,-0.01181*
1,1,0.00394,-0.00591,-0.01181*
1,1,0.00394,-0.00591,0.01181*
1,1,0.00394,0.00591,0.01181*
%
%ADD86ROUNDEDRECTD86*%
G04:AMPARAMS|DCode=87|XSize=15.75mil|YSize=9.84mil|CornerRadius=1.97mil|HoleSize=0mil|Usage=FLASHONLY|Rotation=0.000|XOffset=0mil|YOffset=0mil|HoleType=Round|Shape=RoundedRectangle|*
%AMROUNDEDRECTD87*
21,1,0.01575,0.00591,0,0,0.0*
21,1,0.01181,0.00984,0,0,0.0*
1,1,0.00394,0.00591,-0.00295*
1,1,0.00394,-0.00591,-0.00295*
1,1,0.00394,-0.00591,0.00295*
1,1,0.00394,0.00591,0.00295*
%
%ADD87ROUNDEDRECTD87*%
%ADD88R,0.06306X0.07093*%
%ADD89R,0.05124X0.05124*%
%ADD90R,0.02447X0.02447*%
%ADD91R,0.07880X0.05715*%
%ADD92R,0.05124X0.04337*%
%ADD93R,0.06502X0.05715*%
%ADD94R,0.03747X0.04731*%
%ADD95R,0.03353X0.04731*%
%ADD96R,0.05006X0.07487*%
%ADD97R,0.02368X0.03550*%
%ADD98R,0.06614X0.06614*%
%ADD99R,0.07487X0.07487*%
%ADD100C,0.07487*%
%ADD101C,0.04360*%
%ADD102R,0.07487X0.07487*%
%ADD103C,0.07874*%
%ADD104C,0.06502*%
%ADD105R,0.06502X0.06502*%
%ADD106R,0.04534X0.04534*%
%ADD107C,0.04534*%
%ADD108C,0.02000*%
G36*
X107038Y-239324D02*
Y-239285D01*
X107068Y-239212D01*
X107124Y-239157D01*
X107196Y-239127D01*
X107235D01*
Y-239127D01*
X109598D01*
X109598Y-235682D01*
Y-235643D01*
X109627Y-235571D01*
X109683Y-235515D01*
X109755Y-235485D01*
X109794D01*
Y-235485D01*
X110188Y-235485D01*
X110227Y-235485D01*
X110300Y-235515D01*
X110355Y-235571D01*
X110385Y-235643D01*
X110385Y-235682D01*
X110385Y-235682D01*
X110385Y-237552D01*
X111763D01*
Y-235682D01*
X111763Y-235643D01*
X111793Y-235571D01*
X111848Y-235515D01*
X111920Y-235485D01*
X111960Y-235485D01*
Y-235485D01*
X112353Y-235485D01*
X112392D01*
X112465Y-235515D01*
X112520Y-235571D01*
X112550Y-235643D01*
Y-235682D01*
X112550Y-235682D01*
Y-239127D01*
X114912Y-239127D01*
X114952D01*
X115024Y-239157D01*
X115079Y-239212D01*
X115109Y-239285D01*
Y-239324D01*
X115109D01*
X115109Y-250741D01*
Y-250780D01*
X115079Y-250853D01*
X115024Y-250908D01*
X114952Y-250938D01*
X114912D01*
X114912D01*
X112550D01*
X112550Y-254580D01*
Y-254619D01*
X112520Y-254691D01*
X112465Y-254747D01*
X112392Y-254777D01*
X112353D01*
X112353Y-254777D01*
X111960D01*
X111920Y-254777D01*
X111848Y-254747D01*
X111793Y-254691D01*
X111763Y-254619D01*
X111763Y-254580D01*
D01*
X111763Y-252710D01*
X110385D01*
X110385Y-254580D01*
X110385Y-254619D01*
X110355Y-254691D01*
X110300Y-254747D01*
X110227Y-254777D01*
X110188D01*
D01*
X109794D01*
X109755D01*
X109683Y-254747D01*
X109627Y-254691D01*
X109598Y-254619D01*
Y-254580D01*
Y-254580D01*
Y-251135D01*
X107235D01*
X107196D01*
X107124Y-251105D01*
X107068Y-251050D01*
X107038Y-250977D01*
Y-250938D01*
Y-250938D01*
X107038Y-239324D01*
D02*
G37*
D20*
X271200Y-242200D02*
D03*
X171537Y-253050D02*
D03*
X201400Y-209407D02*
D03*
X86940Y-157615D02*
D03*
X169500Y-181400D02*
D03*
X161000D02*
D03*
X150724D02*
D03*
X62987Y-210229D02*
D03*
X215411Y-37300D02*
D03*
X309828Y-62500D02*
D03*
X189426Y-259842D02*
D03*
X188300Y-237517D02*
D03*
X227165Y-85319D02*
D03*
Y-93503D02*
D03*
X99168Y-84095D02*
D03*
X244201Y-276665D02*
D03*
X274946Y-69969D02*
D03*
X247600Y-62800D02*
D03*
X254400Y-93503D02*
D03*
X265261Y-69969D02*
D03*
D23*
X57437Y-235150D02*
D03*
X80437D02*
D03*
D25*
X70394Y-145866D02*
D03*
D29*
X232677Y-47589D02*
D03*
X234646D02*
D03*
X236614D02*
D03*
Y-54774D02*
D03*
X234646D02*
D03*
X232677D02*
D03*
D30*
X239222Y-48228D02*
D03*
Y-50197D02*
D03*
Y-52165D02*
D03*
Y-54134D02*
D03*
X230069D02*
D03*
Y-52165D02*
D03*
Y-50197D02*
D03*
Y-48228D02*
D03*
D40*
X147413Y-264593D02*
D03*
Y-258090D02*
D03*
X133921Y-264325D02*
D03*
Y-257823D02*
D03*
D41*
X117570Y-238241D02*
D03*
Y-240210D02*
D03*
Y-242178D02*
D03*
Y-244147D02*
D03*
Y-246115D02*
D03*
Y-248084D02*
D03*
Y-250052D02*
D03*
Y-252021D02*
D03*
X104578D02*
D03*
Y-250052D02*
D03*
Y-248084D02*
D03*
Y-246115D02*
D03*
Y-244147D02*
D03*
Y-242178D02*
D03*
Y-240210D02*
D03*
Y-238241D02*
D03*
D42*
X114027Y-236666D02*
D03*
Y-253596D02*
D03*
X108121D02*
D03*
Y-236666D02*
D03*
D43*
X251200Y-44529D02*
D03*
Y-39212D02*
D03*
D47*
X116800Y-47143D02*
D03*
Y-41400D02*
D03*
D48*
X201400Y-193532D02*
D03*
Y-201800D02*
D03*
D58*
X30608Y-166535D02*
D03*
X37896D02*
D03*
X6693Y-116142D02*
D03*
X13980D02*
D03*
D59*
X12205Y-166535D02*
D03*
Y-158461D02*
D03*
D61*
X231890Y-257874D02*
D03*
Y-259842D02*
D03*
Y-261811D02*
D03*
Y-263779D02*
D03*
X220291D02*
D03*
Y-261811D02*
D03*
Y-259842D02*
D03*
Y-257874D02*
D03*
D62*
X229043Y-266626D02*
D03*
X227075D02*
D03*
X225106D02*
D03*
X223138D02*
D03*
Y-255027D02*
D03*
X225106D02*
D03*
X227075D02*
D03*
D63*
X229043D02*
D03*
D64*
X99545Y-163915D02*
D03*
Y-157615D02*
D03*
X115293D02*
D03*
Y-163915D02*
D03*
X107419Y-157615D02*
D03*
Y-163915D02*
D03*
X103437Y-266351D02*
D03*
Y-272650D02*
D03*
X88946Y-264325D02*
D03*
Y-258026D02*
D03*
X81537Y-264325D02*
D03*
Y-258026D02*
D03*
X73985Y-264325D02*
D03*
Y-258026D02*
D03*
X101900Y-120050D02*
D03*
Y-113750D02*
D03*
X254400Y-8450D02*
D03*
Y-14750D02*
D03*
X266900Y-95550D02*
D03*
Y-89250D02*
D03*
D65*
X160630Y-307087D02*
D03*
X21260Y-216142D02*
D03*
X290551Y-225984D02*
D03*
X102800Y-11400D02*
D03*
D66*
X172885Y-240603D02*
D03*
X165404D02*
D03*
D67*
X97306Y-235550D02*
D03*
Y-241062D02*
D03*
X91192Y-235485D02*
D03*
Y-240997D02*
D03*
X131064Y-208838D02*
D03*
Y-214350D02*
D03*
X131349Y-230761D02*
D03*
Y-236273D02*
D03*
X125444Y-230761D02*
D03*
Y-236273D02*
D03*
X95637Y-262750D02*
D03*
Y-257238D02*
D03*
X211233Y-232005D02*
D03*
Y-237517D02*
D03*
X217665Y-237795D02*
D03*
Y-232283D02*
D03*
D68*
X226865Y-141520D02*
D03*
X219779D02*
D03*
X226123Y-128134D02*
D03*
X219036D02*
D03*
X219779Y-153925D02*
D03*
X226865D02*
D03*
D69*
X161135Y-49394D02*
D03*
Y-58126D02*
D03*
X152544Y-49394D02*
D03*
Y-58126D02*
D03*
D70*
X160324Y-97646D02*
D03*
Y-108886D02*
D03*
X148812Y-97646D02*
D03*
Y-108886D02*
D03*
D71*
X138109Y-128787D02*
D03*
X180628D02*
D03*
X175904D02*
D03*
X171179D02*
D03*
X166455D02*
D03*
X161731D02*
D03*
X157006D02*
D03*
X152282D02*
D03*
X147557D02*
D03*
X142833D02*
D03*
X133384D02*
D03*
D72*
X183400Y-33350D02*
D03*
Y-38075D02*
D03*
Y-42799D02*
D03*
Y-47524D02*
D03*
Y-52248D02*
D03*
Y-56972D02*
D03*
Y-61697D02*
D03*
Y-66421D02*
D03*
Y-71146D02*
D03*
Y-75870D02*
D03*
Y-80594D02*
D03*
Y-85319D02*
D03*
Y-90043D02*
D03*
Y-94768D02*
D03*
Y-99492D02*
D03*
Y-104217D02*
D03*
Y-108941D02*
D03*
Y-113665D02*
D03*
Y-118390D02*
D03*
Y-123114D02*
D03*
X130644D02*
D03*
Y-118390D02*
D03*
Y-113665D02*
D03*
Y-108941D02*
D03*
Y-104217D02*
D03*
Y-99492D02*
D03*
Y-94768D02*
D03*
Y-90043D02*
D03*
Y-85319D02*
D03*
Y-80594D02*
D03*
Y-75870D02*
D03*
Y-71146D02*
D03*
Y-66421D02*
D03*
Y-61697D02*
D03*
Y-56972D02*
D03*
Y-52248D02*
D03*
Y-47524D02*
D03*
Y-42799D02*
D03*
Y-38075D02*
D03*
Y-33350D02*
D03*
D73*
X231020Y-61417D02*
D03*
Y-64567D02*
D03*
D74*
X113270Y-109970D02*
D03*
X107364D02*
D03*
D75*
X178081Y-144295D02*
D03*
X184380D02*
D03*
X170223D02*
D03*
X163924D02*
D03*
X205723Y-61417D02*
D03*
X199424D02*
D03*
Y-54847D02*
D03*
X205723D02*
D03*
X251350Y-31800D02*
D03*
X257650D02*
D03*
X98601Y-50900D02*
D03*
X104900D02*
D03*
X205723Y-67558D02*
D03*
X199424D02*
D03*
X212205Y-84095D02*
D03*
X205906D02*
D03*
X212750Y-92200D02*
D03*
X206450D02*
D03*
X202362Y-248228D02*
D03*
X208661D02*
D03*
X209055Y-259157D02*
D03*
X202756D02*
D03*
X210236Y-268504D02*
D03*
X203937D02*
D03*
D76*
X103268Y-175531D02*
D03*
Y-191869D02*
D03*
X111732D02*
D03*
Y-175531D02*
D03*
X97068Y-22731D02*
D03*
Y-39069D02*
D03*
X105532D02*
D03*
Y-22731D02*
D03*
D77*
X179356Y-156106D02*
D03*
X169514D02*
D03*
D78*
X114510Y-129571D02*
D03*
X107424D02*
D03*
X227559Y-277165D02*
D03*
X234646D02*
D03*
D79*
X118542Y-215925D02*
D03*
Y-208838D02*
D03*
X109364Y-215925D02*
D03*
Y-208838D02*
D03*
D80*
X137937Y-209407D02*
D03*
Y-212950D02*
D03*
X138436Y-235012D02*
D03*
Y-238555D02*
D03*
D81*
X148200Y-233480D02*
D03*
Y-229149D02*
D03*
D82*
X152594Y-240603D02*
D03*
X156530D02*
D03*
D83*
X253900Y-255620D02*
D03*
Y-263100D02*
D03*
D84*
X243701Y-255906D02*
D03*
Y-262992D02*
D03*
X110236Y-68110D02*
D03*
Y-61024D02*
D03*
D85*
X243504Y-233858D02*
D03*
X228937D02*
D03*
D86*
X201300Y-183300D02*
D03*
D87*
X198544Y-184186D02*
D03*
Y-182414D02*
D03*
D88*
X248988Y-182100D02*
D03*
X210012D02*
D03*
D89*
X236753Y-128134D02*
D03*
X245021D02*
D03*
X236753Y-141520D02*
D03*
X245021D02*
D03*
X237066Y-153925D02*
D03*
X245334D02*
D03*
X7283Y-100787D02*
D03*
X15551D02*
D03*
D90*
X249606Y-54134D02*
D03*
X246457D02*
D03*
D91*
X301855Y-49909D02*
D03*
X278352D02*
D03*
D92*
X264572Y-31504D02*
D03*
Y-46071D02*
D03*
D93*
X265261Y-7783D02*
D03*
D94*
X274946Y-7291D02*
D03*
X279277D02*
D03*
X283608D02*
D03*
X287938D02*
D03*
X292269D02*
D03*
X296600D02*
D03*
X300930D02*
D03*
D95*
X305064D02*
D03*
D96*
X309828Y-8669D02*
D03*
D97*
X26772Y-107677D02*
D03*
Y-115551D02*
D03*
D98*
X226090Y-260827D02*
D03*
D99*
X301969Y-138425D02*
D03*
X299606Y-74094D02*
D03*
X296000Y-174900D02*
D03*
X13780Y-7874D02*
D03*
D100*
X301969Y-148425D02*
D03*
Y-158425D02*
D03*
X299606Y-94095D02*
D03*
Y-84095D02*
D03*
Y-104095D02*
D03*
Y-114094D02*
D03*
Y-124094D02*
D03*
X296000Y-194900D02*
D03*
Y-184900D02*
D03*
X70866Y-11811D02*
D03*
X80866D02*
D03*
X211142Y-14750D02*
D03*
X221142D02*
D03*
X231142D02*
D03*
X13780Y-57874D02*
D03*
Y-47874D02*
D03*
Y-37874D02*
D03*
Y-17874D02*
D03*
Y-27874D02*
D03*
D101*
X133795Y-149380D02*
D03*
X138795D02*
D03*
Y-159380D02*
D03*
Y-154380D02*
D03*
X133795Y-159380D02*
D03*
Y-154380D02*
D03*
Y-164380D02*
D03*
Y-169380D02*
D03*
X138795Y-164380D02*
D03*
Y-169380D02*
D03*
D102*
X60866Y-11811D02*
D03*
X241142Y-14750D02*
D03*
D103*
X40630Y-71457D02*
D03*
Y-46260D02*
D03*
X70394Y-58858D02*
D03*
X40630Y-145866D02*
D03*
D104*
X14961Y-85827D02*
D03*
D105*
Y-75827D02*
D03*
D106*
X12205Y-140039D02*
D03*
D107*
Y-135039D02*
D03*
Y-130039D02*
D03*
D108*
X111074Y-250151D02*
D03*
X114125Y-247198D02*
D03*
X111074D02*
D03*
X108023D02*
D03*
X114125Y-243064D02*
D03*
X111074D02*
D03*
X108023D02*
D03*
X111074Y-240111D02*
D03*
M02*
