G04*
G04 #@! TF.GenerationSoftware,Altium Limited,Altium Designer,21.1.1 (26)*
G04*
G04 Layer_Physical_Order=1*
G04 Layer_Color=255*
%FSLAX25Y25*%
%MOIN*%
G70*
G04*
G04 #@! TF.SameCoordinates,F0776300-378F-46C5-BA81-3E012C389C30*
G04*
G04*
G04 #@! TF.FilePolarity,Positive*
G04*
G01*
G75*
%ADD16C,0.00800*%
%ADD18R,0.04331X0.04331*%
%ADD19R,0.03937X0.03543*%
%ADD20R,0.04331X0.04331*%
%ADD21R,0.02953X0.02362*%
%ADD22R,0.05906X0.06693*%
%ADD23R,0.04724X0.04724*%
%ADD24C,0.05000*%
%ADD25R,0.04724X0.02756*%
%ADD26R,0.02756X0.04724*%
%ADD27R,0.07874X0.07874*%
%ADD28R,0.04606X0.07087*%
%ADD29R,0.02953X0.04331*%
%ADD30R,0.03347X0.04331*%
%ADD31R,0.06102X0.05315*%
%ADD32R,0.04724X0.03937*%
%ADD33R,0.07480X0.05315*%
%ADD34R,0.04134X0.05512*%
%ADD35R,0.03543X0.02756*%
%ADD36R,0.09500X0.13500*%
%ADD37R,0.02047X0.02047*%
%ADD38R,0.01378X0.02264*%
%ADD39R,0.02264X0.01378*%
%ADD40R,0.03150X0.03150*%
%ADD41R,0.03543X0.03937*%
%ADD42R,0.02559X0.04134*%
%ADD43R,0.04331X0.07480*%
%ADD44R,0.04528X0.05709*%
%ADD45R,0.02441X0.02441*%
%ADD46R,0.02953X0.02559*%
%ADD47R,0.02165X0.02559*%
%ADD48R,0.05733X0.04940*%
G04:AMPARAMS|DCode=49|XSize=23.62mil|YSize=9.45mil|CornerRadius=1.98mil|HoleSize=0mil|Usage=FLASHONLY|Rotation=0.000|XOffset=0mil|YOffset=0mil|HoleType=Round|Shape=RoundedRectangle|*
%AMROUNDEDRECTD49*
21,1,0.02362,0.00548,0,0,0.0*
21,1,0.01965,0.00945,0,0,0.0*
1,1,0.00397,0.00983,-0.00274*
1,1,0.00397,-0.00983,-0.00274*
1,1,0.00397,-0.00983,0.00274*
1,1,0.00397,0.00983,0.00274*
%
%ADD49ROUNDEDRECTD49*%
G04:AMPARAMS|DCode=50|XSize=9.45mil|YSize=23.62mil|CornerRadius=1.98mil|HoleSize=0mil|Usage=FLASHONLY|Rotation=0.000|XOffset=0mil|YOffset=0mil|HoleType=Round|Shape=RoundedRectangle|*
%AMROUNDEDRECTD50*
21,1,0.00945,0.01965,0,0,0.0*
21,1,0.00548,0.02362,0,0,0.0*
1,1,0.00397,0.00274,-0.00983*
1,1,0.00397,-0.00274,-0.00983*
1,1,0.00397,-0.00274,0.00983*
1,1,0.00397,0.00274,0.00983*
%
%ADD50ROUNDEDRECTD50*%
%ADD51R,0.05512X0.04134*%
%ADD52R,0.05709X0.04528*%
%ADD53R,0.05906X0.09449*%
%ADD54R,0.02047X0.02047*%
%ADD55R,0.01968X0.03150*%
G04:AMPARAMS|DCode=56|XSize=9.42mil|YSize=38.03mil|CornerRadius=4.71mil|HoleSize=0mil|Usage=FLASHONLY|Rotation=270.000|XOffset=0mil|YOffset=0mil|HoleType=Round|Shape=RoundedRectangle|*
%AMROUNDEDRECTD56*
21,1,0.00942,0.02861,0,0,270.0*
21,1,0.00000,0.03803,0,0,270.0*
1,1,0.00942,-0.01431,0.00000*
1,1,0.00942,-0.01431,0.00000*
1,1,0.00942,0.01431,0.00000*
1,1,0.00942,0.01431,0.00000*
%
%ADD56ROUNDEDRECTD56*%
G04:AMPARAMS|DCode=57|XSize=38.03mil|YSize=9.42mil|CornerRadius=4.71mil|HoleSize=0mil|Usage=FLASHONLY|Rotation=270.000|XOffset=0mil|YOffset=0mil|HoleType=Round|Shape=RoundedRectangle|*
%AMROUNDEDRECTD57*
21,1,0.03803,0.00000,0,0,270.0*
21,1,0.02861,0.00942,0,0,270.0*
1,1,0.00942,0.00000,-0.01431*
1,1,0.00942,0.00000,0.01431*
1,1,0.00942,0.00000,0.01431*
1,1,0.00942,0.00000,-0.01431*
%
%ADD57ROUNDEDRECTD57*%
%ADD58R,0.00942X0.03803*%
%ADD92R,0.06614X0.06614*%
%ADD98C,0.07874*%
%ADD102C,0.02000*%
%ADD103C,0.00800*%
%ADD104C,0.04000*%
%ADD105C,0.07760*%
%ADD106C,0.04134*%
%ADD107R,0.07087X0.07087*%
%ADD108C,0.07087*%
%ADD109C,0.03960*%
%ADD110R,0.07087X0.07087*%
%ADD111C,0.06102*%
%ADD112R,0.06102X0.06102*%
%ADD113R,0.04134X0.04134*%
%ADD114C,0.02400*%
G36*
X313941Y-157468D02*
X313740Y-165405D01*
X313138Y-173309D01*
X312136Y-181173D01*
X310738Y-188976D01*
X308946Y-196698D01*
X306765Y-204319D01*
X304201Y-211820D01*
X301261Y-219181D01*
X297951Y-226385D01*
X294281Y-233411D01*
X290260Y-240242D01*
X285897Y-246861D01*
X281205Y-253251D01*
X276196Y-259395D01*
X270882Y-265277D01*
X265276Y-270882D01*
X259394Y-276196D01*
X253251Y-281206D01*
X246861Y-285897D01*
X240242Y-290260D01*
X233411Y-294281D01*
X226384Y-297951D01*
X219181Y-301261D01*
X211820Y-304202D01*
X204319Y-306766D01*
X196697Y-308946D01*
X188976Y-310738D01*
X181173Y-312137D01*
X173309Y-313138D01*
X165405Y-313740D01*
X157480Y-313941D01*
X149556Y-313740D01*
X141651Y-313138D01*
X133788Y-312137D01*
X125985Y-310738D01*
X118263Y-308946D01*
X110642Y-306766D01*
X103140Y-304202D01*
X95779Y-301261D01*
X88576Y-297951D01*
X81550Y-294281D01*
X74718Y-290260D01*
X68099Y-285897D01*
X61710Y-281206D01*
X55566Y-276196D01*
X49684Y-270882D01*
X44079Y-265277D01*
X38765Y-259394D01*
X33755Y-253251D01*
X29063Y-246861D01*
X24701Y-240242D01*
X20680Y-233411D01*
X17009Y-226385D01*
X13700Y-219181D01*
X10759Y-211820D01*
X8195Y-204319D01*
X6014Y-196698D01*
X4222Y-188976D01*
X2824Y-181173D01*
X1822Y-173309D01*
X1221Y-165405D01*
X1019Y-157468D01*
Y-1020D01*
X113154D01*
Y-25591D01*
X113231Y-25981D01*
X113452Y-26312D01*
X113783Y-26533D01*
X114173Y-26610D01*
X200787D01*
X201177Y-26533D01*
X201508Y-26312D01*
X201729Y-25981D01*
X201807Y-25591D01*
Y-1020D01*
X277829D01*
X278035Y-1520D01*
X277674Y-1880D01*
X277400Y-2542D01*
Y-3258D01*
X277674Y-3920D01*
X277790Y-4036D01*
X277583Y-4536D01*
X272683D01*
Y-10046D01*
X294126D01*
Y-10256D01*
X296100D01*
Y-7291D01*
X297100D01*
Y-10256D01*
X299073D01*
Y-10046D01*
X306725D01*
Y-13012D01*
X309328D01*
Y-8669D01*
X309828D01*
Y-8169D01*
X312931D01*
Y-4326D01*
X311052D01*
Y-2362D01*
X310958Y-1894D01*
X310708Y-1520D01*
X310735Y-1390D01*
X310879Y-1020D01*
X313941D01*
Y-157468D01*
D02*
G37*
%LPC*%
G36*
X264761Y-4326D02*
X261410D01*
Y-6297D01*
X260508D01*
X260304Y-6161D01*
X259836Y-6067D01*
X259367Y-6161D01*
X258970Y-6426D01*
X258705Y-6823D01*
X258612Y-7291D01*
X258705Y-7759D01*
X258970Y-8156D01*
X259200Y-8386D01*
X259597Y-8651D01*
X260065Y-8744D01*
X261410D01*
Y-11241D01*
X264761D01*
Y-7783D01*
Y-4326D01*
D02*
G37*
G36*
X269112D02*
X265761D01*
Y-7283D01*
X269112D01*
Y-4326D01*
D02*
G37*
G36*
X257169Y-5879D02*
X254900D01*
Y-7950D01*
X257169D01*
Y-5879D01*
D02*
G37*
G36*
X18123Y-3531D02*
X9436D01*
Y-12217D01*
X18123D01*
Y-9123D01*
X32868D01*
X33074Y-9620D01*
X33580Y-10126D01*
X34242Y-10400D01*
X34958D01*
X35620Y-10126D01*
X36126Y-9620D01*
X36400Y-8958D01*
Y-8242D01*
X36126Y-7580D01*
X35620Y-7074D01*
X34958Y-6800D01*
X34242D01*
X34148Y-6839D01*
X34043Y-6770D01*
X33575Y-6677D01*
X18123D01*
Y-3531D01*
D02*
G37*
G36*
X257169Y-8950D02*
X254900D01*
Y-11022D01*
X257169D01*
Y-8950D01*
D02*
G37*
G36*
X253900Y-5879D02*
X251631D01*
Y-7227D01*
X249825D01*
X249357Y-7320D01*
X248960Y-7585D01*
X248741Y-7804D01*
X248476Y-8201D01*
X248383Y-8669D01*
X248476Y-9137D01*
X248741Y-9534D01*
X249138Y-9799D01*
X249606Y-9892D01*
X250075Y-9799D01*
X250262Y-9674D01*
X251631D01*
Y-11022D01*
X253900D01*
Y-8450D01*
Y-5879D01*
D02*
G37*
G36*
X269112Y-8283D02*
X265761D01*
Y-11241D01*
X269112D01*
Y-8283D01*
D02*
G37*
G36*
X65209Y-7468D02*
X61366D01*
Y-11311D01*
X65209D01*
Y-7468D01*
D02*
G37*
G36*
X60366D02*
X56523D01*
Y-11311D01*
X60366D01*
Y-7468D01*
D02*
G37*
G36*
X312931Y-9169D02*
X310328D01*
Y-13012D01*
X312931D01*
Y-9169D01*
D02*
G37*
G36*
X100141Y-8010D02*
X99459D01*
X98800Y-8186D01*
X98210Y-8528D01*
X97728Y-9010D01*
X97386Y-9600D01*
X97210Y-10259D01*
Y-10941D01*
X97386Y-11600D01*
X97728Y-12190D01*
X98210Y-12673D01*
X98800Y-13013D01*
X99459Y-13190D01*
X100141D01*
X100800Y-13013D01*
X101390Y-12673D01*
X101873Y-12190D01*
X102214Y-11600D01*
X102390Y-10941D01*
Y-10259D01*
X102214Y-9600D01*
X101873Y-9010D01*
X101390Y-8528D01*
X100800Y-8186D01*
X100141Y-8010D01*
D02*
G37*
G36*
X81438Y-7468D02*
X80294D01*
X79190Y-7764D01*
X78199Y-8336D01*
X77391Y-9144D01*
X76819Y-10135D01*
X76523Y-11239D01*
Y-12383D01*
X76819Y-13487D01*
X77391Y-14478D01*
X78199Y-15286D01*
X79190Y-15858D01*
X80294Y-16154D01*
X81438D01*
X82543Y-15858D01*
X83533Y-15286D01*
X84342Y-14478D01*
X84913Y-13487D01*
X85035Y-13035D01*
X88048D01*
X88350Y-13337D01*
X89012Y-13611D01*
X89728D01*
X90390Y-13337D01*
X90896Y-12831D01*
X91170Y-12169D01*
Y-11453D01*
X90896Y-10791D01*
X90390Y-10285D01*
X89728Y-10011D01*
X89012D01*
X88350Y-10285D01*
X88048Y-10588D01*
X85035D01*
X84913Y-10135D01*
X84342Y-9144D01*
X83533Y-8336D01*
X82543Y-7764D01*
X81438Y-7468D01*
D02*
G37*
G36*
X246743Y-10406D02*
X242900D01*
Y-14250D01*
X246743D01*
Y-10406D01*
D02*
G37*
G36*
X241900D02*
X238057D01*
Y-14250D01*
X241900D01*
Y-10406D01*
D02*
G37*
G36*
X71438Y-7468D02*
X70294D01*
X69190Y-7764D01*
X68199Y-8336D01*
X67391Y-9144D01*
X66819Y-10135D01*
X66523Y-11239D01*
Y-12383D01*
X66819Y-13487D01*
X67391Y-14478D01*
X68199Y-15286D01*
X69190Y-15858D01*
X70294Y-16154D01*
X71438D01*
X72543Y-15858D01*
X73533Y-15286D01*
X74342Y-14478D01*
X74914Y-13487D01*
X75209Y-12383D01*
Y-11239D01*
X74914Y-10135D01*
X74342Y-9144D01*
X73533Y-8336D01*
X72543Y-7764D01*
X71438Y-7468D01*
D02*
G37*
G36*
X65209Y-12311D02*
X61366D01*
Y-16154D01*
X65209D01*
Y-12311D01*
D02*
G37*
G36*
X13280Y-13531D02*
X13208D01*
X12103Y-13827D01*
X11113Y-14399D01*
X10304Y-15207D01*
X9732Y-16198D01*
X9436Y-17302D01*
Y-17374D01*
X13280D01*
Y-13531D01*
D02*
G37*
G36*
X60366Y-12311D02*
X56523D01*
Y-13731D01*
X54731D01*
X54263Y-13824D01*
X53865Y-14089D01*
X51103Y-16851D01*
X50838Y-17248D01*
X50745Y-17717D01*
X50838Y-18185D01*
X51103Y-18582D01*
X51500Y-18847D01*
X51968Y-18940D01*
X52437Y-18847D01*
X52834Y-18582D01*
X55238Y-16178D01*
X57723D01*
X57841Y-16154D01*
X60366D01*
Y-12311D01*
D02*
G37*
G36*
X222972Y-10406D02*
X221828D01*
X220724Y-10702D01*
X219733Y-11274D01*
X218924Y-12083D01*
X218353Y-13073D01*
X218057Y-14178D01*
Y-15321D01*
X218353Y-16426D01*
X218924Y-17416D01*
X219733Y-18225D01*
X220724Y-18797D01*
X221828Y-19093D01*
X222972D01*
X224077Y-18797D01*
X225067Y-18225D01*
X225875Y-17416D01*
X226447Y-16426D01*
X226743Y-15321D01*
Y-14178D01*
X226447Y-13073D01*
X225875Y-12083D01*
X225067Y-11274D01*
X224077Y-10702D01*
X222972Y-10406D01*
D02*
G37*
G36*
X212972D02*
X211828D01*
X210723Y-10702D01*
X209733Y-11274D01*
X208925Y-12083D01*
X208353Y-13073D01*
X208057Y-14178D01*
Y-15321D01*
X208353Y-16426D01*
X208925Y-17416D01*
X209733Y-18225D01*
X210723Y-18797D01*
X211828Y-19093D01*
X212972D01*
X214076Y-18797D01*
X215067Y-18225D01*
X215876Y-17416D01*
X216447Y-16426D01*
X216743Y-15321D01*
Y-14178D01*
X216447Y-13073D01*
X215876Y-12083D01*
X215067Y-11274D01*
X214076Y-10702D01*
X212972Y-10406D01*
D02*
G37*
G36*
X256959Y-12388D02*
X251841D01*
Y-17111D01*
X253276D01*
Y-17778D01*
X252974Y-18080D01*
X252700Y-18742D01*
Y-19458D01*
X252974Y-20120D01*
X253480Y-20626D01*
X254142Y-20900D01*
X254858D01*
X255520Y-20626D01*
X256026Y-20120D01*
X256300Y-19458D01*
Y-18742D01*
X256026Y-18080D01*
X255724Y-17778D01*
Y-17111D01*
X256959D01*
Y-12388D01*
D02*
G37*
G36*
X14351Y-13531D02*
X14279D01*
Y-17874D01*
X13780D01*
D01*
X14279D01*
Y-22217D01*
X14351D01*
X15456Y-21921D01*
X16446Y-21350D01*
X17255Y-20541D01*
X17827Y-19550D01*
X17969Y-19019D01*
X31811D01*
X32279Y-18926D01*
X32676Y-18660D01*
X32755Y-18582D01*
X33020Y-18185D01*
X33113Y-17717D01*
X33020Y-17248D01*
X32755Y-16851D01*
X32358Y-16586D01*
X31890Y-16493D01*
X31494Y-16572D01*
X17927D01*
X17827Y-16198D01*
X17255Y-15207D01*
X16446Y-14399D01*
X15456Y-13827D01*
X14351Y-13531D01*
D02*
G37*
G36*
X13280Y-18374D02*
X9436D01*
Y-18446D01*
X9732Y-19550D01*
X10304Y-20541D01*
X11113Y-21350D01*
X12103Y-21921D01*
X13208Y-22217D01*
X13280D01*
Y-18374D01*
D02*
G37*
G36*
X99147Y-19864D02*
X97568D01*
Y-22231D01*
X99147D01*
Y-19864D01*
D02*
G37*
G36*
Y-23231D02*
X97568D01*
Y-25598D01*
X99147D01*
Y-23231D01*
D02*
G37*
G36*
X96568Y-19864D02*
X94988D01*
Y-21507D01*
X93469D01*
X93001Y-21600D01*
X92604Y-21866D01*
X90735Y-23735D01*
X90470Y-24132D01*
X90377Y-24600D01*
X90470Y-25068D01*
X90735Y-25465D01*
X91132Y-25730D01*
X91600Y-25824D01*
X92068Y-25730D01*
X92465Y-25465D01*
X93976Y-23954D01*
X94988D01*
Y-25598D01*
X96568D01*
Y-22731D01*
Y-19864D01*
D02*
G37*
G36*
X246743Y-15250D02*
X242400D01*
X238057D01*
Y-19093D01*
X241877D01*
Y-27800D01*
X241970Y-28268D01*
X242235Y-28665D01*
X242632Y-28930D01*
X243100Y-29024D01*
X243568Y-28930D01*
X243965Y-28665D01*
X244230Y-28268D01*
X244323Y-27800D01*
Y-19093D01*
X246743D01*
Y-15250D01*
D02*
G37*
G36*
X232972Y-10406D02*
X231828D01*
X230724Y-10702D01*
X229733Y-11274D01*
X228924Y-12083D01*
X228353Y-13073D01*
X228057Y-14178D01*
Y-15321D01*
X228353Y-16426D01*
X228924Y-17416D01*
X229733Y-18225D01*
X230724Y-18797D01*
X231176Y-18918D01*
Y-26478D01*
X230874Y-26780D01*
X230600Y-27442D01*
Y-28158D01*
X230874Y-28820D01*
X231380Y-29326D01*
X232042Y-29600D01*
X232758D01*
X233420Y-29326D01*
X233926Y-28820D01*
X234200Y-28158D01*
Y-27442D01*
X233926Y-26780D01*
X233624Y-26478D01*
Y-18918D01*
X234076Y-18797D01*
X235067Y-18225D01*
X235876Y-17416D01*
X236447Y-16426D01*
X236743Y-15321D01*
Y-14178D01*
X236447Y-13073D01*
X235876Y-12083D01*
X235067Y-11274D01*
X234076Y-10702D01*
X232972Y-10406D01*
D02*
G37*
G36*
X267524Y-28945D02*
X261620D01*
Y-30280D01*
X260011D01*
Y-29241D01*
X255288D01*
Y-34359D01*
X256426D01*
Y-36550D01*
X256519Y-37018D01*
X256785Y-37415D01*
X257776Y-38407D01*
Y-38978D01*
X257674Y-39080D01*
X257400Y-39742D01*
Y-40458D01*
X257674Y-41120D01*
X258180Y-41626D01*
X258842Y-41900D01*
X259558D01*
X260220Y-41626D01*
X260726Y-41120D01*
X261000Y-40458D01*
Y-39742D01*
X260726Y-39080D01*
X260224Y-38578D01*
Y-37900D01*
X260130Y-37432D01*
X259865Y-37035D01*
X258873Y-36043D01*
Y-34359D01*
X260011D01*
Y-32727D01*
X261620D01*
Y-34062D01*
X267524D01*
Y-28945D01*
D02*
G37*
G36*
X14351Y-23531D02*
X13208D01*
X12103Y-23827D01*
X11113Y-24398D01*
X10304Y-25207D01*
X9732Y-26198D01*
X9436Y-27302D01*
Y-28446D01*
X9732Y-29550D01*
X10304Y-30541D01*
X11113Y-31350D01*
X12103Y-31921D01*
X13208Y-32217D01*
X14351D01*
X15456Y-31921D01*
X16446Y-31350D01*
X17255Y-30541D01*
X17629Y-29894D01*
X86963D01*
X86974Y-29920D01*
X87480Y-30426D01*
X88142Y-30700D01*
X88858D01*
X89520Y-30426D01*
X90026Y-29920D01*
X90300Y-29258D01*
Y-28542D01*
X90026Y-27880D01*
X89520Y-27374D01*
X88858Y-27100D01*
X88142D01*
X87480Y-27374D01*
X87407Y-27447D01*
X18123D01*
Y-27302D01*
X17827Y-26198D01*
X17255Y-25207D01*
X16446Y-24398D01*
X15456Y-23827D01*
X14351Y-23531D01*
D02*
G37*
G36*
X133806Y-31172D02*
X131144D01*
Y-32850D01*
X133806D01*
Y-31172D01*
D02*
G37*
G36*
X182900D02*
X180238D01*
Y-32850D01*
X182900D01*
Y-31172D01*
D02*
G37*
G36*
X85458Y-31200D02*
X84742D01*
X84080Y-31474D01*
X83778Y-31776D01*
X18654D01*
X18185Y-31870D01*
X17788Y-32135D01*
X15862Y-34061D01*
X15456Y-33827D01*
X14351Y-33531D01*
X13208D01*
X12103Y-33827D01*
X11113Y-34398D01*
X10304Y-35207D01*
X9732Y-36198D01*
X9436Y-37302D01*
Y-38446D01*
X9732Y-39551D01*
X10304Y-40541D01*
X11113Y-41350D01*
X12103Y-41921D01*
X13208Y-42217D01*
X14351D01*
X15456Y-41921D01*
X16446Y-41350D01*
X17255Y-40541D01*
X17827Y-39551D01*
X18123Y-38446D01*
Y-37302D01*
X17827Y-36198D01*
X17592Y-35792D01*
X19160Y-34223D01*
X61178D01*
X61299Y-34492D01*
X61331Y-34723D01*
X60874Y-35180D01*
X60600Y-35842D01*
Y-36558D01*
X60874Y-37220D01*
X61380Y-37726D01*
X62042Y-38000D01*
X62758D01*
X63420Y-37726D01*
X63926Y-37220D01*
X64200Y-36558D01*
Y-35842D01*
X63926Y-35180D01*
X63469Y-34723D01*
X63502Y-34492D01*
X63622Y-34223D01*
X66224D01*
X66431Y-34723D01*
X66174Y-34980D01*
X65900Y-35642D01*
Y-36358D01*
X66174Y-37020D01*
X66680Y-37526D01*
X67342Y-37800D01*
X68058D01*
X68720Y-37526D01*
X69226Y-37020D01*
X69500Y-36358D01*
Y-35642D01*
X69226Y-34980D01*
X68969Y-34723D01*
X69176Y-34223D01*
X83778D01*
X84080Y-34526D01*
X84742Y-34800D01*
X85458D01*
X86120Y-34526D01*
X86626Y-34020D01*
X86900Y-33358D01*
Y-32642D01*
X86626Y-31980D01*
X86120Y-31474D01*
X85458Y-31200D01*
D02*
G37*
G36*
X251558Y-24700D02*
X250842D01*
X250180Y-24974D01*
X249674Y-25480D01*
X249400Y-26142D01*
Y-26858D01*
X249674Y-27520D01*
X250127Y-27972D01*
Y-29241D01*
X248989D01*
Y-34359D01*
X253712D01*
Y-29241D01*
X252574D01*
Y-27672D01*
X252726Y-27520D01*
X253000Y-26858D01*
Y-26142D01*
X252726Y-25480D01*
X252220Y-24974D01*
X251558Y-24700D01*
D02*
G37*
G36*
X186562Y-31172D02*
X183900D01*
Y-33350D01*
Y-35528D01*
X186562D01*
Y-34574D01*
X190255D01*
X190723Y-34481D01*
X191120Y-34216D01*
X191385Y-33819D01*
X191479Y-33350D01*
X191385Y-32882D01*
X191120Y-32485D01*
X190723Y-32220D01*
X190255Y-32127D01*
X186562D01*
Y-31172D01*
D02*
G37*
G36*
X182900Y-33850D02*
X180238D01*
Y-35528D01*
X182900D01*
Y-33850D01*
D02*
G37*
G36*
X133806Y-33850D02*
X131144D01*
Y-35528D01*
X133806D01*
Y-33850D01*
D02*
G37*
G36*
X130144Y-31172D02*
X127482D01*
Y-32127D01*
X123581D01*
X123113Y-32220D01*
X122716Y-32485D01*
X122451Y-32882D01*
X122358Y-33350D01*
X122451Y-33819D01*
X122716Y-34216D01*
X123113Y-34481D01*
X123581Y-34574D01*
X127482D01*
Y-35528D01*
X130144D01*
Y-33350D01*
Y-31172D01*
D02*
G37*
G36*
X107402Y-20074D02*
X103663D01*
Y-25388D01*
X107402D01*
Y-25388D01*
X107877Y-25449D01*
Y-32225D01*
X104667Y-35435D01*
X104402Y-35832D01*
X104309Y-36300D01*
Y-36412D01*
X103663D01*
Y-41726D01*
X107402D01*
Y-40293D01*
X113962D01*
X114242Y-40572D01*
Y-43484D01*
X119359D01*
Y-38760D01*
X115891D01*
X115334Y-38204D01*
X114937Y-37939D01*
X114469Y-37846D01*
X107402D01*
Y-36412D01*
X107402Y-36412D01*
X107402D01*
X107582Y-35981D01*
X109965Y-33597D01*
X110230Y-33200D01*
X110324Y-32732D01*
Y-24400D01*
X110230Y-23932D01*
X109965Y-23535D01*
X108296Y-21866D01*
X107899Y-21600D01*
X107431Y-21507D01*
X107402D01*
Y-20074D01*
D02*
G37*
G36*
X99147Y-36202D02*
X97568D01*
Y-38569D01*
X99147D01*
Y-36202D01*
D02*
G37*
G36*
X96568D02*
X94988D01*
Y-38569D01*
X96568D01*
Y-36202D01*
D02*
G37*
G36*
X215818Y-34210D02*
X215004D01*
X214218Y-34421D01*
X213513Y-34827D01*
X212938Y-35403D01*
X212531Y-36107D01*
X212321Y-36893D01*
Y-37707D01*
X212531Y-38493D01*
X212938Y-39197D01*
X213513Y-39773D01*
X214218Y-40179D01*
X215004Y-40390D01*
X215818D01*
X216603Y-40179D01*
X217308Y-39773D01*
X217883Y-39197D01*
X218052Y-38905D01*
X218677Y-38823D01*
X218680Y-38826D01*
X219342Y-39100D01*
X220058D01*
X220720Y-38826D01*
X221226Y-38320D01*
X221500Y-37658D01*
Y-36942D01*
X221226Y-36280D01*
X220720Y-35774D01*
X220058Y-35500D01*
X219342D01*
X218680Y-35774D01*
X218677Y-35777D01*
X218052Y-35695D01*
X217883Y-35403D01*
X217308Y-34827D01*
X216603Y-34421D01*
X215818Y-34210D01*
D02*
G37*
G36*
X186352Y-36107D02*
X180448D01*
Y-40043D01*
X186352D01*
Y-36107D01*
D02*
G37*
G36*
X133596D02*
X127692D01*
Y-40043D01*
X133596D01*
Y-36107D01*
D02*
G37*
G36*
X243558Y-31000D02*
X242842D01*
X242180Y-31274D01*
X241674Y-31780D01*
X241400Y-32442D01*
Y-33158D01*
X241674Y-33820D01*
X242180Y-34326D01*
X242842Y-34600D01*
X243270D01*
X248445Y-39775D01*
Y-41082D01*
X253955D01*
Y-35572D01*
X248445D01*
Y-35661D01*
X247983Y-35852D01*
X245000Y-32870D01*
Y-32442D01*
X244726Y-31780D01*
X244220Y-31274D01*
X243558Y-31000D01*
D02*
G37*
G36*
X238889Y-39300D02*
X238173D01*
X237512Y-39574D01*
X237005Y-40080D01*
X236731Y-40742D01*
Y-40889D01*
X236329Y-41292D01*
X235831D01*
X235363Y-41385D01*
X234966Y-41650D01*
X234250Y-42366D01*
X233644Y-42265D01*
X233542Y-42112D01*
X232600Y-41170D01*
Y-40742D01*
X232326Y-40080D01*
X231820Y-39574D01*
X231158Y-39300D01*
X230442D01*
X229780Y-39574D01*
X229274Y-40080D01*
X229000Y-40742D01*
Y-41458D01*
X229274Y-42120D01*
X229780Y-42626D01*
X230442Y-42900D01*
X230870D01*
X231454Y-43484D01*
Y-45867D01*
X231398D01*
Y-46949D01*
X228347D01*
Y-48708D01*
X228137D01*
Y-48973D01*
X220889D01*
X220421Y-49066D01*
X220024Y-49332D01*
X219758Y-49729D01*
X219665Y-50197D01*
X219758Y-50665D01*
X220024Y-51062D01*
X220421Y-51327D01*
X220889Y-51420D01*
X222730D01*
X222921Y-51882D01*
X221535Y-53269D01*
X221270Y-53666D01*
X221177Y-54134D01*
X221270Y-54602D01*
X221535Y-54999D01*
X221932Y-55264D01*
X222400Y-55357D01*
X222868Y-55264D01*
X223265Y-54999D01*
X224875Y-53389D01*
X228137D01*
Y-53654D01*
X228347D01*
Y-55413D01*
X231398D01*
Y-56495D01*
X231454D01*
Y-57189D01*
X231315Y-57396D01*
X231222Y-57864D01*
Y-59485D01*
X230904Y-59804D01*
X229407D01*
Y-60194D01*
X228487D01*
X228185Y-59891D01*
X227523Y-59617D01*
X226807D01*
X226146Y-59891D01*
X225639Y-60398D01*
X225365Y-61059D01*
Y-61775D01*
X225546Y-62212D01*
X225122Y-62495D01*
X217574Y-54947D01*
X217177Y-54682D01*
X216709Y-54589D01*
X208085D01*
Y-52288D01*
X203361D01*
Y-57405D01*
X208085D01*
Y-57036D01*
X216202D01*
X221154Y-61988D01*
X221123Y-62158D01*
X220936Y-62476D01*
X211788D01*
X211539Y-62103D01*
X211070Y-61635D01*
X210673Y-61370D01*
X210205Y-61277D01*
X208085D01*
Y-58859D01*
X203361D01*
Y-63976D01*
X208085D01*
Y-63723D01*
X209559D01*
X209808Y-64096D01*
X210277Y-64565D01*
X210674Y-64830D01*
X211142Y-64924D01*
X220559D01*
X224850Y-69214D01*
X224658Y-69677D01*
X223627D01*
X220644Y-66693D01*
X220247Y-66428D01*
X219779Y-66335D01*
X208085D01*
Y-65000D01*
X203361D01*
Y-70117D01*
X208085D01*
Y-68782D01*
X219272D01*
X222027Y-71537D01*
X221820Y-72037D01*
X196706D01*
X194472Y-69802D01*
X194589Y-69213D01*
X194899Y-69084D01*
X195201Y-68782D01*
X197062D01*
Y-70117D01*
X201785D01*
Y-65000D01*
X197062D01*
Y-66335D01*
X195201D01*
X194899Y-66032D01*
X194237Y-65758D01*
X193521D01*
X192860Y-66032D01*
X192353Y-66539D01*
X192225Y-66849D01*
X191635Y-66966D01*
X190504Y-65835D01*
X190107Y-65570D01*
X189639Y-65477D01*
X186352D01*
Y-64453D01*
X180448D01*
Y-68389D01*
X186352D01*
Y-67923D01*
X189132D01*
X195334Y-74126D01*
X195560Y-74277D01*
X195408Y-74777D01*
X193507D01*
X188765Y-70035D01*
X188368Y-69770D01*
X187900Y-69677D01*
X186352D01*
Y-69178D01*
X180448D01*
Y-73114D01*
X186352D01*
Y-72123D01*
X187393D01*
X189964Y-74695D01*
X189757Y-75195D01*
X186562D01*
Y-73692D01*
X183900D01*
Y-75870D01*
Y-78048D01*
X186562D01*
Y-77642D01*
X190081D01*
X190549Y-77549D01*
X190946Y-77283D01*
X191212Y-76886D01*
X191251Y-76688D01*
X191794Y-76524D01*
X192135Y-76865D01*
X192532Y-77130D01*
X193000Y-77223D01*
X206183D01*
X206233Y-77723D01*
X206089Y-77752D01*
X205692Y-78017D01*
X205040Y-78669D01*
X204775Y-79066D01*
X204682Y-79534D01*
Y-81536D01*
X203544D01*
Y-82871D01*
X197415D01*
X196947Y-82964D01*
X196550Y-83229D01*
X194717Y-85062D01*
X194213Y-84859D01*
X193981Y-84299D01*
X193475Y-83793D01*
X192813Y-83519D01*
X192097D01*
X191436Y-83793D01*
X191133Y-84095D01*
X186352D01*
Y-83351D01*
X180448D01*
Y-87287D01*
X186352D01*
Y-86542D01*
X191133D01*
X191436Y-86845D01*
X191888Y-87032D01*
X192045Y-87539D01*
X191807Y-87842D01*
X184378D01*
X183910Y-87935D01*
X183700Y-88075D01*
X180448D01*
Y-92011D01*
X186352D01*
Y-90289D01*
X192444D01*
X192912Y-90196D01*
X193309Y-89930D01*
X197922Y-85318D01*
X203544D01*
Y-86653D01*
X208267D01*
Y-81536D01*
X207129D01*
Y-80106D01*
X225942D01*
Y-82457D01*
X225268Y-82846D01*
X224693Y-83422D01*
X224286Y-84126D01*
X224075Y-84912D01*
Y-85726D01*
X224286Y-86512D01*
X224693Y-87216D01*
X225268Y-87792D01*
X225973Y-88198D01*
X226759Y-88409D01*
X227572D01*
X228358Y-88198D01*
X229063Y-87792D01*
X229638Y-87216D01*
X230045Y-86512D01*
X230255Y-85726D01*
Y-84912D01*
X230045Y-84126D01*
X229638Y-83422D01*
X229063Y-82846D01*
X228389Y-82457D01*
Y-80106D01*
X229103D01*
X229366Y-80499D01*
X229763Y-80765D01*
X230231Y-80858D01*
X230699Y-80765D01*
X230828Y-80679D01*
X231480Y-80409D01*
X231987Y-79902D01*
X232261Y-79241D01*
Y-78525D01*
X231987Y-77863D01*
X231847Y-77723D01*
X232054Y-77223D01*
X237900D01*
X238203Y-77526D01*
X238864Y-77800D01*
X239580D01*
X240242Y-77526D01*
X240748Y-77020D01*
X241022Y-76358D01*
Y-75642D01*
X240748Y-74980D01*
X240714Y-74946D01*
X240905Y-74484D01*
X243698D01*
X244001Y-74787D01*
X244662Y-75061D01*
X245378D01*
X246040Y-74787D01*
X246546Y-74280D01*
X246820Y-73619D01*
Y-72903D01*
X246705Y-72623D01*
X247039Y-72123D01*
X251493D01*
X251961Y-72030D01*
X252358Y-71765D01*
X258332Y-65790D01*
X273723D01*
Y-67107D01*
X273049Y-67496D01*
X272474Y-68071D01*
X272067Y-68776D01*
X271856Y-69562D01*
Y-70375D01*
X272067Y-71161D01*
X272474Y-71866D01*
X273049Y-72441D01*
X273753Y-72848D01*
X274539Y-73059D01*
X275353D01*
X276139Y-72848D01*
X276843Y-72441D01*
X277419Y-71866D01*
X277825Y-71161D01*
X278036Y-70375D01*
Y-69562D01*
X277825Y-68776D01*
X277419Y-68071D01*
X276843Y-67496D01*
X276170Y-67107D01*
Y-65623D01*
X281662D01*
X281940Y-66039D01*
X281856Y-66242D01*
Y-66958D01*
X282130Y-67620D01*
X282384Y-67874D01*
Y-70399D01*
X281710Y-70788D01*
X281135Y-71363D01*
X280728Y-72068D01*
X280518Y-72854D01*
Y-73667D01*
X280728Y-74453D01*
X281135Y-75158D01*
X281710Y-75733D01*
X282415Y-76140D01*
X283201Y-76351D01*
X284014D01*
X284800Y-76140D01*
X285505Y-75733D01*
X286080Y-75158D01*
X286487Y-74453D01*
X286698Y-73667D01*
Y-72854D01*
X286487Y-72068D01*
X286080Y-71363D01*
X285505Y-70788D01*
X284831Y-70399D01*
Y-67970D01*
X285182Y-67620D01*
X285456Y-66958D01*
Y-66242D01*
X285372Y-66039D01*
X285649Y-65623D01*
X286753D01*
X286863Y-65697D01*
X287331Y-65790D01*
X290983D01*
X291286Y-66093D01*
X291947Y-66367D01*
X292663D01*
X293325Y-66093D01*
X293831Y-65587D01*
X294105Y-64925D01*
Y-64209D01*
X293831Y-63547D01*
X293325Y-63041D01*
X292663Y-62767D01*
X291947D01*
X291286Y-63041D01*
X290983Y-63343D01*
X287743D01*
X287632Y-63270D01*
X287164Y-63177D01*
X275233D01*
X274764Y-63270D01*
X274654Y-63343D01*
X259170D01*
X258979Y-62881D01*
X260737Y-61124D01*
X299578D01*
X299676Y-61222D01*
Y-62031D01*
X299770Y-62500D01*
X300035Y-62897D01*
X300503Y-63365D01*
X300900Y-63630D01*
X301369Y-63723D01*
X306966D01*
X307355Y-64397D01*
X307931Y-64973D01*
X308635Y-65379D01*
X309421Y-65590D01*
X310235D01*
X311021Y-65379D01*
X311725Y-64973D01*
X312301Y-64397D01*
X312707Y-63693D01*
X312918Y-62907D01*
Y-62093D01*
X312707Y-61307D01*
X312301Y-60603D01*
X311725Y-60027D01*
X311021Y-59621D01*
X310235Y-59410D01*
X309421D01*
X308635Y-59621D01*
X307931Y-60027D01*
X307355Y-60603D01*
X306966Y-61277D01*
X302776D01*
X302672Y-61170D01*
X302485Y-60777D01*
X302700Y-60258D01*
Y-59542D01*
X302426Y-58880D01*
X301920Y-58374D01*
X301258Y-58100D01*
X300542D01*
X299880Y-58374D01*
X299578Y-58676D01*
X284697D01*
X284598Y-58176D01*
X284720Y-58126D01*
X285226Y-57620D01*
X285500Y-56958D01*
Y-56242D01*
X285646Y-56024D01*
X286878D01*
X287180Y-56326D01*
X287842Y-56600D01*
X288558D01*
X289220Y-56326D01*
X289726Y-55820D01*
X290000Y-55158D01*
Y-54442D01*
X289726Y-53780D01*
X289220Y-53274D01*
X288558Y-53000D01*
X287842D01*
X287180Y-53274D01*
X286878Y-53576D01*
X285518D01*
X284843Y-52901D01*
X284446Y-52636D01*
X283978Y-52543D01*
X282682D01*
Y-46662D01*
X274021D01*
Y-52543D01*
X258189D01*
X257820Y-52174D01*
X257158Y-51900D01*
X256442D01*
X255780Y-52174D01*
X255274Y-52680D01*
X255000Y-53342D01*
Y-54058D01*
X255274Y-54720D01*
X255780Y-55226D01*
X256442Y-55500D01*
X257158D01*
X257820Y-55226D01*
X258055Y-54990D01*
X260273D01*
X260537Y-55453D01*
X260531Y-55490D01*
X260165Y-55735D01*
X249906Y-65993D01*
X236992D01*
X236725Y-65493D01*
X236730Y-65485D01*
X236824Y-65017D01*
X236730Y-64549D01*
X236465Y-64152D01*
X236240Y-63927D01*
X235843Y-63661D01*
X235375Y-63568D01*
X232844D01*
Y-62743D01*
X232634D01*
Y-61808D01*
X232658Y-61769D01*
X232817Y-61668D01*
X233370Y-61886D01*
X233635Y-62283D01*
X234032Y-62548D01*
X234500Y-62641D01*
X234968Y-62548D01*
X235365Y-62283D01*
X235438Y-62210D01*
X235703Y-61813D01*
X235796Y-61344D01*
Y-59796D01*
X236296Y-59547D01*
X236476Y-59684D01*
Y-61417D01*
X236570Y-61885D01*
X236835Y-62283D01*
X237232Y-62548D01*
X237700Y-62641D01*
X238168Y-62548D01*
X238565Y-62283D01*
X238830Y-61885D01*
X238924Y-61417D01*
Y-58960D01*
X238830Y-58492D01*
X238565Y-58095D01*
X237838Y-57367D01*
Y-56705D01*
X238103D01*
Y-55413D01*
X240944D01*
Y-55357D01*
X244843D01*
Y-55747D01*
X247783D01*
Y-55958D01*
X249028D01*
X249099Y-56317D01*
X249365Y-56714D01*
X249590Y-56939D01*
X249638Y-57180D01*
X249903Y-57577D01*
X250300Y-57842D01*
X250768Y-57936D01*
X251237Y-57842D01*
X251633Y-57577D01*
X251899Y-57180D01*
X251992Y-56712D01*
Y-56387D01*
X251899Y-55919D01*
X251633Y-55522D01*
X251453Y-55342D01*
Y-54757D01*
X251430Y-54639D01*
Y-54634D01*
X249606D01*
Y-54134D01*
X249106D01*
Y-52310D01*
X247783D01*
X247680Y-51853D01*
Y-51519D01*
X247983Y-51217D01*
X248257Y-50555D01*
Y-49839D01*
X247983Y-49177D01*
X247476Y-48671D01*
X246815Y-48397D01*
X246099D01*
X245437Y-48671D01*
X244931Y-49177D01*
X244657Y-49839D01*
Y-50555D01*
X244931Y-51217D01*
X245233Y-51519D01*
Y-52520D01*
X244843D01*
Y-52910D01*
X240944D01*
Y-47240D01*
X248445D01*
Y-48169D01*
X253955D01*
Y-42658D01*
X248445D01*
Y-44793D01*
X237743D01*
X237275Y-44886D01*
X236878Y-45151D01*
X236425Y-45605D01*
X235941Y-45487D01*
X235869Y-45379D01*
Y-44208D01*
X236338Y-43739D01*
X236835D01*
X237303Y-43646D01*
X237701Y-43380D01*
X238181Y-42900D01*
X238889D01*
X239551Y-42626D01*
X240057Y-42120D01*
X240331Y-41458D01*
Y-40742D01*
X240057Y-40080D01*
X239551Y-39574D01*
X238889Y-39300D01*
D02*
G37*
G36*
X186352Y-40831D02*
X180448D01*
Y-44767D01*
X186352D01*
Y-40831D01*
D02*
G37*
G36*
X133596D02*
X127692D01*
Y-44767D01*
X133596D01*
Y-40831D01*
D02*
G37*
G36*
X267734Y-43302D02*
X265072D01*
Y-45570D01*
X267734D01*
Y-43302D01*
D02*
G37*
G36*
X99147Y-39569D02*
X97068D01*
X94988D01*
Y-41936D01*
X95844D01*
Y-43426D01*
X95235Y-44035D01*
X94970Y-44432D01*
X94876Y-44900D01*
X94970Y-45368D01*
X95235Y-45765D01*
X95632Y-46030D01*
X96100Y-46123D01*
X96568Y-46030D01*
X96965Y-45765D01*
X97933Y-44797D01*
X98198Y-44401D01*
X98291Y-43932D01*
Y-41936D01*
X99147D01*
Y-39569D01*
D02*
G37*
G36*
X267734Y-46571D02*
X265072D01*
Y-48839D01*
X267734D01*
Y-46571D01*
D02*
G37*
G36*
X158577Y-44583D02*
X158206Y-44657D01*
X153044D01*
Y-49394D01*
X152044D01*
Y-44657D01*
X150358D01*
X149987Y-44583D01*
X149615Y-44657D01*
X147807D01*
Y-48170D01*
X145400D01*
X144932Y-48263D01*
X144535Y-48529D01*
X144270Y-48926D01*
X144176Y-49394D01*
X144270Y-49862D01*
X144535Y-50259D01*
X144932Y-50524D01*
X145400Y-50617D01*
X147807D01*
Y-54131D01*
Y-56902D01*
X145400D01*
X144932Y-56996D01*
X144535Y-57261D01*
X144270Y-57658D01*
X144176Y-58126D01*
X144270Y-58594D01*
X144535Y-58991D01*
X144932Y-59256D01*
X145400Y-59350D01*
X147807D01*
Y-62863D01*
X152044D01*
Y-58126D01*
X153044D01*
Y-62863D01*
X160635D01*
Y-58126D01*
X161635D01*
Y-62863D01*
X165872D01*
Y-59297D01*
X167501D01*
X167969Y-59203D01*
X168366Y-58938D01*
X168631Y-58541D01*
X168724Y-58073D01*
X168631Y-57605D01*
X168366Y-57208D01*
X167969Y-56943D01*
X167501Y-56850D01*
X165872D01*
Y-54131D01*
Y-50617D01*
X167501D01*
X167969Y-50524D01*
X168366Y-50259D01*
X168631Y-49862D01*
X168724Y-49394D01*
X168631Y-48926D01*
X168366Y-48529D01*
X167969Y-48263D01*
X167501Y-48170D01*
X165872D01*
Y-44657D01*
X161635D01*
Y-49394D01*
X160635D01*
Y-44657D01*
X158949D01*
X158577Y-44583D01*
D02*
G37*
G36*
X186352Y-45556D02*
X180448D01*
Y-49492D01*
X186352D01*
Y-45556D01*
D02*
G37*
G36*
X133596D02*
X127692D01*
Y-49492D01*
X133596D01*
Y-45556D01*
D02*
G37*
G36*
X119359Y-45060D02*
X114242D01*
Y-45920D01*
X111931D01*
X111463Y-46013D01*
X111066Y-46278D01*
X107762Y-49582D01*
X107262Y-49448D01*
Y-48342D01*
X102538D01*
Y-53458D01*
X103676D01*
Y-61871D01*
X98303Y-67245D01*
X98037Y-67642D01*
X97944Y-68110D01*
Y-81233D01*
X97270Y-81622D01*
X96695Y-82197D01*
X96288Y-82902D01*
X96078Y-83688D01*
Y-84501D01*
X96288Y-85287D01*
X96695Y-85992D01*
X97270Y-86567D01*
X97975Y-86974D01*
X98761Y-87185D01*
X99575D01*
X100360Y-86974D01*
X101065Y-86567D01*
X101640Y-85992D01*
X102047Y-85287D01*
X102258Y-84501D01*
Y-83688D01*
X102047Y-82902D01*
X101640Y-82197D01*
X101065Y-81622D01*
X100391Y-81233D01*
Y-68617D01*
X105765Y-63243D01*
X106030Y-62846D01*
X106123Y-62378D01*
Y-53458D01*
X107262D01*
Y-52123D01*
X108174D01*
X108642Y-52030D01*
X109039Y-51765D01*
X112438Y-48367D01*
X114242D01*
Y-49344D01*
X112001Y-51585D01*
X111573D01*
X110911Y-51859D01*
X110405Y-52365D01*
X110131Y-53027D01*
Y-53743D01*
X110405Y-54405D01*
X110911Y-54911D01*
X111573Y-55185D01*
X112289D01*
X112950Y-54911D01*
X113457Y-54405D01*
X113731Y-53743D01*
Y-53315D01*
X117263Y-49783D01*
X119359D01*
Y-45060D01*
D02*
G37*
G36*
X264072Y-43302D02*
X261410D01*
Y-45531D01*
X261010Y-45610D01*
X260613Y-45875D01*
X258970Y-47518D01*
X258970Y-47518D01*
X258705Y-47915D01*
X258612Y-48384D01*
X258705Y-48852D01*
X258970Y-49249D01*
X259367Y-49514D01*
X259836Y-49607D01*
X260304Y-49514D01*
X260701Y-49249D01*
X260956Y-48994D01*
X261410Y-48839D01*
Y-48839D01*
X261410Y-48839D01*
X264072D01*
Y-46071D01*
X264572D01*
D01*
X264072D01*
Y-43302D01*
D02*
G37*
G36*
X101172Y-48131D02*
X99101D01*
Y-50400D01*
X101172D01*
Y-48131D01*
D02*
G37*
G36*
X98101D02*
X96029D01*
Y-50400D01*
X98101D01*
Y-48131D01*
D02*
G37*
G36*
X41254Y-41523D02*
X40006D01*
X38802Y-41846D01*
X37721Y-42469D01*
X36839Y-43351D01*
X36216Y-44431D01*
X36054Y-45036D01*
X32358D01*
X31890Y-45129D01*
X31493Y-45395D01*
X31025Y-45863D01*
X30759Y-46260D01*
X30666Y-46729D01*
Y-76383D01*
X29808Y-77241D01*
X18812D01*
Y-71976D01*
X11109D01*
Y-79678D01*
X14910D01*
X14961Y-79688D01*
X30315D01*
X30783Y-79595D01*
X31180Y-79330D01*
X32755Y-77755D01*
X33020Y-77358D01*
X33113Y-76890D01*
Y-47483D01*
X36054D01*
X36216Y-48088D01*
X36839Y-49168D01*
X37721Y-50050D01*
X38802Y-50674D01*
X40006Y-50997D01*
X41254D01*
X42458Y-50674D01*
X43538Y-50050D01*
X44420Y-49168D01*
X45044Y-48088D01*
X45367Y-46883D01*
Y-45636D01*
X45044Y-44431D01*
X44420Y-43351D01*
X43538Y-42469D01*
X42458Y-41846D01*
X41254Y-41523D01*
D02*
G37*
G36*
X14351Y-43531D02*
X13208D01*
X12103Y-43827D01*
X11113Y-44398D01*
X10304Y-45207D01*
X9732Y-46198D01*
X9436Y-47302D01*
Y-48446D01*
X9732Y-49551D01*
X10304Y-50541D01*
X11113Y-51350D01*
X12103Y-51921D01*
X13208Y-52217D01*
X14351D01*
X15456Y-51921D01*
X16446Y-51350D01*
X17255Y-50541D01*
X17827Y-49551D01*
X18123Y-48446D01*
Y-47302D01*
X17827Y-46198D01*
X17255Y-45207D01*
X16446Y-44398D01*
X15456Y-43827D01*
X14351Y-43531D01*
D02*
G37*
G36*
X306186Y-46662D02*
X297525D01*
Y-53157D01*
X306186D01*
Y-46662D01*
D02*
G37*
G36*
X201785Y-52288D02*
X197062D01*
Y-53623D01*
X195920D01*
X195618Y-53320D01*
X194956Y-53047D01*
X194240D01*
X193579Y-53320D01*
X193072Y-53827D01*
X192798Y-54488D01*
Y-55204D01*
X193072Y-55866D01*
X193579Y-56372D01*
X194240Y-56647D01*
X194956D01*
X195618Y-56372D01*
X195920Y-56070D01*
X197062D01*
Y-57405D01*
X201785D01*
Y-52288D01*
D02*
G37*
G36*
X250106Y-52310D02*
Y-53634D01*
X251430D01*
Y-52310D01*
X250106D01*
D02*
G37*
G36*
X186352Y-50280D02*
X180448D01*
Y-54216D01*
X186352D01*
Y-50280D01*
D02*
G37*
G36*
X133596D02*
X127692D01*
Y-54216D01*
X133596D01*
Y-50280D01*
D02*
G37*
G36*
X122975Y-54912D02*
X122259D01*
X121598Y-55186D01*
X121091Y-55692D01*
X120817Y-56354D01*
Y-57070D01*
X121055Y-57645D01*
X120851Y-58145D01*
X114746D01*
X114278Y-58238D01*
X114181Y-58303D01*
X113681Y-58170D01*
Y-58170D01*
X106792D01*
Y-63877D01*
X113538D01*
X113808Y-63983D01*
X114053Y-64186D01*
X114274Y-64720D01*
X114780Y-65226D01*
X115442Y-65500D01*
X115870D01*
X116737Y-66367D01*
X116721Y-66476D01*
X116222Y-66887D01*
X113891D01*
Y-65047D01*
X110736D01*
Y-68110D01*
X110236D01*
Y-68610D01*
X106582D01*
Y-71174D01*
X109013D01*
Y-73541D01*
X109106Y-74010D01*
X109371Y-74406D01*
X109768Y-74672D01*
X110236Y-74765D01*
X110704Y-74672D01*
X111101Y-74406D01*
X111367Y-74010D01*
X111460Y-73541D01*
Y-71174D01*
X113891D01*
Y-69334D01*
X115716D01*
X120430Y-74048D01*
Y-74531D01*
X120523Y-75000D01*
X120788Y-75397D01*
X122127Y-76735D01*
X122524Y-77000D01*
X122992Y-77094D01*
X127482D01*
Y-78048D01*
X130144D01*
Y-75870D01*
Y-73692D01*
X127482D01*
Y-74647D01*
X123499D01*
X122877Y-74025D01*
Y-73541D01*
X122784Y-73073D01*
X122519Y-72676D01*
X122674Y-72435D01*
X122838Y-72288D01*
X123246Y-72369D01*
X127692D01*
Y-73114D01*
X133596D01*
Y-69178D01*
X127692D01*
Y-69922D01*
X123752D01*
X117600Y-63770D01*
Y-63342D01*
X117326Y-62680D01*
X116820Y-62174D01*
X116158Y-61900D01*
X115442D01*
X114780Y-62174D01*
X114274Y-62680D01*
X114181Y-62906D01*
X113681Y-62807D01*
Y-62073D01*
X113956Y-61889D01*
X115253Y-60592D01*
X122881D01*
X124852Y-62562D01*
X125249Y-62827D01*
X125717Y-62920D01*
X127692D01*
Y-63665D01*
X133596D01*
Y-59729D01*
X127692D01*
Y-60473D01*
X126224D01*
X124612Y-58861D01*
Y-57483D01*
X124519Y-57015D01*
X124417Y-56863D01*
Y-56354D01*
X124143Y-55692D01*
X123637Y-55186D01*
X122975Y-54912D01*
D02*
G37*
G36*
X69894Y-54121D02*
X69770D01*
X68565Y-54444D01*
X67485Y-55068D01*
X66603Y-55950D01*
X65979Y-57030D01*
X65657Y-58235D01*
Y-58358D01*
X69894D01*
Y-54121D01*
D02*
G37*
G36*
X186352Y-55005D02*
X180448D01*
Y-58940D01*
X186352D01*
Y-55005D01*
D02*
G37*
G36*
X133596D02*
X127692D01*
Y-58940D01*
X133596D01*
Y-55005D01*
D02*
G37*
G36*
X14351Y-53531D02*
X13208D01*
X12103Y-53827D01*
X11113Y-54399D01*
X10304Y-55207D01*
X9732Y-56198D01*
X9436Y-57302D01*
Y-58446D01*
X9732Y-59550D01*
X10304Y-60541D01*
X11113Y-61349D01*
X12103Y-61921D01*
X13208Y-62217D01*
X14351D01*
X15456Y-61921D01*
X16446Y-61349D01*
X17255Y-60541D01*
X17827Y-59550D01*
X18123Y-58446D01*
Y-57302D01*
X17827Y-56198D01*
X17255Y-55207D01*
X16446Y-54399D01*
X15456Y-53827D01*
X14351Y-53531D01*
D02*
G37*
G36*
X101172Y-51400D02*
X98601D01*
X96029D01*
Y-53668D01*
X97377D01*
Y-58681D01*
X95899Y-60158D01*
X95634Y-60555D01*
X95541Y-61024D01*
X95634Y-61492D01*
X95899Y-61889D01*
X96296Y-62154D01*
X96765Y-62247D01*
X97233Y-62154D01*
X97630Y-61889D01*
X99466Y-60053D01*
X99731Y-59656D01*
X99824Y-59187D01*
Y-53668D01*
X101172D01*
Y-51400D01*
D02*
G37*
G36*
X71017Y-54121D02*
X70894D01*
Y-58858D01*
Y-63595D01*
X71017D01*
X72222Y-63273D01*
X73302Y-62649D01*
X74184Y-61767D01*
X74808Y-60687D01*
X74973Y-60072D01*
X78390D01*
X78858Y-59979D01*
X79255Y-59714D01*
X79265Y-59704D01*
X79530Y-59307D01*
X79624Y-58838D01*
X79530Y-58370D01*
X79265Y-57973D01*
X78868Y-57708D01*
X78400Y-57615D01*
X78350Y-57625D01*
X74967D01*
X74808Y-57030D01*
X74184Y-55950D01*
X73302Y-55068D01*
X72222Y-54444D01*
X71017Y-54121D01*
D02*
G37*
G36*
X69894Y-59358D02*
X65657D01*
Y-59482D01*
X65979Y-60687D01*
X66603Y-61767D01*
X67485Y-62649D01*
X68565Y-63273D01*
X69770Y-63595D01*
X69894D01*
Y-59358D01*
D02*
G37*
G36*
X186352Y-59729D02*
X180448D01*
Y-63665D01*
X186352D01*
Y-59729D01*
D02*
G37*
G36*
X190285Y-54912D02*
X189569D01*
X188907Y-55186D01*
X188401Y-55692D01*
X188127Y-56354D01*
Y-57070D01*
X188401Y-57732D01*
X188907Y-58238D01*
X189569Y-58512D01*
X190285D01*
X190311Y-58501D01*
X190748Y-58938D01*
X191145Y-59203D01*
X191613Y-59297D01*
X192573D01*
X192604Y-59328D01*
Y-60202D01*
X192698Y-60670D01*
X192963Y-61067D01*
X194178Y-62283D01*
X194575Y-62548D01*
X195043Y-62641D01*
X197062D01*
Y-63976D01*
X201785D01*
Y-58859D01*
X197062D01*
Y-60194D01*
X195550D01*
X195051Y-59695D01*
Y-58821D01*
X194958Y-58353D01*
X194693Y-57956D01*
X193945Y-57208D01*
X193548Y-56943D01*
X193080Y-56850D01*
X192120D01*
X191727Y-56457D01*
Y-56354D01*
X191453Y-55692D01*
X190947Y-55186D01*
X190285Y-54912D01*
D02*
G37*
G36*
X109736Y-65047D02*
X106582D01*
Y-67610D01*
X109736D01*
Y-65047D01*
D02*
G37*
G36*
X122975Y-61900D02*
X122259D01*
X121598Y-62174D01*
X121091Y-62680D01*
X120817Y-63342D01*
Y-64058D01*
X121091Y-64720D01*
X121598Y-65226D01*
X122259Y-65500D01*
X122687D01*
X124473Y-67286D01*
X124870Y-67552D01*
X125338Y-67645D01*
X127692D01*
Y-68389D01*
X133596D01*
Y-64453D01*
X127692D01*
Y-65198D01*
X125845D01*
X124417Y-63770D01*
Y-63342D01*
X124143Y-62680D01*
X123637Y-62174D01*
X122975Y-61900D01*
D02*
G37*
G36*
X265668Y-66879D02*
X264854D01*
X264068Y-67089D01*
X263364Y-67496D01*
X262788Y-68071D01*
X262399Y-68745D01*
X260522D01*
X260220Y-68443D01*
X259558Y-68169D01*
X258842D01*
X258180Y-68443D01*
X257674Y-68949D01*
X257400Y-69611D01*
Y-70327D01*
X257674Y-70988D01*
X258180Y-71495D01*
X258842Y-71769D01*
X259558D01*
X260220Y-71495D01*
X260522Y-71192D01*
X262399D01*
X262788Y-71866D01*
X263364Y-72441D01*
X264068Y-72848D01*
X264854Y-73059D01*
X265668D01*
X266454Y-72848D01*
X267158Y-72441D01*
X267734Y-71866D01*
X268140Y-71161D01*
X268351Y-70375D01*
Y-69562D01*
X268140Y-68776D01*
X267734Y-68071D01*
X267158Y-67496D01*
X266454Y-67089D01*
X265668Y-66879D01*
D02*
G37*
G36*
X133806Y-73692D02*
X131144D01*
Y-75370D01*
X133806D01*
Y-73692D01*
D02*
G37*
G36*
X182900D02*
X180238D01*
Y-75370D01*
X182900D01*
Y-73692D01*
D02*
G37*
G36*
X41254Y-66720D02*
X40006D01*
X38802Y-67042D01*
X37721Y-67666D01*
X36839Y-68548D01*
X36216Y-69628D01*
X35893Y-70833D01*
Y-72080D01*
X36216Y-73285D01*
X36839Y-74365D01*
X37721Y-75247D01*
X38802Y-75871D01*
X40006Y-76194D01*
X41254D01*
X42458Y-75871D01*
X43538Y-75247D01*
X44420Y-74365D01*
X45044Y-73285D01*
X45367Y-72080D01*
Y-70833D01*
X45044Y-69628D01*
X44420Y-68548D01*
X43538Y-67666D01*
X42458Y-67042D01*
X41254Y-66720D01*
D02*
G37*
G36*
X182900Y-76370D02*
X180238D01*
Y-78048D01*
X182900D01*
Y-76370D01*
D02*
G37*
G36*
X133806Y-76370D02*
X131144D01*
Y-78048D01*
X133806D01*
Y-76370D01*
D02*
G37*
G36*
X133596Y-78627D02*
X127692D01*
Y-79371D01*
X122145D01*
X121843Y-79068D01*
X121181Y-78794D01*
X120465D01*
X119804Y-79068D01*
X119298Y-79575D01*
X119023Y-80237D01*
Y-80953D01*
X119298Y-81614D01*
X119804Y-82121D01*
X120465Y-82394D01*
X121181D01*
X121843Y-82121D01*
X122145Y-81818D01*
X127692D01*
Y-82562D01*
X133596D01*
Y-78627D01*
D02*
G37*
G36*
X303950Y-69751D02*
X295263D01*
Y-78438D01*
X296475D01*
X296601Y-78938D01*
X296286Y-79106D01*
X295381Y-79849D01*
X295381Y-79849D01*
X295033Y-80204D01*
X291287Y-83950D01*
X291022Y-84347D01*
X290929Y-84815D01*
Y-93458D01*
X290970Y-93664D01*
X284258Y-100376D01*
X281194D01*
X280916Y-99961D01*
X281000Y-99758D01*
Y-99042D01*
X280726Y-98380D01*
X280220Y-97874D01*
X279558Y-97600D01*
X278842D01*
X278180Y-97874D01*
X277878Y-98176D01*
X275453D01*
X271961Y-94684D01*
X271564Y-94419D01*
X271096Y-94326D01*
X269459D01*
Y-93188D01*
X266269D01*
X265719Y-92638D01*
X265322Y-92373D01*
X264854Y-92280D01*
X257262D01*
X256873Y-91606D01*
X256297Y-91031D01*
X255593Y-90624D01*
X254807Y-90413D01*
X253993D01*
X253207Y-90624D01*
X252503Y-91031D01*
X251927Y-91606D01*
X251521Y-92311D01*
X251310Y-93097D01*
Y-93910D01*
X251521Y-94696D01*
X251927Y-95401D01*
X252503Y-95976D01*
X253207Y-96383D01*
X253993Y-96593D01*
X254807D01*
X255593Y-96383D01*
X256297Y-95976D01*
X256873Y-95401D01*
X257262Y-94727D01*
X264341D01*
Y-97493D01*
X222040D01*
X221888Y-96993D01*
X221931Y-96965D01*
X223888Y-95007D01*
X224513Y-95090D01*
X224693Y-95401D01*
X225268Y-95976D01*
X225973Y-96383D01*
X226759Y-96593D01*
X227572D01*
X228358Y-96383D01*
X229063Y-95976D01*
X229638Y-95401D01*
X230045Y-94696D01*
X230255Y-93910D01*
Y-93097D01*
X230045Y-92311D01*
X229638Y-91606D01*
X229063Y-91031D01*
X228358Y-90624D01*
X227572Y-90413D01*
X226759D01*
X225973Y-90624D01*
X225268Y-91031D01*
X224693Y-91606D01*
X224304Y-92280D01*
X223662D01*
X223194Y-92373D01*
X222797Y-92638D01*
X220559Y-94876D01*
X215562D01*
X215111Y-94758D01*
X215111Y-94376D01*
Y-93663D01*
X216593D01*
X216895Y-93965D01*
X217557Y-94239D01*
X218273D01*
X218935Y-93965D01*
X219441Y-93459D01*
X219715Y-92797D01*
Y-92081D01*
X219441Y-91419D01*
X218935Y-90913D01*
X218273Y-90639D01*
X217557D01*
X216895Y-90913D01*
X216593Y-91215D01*
X215111D01*
Y-89641D01*
X210388D01*
X210388Y-94646D01*
X209904Y-94797D01*
X209681Y-94574D01*
X209019Y-94300D01*
X208812D01*
Y-89641D01*
X204089D01*
Y-91215D01*
X195409D01*
X194940Y-91309D01*
X194544Y-91574D01*
X192573Y-93544D01*
X186352D01*
Y-92800D01*
X180448D01*
Y-96736D01*
X186352D01*
Y-95991D01*
X193080D01*
X193548Y-95898D01*
X193945Y-95633D01*
X195915Y-93663D01*
X204089D01*
Y-94758D01*
X204682D01*
Y-96648D01*
X204429Y-96957D01*
X191613D01*
X191145Y-97050D01*
X190748Y-97315D01*
X190482Y-97712D01*
X190389Y-98180D01*
Y-98269D01*
X186352D01*
Y-97524D01*
X180448D01*
Y-101460D01*
X186352D01*
Y-100716D01*
X191144D01*
X191612Y-100622D01*
X192009Y-100357D01*
X192478Y-99889D01*
X192743Y-99492D01*
X192761Y-99404D01*
X194206D01*
X194483Y-99819D01*
X194399Y-100022D01*
Y-100738D01*
X194674Y-101400D01*
X195180Y-101906D01*
X195842Y-102180D01*
X196558D01*
X197219Y-101906D01*
X197292Y-101833D01*
X197866D01*
X197934Y-101902D01*
X197994Y-102543D01*
X197972Y-102575D01*
X197888Y-103000D01*
X197274Y-103254D01*
X196767Y-103761D01*
X196493Y-104422D01*
Y-105138D01*
X196767Y-105800D01*
X197274Y-106306D01*
X197935Y-106580D01*
X198651D01*
X199313Y-106306D01*
X199323Y-106308D01*
X199448Y-106609D01*
X199954Y-107115D01*
X200616Y-107390D01*
X201332D01*
X201993Y-107115D01*
X202500Y-106609D01*
X202774Y-105948D01*
Y-105608D01*
X203080Y-105301D01*
X204457D01*
X204734Y-105717D01*
X204650Y-105920D01*
Y-106636D01*
X204924Y-107298D01*
X205431Y-107804D01*
X206092Y-108078D01*
X206808D01*
X207470Y-107804D01*
X207772Y-107501D01*
X208438D01*
X208715Y-107917D01*
X208631Y-108120D01*
Y-108836D01*
X208905Y-109498D01*
X209412Y-110004D01*
X210073Y-110278D01*
X210789D01*
X211451Y-110004D01*
X211753Y-109702D01*
X214906D01*
X215000Y-109842D01*
Y-110558D01*
X215274Y-111220D01*
X215780Y-111726D01*
X216442Y-112000D01*
X217158D01*
X217820Y-111726D01*
X218122Y-111424D01*
X220588D01*
X220600Y-111442D01*
Y-112158D01*
X220874Y-112820D01*
X221380Y-113326D01*
X222042Y-113600D01*
X222758D01*
X223420Y-113326D01*
X223722Y-113023D01*
X224698D01*
X225166Y-112930D01*
X225563Y-112665D01*
X225668Y-112560D01*
X228962D01*
X229296Y-113060D01*
X229220Y-113242D01*
Y-113958D01*
X229315Y-114187D01*
X228981Y-114687D01*
X200287D01*
X199085Y-113485D01*
X199277Y-113023D01*
X204899D01*
X205201Y-113326D01*
X205863Y-113600D01*
X206579D01*
X207240Y-113326D01*
X207747Y-112820D01*
X208021Y-112158D01*
Y-111442D01*
X207747Y-110780D01*
X207240Y-110274D01*
X206579Y-110000D01*
X205863D01*
X205201Y-110274D01*
X204899Y-110576D01*
X199100D01*
X191875Y-103351D01*
X191478Y-103086D01*
X191010Y-102993D01*
X186352D01*
Y-102249D01*
X180448D01*
Y-106184D01*
X186352D01*
Y-105440D01*
X190503D01*
X194993Y-109930D01*
X194802Y-110392D01*
X194014D01*
X191573Y-107951D01*
X191176Y-107686D01*
X190708Y-107593D01*
X190255D01*
X190255Y-107593D01*
X186352D01*
Y-106973D01*
X180448D01*
Y-110909D01*
X186352D01*
Y-110040D01*
X190201D01*
X191703Y-111542D01*
X191586Y-112132D01*
X191363Y-112224D01*
X191061Y-112527D01*
X186352D01*
Y-111697D01*
X180448D01*
Y-115633D01*
X186352D01*
Y-114974D01*
X191061D01*
X191363Y-115276D01*
X192025Y-115550D01*
X192741D01*
X193403Y-115276D01*
X193909Y-114770D01*
X194183Y-114108D01*
Y-113392D01*
X194126Y-113255D01*
X194404Y-112839D01*
X194978D01*
X198526Y-116387D01*
X198319Y-116887D01*
X186352D01*
Y-116422D01*
X180448D01*
Y-120358D01*
X186352D01*
Y-119334D01*
X210156D01*
X210458Y-119636D01*
X211120Y-119910D01*
X211836D01*
X212498Y-119636D01*
X213004Y-119130D01*
X213278Y-118468D01*
Y-117752D01*
X213194Y-117550D01*
X213472Y-117134D01*
X285383D01*
X285519Y-117270D01*
Y-118769D01*
X285612Y-119237D01*
X285877Y-119634D01*
X288859Y-122616D01*
Y-138980D01*
X288952Y-139448D01*
X289217Y-139845D01*
X296002Y-146629D01*
Y-153682D01*
X296095Y-154150D01*
X296360Y-154547D01*
X298156Y-156343D01*
X297921Y-156749D01*
X297625Y-157853D01*
Y-158997D01*
X297921Y-160102D01*
X298493Y-161092D01*
X299302Y-161901D01*
X300292Y-162472D01*
X301397Y-162768D01*
X302540D01*
X303645Y-162472D01*
X304635Y-161901D01*
X305444Y-161092D01*
X306016Y-160102D01*
X306312Y-158997D01*
Y-157853D01*
X306016Y-156749D01*
X305444Y-155758D01*
X304635Y-154950D01*
X303645Y-154378D01*
X302540Y-154082D01*
X301397D01*
X300292Y-154378D01*
X299886Y-154612D01*
X298449Y-153175D01*
Y-151755D01*
X298949Y-151548D01*
X299302Y-151901D01*
X300292Y-152472D01*
X301397Y-152769D01*
X302540D01*
X303645Y-152472D01*
X304635Y-151901D01*
X305444Y-151092D01*
X306016Y-150102D01*
X306312Y-148997D01*
Y-147853D01*
X306016Y-146749D01*
X305444Y-145758D01*
X304635Y-144950D01*
X303645Y-144378D01*
X302540Y-144082D01*
X301397D01*
X300292Y-144378D01*
X299886Y-144612D01*
X298504Y-143230D01*
X298695Y-142769D01*
X306312D01*
Y-134082D01*
X299356D01*
X296087Y-130813D01*
Y-127424D01*
X296586Y-127217D01*
X296939Y-127570D01*
X297930Y-128142D01*
X299035Y-128438D01*
X300178D01*
X301283Y-128142D01*
X302273Y-127570D01*
X303082Y-126761D01*
X303654Y-125771D01*
X303950Y-124666D01*
Y-123523D01*
X303654Y-122418D01*
X303082Y-121428D01*
X302273Y-120619D01*
X301283Y-120047D01*
X300178Y-119751D01*
X299035D01*
X297930Y-120047D01*
X297524Y-120282D01*
X294486Y-117244D01*
Y-111358D01*
X294948Y-111167D01*
X295793Y-112012D01*
X295559Y-112418D01*
X295263Y-113523D01*
Y-114666D01*
X295559Y-115771D01*
X296131Y-116761D01*
X296939Y-117570D01*
X297930Y-118142D01*
X299035Y-118438D01*
X300178D01*
X301283Y-118142D01*
X302273Y-117570D01*
X303082Y-116761D01*
X303654Y-115771D01*
X303950Y-114666D01*
Y-113523D01*
X303654Y-112418D01*
X303082Y-111428D01*
X302273Y-110619D01*
X301283Y-110047D01*
X300178Y-109751D01*
X299035D01*
X297930Y-110047D01*
X297524Y-110282D01*
X294377Y-107135D01*
X293980Y-106870D01*
X293512Y-106776D01*
X291571D01*
X291379Y-106315D01*
X292376Y-105318D01*
X295438D01*
X295559Y-105771D01*
X296131Y-106761D01*
X296939Y-107570D01*
X297930Y-108142D01*
X299035Y-108438D01*
X300178D01*
X301283Y-108142D01*
X302273Y-107570D01*
X303082Y-106761D01*
X303654Y-105771D01*
X303950Y-104666D01*
Y-103523D01*
X303654Y-102418D01*
X303082Y-101428D01*
X302273Y-100619D01*
X301283Y-100047D01*
X300178Y-99751D01*
X299035D01*
X297930Y-100047D01*
X296939Y-100619D01*
X296131Y-101428D01*
X295559Y-102418D01*
X295438Y-102871D01*
X293213D01*
X293022Y-102409D01*
X297524Y-97907D01*
X297930Y-98142D01*
X299035Y-98438D01*
X300178D01*
X301283Y-98142D01*
X302273Y-97570D01*
X303082Y-96761D01*
X303654Y-95771D01*
X303950Y-94666D01*
Y-93523D01*
X303654Y-92418D01*
X303082Y-91428D01*
X302273Y-90619D01*
X301283Y-90047D01*
X300935Y-89954D01*
X300718Y-89378D01*
X300737Y-89351D01*
X300830Y-88882D01*
Y-88263D01*
X301283Y-88142D01*
X302273Y-87570D01*
X303082Y-86761D01*
X303654Y-85771D01*
X303950Y-84666D01*
Y-83523D01*
X303654Y-82418D01*
X303082Y-81428D01*
X302273Y-80619D01*
X301283Y-80047D01*
X300913Y-79948D01*
X300784Y-79725D01*
X300718Y-79378D01*
X300737Y-79351D01*
X300752Y-79274D01*
X300787Y-79204D01*
X300798Y-79042D01*
X300830Y-78882D01*
Y-78438D01*
X303950D01*
Y-69751D01*
D02*
G37*
G36*
X186352Y-78627D02*
X180448D01*
Y-82562D01*
X186352D01*
Y-81818D01*
X188933D01*
X189235Y-82121D01*
X189897Y-82394D01*
X190613D01*
X191275Y-82121D01*
X191781Y-81614D01*
X192055Y-80953D01*
Y-80237D01*
X191781Y-79575D01*
X191275Y-79068D01*
X190613Y-78794D01*
X189897D01*
X189235Y-79068D01*
X188933Y-79371D01*
X186352D01*
Y-78627D01*
D02*
G37*
G36*
X133596Y-83351D02*
X127692D01*
Y-84095D01*
X121622D01*
X121320Y-83793D01*
X120658Y-83519D01*
X119942D01*
X119280Y-83793D01*
X118774Y-84299D01*
X118500Y-84961D01*
Y-85677D01*
X118774Y-86339D01*
X119280Y-86845D01*
X119942Y-87119D01*
X120658D01*
X121320Y-86845D01*
X121622Y-86542D01*
X127692D01*
Y-87287D01*
X133596D01*
Y-83351D01*
D02*
G37*
G36*
X214566Y-81536D02*
X209843D01*
Y-86653D01*
X214566D01*
Y-85318D01*
X216593D01*
X216895Y-85620D01*
X217557Y-85895D01*
X218273D01*
X218935Y-85620D01*
X219441Y-85114D01*
X219715Y-84452D01*
Y-83736D01*
X219441Y-83075D01*
X218935Y-82569D01*
X218273Y-82294D01*
X217557D01*
X216895Y-82569D01*
X216593Y-82871D01*
X214566D01*
Y-81536D01*
D02*
G37*
G36*
X133596Y-88075D02*
X127692D01*
Y-88820D01*
X123756D01*
X123538Y-88776D01*
X122707D01*
X122448Y-88517D01*
X121786Y-88243D01*
X121070D01*
X120409Y-88517D01*
X119902Y-89024D01*
X119628Y-89685D01*
Y-90401D01*
X119902Y-91063D01*
X120409Y-91569D01*
X121070Y-91843D01*
X121786D01*
X122448Y-91569D01*
X122794Y-91224D01*
X123363D01*
X123581Y-91267D01*
X127692D01*
Y-92011D01*
X133596D01*
Y-88075D01*
D02*
G37*
G36*
X15468Y-81976D02*
X14454D01*
X13474Y-82238D01*
X12596Y-82745D01*
X11879Y-83462D01*
X11372Y-84340D01*
X11109Y-85320D01*
Y-86334D01*
X11372Y-87313D01*
X11879Y-88191D01*
X12596Y-88908D01*
X13474Y-89416D01*
X14454Y-89678D01*
X15468D01*
X16447Y-89416D01*
X17325Y-88908D01*
X18042Y-88191D01*
X18549Y-87313D01*
X18812Y-86334D01*
Y-85320D01*
X18549Y-84340D01*
X18042Y-83462D01*
X17325Y-82745D01*
X16447Y-82238D01*
X15468Y-81976D01*
D02*
G37*
G36*
X267258Y-82294D02*
X266542D01*
X265880Y-82569D01*
X265374Y-83075D01*
X265100Y-83736D01*
Y-84452D01*
X265374Y-85114D01*
X265676Y-85417D01*
Y-86889D01*
X264341D01*
Y-91612D01*
X269459D01*
Y-86889D01*
X268124D01*
Y-85417D01*
X268426Y-85114D01*
X268700Y-84452D01*
Y-83736D01*
X268426Y-83075D01*
X267920Y-82569D01*
X267258Y-82294D01*
D02*
G37*
G36*
X93528Y-89241D02*
X92812D01*
X92150Y-89515D01*
X91644Y-90022D01*
X91370Y-90683D01*
Y-91399D01*
X91644Y-92061D01*
X92150Y-92567D01*
X92812Y-92841D01*
X93528D01*
X94190Y-92567D01*
X94353Y-92404D01*
X114546D01*
X116362Y-94219D01*
X116171Y-94681D01*
X90953D01*
X90485Y-94774D01*
X90088Y-95040D01*
X89754Y-95374D01*
X89728Y-95363D01*
X89012D01*
X88350Y-95637D01*
X87844Y-96144D01*
X87570Y-96805D01*
Y-97521D01*
X87844Y-98183D01*
X88350Y-98689D01*
X89012Y-98963D01*
X89728D01*
X90390Y-98689D01*
X90896Y-98183D01*
X91170Y-97521D01*
Y-97418D01*
X91460Y-97128D01*
X120922D01*
X124151Y-100357D01*
X124548Y-100622D01*
X125016Y-100716D01*
X127692D01*
Y-101460D01*
X133596D01*
Y-97524D01*
X127692D01*
Y-98269D01*
X125522D01*
X123239Y-95986D01*
X123431Y-95524D01*
X127692D01*
Y-96736D01*
X133596D01*
Y-92800D01*
X127692D01*
Y-93076D01*
X118680D01*
X115918Y-90315D01*
X115521Y-90050D01*
X115053Y-89957D01*
X94631D01*
X94190Y-89515D01*
X93528Y-89241D01*
D02*
G37*
G36*
X28458Y-92800D02*
X27742D01*
X27080Y-93074D01*
X26778Y-93376D01*
X21739D01*
X21270Y-93470D01*
X20873Y-93735D01*
X16773Y-97835D01*
X12599D01*
Y-103740D01*
X18503D01*
Y-99566D01*
X22245Y-95824D01*
X26778D01*
X27080Y-96126D01*
X27742Y-96400D01*
X28458D01*
X29120Y-96126D01*
X29626Y-95620D01*
X29900Y-94958D01*
Y-94242D01*
X29626Y-93580D01*
X29120Y-93074D01*
X28458Y-92800D01*
D02*
G37*
G36*
X159824Y-92909D02*
X155587D01*
Y-97146D01*
X159824D01*
Y-92909D01*
D02*
G37*
G36*
X153549D02*
X149312D01*
Y-97146D01*
X153549D01*
Y-92909D01*
D02*
G37*
G36*
X112090Y-98580D02*
X111374D01*
X110713Y-98854D01*
X110206Y-99361D01*
X109932Y-100022D01*
Y-100738D01*
X110206Y-101400D01*
X110713Y-101906D01*
X111374Y-102180D01*
X112090D01*
X112752Y-101906D01*
X113258Y-101400D01*
X113532Y-100738D01*
Y-100022D01*
X113258Y-99361D01*
X112752Y-98854D01*
X112090Y-98580D01*
D02*
G37*
G36*
X165061Y-92909D02*
X160824D01*
Y-97646D01*
Y-102383D01*
X165061D01*
Y-98869D01*
X166455D01*
X166923Y-98776D01*
X167320Y-98511D01*
X167586Y-98114D01*
X167679Y-97646D01*
X167586Y-97177D01*
X167320Y-96781D01*
X166923Y-96515D01*
X166455Y-96422D01*
X165061D01*
Y-92909D01*
D02*
G37*
G36*
X159824Y-98146D02*
X155587D01*
Y-102383D01*
X159824D01*
Y-98146D01*
D02*
G37*
G36*
X153549Y-98146D02*
X149312D01*
Y-102383D01*
X153549D01*
Y-98146D01*
D02*
G37*
G36*
X148312Y-92909D02*
X144075D01*
Y-96422D01*
X142337D01*
X141869Y-96515D01*
X141472Y-96781D01*
X141207Y-97177D01*
X141114Y-97646D01*
X141207Y-98114D01*
X141472Y-98511D01*
X141869Y-98776D01*
X142337Y-98869D01*
X144075D01*
Y-102383D01*
X148312D01*
Y-97646D01*
Y-92909D01*
D02*
G37*
G36*
X133596Y-102249D02*
X127692D01*
Y-102993D01*
X120823D01*
X120355Y-103086D01*
X119958Y-103351D01*
X118413Y-104897D01*
X117120D01*
X116652Y-104990D01*
X116255Y-105255D01*
X115357Y-106152D01*
X115357Y-106152D01*
X113704Y-107806D01*
X111105D01*
Y-112135D01*
X115435D01*
Y-109536D01*
X117088Y-107883D01*
X117088Y-107883D01*
X117627Y-107344D01*
X118920D01*
X119388Y-107250D01*
X119785Y-106985D01*
X121330Y-105440D01*
X127692D01*
Y-106184D01*
X133596D01*
Y-102249D01*
D02*
G37*
G36*
X148312Y-104149D02*
X144075D01*
Y-107662D01*
X142686D01*
X142337Y-107593D01*
X141869Y-107686D01*
X141472Y-107951D01*
X141207Y-108348D01*
X141114Y-108817D01*
X141207Y-109285D01*
X141472Y-109682D01*
X141542Y-109751D01*
X141938Y-110016D01*
X142407Y-110109D01*
X144075D01*
Y-113623D01*
X148312D01*
Y-108886D01*
X148812D01*
D01*
X148312D01*
Y-104149D01*
D02*
G37*
G36*
X159824D02*
X155587D01*
Y-108386D01*
X159824D01*
Y-104149D01*
D02*
G37*
G36*
X153549D02*
X149312D01*
Y-108386D01*
X153549D01*
Y-104149D01*
D02*
G37*
G36*
X133806Y-106763D02*
X131144D01*
Y-108441D01*
X133806D01*
Y-106763D01*
D02*
G37*
G36*
X28158Y-97200D02*
X27442D01*
X26780Y-97474D01*
X26274Y-97980D01*
X26000Y-98642D01*
Y-99070D01*
X25907Y-99163D01*
X25641Y-99560D01*
X25548Y-100028D01*
Y-105512D01*
X25197D01*
Y-109842D01*
X28346D01*
Y-105512D01*
X27995D01*
Y-100800D01*
X28158D01*
X28820Y-100526D01*
X29326Y-100020D01*
X29600Y-99358D01*
Y-98642D01*
X29326Y-97980D01*
X28820Y-97474D01*
X28158Y-97200D01*
D02*
G37*
G36*
X165061Y-104149D02*
X160824D01*
Y-108886D01*
Y-113623D01*
X165061D01*
Y-110109D01*
X165820D01*
X165987Y-110221D01*
X166455Y-110314D01*
X166923Y-110221D01*
X167320Y-109956D01*
X167586Y-109559D01*
X167679Y-109091D01*
X167586Y-108622D01*
X167320Y-108226D01*
X167115Y-108021D01*
X166718Y-107755D01*
X166250Y-107662D01*
X165061D01*
Y-104149D01*
D02*
G37*
G36*
X133806Y-109441D02*
X131144D01*
Y-111119D01*
X133806D01*
Y-109441D01*
D02*
G37*
G36*
X123581Y-106454D02*
X123113Y-106547D01*
X122716Y-106812D01*
X122451Y-107209D01*
X122358Y-107677D01*
X122451Y-108145D01*
X122716Y-108542D01*
X123980Y-109806D01*
X124377Y-110071D01*
X124845Y-110164D01*
X127482D01*
Y-111119D01*
X130144D01*
Y-108941D01*
Y-106763D01*
X127482D01*
Y-107717D01*
X125352D01*
X124446Y-106812D01*
X124049Y-106547D01*
X123581Y-106454D01*
D02*
G37*
G36*
X133596Y-111697D02*
X127692D01*
Y-112442D01*
X121141D01*
X120838Y-112139D01*
X120177Y-111865D01*
X119461D01*
X118799Y-112139D01*
X118293Y-112646D01*
X118019Y-113307D01*
Y-114023D01*
X118293Y-114685D01*
X118799Y-115191D01*
X119461Y-115465D01*
X120177D01*
X120838Y-115191D01*
X121141Y-114889D01*
X127692D01*
Y-115633D01*
X133596D01*
Y-111697D01*
D02*
G37*
G36*
X159824Y-109386D02*
X155587D01*
Y-113623D01*
X159824D01*
Y-109386D01*
D02*
G37*
G36*
X153549Y-109386D02*
X149312D01*
Y-113623D01*
X153549D01*
Y-109386D01*
D02*
G37*
G36*
X109529Y-107806D02*
X105199D01*
Y-110405D01*
X104216Y-111389D01*
X99341D01*
Y-116112D01*
X104458D01*
Y-114606D01*
X106930Y-112135D01*
X109529D01*
Y-107806D01*
D02*
G37*
G36*
X133596Y-116422D02*
X127692D01*
Y-117166D01*
X120801D01*
X120639Y-117004D01*
X119977Y-116730D01*
X119261D01*
X118600Y-117004D01*
X118094Y-117511D01*
X117819Y-118172D01*
Y-118888D01*
X118094Y-119550D01*
X118600Y-120056D01*
X119261Y-120330D01*
X119977D01*
X120639Y-120056D01*
X121082Y-119613D01*
X127692D01*
Y-120358D01*
X133596D01*
Y-116422D01*
D02*
G37*
G36*
X112090Y-116310D02*
X111374D01*
X110713Y-116584D01*
X110206Y-117091D01*
X109932Y-117752D01*
Y-118459D01*
X109566Y-118826D01*
X104458D01*
Y-117688D01*
X99341D01*
Y-122411D01*
X104458D01*
Y-121273D01*
X110072D01*
X110541Y-121180D01*
X110938Y-120915D01*
X111942Y-119910D01*
X112090D01*
X112752Y-119636D01*
X113258Y-119130D01*
X113532Y-118468D01*
Y-117752D01*
X113258Y-117091D01*
X112752Y-116584D01*
X112090Y-116310D01*
D02*
G37*
G36*
X10236Y-97835D02*
X4331D01*
Y-103740D01*
X5469D01*
Y-113386D01*
X4038D01*
Y-118897D01*
X9549D01*
Y-113386D01*
X7916D01*
Y-103740D01*
X10236D01*
Y-97835D01*
D02*
G37*
G36*
X28346Y-113386D02*
X25197D01*
Y-117716D01*
X25548D01*
Y-121337D01*
X15204D01*
Y-118897D01*
X16635D01*
Y-113386D01*
X11124D01*
Y-118897D01*
X12757D01*
Y-122092D01*
X12850Y-122561D01*
X13115Y-122958D01*
X13584Y-123426D01*
X13981Y-123691D01*
X14449Y-123784D01*
X25548D01*
Y-128816D01*
X14809D01*
X14499Y-128279D01*
X13965Y-127745D01*
X13311Y-127368D01*
X12582Y-127172D01*
X11827D01*
X11098Y-127368D01*
X10444Y-127745D01*
X9911Y-128279D01*
X9533Y-128933D01*
X9338Y-129662D01*
Y-130417D01*
X9533Y-131146D01*
X9911Y-131800D01*
X10339Y-132229D01*
X10402Y-132539D01*
X10339Y-132850D01*
X9911Y-133279D01*
X9533Y-133933D01*
X9338Y-134662D01*
Y-135417D01*
X9533Y-136146D01*
X9837Y-136672D01*
X9638Y-137172D01*
X9338D01*
Y-139539D01*
X12205D01*
X15072D01*
Y-137172D01*
X14772D01*
X14572Y-136672D01*
X14809Y-136263D01*
X20824D01*
Y-165312D01*
X14763D01*
Y-163286D01*
X9646D01*
Y-168009D01*
X14763D01*
Y-167759D01*
X27953D01*
Y-169291D01*
X33464D01*
Y-163780D01*
X27953D01*
Y-165312D01*
X23271D01*
Y-135508D01*
X23178Y-135040D01*
X22912Y-134643D01*
X22444Y-134174D01*
X22047Y-133909D01*
X21579Y-133816D01*
X14809D01*
X14499Y-133279D01*
X14070Y-132850D01*
X14007Y-132539D01*
X14070Y-132229D01*
X14499Y-131800D01*
X14809Y-131263D01*
X25080D01*
Y-145397D01*
X25173Y-145866D01*
X25438Y-146263D01*
X25907Y-146731D01*
X26303Y-146996D01*
X26772Y-147090D01*
X36054D01*
X36216Y-147695D01*
X36839Y-148775D01*
X37721Y-149657D01*
X38802Y-150280D01*
X40006Y-150603D01*
X41254D01*
X42458Y-150280D01*
X43538Y-149657D01*
X44420Y-148775D01*
X45044Y-147695D01*
X45367Y-146490D01*
Y-145243D01*
X45044Y-144038D01*
X44420Y-142957D01*
X43538Y-142076D01*
X42458Y-141452D01*
X41254Y-141129D01*
X40006D01*
X38802Y-141452D01*
X37721Y-142076D01*
X36839Y-142957D01*
X36216Y-144038D01*
X36054Y-144643D01*
X27527D01*
Y-130546D01*
X27637Y-130436D01*
X27902Y-130039D01*
X27995Y-129571D01*
Y-122561D01*
Y-117716D01*
X28346D01*
Y-113386D01*
D02*
G37*
G36*
X133806Y-120936D02*
X131144D01*
Y-122614D01*
X133806D01*
Y-120936D01*
D02*
G37*
G36*
X182900D02*
X180238D01*
Y-122614D01*
X182900D01*
Y-120936D01*
D02*
G37*
G36*
X133806Y-123614D02*
X131144D01*
Y-125292D01*
X133806D01*
Y-123614D01*
D02*
G37*
G36*
X130144Y-120936D02*
X127482D01*
Y-121891D01*
X122862D01*
X122394Y-121984D01*
X121997Y-122249D01*
X121732Y-122646D01*
X121639Y-123114D01*
X121732Y-123582D01*
X121997Y-123979D01*
X122394Y-124245D01*
X122862Y-124338D01*
X127482D01*
Y-125292D01*
X130144D01*
Y-123114D01*
Y-120936D01*
D02*
G37*
G36*
X239705Y-125182D02*
X233801D01*
Y-126910D01*
X228878D01*
Y-125379D01*
X223368D01*
Y-130889D01*
X228878D01*
Y-129357D01*
X233801D01*
Y-131086D01*
X239705D01*
Y-125182D01*
D02*
G37*
G36*
X244520Y-124972D02*
X241858D01*
Y-127634D01*
X244520D01*
Y-124972D01*
D02*
G37*
G36*
X186562Y-120936D02*
X183900D01*
Y-123114D01*
X183400D01*
Y-123614D01*
X180238D01*
Y-125292D01*
X181131D01*
X181399Y-125792D01*
X181370Y-125835D01*
X178660D01*
Y-131740D01*
X182596D01*
Y-128550D01*
X183738Y-127408D01*
X189660D01*
X189962Y-127710D01*
X190624Y-127984D01*
X191340D01*
X192002Y-127710D01*
X192508Y-127204D01*
X192782Y-126542D01*
Y-125826D01*
X192508Y-125165D01*
X192002Y-124658D01*
X191690Y-124529D01*
X191614Y-123984D01*
X191625Y-123961D01*
X191878Y-123582D01*
X191971Y-123114D01*
X191878Y-122646D01*
X191613Y-122249D01*
X191216Y-121984D01*
X190748Y-121891D01*
X186562D01*
Y-120936D01*
D02*
G37*
G36*
X107480Y-122792D02*
X107012Y-122885D01*
X106615Y-123151D01*
X106558Y-123207D01*
X106293Y-123604D01*
X106200Y-124073D01*
Y-125916D01*
X104360D01*
Y-129071D01*
X107424D01*
X110487D01*
Y-125916D01*
X108647D01*
Y-124301D01*
X108704Y-124016D01*
X108611Y-123547D01*
X108345Y-123151D01*
X107949Y-122885D01*
X107480Y-122792D01*
D02*
G37*
G36*
X248183Y-124972D02*
X245520D01*
Y-128134D01*
Y-131296D01*
X248183D01*
Y-129357D01*
X250139D01*
X250607Y-129264D01*
X251004Y-128999D01*
X251269Y-128602D01*
X251362Y-128134D01*
X251269Y-127666D01*
X251004Y-127269D01*
X250607Y-127004D01*
X250139Y-126910D01*
X248183D01*
Y-124972D01*
D02*
G37*
G36*
X244520Y-128634D02*
X241858D01*
Y-131296D01*
X244520D01*
Y-128634D01*
D02*
G37*
G36*
X110487Y-130071D02*
X107924D01*
Y-133225D01*
X110487D01*
Y-130071D01*
D02*
G37*
G36*
X106924D02*
X104360D01*
Y-133225D01*
X106924D01*
Y-130071D01*
D02*
G37*
G36*
X221792Y-125379D02*
X216281D01*
Y-126910D01*
X212205D01*
X211736Y-127004D01*
X211340Y-127269D01*
X207198Y-131410D01*
X194498D01*
X194030Y-131503D01*
X193633Y-131769D01*
X187092Y-138310D01*
X181912D01*
X181610Y-138008D01*
X180948Y-137734D01*
X180232D01*
X179570Y-138008D01*
X179064Y-138514D01*
X178790Y-139176D01*
Y-139278D01*
X178290Y-139485D01*
X177127Y-138322D01*
Y-131740D01*
X177872D01*
Y-125835D01*
X173936D01*
Y-131740D01*
X174680D01*
Y-138829D01*
X174774Y-139297D01*
X175039Y-139694D01*
X176387Y-141042D01*
Y-141737D01*
X175719D01*
Y-146854D01*
X176480D01*
Y-151697D01*
X176573Y-152165D01*
X176601Y-152208D01*
Y-160436D01*
X182112D01*
Y-151776D01*
X179512D01*
X178927Y-151190D01*
Y-146854D01*
X180443D01*
Y-141834D01*
X180443Y-141737D01*
X180677Y-141334D01*
X180948D01*
X181610Y-141060D01*
X181912Y-140757D01*
X187598D01*
X188067Y-140664D01*
X188464Y-140399D01*
X195005Y-133857D01*
X207705D01*
X208173Y-133764D01*
X208570Y-133499D01*
X212712Y-129357D01*
X216281D01*
Y-130889D01*
X221792D01*
Y-125379D01*
D02*
G37*
G36*
X168423Y-125835D02*
X164487D01*
Y-131740D01*
X165232D01*
Y-136209D01*
X164929Y-136512D01*
X164655Y-137173D01*
Y-137889D01*
X164929Y-138551D01*
X165436Y-139057D01*
X166097Y-139331D01*
X166813D01*
X167475Y-139057D01*
X167981Y-138551D01*
X168255Y-137889D01*
Y-137173D01*
X167981Y-136512D01*
X167679Y-136209D01*
Y-131740D01*
X168423D01*
Y-125835D01*
D02*
G37*
G36*
X222534Y-138764D02*
X217023D01*
Y-139477D01*
X207422D01*
X207120Y-139174D01*
X206458Y-138900D01*
X205742D01*
X205080Y-139174D01*
X204574Y-139680D01*
X204300Y-140342D01*
Y-141058D01*
X204574Y-141720D01*
X205080Y-142226D01*
X205742Y-142500D01*
X206458D01*
X207120Y-142226D01*
X207422Y-141923D01*
X217023D01*
Y-144275D01*
X222534D01*
Y-138764D01*
D02*
G37*
G36*
X239705Y-138567D02*
X233801D01*
Y-140296D01*
X229621D01*
Y-138764D01*
X224110D01*
Y-144275D01*
X229621D01*
Y-142743D01*
X233801D01*
Y-144472D01*
X239705D01*
Y-138567D01*
D02*
G37*
G36*
X244520Y-138357D02*
X241858D01*
Y-141020D01*
X244520D01*
Y-138357D01*
D02*
G37*
G36*
X115758Y-120200D02*
X115042D01*
X114380Y-120474D01*
X113874Y-120980D01*
X113600Y-121642D01*
Y-122358D01*
X113874Y-123020D01*
X114176Y-123322D01*
Y-125320D01*
X113645Y-125851D01*
X113461Y-126126D01*
X111656D01*
Y-133015D01*
X113287D01*
Y-141408D01*
X113380Y-141876D01*
X113645Y-142273D01*
X113710Y-142338D01*
Y-142766D01*
X113984Y-143428D01*
X114491Y-143934D01*
X115152Y-144208D01*
X115868D01*
X116530Y-143934D01*
X117036Y-143428D01*
X117310Y-142766D01*
Y-142050D01*
X117036Y-141388D01*
X116530Y-140882D01*
X115868Y-140608D01*
X115734D01*
Y-133015D01*
X117364D01*
Y-130794D01*
X131416D01*
Y-131740D01*
X135328D01*
Y-136442D01*
X135113Y-136656D01*
X130668D01*
X130366Y-136354D01*
X129704Y-136080D01*
X128988D01*
X128327Y-136354D01*
X127821Y-136860D01*
X127547Y-137522D01*
Y-138238D01*
X127821Y-138900D01*
X128327Y-139406D01*
X128988Y-139680D01*
X129704D01*
X130366Y-139406D01*
X130668Y-139103D01*
X135620D01*
X136088Y-139010D01*
X136485Y-138745D01*
X137416Y-137814D01*
X137682Y-137417D01*
X137775Y-136949D01*
Y-131740D01*
X140052D01*
Y-136558D01*
X139750Y-136860D01*
X139476Y-137522D01*
Y-138238D01*
X139750Y-138900D01*
X140256Y-139406D01*
X140918Y-139680D01*
X141345D01*
X142446Y-140781D01*
X142289Y-141331D01*
X142053Y-141386D01*
X142022Y-141365D01*
X141554Y-141272D01*
X128940D01*
X128472Y-141365D01*
X128265Y-141503D01*
X123939D01*
X123637Y-141201D01*
X122975Y-140927D01*
X122259D01*
X121598Y-141201D01*
X121091Y-141707D01*
X120817Y-142369D01*
Y-143085D01*
X121091Y-143746D01*
X121487Y-144143D01*
X121423Y-144488D01*
X121367Y-144617D01*
X121344Y-144652D01*
X120925Y-144736D01*
X120528Y-145001D01*
X119958Y-145571D01*
X119693Y-145968D01*
X119600Y-146436D01*
Y-155599D01*
X118808Y-156392D01*
X117851D01*
Y-155254D01*
X112734D01*
Y-156392D01*
X109977D01*
Y-155254D01*
X104860D01*
Y-156392D01*
X102103D01*
Y-155254D01*
X96986D01*
Y-156392D01*
X89801D01*
X89412Y-155718D01*
X88837Y-155143D01*
X88132Y-154736D01*
X87347Y-154525D01*
X86533D01*
X85747Y-154736D01*
X85042Y-155143D01*
X84467Y-155718D01*
X84060Y-156423D01*
X83850Y-157209D01*
Y-158022D01*
X84060Y-158808D01*
X84467Y-159513D01*
X85042Y-160088D01*
X85747Y-160495D01*
X86533Y-160705D01*
X87347D01*
X88132Y-160495D01*
X88837Y-160088D01*
X89412Y-159513D01*
X89801Y-158839D01*
X96986D01*
Y-159977D01*
X102103D01*
Y-158839D01*
X104860D01*
Y-159977D01*
X109977D01*
Y-158839D01*
X112734D01*
Y-159977D01*
X117851D01*
Y-158839D01*
X119314D01*
X119783Y-158746D01*
X120179Y-158481D01*
X121689Y-156972D01*
X121954Y-156574D01*
X122047Y-156106D01*
Y-147090D01*
X126847D01*
X127315Y-146996D01*
X127712Y-146731D01*
X128524Y-145919D01*
X132473D01*
X132572Y-146017D01*
Y-146877D01*
X132088Y-147156D01*
X131571Y-147673D01*
X131205Y-148307D01*
X131015Y-149014D01*
Y-149746D01*
X131205Y-150453D01*
X131571Y-151087D01*
X132072Y-151588D01*
X132132Y-151660D01*
Y-152101D01*
X132072Y-152173D01*
X131571Y-152673D01*
X131205Y-153307D01*
X131015Y-154014D01*
Y-154746D01*
X131205Y-155453D01*
X131571Y-156087D01*
X132072Y-156588D01*
X132132Y-156660D01*
Y-157101D01*
X132072Y-157173D01*
X131571Y-157673D01*
X131205Y-158307D01*
X131015Y-159014D01*
Y-159746D01*
X131205Y-160453D01*
X131571Y-161087D01*
X132072Y-161588D01*
X132132Y-161660D01*
Y-162101D01*
X132072Y-162172D01*
X131571Y-162673D01*
X131292Y-163157D01*
X126338D01*
X126035Y-162854D01*
X125374Y-162580D01*
X124658D01*
X123996Y-162854D01*
X123490Y-163361D01*
X123216Y-164022D01*
Y-164738D01*
X123490Y-165400D01*
X123996Y-165906D01*
X124658Y-166180D01*
X125374D01*
X126035Y-165906D01*
X126338Y-165604D01*
X131292D01*
X131571Y-166087D01*
X132072Y-166588D01*
X132132Y-166660D01*
Y-167101D01*
X132072Y-167173D01*
X131571Y-167673D01*
X131292Y-168157D01*
X124138D01*
X123835Y-167854D01*
X123174Y-167580D01*
X122458D01*
X121796Y-167854D01*
X121290Y-168361D01*
X121016Y-169022D01*
Y-169738D01*
X121290Y-170400D01*
X121796Y-170906D01*
X122458Y-171180D01*
X123174D01*
X123835Y-170906D01*
X124138Y-170604D01*
X131292D01*
X131571Y-171087D01*
X132088Y-171605D01*
X132722Y-171971D01*
X133429Y-172160D01*
X133578D01*
X133785Y-172660D01*
X132969Y-173477D01*
X120807D01*
X117000Y-169670D01*
Y-169242D01*
X116726Y-168580D01*
X116220Y-168074D01*
X115558Y-167800D01*
X114842D01*
X114180Y-168074D01*
X113995Y-168259D01*
X113507D01*
X113380Y-168132D01*
Y-167558D01*
X114661Y-166276D01*
X117851D01*
Y-161553D01*
X112734D01*
Y-164743D01*
X111291Y-166186D01*
X111026Y-166583D01*
X110933Y-167051D01*
Y-168639D01*
X111026Y-169107D01*
X111291Y-169504D01*
X112135Y-170348D01*
X112532Y-170613D01*
X113000Y-170706D01*
X113760D01*
X114180Y-171126D01*
X114842Y-171400D01*
X115270D01*
X119077Y-175207D01*
Y-177378D01*
X118774Y-177680D01*
X118500Y-178342D01*
Y-179058D01*
X118774Y-179720D01*
X119280Y-180226D01*
X119942Y-180500D01*
X120658D01*
X121320Y-180226D01*
X121826Y-179720D01*
X122100Y-179058D01*
Y-178342D01*
X121826Y-177680D01*
X121523Y-177378D01*
Y-175924D01*
X124116D01*
X124393Y-176339D01*
X124309Y-176542D01*
Y-177258D01*
X124583Y-177920D01*
X125090Y-178426D01*
X125751Y-178700D01*
X126468D01*
X127129Y-178426D01*
X127431Y-178123D01*
X129154D01*
X129300Y-178342D01*
Y-179058D01*
X129556Y-179676D01*
X129378Y-180176D01*
X122862D01*
X122394Y-180270D01*
X121997Y-180535D01*
X118557Y-183975D01*
X118292Y-184372D01*
X118199Y-184840D01*
Y-195996D01*
X116618Y-197576D01*
X103375D01*
X99108Y-193309D01*
X99427Y-192921D01*
X99545Y-193000D01*
X100013Y-193093D01*
X101398D01*
Y-194526D01*
X105137D01*
Y-189212D01*
X101398D01*
Y-190646D01*
X100768D01*
Y-182414D01*
Y-176754D01*
X101398D01*
Y-178188D01*
X105137D01*
Y-172874D01*
X101398D01*
Y-174307D01*
X100013D01*
X99792Y-174351D01*
X99292Y-174014D01*
Y-166276D01*
X102103D01*
Y-161553D01*
X96986D01*
Y-164850D01*
X96938Y-164923D01*
X96845Y-165391D01*
Y-182224D01*
X96938Y-182692D01*
X97203Y-183089D01*
X97600Y-183354D01*
X98068Y-183447D01*
X98321D01*
Y-191401D01*
X98414Y-191869D01*
X98493Y-191987D01*
X98105Y-192306D01*
X71469Y-165670D01*
X71072Y-165405D01*
X70604Y-165312D01*
X40551D01*
Y-163780D01*
X35040D01*
Y-169291D01*
X40551D01*
Y-167759D01*
X70097D01*
X101839Y-199500D01*
X101642Y-200000D01*
X100980Y-200274D01*
X100474Y-200780D01*
X100200Y-201442D01*
Y-202158D01*
X100474Y-202820D01*
X100980Y-203326D01*
X101642Y-203600D01*
X102358D01*
X103020Y-203326D01*
X103526Y-202820D01*
X103800Y-202158D01*
Y-201442D01*
X103526Y-200780D01*
X103269Y-200523D01*
X103476Y-200024D01*
X117125D01*
X117593Y-199930D01*
X117990Y-199665D01*
X120287Y-197368D01*
X120552Y-196971D01*
X120646Y-196503D01*
Y-185347D01*
X123369Y-182624D01*
X134406D01*
X134684Y-183039D01*
X134600Y-183242D01*
Y-183958D01*
X134874Y-184620D01*
X135380Y-185126D01*
X136042Y-185400D01*
X136758D01*
X137420Y-185126D01*
X137722Y-184824D01*
X139978D01*
X140273Y-185324D01*
X140100Y-185742D01*
Y-186458D01*
X140374Y-187120D01*
X140880Y-187626D01*
X141542Y-187900D01*
X142258D01*
X142920Y-187626D01*
X143222Y-187323D01*
X151924D01*
X152131Y-187823D01*
X151874Y-188080D01*
X151600Y-188742D01*
Y-189458D01*
X151874Y-190120D01*
X152380Y-190626D01*
X153042Y-190900D01*
X153758D01*
X154420Y-190626D01*
X154722Y-190323D01*
X161800D01*
X162268Y-190230D01*
X162665Y-189965D01*
X168342Y-184289D01*
X169093Y-184490D01*
X169907D01*
X170693Y-184279D01*
X171397Y-183873D01*
X171973Y-183297D01*
X172379Y-182593D01*
X172590Y-181807D01*
Y-180993D01*
X172379Y-180207D01*
X171973Y-179503D01*
X171397Y-178927D01*
X170693Y-178521D01*
X169907Y-178310D01*
X169093D01*
X168307Y-178521D01*
X167603Y-178927D01*
X167027Y-179503D01*
X166621Y-180207D01*
X166410Y-180993D01*
Y-181807D01*
X166611Y-182558D01*
X161293Y-187876D01*
X155188D01*
X155153Y-187823D01*
X155420Y-187323D01*
X156300D01*
X156768Y-187230D01*
X157165Y-186965D01*
X159842Y-184289D01*
X160593Y-184490D01*
X161407D01*
X162193Y-184279D01*
X162897Y-183873D01*
X163473Y-183297D01*
X163879Y-182593D01*
X164090Y-181807D01*
Y-180993D01*
X163879Y-180207D01*
X163473Y-179503D01*
X162897Y-178927D01*
X162193Y-178521D01*
X161407Y-178310D01*
X160593D01*
X159807Y-178521D01*
X159103Y-178927D01*
X158527Y-179503D01*
X158121Y-180207D01*
X157910Y-180993D01*
Y-181807D01*
X158111Y-182558D01*
X155793Y-184877D01*
X151621D01*
X151555Y-184377D01*
X151917Y-184279D01*
X152622Y-183873D01*
X153197Y-183297D01*
X153604Y-182593D01*
X153814Y-181807D01*
Y-180993D01*
X153604Y-180207D01*
X153197Y-179503D01*
X152622Y-178927D01*
X151917Y-178521D01*
X151131Y-178310D01*
X150318D01*
X149532Y-178521D01*
X148827Y-178927D01*
X148252Y-179503D01*
X147845Y-180207D01*
X147634Y-180993D01*
Y-181623D01*
X146881Y-182377D01*
X140224D01*
X140017Y-181877D01*
X149469Y-172424D01*
X173978D01*
X174280Y-172726D01*
X174942Y-173000D01*
X175658D01*
X176320Y-172726D01*
X176826Y-172220D01*
X177100Y-171558D01*
Y-170842D01*
X176826Y-170180D01*
X176320Y-169674D01*
X175658Y-169400D01*
X174942D01*
X174280Y-169674D01*
X173978Y-169976D01*
X150307D01*
X150116Y-169515D01*
X151107Y-168524D01*
X151611D01*
X151685Y-168573D01*
X152154Y-168666D01*
X177563D01*
X177703Y-168807D01*
Y-198405D01*
X177796Y-198873D01*
X178061Y-199270D01*
X181456Y-202665D01*
X181853Y-202930D01*
X182322Y-203024D01*
X198842D01*
Y-203177D01*
X200177D01*
Y-206545D01*
X199503Y-206934D01*
X198927Y-207509D01*
X198521Y-208214D01*
X198310Y-209000D01*
Y-209813D01*
X198521Y-210599D01*
X198927Y-211304D01*
X199503Y-211879D01*
X200207Y-212286D01*
X200993Y-212497D01*
X201807D01*
X202593Y-212286D01*
X203297Y-211879D01*
X203873Y-211304D01*
X204279Y-210599D01*
X204490Y-209813D01*
Y-209000D01*
X204279Y-208214D01*
X203873Y-207509D01*
X203297Y-206934D01*
X202624Y-206545D01*
Y-203177D01*
X203959D01*
Y-198454D01*
X198842D01*
Y-200576D01*
X182828D01*
X180150Y-197898D01*
Y-168300D01*
X180057Y-167832D01*
X179792Y-167435D01*
X179352Y-166995D01*
X179559Y-166495D01*
X201062D01*
X201530Y-166402D01*
X201927Y-166137D01*
X202192Y-165740D01*
X202285Y-165271D01*
Y-159722D01*
X202588Y-159420D01*
X202862Y-158758D01*
Y-158042D01*
X202588Y-157380D01*
X202081Y-156874D01*
X201420Y-156600D01*
X200704D01*
X200042Y-156874D01*
X199536Y-157380D01*
X199262Y-158042D01*
Y-158758D01*
X199536Y-159420D01*
X199838Y-159722D01*
Y-164048D01*
X154416D01*
X154085Y-163717D01*
X153423Y-163443D01*
X152707D01*
X152412Y-163565D01*
X152400Y-163557D01*
X152126Y-162895D01*
X151620Y-162389D01*
X150958Y-162115D01*
X150242D01*
X149580Y-162389D01*
X149074Y-162895D01*
X148800Y-163557D01*
Y-163984D01*
X147891Y-164893D01*
X147430Y-164647D01*
X147483Y-164380D01*
X147390Y-163912D01*
X147125Y-163515D01*
X146728Y-163250D01*
X146260Y-163157D01*
X141299D01*
X141020Y-162673D01*
X140519Y-162172D01*
X140458Y-162101D01*
Y-161660D01*
X140519Y-161588D01*
X141020Y-161087D01*
X141299Y-160604D01*
X146260D01*
X146728Y-160511D01*
X147125Y-160246D01*
X147390Y-159848D01*
X147483Y-159380D01*
X147390Y-158912D01*
X147125Y-158515D01*
X146728Y-158250D01*
X146260Y-158157D01*
X141299D01*
X141020Y-157673D01*
X140519Y-157173D01*
X140458Y-157101D01*
Y-156660D01*
X140519Y-156588D01*
X141020Y-156087D01*
X141386Y-155453D01*
X141575Y-154746D01*
Y-154014D01*
X141386Y-153307D01*
X141020Y-152673D01*
X140519Y-152173D01*
X140458Y-152101D01*
Y-151660D01*
X140519Y-151588D01*
X141020Y-151087D01*
X141299Y-150604D01*
X146260D01*
X146728Y-150511D01*
X147125Y-150245D01*
X147390Y-149848D01*
X147483Y-149380D01*
X147390Y-148912D01*
X147125Y-148515D01*
X146728Y-148250D01*
X146260Y-148157D01*
X141299D01*
X141020Y-147673D01*
X140502Y-147156D01*
X139868Y-146790D01*
X139295Y-146636D01*
Y-149380D01*
X138295D01*
Y-146636D01*
X137722Y-146790D01*
X137088Y-147156D01*
X136588Y-147657D01*
X136516Y-147717D01*
X136075D01*
X136003Y-147657D01*
X135502Y-147156D01*
X135019Y-146877D01*
Y-146017D01*
X135321Y-145715D01*
X135595Y-145053D01*
Y-144337D01*
X135511Y-144134D01*
X135789Y-143719D01*
X141110D01*
X141317Y-143857D01*
X141786Y-143950D01*
X154400D01*
X154868Y-143857D01*
X155265Y-143592D01*
X155965Y-142892D01*
X156230Y-142495D01*
X156324Y-142027D01*
Y-138382D01*
X156579Y-137999D01*
X156672Y-137531D01*
Y-134058D01*
X157871Y-132859D01*
X158137Y-132462D01*
X158230Y-131994D01*
Y-131740D01*
X158974D01*
Y-125835D01*
X155038D01*
Y-131740D01*
X155038D01*
X155182Y-132087D01*
X154584Y-132686D01*
X154318Y-133083D01*
X154225Y-133551D01*
Y-137029D01*
X153970Y-137412D01*
X153876Y-137880D01*
Y-138525D01*
X153376Y-138859D01*
X153058Y-138727D01*
X152664D01*
X152328Y-138233D01*
X152400Y-138058D01*
Y-137342D01*
X152126Y-136680D01*
X151948Y-136502D01*
Y-131740D01*
X154250D01*
Y-125835D01*
X150314D01*
Y-128949D01*
X149981Y-129215D01*
X149525Y-129016D01*
Y-125835D01*
X145589D01*
Y-128999D01*
X145267Y-129290D01*
X144801Y-129136D01*
Y-125835D01*
X140865D01*
Y-128949D01*
X140532Y-129215D01*
X140077Y-129016D01*
Y-125835D01*
X136141D01*
Y-128949D01*
X135807Y-129215D01*
X135352Y-129016D01*
Y-125835D01*
X131416D01*
Y-128347D01*
X117364D01*
Y-126126D01*
X116870D01*
X116623Y-125827D01*
Y-123322D01*
X116926Y-123020D01*
X117200Y-122358D01*
Y-121642D01*
X116926Y-120980D01*
X116420Y-120474D01*
X115758Y-120200D01*
D02*
G37*
G36*
X183880Y-141527D02*
X181809D01*
Y-143795D01*
X183880D01*
Y-141527D01*
D02*
G37*
G36*
X248183Y-138357D02*
X245520D01*
Y-141520D01*
Y-144682D01*
X248183D01*
Y-142743D01*
X251211D01*
X251680Y-142650D01*
X252077Y-142385D01*
X252342Y-141988D01*
X252435Y-141520D01*
X252342Y-141051D01*
X252077Y-140655D01*
X251680Y-140389D01*
X251211Y-140296D01*
X248183D01*
Y-138357D01*
D02*
G37*
G36*
X244520Y-142020D02*
X241858D01*
Y-144682D01*
X244520D01*
Y-142020D01*
D02*
G37*
G36*
X186952Y-141527D02*
X184880D01*
Y-144295D01*
Y-147064D01*
X186952D01*
Y-145519D01*
X189498D01*
X189967Y-145426D01*
X190364Y-145160D01*
X190629Y-144764D01*
X190722Y-144295D01*
X190629Y-143827D01*
X190364Y-143430D01*
X189967Y-143165D01*
X189498Y-143072D01*
X186952D01*
Y-141527D01*
D02*
G37*
G36*
X183880Y-144795D02*
X181809D01*
Y-147064D01*
X183880D01*
Y-144795D01*
D02*
G37*
G36*
X166495Y-144795D02*
X164424D01*
Y-147064D01*
X166495D01*
Y-144795D01*
D02*
G37*
G36*
X163699Y-125835D02*
X159763D01*
Y-131740D01*
X160576D01*
Y-134101D01*
X160670Y-134569D01*
X160935Y-134966D01*
X161377Y-135408D01*
Y-138212D01*
X161074Y-138514D01*
X160800Y-139176D01*
Y-139892D01*
X161074Y-140553D01*
X161547Y-141027D01*
X161533Y-141184D01*
X161401Y-141527D01*
X161352D01*
Y-143072D01*
X159200D01*
X158732Y-143165D01*
X158335Y-143430D01*
X158070Y-143827D01*
X157976Y-144295D01*
X158070Y-144764D01*
X158335Y-145160D01*
X158732Y-145426D01*
X159200Y-145519D01*
X161352D01*
Y-147064D01*
X163424D01*
Y-144295D01*
X163924D01*
Y-143795D01*
X166495D01*
Y-141527D01*
X163799D01*
X163667Y-141184D01*
X163653Y-141027D01*
X164126Y-140553D01*
X164400Y-139892D01*
Y-139176D01*
X164126Y-138514D01*
X163823Y-138212D01*
Y-134901D01*
X163730Y-134433D01*
X163465Y-134036D01*
X163023Y-133594D01*
Y-131740D01*
X163699D01*
Y-125835D01*
D02*
G37*
G36*
X15072Y-140539D02*
X12205D01*
X9338D01*
Y-142906D01*
X10981D01*
Y-143504D01*
X11074Y-143972D01*
X11340Y-144369D01*
X14606Y-147636D01*
X15003Y-147901D01*
X15472Y-147994D01*
X17272D01*
X17672Y-148074D01*
X18140Y-147981D01*
X18537Y-147715D01*
X18802Y-147319D01*
X18895Y-146850D01*
X18802Y-146382D01*
X18537Y-145985D01*
X18457Y-145906D01*
X18060Y-145641D01*
X17592Y-145547D01*
X15978D01*
X13837Y-143406D01*
X14044Y-142906D01*
X15072D01*
Y-140539D01*
D02*
G37*
G36*
X83100Y-39276D02*
X82982Y-39300D01*
X82742D01*
X82080Y-39574D01*
X81574Y-40080D01*
X81300Y-40742D01*
Y-41458D01*
X81574Y-42120D01*
X81876Y-42422D01*
Y-132825D01*
X78741Y-135960D01*
X78692Y-135970D01*
X78295Y-136235D01*
X73400Y-141129D01*
X65657D01*
Y-150603D01*
X75131D01*
Y-142859D01*
X79750Y-138240D01*
X79800Y-138230D01*
X80196Y-137965D01*
X83965Y-134196D01*
X84230Y-133800D01*
X84324Y-133331D01*
Y-42422D01*
X84626Y-42120D01*
X84900Y-41458D01*
Y-40742D01*
X84626Y-40080D01*
X84120Y-39574D01*
X83458Y-39300D01*
X83218D01*
X83100Y-39276D01*
D02*
G37*
G36*
X240018Y-150973D02*
X234114D01*
Y-152702D01*
X229621D01*
Y-151170D01*
X224110D01*
Y-156681D01*
X229621D01*
Y-155149D01*
X234114D01*
Y-156877D01*
X240018D01*
Y-150973D01*
D02*
G37*
G36*
X222534Y-151170D02*
X217023D01*
Y-152702D01*
X212222D01*
X211920Y-152399D01*
X211258Y-152125D01*
X210542D01*
X209880Y-152399D01*
X209374Y-152906D01*
X209100Y-153567D01*
Y-154283D01*
X209374Y-154945D01*
X209880Y-155451D01*
X210542Y-155725D01*
X211258D01*
X211920Y-155451D01*
X212222Y-155149D01*
X217023D01*
Y-156681D01*
X222534D01*
Y-151170D01*
D02*
G37*
G36*
X244834Y-150763D02*
X242172D01*
Y-153425D01*
X244834D01*
Y-150763D01*
D02*
G37*
G36*
X248496D02*
X245834D01*
Y-153925D01*
Y-157087D01*
X248496D01*
Y-155149D01*
X251043D01*
X251511Y-155056D01*
X251908Y-154790D01*
X252173Y-154393D01*
X252266Y-153925D01*
X252173Y-153457D01*
X251908Y-153060D01*
X251511Y-152795D01*
X251043Y-152702D01*
X248496D01*
Y-150763D01*
D02*
G37*
G36*
X244834Y-154425D02*
X242172D01*
Y-157087D01*
X244834D01*
Y-154425D01*
D02*
G37*
G36*
X12205Y-150351D02*
X11737Y-150444D01*
X11340Y-150710D01*
X11074Y-151107D01*
X10981Y-151575D01*
Y-156777D01*
X9436D01*
Y-158849D01*
X14973D01*
Y-156777D01*
X13428D01*
Y-151575D01*
X13335Y-151107D01*
X13070Y-150710D01*
X12673Y-150444D01*
X12205Y-150351D01*
D02*
G37*
G36*
X173147Y-125835D02*
X169212D01*
Y-131740D01*
X169956D01*
Y-136416D01*
X169358Y-137015D01*
X169093Y-137412D01*
X168999Y-137880D01*
Y-141737D01*
X167861D01*
Y-146854D01*
X168290D01*
Y-151776D01*
X166758D01*
Y-160436D01*
X172269D01*
Y-151776D01*
X170737D01*
Y-146854D01*
X172584D01*
Y-141737D01*
X171446D01*
Y-138387D01*
X172045Y-137788D01*
X172310Y-137391D01*
X172403Y-136923D01*
Y-131740D01*
X173147D01*
Y-125835D01*
D02*
G37*
G36*
X14973Y-159848D02*
X12705D01*
Y-161920D01*
X14973D01*
Y-159848D01*
D02*
G37*
G36*
X11705D02*
X9436D01*
Y-161920D01*
X11705D01*
Y-159848D01*
D02*
G37*
G36*
X110187Y-161343D02*
X107919D01*
Y-163415D01*
X110187D01*
Y-161343D01*
D02*
G37*
G36*
X106919D02*
X104650D01*
Y-163415D01*
X106919D01*
Y-161343D01*
D02*
G37*
G36*
X110187Y-164415D02*
X107419D01*
X104650D01*
Y-166486D01*
X106195D01*
Y-168639D01*
X106288Y-169107D01*
X106553Y-169504D01*
X106950Y-169769D01*
X107419Y-169862D01*
X107887Y-169769D01*
X108284Y-169504D01*
X108549Y-169107D01*
X108642Y-168639D01*
Y-166486D01*
X110187D01*
Y-164415D01*
D02*
G37*
G36*
X295500Y-170557D02*
X291657D01*
Y-173677D01*
X281607D01*
X280065Y-172135D01*
X279668Y-171870D01*
X279200Y-171776D01*
X278732Y-171870D01*
X278335Y-172135D01*
X278070Y-172532D01*
X277976Y-173000D01*
X278070Y-173468D01*
X278335Y-173865D01*
X280235Y-175765D01*
X280632Y-176030D01*
X281100Y-176123D01*
X291657D01*
Y-179243D01*
X295500D01*
Y-174900D01*
Y-170557D01*
D02*
G37*
G36*
X300343D02*
X296500D01*
Y-174400D01*
X300343D01*
Y-170557D01*
D02*
G37*
G36*
X111232Y-172664D02*
X109653D01*
Y-175031D01*
X111232D01*
Y-172664D01*
D02*
G37*
G36*
X113812D02*
X112232D01*
Y-175531D01*
Y-178398D01*
X113812D01*
Y-176754D01*
X116433D01*
X116901Y-176661D01*
X117298Y-176396D01*
X117563Y-175999D01*
X117656Y-175531D01*
X117563Y-175063D01*
X117298Y-174666D01*
X116901Y-174400D01*
X116433Y-174307D01*
X113812D01*
Y-172664D01*
D02*
G37*
G36*
X111232Y-176031D02*
X109653D01*
Y-178398D01*
X111232D01*
Y-176031D01*
D02*
G37*
G36*
X300343Y-175400D02*
X296500D01*
Y-179243D01*
X300343D01*
Y-175400D01*
D02*
G37*
G36*
X213555Y-178164D02*
X206469D01*
Y-180653D01*
X201577D01*
Y-180105D01*
X197444D01*
Y-183648D01*
X201577D01*
Y-183100D01*
X206469D01*
Y-186036D01*
X213555D01*
Y-178164D01*
D02*
G37*
G36*
X252531D02*
X245445D01*
Y-186036D01*
X252531D01*
Y-183324D01*
X257978D01*
X258180Y-183526D01*
X258842Y-183800D01*
X259558D01*
X260220Y-183526D01*
X260726Y-183020D01*
X261000Y-182358D01*
Y-181642D01*
X260726Y-180980D01*
X260220Y-180474D01*
X259558Y-180200D01*
X258842D01*
X258180Y-180474D01*
X257778Y-180877D01*
X252531D01*
Y-178164D01*
D02*
G37*
G36*
X193126Y-183635D02*
X191349D01*
Y-185117D01*
X193126D01*
Y-183635D01*
D02*
G37*
G36*
X190349D02*
X188573D01*
Y-185117D01*
X190349D01*
Y-183635D01*
D02*
G37*
G36*
X193126Y-186117D02*
X191349D01*
Y-187598D01*
X193126D01*
Y-186117D01*
D02*
G37*
G36*
X257558Y-166500D02*
X256842D01*
X256180Y-166774D01*
X255674Y-167280D01*
X255400Y-167942D01*
Y-168658D01*
X255674Y-169320D01*
X256180Y-169826D01*
X256842Y-170100D01*
X257558D01*
X258220Y-169826D01*
X258522Y-169524D01*
X267893D01*
X284135Y-185765D01*
X284532Y-186030D01*
X285000Y-186124D01*
X291831D01*
X291953Y-186576D01*
X292525Y-187567D01*
X293333Y-188375D01*
X294323Y-188947D01*
X295428Y-189243D01*
X296572D01*
X297676Y-188947D01*
X298667Y-188375D01*
X299476Y-187567D01*
X300047Y-186576D01*
X300343Y-185472D01*
Y-184328D01*
X300047Y-183224D01*
X299476Y-182233D01*
X298667Y-181424D01*
X297676Y-180853D01*
X296572Y-180557D01*
X295428D01*
X294323Y-180853D01*
X293333Y-181424D01*
X292525Y-182233D01*
X291953Y-183224D01*
X291831Y-183677D01*
X285507D01*
X269265Y-167435D01*
X268868Y-167170D01*
X268400Y-167077D01*
X258522D01*
X258220Y-166774D01*
X257558Y-166500D01*
D02*
G37*
G36*
X190349Y-186117D02*
X188573D01*
Y-186163D01*
X187435Y-187301D01*
X187170Y-187698D01*
X187076Y-188166D01*
Y-189965D01*
X187170Y-190433D01*
X187435Y-190830D01*
X187832Y-191095D01*
X188300Y-191189D01*
X188768Y-191095D01*
X189165Y-190830D01*
X189430Y-190433D01*
X189523Y-189965D01*
Y-188673D01*
X190349Y-187847D01*
Y-186117D01*
D02*
G37*
G36*
X111232Y-189002D02*
X109653D01*
Y-191369D01*
X111232D01*
Y-189002D01*
D02*
G37*
G36*
X113812D02*
X112232D01*
Y-191869D01*
Y-194736D01*
X113812D01*
Y-193093D01*
X116433D01*
X116901Y-193000D01*
X117298Y-192734D01*
X117563Y-192338D01*
X117656Y-191869D01*
X117563Y-191401D01*
X117298Y-191004D01*
X116901Y-190739D01*
X116433Y-190646D01*
X113812D01*
Y-189002D01*
D02*
G37*
G36*
X111232Y-192369D02*
X109653D01*
Y-194736D01*
X111232D01*
Y-192369D01*
D02*
G37*
G36*
X192916Y-176365D02*
X188783D01*
Y-178472D01*
X183515Y-183740D01*
X183250Y-184137D01*
X183157Y-184605D01*
Y-190646D01*
X183250Y-191114D01*
X183515Y-191511D01*
X186402Y-194397D01*
X186799Y-194663D01*
X187267Y-194756D01*
X198842D01*
Y-196878D01*
X203959D01*
Y-192155D01*
X198842D01*
Y-192309D01*
X187774D01*
X185604Y-190139D01*
Y-185112D01*
X190808Y-179907D01*
X192916D01*
Y-176365D01*
D02*
G37*
G36*
X256658Y-171500D02*
X255942D01*
X255280Y-171774D01*
X254774Y-172280D01*
X254500Y-172942D01*
Y-173658D01*
X254774Y-174320D01*
X255280Y-174826D01*
X255942Y-175100D01*
X256658D01*
X257320Y-174826D01*
X257622Y-174523D01*
X259293D01*
X276876Y-192107D01*
Y-194800D01*
X276970Y-195268D01*
X277235Y-195665D01*
X278204Y-196634D01*
X278600Y-196899D01*
X279069Y-196992D01*
X285648D01*
X286116Y-196899D01*
X286513Y-196634D01*
X287023Y-196124D01*
X291831D01*
X291953Y-196576D01*
X292525Y-197567D01*
X293333Y-198375D01*
X294323Y-198947D01*
X295428Y-199243D01*
X296572D01*
X297676Y-198947D01*
X298667Y-198375D01*
X299476Y-197567D01*
X300047Y-196576D01*
X300343Y-195472D01*
Y-194328D01*
X300047Y-193224D01*
X299476Y-192233D01*
X298667Y-191425D01*
X297676Y-190853D01*
X296572Y-190557D01*
X295428D01*
X294323Y-190853D01*
X293333Y-191425D01*
X292525Y-192233D01*
X291953Y-193224D01*
X291831Y-193676D01*
X286517D01*
X286048Y-193770D01*
X285651Y-194035D01*
X285141Y-194545D01*
X279575D01*
X279324Y-194293D01*
Y-191600D01*
X279230Y-191132D01*
X278965Y-190735D01*
X260665Y-172435D01*
X260268Y-172170D01*
X259800Y-172076D01*
X257622D01*
X257320Y-171774D01*
X256658Y-171500D01*
D02*
G37*
G36*
X133636Y-206660D02*
X131564D01*
Y-208338D01*
X133636D01*
Y-206660D01*
D02*
G37*
G36*
X130564D02*
X128492D01*
Y-208338D01*
X130564D01*
Y-206660D01*
D02*
G37*
G36*
X139958Y-207386D02*
X138437D01*
Y-208907D01*
X139958D01*
Y-207386D01*
D02*
G37*
G36*
X137437D02*
X135917D01*
Y-208907D01*
X137437D01*
Y-207386D01*
D02*
G37*
G36*
X133636Y-209338D02*
X131564D01*
Y-211016D01*
X133636D01*
Y-209338D01*
D02*
G37*
G36*
X130564D02*
X128492D01*
Y-211016D01*
X130564D01*
Y-209338D01*
D02*
G37*
G36*
X59272Y-203999D02*
X58960Y-204061D01*
X58696Y-204238D01*
X58696Y-204238D01*
X49161Y-213773D01*
X48984Y-214038D01*
X48922Y-214350D01*
X48922Y-214350D01*
Y-260550D01*
X48984Y-260862D01*
X49161Y-261127D01*
X49425Y-261304D01*
X49737Y-261366D01*
X70794D01*
X71151Y-261660D01*
X71178Y-261744D01*
X71216Y-261753D01*
Y-261866D01*
X71216D01*
Y-263825D01*
X73985D01*
X76753D01*
Y-261866D01*
X76753Y-261866D01*
Y-261753D01*
X76792Y-261744D01*
X76818Y-261660D01*
X77176Y-261366D01*
X78346D01*
X78704Y-261660D01*
X78730Y-261744D01*
X78769Y-261753D01*
Y-261866D01*
X78769D01*
Y-263825D01*
X81537D01*
X84306D01*
Y-261866D01*
X84306Y-261866D01*
Y-261753D01*
X84344Y-261744D01*
X84371Y-261660D01*
X84728Y-261366D01*
X85755D01*
X86112Y-261660D01*
X86139Y-261744D01*
X86177Y-261753D01*
Y-261866D01*
X86177D01*
Y-263825D01*
X88946D01*
X91714D01*
Y-261866D01*
X91714Y-261866D01*
Y-261753D01*
X91752Y-261744D01*
X91779Y-261660D01*
X92136Y-261366D01*
X93066D01*
Y-262250D01*
X95637D01*
X98209D01*
Y-260572D01*
X97869D01*
X97453Y-260144D01*
X97453Y-260144D01*
Y-259416D01*
X97625Y-259206D01*
X97999D01*
Y-256607D01*
X100437Y-254169D01*
X101362Y-253244D01*
X104578D01*
X105046Y-253151D01*
X105124Y-253099D01*
X105560D01*
X105868Y-253038D01*
X106129Y-252863D01*
X106303Y-252602D01*
X106306Y-252588D01*
X106509Y-252439D01*
X106784Y-252335D01*
X106944Y-252484D01*
X106949Y-253037D01*
X106552Y-253434D01*
X102572Y-257414D01*
X102307Y-257811D01*
X102214Y-258279D01*
Y-263779D01*
Y-263989D01*
X100879D01*
Y-268712D01*
X105996D01*
Y-263989D01*
X104661D01*
Y-263779D01*
Y-258786D01*
X107851Y-255596D01*
X108065Y-255382D01*
X108395D01*
X108703Y-255321D01*
X108829Y-255390D01*
X108984Y-255545D01*
X109249Y-255722D01*
X109451Y-255806D01*
X109763Y-255868D01*
X110219D01*
X110531Y-255806D01*
X110734Y-255722D01*
X111074Y-255577D01*
X111414Y-255722D01*
X111617Y-255806D01*
X111929Y-255868D01*
X112038Y-255868D01*
X112038Y-255868D01*
X112038Y-255868D01*
X112275Y-255868D01*
X112384Y-255868D01*
X112696Y-255806D01*
X112696Y-255806D01*
X112899Y-255722D01*
X113163Y-255545D01*
X113259Y-255449D01*
X113363Y-255519D01*
X113527Y-255551D01*
Y-253596D01*
X114027D01*
Y-253096D01*
X115319D01*
Y-253093D01*
D01*
X115819Y-252942D01*
X115867Y-253015D01*
X116198Y-253235D01*
X116587Y-253313D01*
X117070D01*
Y-252021D01*
X118070D01*
Y-253313D01*
X118553D01*
D01*
X118779Y-253498D01*
Y-253552D01*
X118810Y-253655D01*
X118832Y-253696D01*
X118842Y-253742D01*
X118906Y-253836D01*
X118960Y-253936D01*
X118996Y-253965D01*
X119023Y-254004D01*
X119118Y-254066D01*
X119206Y-254138D01*
X119251Y-254151D01*
X119290Y-254177D01*
X119736Y-254354D01*
X119887Y-254381D01*
X120037Y-254411D01*
X121578D01*
Y-260634D01*
X121640Y-260946D01*
X121817Y-261211D01*
X122082Y-261388D01*
X122394Y-261450D01*
X122792D01*
X122843Y-261460D01*
D01*
X122871Y-261466D01*
X122952Y-261466D01*
X122952Y-261466D01*
X122979Y-261471D01*
X130254D01*
Y-263825D01*
X133921D01*
X137588D01*
Y-261471D01*
X143746D01*
Y-264092D01*
X147413D01*
X151079D01*
Y-261471D01*
X164489D01*
X164563Y-261486D01*
X164626Y-261528D01*
D01*
X164675Y-261577D01*
X164675Y-261577D01*
X164683Y-261585D01*
X164750Y-261629D01*
X164760Y-261634D01*
X164939Y-261754D01*
X165252Y-261816D01*
X165252Y-261816D01*
X166400D01*
X166712Y-261754D01*
X167140Y-261686D01*
X167391Y-261855D01*
X167718Y-262181D01*
X168379Y-262456D01*
X169095D01*
X169757Y-262181D01*
X170263Y-261675D01*
X170537Y-261014D01*
Y-260586D01*
X172402Y-258721D01*
X172668Y-258324D01*
X172761Y-257856D01*
Y-255912D01*
X173435Y-255523D01*
X174010Y-254947D01*
X174417Y-254243D01*
X174627Y-253457D01*
Y-252643D01*
X174417Y-251857D01*
X174010Y-251153D01*
X173435Y-250577D01*
X172730Y-250171D01*
X171944Y-249960D01*
X171130D01*
X170345Y-250171D01*
X169640Y-250577D01*
X169065Y-251153D01*
X168658Y-251857D01*
X168447Y-252643D01*
Y-253457D01*
X168658Y-254243D01*
X169065Y-254947D01*
X169640Y-255523D01*
X170314Y-255912D01*
Y-257349D01*
X168807Y-258856D01*
X168379D01*
X167718Y-259130D01*
X167678Y-259170D01*
X167216Y-258978D01*
Y-244159D01*
X167388Y-243949D01*
X168061D01*
Y-237258D01*
X162748D01*
Y-237258D01*
X162542Y-237426D01*
X162538Y-237426D01*
X158796D01*
X158699Y-237445D01*
X158600Y-237450D01*
X158544Y-237476D01*
X158484Y-237488D01*
X158402Y-237543D01*
X158312Y-237585D01*
X157929Y-237868D01*
X157887Y-237913D01*
X157836Y-237947D01*
X157781Y-238030D01*
X157714Y-238103D01*
X157694Y-238161D01*
X157660Y-238212D01*
X157640Y-238309D01*
X157607Y-238403D01*
X157226Y-238734D01*
X154858D01*
Y-241295D01*
X154766Y-241338D01*
X154266Y-241020D01*
Y-238734D01*
X152589D01*
X152379Y-238594D01*
X152298Y-238577D01*
X151769Y-238049D01*
Y-235826D01*
X151676Y-235357D01*
X151411Y-234960D01*
X150266Y-233816D01*
X150266Y-231642D01*
X150476Y-231229D01*
Y-231218D01*
X150476Y-231198D01*
Y-230901D01*
Y-229649D01*
X145924D01*
Y-231198D01*
X145924Y-231229D01*
X146134Y-231642D01*
X146134Y-231729D01*
Y-233816D01*
X141811Y-238139D01*
X141546Y-238536D01*
X141453Y-239004D01*
Y-239900D01*
X140029Y-241323D01*
X138106D01*
X137899Y-240823D01*
X138356Y-240366D01*
X140246D01*
Y-236823D01*
Y-233202D01*
X139660D01*
Y-231942D01*
Y-222493D01*
X139566Y-222025D01*
X139301Y-221628D01*
X139161Y-221488D01*
Y-214970D01*
Y-214760D01*
X139748D01*
Y-211427D01*
X139958D01*
Y-209907D01*
X135917D01*
Y-211427D01*
X136127D01*
Y-214760D01*
X136714D01*
Y-214970D01*
Y-221994D01*
X136807Y-222463D01*
X137072Y-222860D01*
X137213Y-223000D01*
Y-231942D01*
Y-233202D01*
X136626D01*
Y-235631D01*
X136164Y-235823D01*
X135749Y-235408D01*
X135352Y-235142D01*
X134883Y-235049D01*
X133711D01*
Y-234305D01*
X128988D01*
Y-238241D01*
X133711D01*
Y-237496D01*
X134377D01*
X135366Y-238486D01*
X135222Y-238936D01*
X135183Y-238986D01*
X124839D01*
X124651Y-238486D01*
X124880Y-238241D01*
X127806D01*
Y-234305D01*
X123082D01*
Y-236230D01*
X122098D01*
X121629Y-236323D01*
X121232Y-236589D01*
X120803Y-237018D01*
X117570D01*
X117102Y-237111D01*
X117023Y-237163D01*
X116587D01*
X116280Y-237225D01*
X116019Y-237399D01*
X115908Y-237564D01*
X115504Y-237615D01*
X115319Y-237492D01*
Y-237166D01*
X114027D01*
Y-236166D01*
X115319D01*
Y-235684D01*
X115250Y-235339D01*
Y-232981D01*
X115255Y-232973D01*
X115262Y-232941D01*
X116535Y-231667D01*
X116800Y-231270D01*
X116893Y-230802D01*
Y-230261D01*
X116800Y-229793D01*
X116535Y-229396D01*
X116138Y-229131D01*
X115670Y-229037D01*
X115202Y-229131D01*
X114805Y-229396D01*
X114540Y-229793D01*
X114446Y-230261D01*
Y-230295D01*
X113260Y-231482D01*
X112995Y-231879D01*
X112964Y-232034D01*
X112896Y-232135D01*
X112803Y-232603D01*
Y-233972D01*
X112384Y-234394D01*
X112038Y-234394D01*
X112038Y-234394D01*
X111929D01*
X111929Y-234394D01*
X111929Y-234394D01*
X111759Y-234428D01*
X111617Y-234456D01*
X111617Y-234456D01*
X111617Y-234456D01*
X111414Y-234540D01*
X111149Y-234717D01*
X111074Y-234792D01*
X110998Y-234717D01*
X110734Y-234540D01*
X110734Y-234540D01*
X110531Y-234456D01*
X110531Y-234456D01*
X110531Y-234456D01*
X110362Y-234423D01*
X110219Y-234394D01*
X110219Y-234394D01*
X110219Y-234394D01*
X110109Y-234394D01*
X109873Y-234394D01*
X109873Y-234394D01*
X109763D01*
X109451Y-234456D01*
X109249Y-234540D01*
X108984Y-234717D01*
X108829Y-234872D01*
X108795Y-234923D01*
X108703Y-234941D01*
X108395Y-234880D01*
X107847D01*
X107539Y-234941D01*
X107279Y-235115D01*
X107104Y-235376D01*
X107091Y-235443D01*
X105131D01*
X101661Y-231973D01*
Y-231942D01*
Y-214679D01*
X105898Y-210441D01*
X106108Y-210231D01*
X106608Y-210438D01*
Y-211594D01*
X112119D01*
Y-208487D01*
X115786D01*
Y-211594D01*
X121297D01*
Y-206083D01*
X118995D01*
X118779Y-206040D01*
X109322D01*
X109106Y-206083D01*
X106608D01*
Y-207615D01*
X105771D01*
X105303Y-207708D01*
X104906Y-207973D01*
X99572Y-213307D01*
X99307Y-213704D01*
X99214Y-214172D01*
Y-232480D01*
X99307Y-232948D01*
X99397Y-233082D01*
X99129Y-233582D01*
X97625D01*
X97453Y-233372D01*
Y-204815D01*
X97391Y-204503D01*
X97214Y-204238D01*
X96949Y-204061D01*
X96637Y-203999D01*
X59272Y-203999D01*
D02*
G37*
G36*
X112329Y-212960D02*
X109864D01*
Y-215425D01*
X112329D01*
Y-212960D01*
D02*
G37*
G36*
X121507D02*
X119041D01*
Y-215425D01*
X121507D01*
Y-212960D01*
D02*
G37*
G36*
X118041D02*
X115576D01*
Y-215425D01*
X118041D01*
Y-212960D01*
D02*
G37*
G36*
X108864D02*
X106398D01*
Y-215425D01*
X108864D01*
Y-212960D01*
D02*
G37*
G36*
X21601Y-213552D02*
X20919D01*
X20260Y-213728D01*
X19669Y-214069D01*
X19187Y-214551D01*
X18846Y-215142D01*
X18670Y-215801D01*
Y-216483D01*
X18846Y-217141D01*
X19187Y-217732D01*
X19669Y-218214D01*
X20260Y-218555D01*
X20919Y-218732D01*
X21601D01*
X22260Y-218555D01*
X22850Y-218214D01*
X23332Y-217732D01*
X23673Y-217141D01*
X23850Y-216483D01*
Y-215801D01*
X23673Y-215142D01*
X23332Y-214551D01*
X22850Y-214069D01*
X22260Y-213728D01*
X21601Y-213552D01*
D02*
G37*
G36*
X121507Y-216425D02*
X119041D01*
Y-218890D01*
X121507D01*
Y-216425D01*
D02*
G37*
G36*
X118041D02*
X115576D01*
Y-218890D01*
X118041D01*
Y-216425D01*
D02*
G37*
G36*
X112329D02*
X109864D01*
Y-218890D01*
X112329D01*
Y-216425D01*
D02*
G37*
G36*
X108864D02*
X106398D01*
Y-218890D01*
X108864D01*
Y-216425D01*
D02*
G37*
G36*
X290892Y-223394D02*
X290210D01*
X289551Y-223571D01*
X288961Y-223912D01*
X288479Y-224394D01*
X288138Y-224985D01*
X287961Y-225643D01*
Y-226325D01*
X288138Y-226984D01*
X288479Y-227574D01*
X288961Y-228057D01*
X289551Y-228398D01*
X290210Y-228574D01*
X290892D01*
X291551Y-228398D01*
X292142Y-228057D01*
X292624Y-227574D01*
X292965Y-226984D01*
X293141Y-226325D01*
Y-225643D01*
X292965Y-224985D01*
X292624Y-224394D01*
X292142Y-223912D01*
X291551Y-223571D01*
X290892Y-223394D01*
D02*
G37*
G36*
X150476Y-227070D02*
X148700D01*
Y-228649D01*
X150476D01*
Y-227070D01*
D02*
G37*
G36*
X147700D02*
X145924D01*
Y-228649D01*
X147700D01*
Y-227070D01*
D02*
G37*
G36*
X128016Y-228583D02*
X125944D01*
Y-230261D01*
X128016D01*
Y-228583D01*
D02*
G37*
G36*
X124944D02*
X122872D01*
Y-230261D01*
X124944D01*
Y-228583D01*
D02*
G37*
G36*
X128016Y-231261D02*
X125944D01*
Y-232939D01*
X128016D01*
Y-231942D01*
Y-231261D01*
D02*
G37*
G36*
X124944D02*
X122872D01*
Y-231942D01*
Y-232939D01*
X124944D01*
Y-231261D01*
D02*
G37*
G36*
X133426Y-212382D02*
X128702D01*
Y-216318D01*
X129841D01*
Y-216528D01*
Y-224078D01*
X129934Y-224546D01*
X130126Y-224834D01*
Y-228583D01*
Y-228793D01*
X128988D01*
Y-232729D01*
X130432D01*
X130484Y-232807D01*
X130881Y-233072D01*
X131349Y-233166D01*
X131818Y-233072D01*
X132215Y-232807D01*
X132267Y-232729D01*
X133711D01*
Y-228793D01*
X132573D01*
Y-228583D01*
Y-224363D01*
X132480Y-223895D01*
X132288Y-223607D01*
Y-216528D01*
Y-216318D01*
X133426D01*
Y-212382D01*
D02*
G37*
G36*
X270807Y-229017D02*
X269993D01*
X269207Y-229228D01*
X268503Y-229634D01*
X267927Y-230210D01*
X267521Y-230914D01*
X267310Y-231700D01*
Y-232514D01*
X267511Y-233265D01*
X264835Y-235942D01*
X264570Y-236339D01*
X264476Y-236807D01*
Y-237313D01*
X264174Y-237616D01*
X263900Y-238277D01*
Y-238993D01*
X264174Y-239655D01*
X264680Y-240161D01*
X265342Y-240435D01*
X266058D01*
X266720Y-240161D01*
X267226Y-239655D01*
X267500Y-238993D01*
Y-238277D01*
X267226Y-237616D01*
X266924Y-237314D01*
X269242Y-234996D01*
X269993Y-235197D01*
X270807D01*
X271593Y-234986D01*
X272297Y-234580D01*
X272873Y-234004D01*
X273279Y-233300D01*
X273490Y-232514D01*
Y-231700D01*
X273279Y-230914D01*
X272873Y-230210D01*
X272297Y-229634D01*
X271593Y-229228D01*
X270807Y-229017D01*
D02*
G37*
G36*
X260033Y-223017D02*
X260033Y-223017D01*
X194300D01*
X193988Y-223079D01*
X193723Y-223256D01*
X193546Y-223521D01*
X193484Y-223833D01*
Y-236293D01*
X191162D01*
X190773Y-235619D01*
X190197Y-235044D01*
X189493Y-234637D01*
X188707Y-234427D01*
X187893D01*
X187107Y-234637D01*
X186403Y-235044D01*
X185827Y-235619D01*
X185421Y-236324D01*
X185210Y-237110D01*
Y-237923D01*
X185421Y-238709D01*
X185827Y-239414D01*
X186403Y-239989D01*
X187107Y-240396D01*
X187893Y-240607D01*
X188707D01*
X189493Y-240396D01*
X190197Y-239989D01*
X190773Y-239414D01*
X191162Y-238740D01*
X208788D01*
Y-240368D01*
X207796Y-241360D01*
X207531Y-241757D01*
X207438Y-242225D01*
Y-243334D01*
Y-245460D01*
Y-245670D01*
X206300D01*
Y-250787D01*
X209490D01*
X209700Y-250997D01*
X217125Y-258422D01*
X217522Y-258687D01*
X217751Y-259215D01*
X217666Y-259343D01*
X220291D01*
Y-260343D01*
X217440D01*
X217274Y-260588D01*
X212216D01*
X211417Y-259788D01*
Y-256598D01*
X206694D01*
Y-261715D01*
X209883D01*
X210262Y-262094D01*
X210071Y-262556D01*
X203979D01*
Y-261925D01*
Y-261715D01*
X205118D01*
Y-256598D01*
X200394D01*
Y-261715D01*
X201532D01*
Y-261925D01*
Y-263779D01*
X201625Y-264248D01*
X201891Y-264645D01*
X202288Y-264910D01*
X202756Y-265003D01*
X214628D01*
Y-270512D01*
X214166Y-270703D01*
X212598Y-269135D01*
Y-265945D01*
X207875D01*
Y-271062D01*
X211064D01*
X213308Y-273306D01*
X213705Y-273571D01*
X214173Y-273664D01*
X214628D01*
Y-276550D01*
X91150D01*
X90838Y-276612D01*
X90574Y-276789D01*
X90397Y-277053D01*
X90335Y-277365D01*
Y-291300D01*
X90397Y-291612D01*
X90574Y-291877D01*
X90838Y-292054D01*
X91150Y-292116D01*
X229772D01*
X230186Y-292530D01*
X230286Y-292597D01*
X230378Y-292673D01*
X230417Y-292684D01*
X230451Y-292707D01*
X230568Y-292730D01*
X230683Y-292765D01*
X230723Y-292761D01*
X230763Y-292769D01*
X230880Y-292745D01*
X230999Y-292734D01*
X231035Y-292715D01*
X231075Y-292707D01*
X231175Y-292640D01*
X231280Y-292584D01*
X231669Y-292265D01*
X231745Y-292172D01*
X231829Y-292088D01*
X231845Y-292050D01*
X231871Y-292019D01*
X231905Y-291904D01*
X231951Y-291794D01*
Y-291753D01*
X231963Y-291715D01*
X231951Y-291595D01*
Y-291475D01*
X231936Y-291438D01*
X231932Y-291398D01*
X231921Y-291378D01*
X231890Y-291220D01*
Y-280937D01*
D01*
Y-280820D01*
X234146D01*
Y-277165D01*
Y-273511D01*
X231890D01*
Y-273393D01*
Y-269903D01*
X231905Y-269829D01*
X231947Y-269766D01*
X231966Y-269746D01*
X232143Y-269481D01*
X232205Y-269169D01*
X232205Y-269169D01*
Y-265075D01*
X232205D01*
X232673Y-264861D01*
X233320D01*
X233734Y-264779D01*
X234085Y-264545D01*
X234320Y-264194D01*
X234402Y-263779D01*
X234320Y-263366D01*
X234277Y-263302D01*
X234237Y-262727D01*
X234515Y-262311D01*
X231890D01*
Y-261311D01*
X234515D01*
X234237Y-260895D01*
Y-260759D01*
X234515Y-260343D01*
X231890D01*
Y-259343D01*
X234842D01*
X234880Y-259306D01*
X234979Y-259246D01*
X235009Y-259252D01*
D01*
X235020Y-259254D01*
X239973Y-259213D01*
X240052Y-259197D01*
X240132Y-259196D01*
X240205Y-259181D01*
X240276Y-259152D01*
X240340Y-259139D01*
D01*
X240350Y-259137D01*
X240351Y-259136D01*
X240355Y-259134D01*
X240358Y-259132D01*
X240359Y-259132D01*
X240360Y-259131D01*
X240360Y-259131D01*
D01*
X240362Y-259131D01*
X240363Y-259131D01*
X240365Y-259129D01*
X240369Y-259126D01*
D01*
X240420Y-259092D01*
X240426Y-259089D01*
D01*
X240484Y-259067D01*
X240484Y-259067D01*
D01*
X240489Y-259062D01*
X240495Y-259060D01*
X240500Y-259056D01*
X240505Y-259051D01*
X240556Y-259000D01*
X240602Y-258969D01*
X240608D01*
X240613Y-258962D01*
X240616Y-258960D01*
X240617Y-258960D01*
X240623Y-258955D01*
X240625Y-258953D01*
X240626Y-258952D01*
X240664Y-258895D01*
X240714Y-258847D01*
X240718Y-258837D01*
X240725Y-258831D01*
X240750Y-258770D01*
X240757Y-258759D01*
X246810D01*
X246860Y-258792D01*
X246918Y-258849D01*
X246991Y-258879D01*
X247057Y-258923D01*
X247065Y-258925D01*
X247066Y-258925D01*
X247143Y-258957D01*
X247210Y-258969D01*
X247213D01*
X247219Y-258970D01*
X247229Y-258974D01*
X247231Y-258976D01*
X247235Y-258977D01*
X247293Y-259016D01*
X247355Y-259041D01*
X247361Y-259043D01*
X247383Y-259048D01*
X247383Y-259048D01*
X247394Y-259052D01*
X247414Y-259060D01*
X247414Y-259060D01*
D01*
X247414Y-259060D01*
D01*
X247478Y-259086D01*
X247480Y-259086D01*
X247484Y-259089D01*
X247558Y-259103D01*
X247559Y-259104D01*
X247561Y-259104D01*
X247631Y-259133D01*
X247632D01*
X247634Y-259134D01*
X247695Y-259134D01*
X247714Y-259133D01*
X247714Y-259133D01*
X247714D01*
X247715Y-259134D01*
X247716Y-259134D01*
X247719Y-259134D01*
X247721Y-259134D01*
X247721Y-259135D01*
X247721Y-259135D01*
X247721Y-259135D01*
X247722Y-259135D01*
X247797Y-259149D01*
X247874Y-259148D01*
X247874Y-259148D01*
X247876Y-259149D01*
X247878Y-259148D01*
X247878Y-259149D01*
X250270Y-259129D01*
X250349Y-259112D01*
X250427Y-259112D01*
X250427Y-259112D01*
X250430Y-259112D01*
X250435Y-259109D01*
X250435D01*
X250481Y-259090D01*
X250488Y-259088D01*
X250488Y-259088D01*
X250507Y-259085D01*
X250530Y-259075D01*
X250530Y-259075D01*
X250530Y-259075D01*
X250582Y-259064D01*
X250589Y-259060D01*
X250589Y-259060D01*
D01*
X250626Y-259044D01*
X250626Y-259044D01*
X250656Y-259038D01*
X250721Y-258995D01*
X250795Y-258964D01*
X250795Y-258964D01*
X250796Y-258963D01*
X250797Y-258963D01*
X250797Y-258962D01*
X250799Y-258961D01*
X250799Y-258961D01*
X250799Y-258961D01*
X250800Y-258960D01*
X250850Y-258910D01*
X250851Y-258909D01*
X250851Y-258909D01*
X250854Y-258905D01*
X250921Y-258861D01*
X250965Y-258794D01*
X250965Y-258794D01*
X250966Y-258794D01*
X251022Y-258737D01*
X251043Y-258687D01*
X251043D01*
X251052Y-258665D01*
X251093Y-258606D01*
X251093Y-258603D01*
X251098Y-258596D01*
X251113Y-258517D01*
X251144Y-258443D01*
X251606Y-258278D01*
X251635Y-258277D01*
X256698D01*
X256702Y-258295D01*
X256702Y-258295D01*
X256702Y-258296D01*
X256731Y-258338D01*
X256734Y-258351D01*
X256772Y-258401D01*
X256788Y-258423D01*
X256879Y-258560D01*
X256879Y-258560D01*
X256879Y-258560D01*
X256915Y-258584D01*
X256929Y-258603D01*
X257022Y-258656D01*
X257054Y-258677D01*
X257064Y-258687D01*
X257083Y-258699D01*
X257084Y-258700D01*
X257084Y-258700D01*
D01*
X257086Y-258701D01*
D01*
X257093Y-258706D01*
X257105Y-258712D01*
X257111Y-258715D01*
X257120Y-258724D01*
X257149Y-258744D01*
X257149Y-258744D01*
X257181Y-258775D01*
X257183Y-258776D01*
X257183Y-258776D01*
X257236Y-258811D01*
X257237Y-258812D01*
X257249Y-258820D01*
X257249Y-258820D01*
X257249D01*
X257250Y-258820D01*
X257250Y-258821D01*
X257255Y-258824D01*
X257311Y-258878D01*
X257372Y-258903D01*
X257376Y-258905D01*
X257376Y-258905D01*
D01*
X257377Y-258905D01*
X257381Y-258907D01*
D01*
X257381Y-258907D01*
X257445Y-258949D01*
X257448Y-258950D01*
X257449Y-258950D01*
X257451Y-258951D01*
X257452Y-258952D01*
X257515Y-258977D01*
X257578Y-259003D01*
X257580Y-259003D01*
D01*
X257580Y-259003D01*
X257583Y-259005D01*
X257584Y-259006D01*
X257660Y-259020D01*
X257664Y-259022D01*
X257666Y-259022D01*
X257734Y-259050D01*
X257810Y-259050D01*
X257811Y-259050D01*
X257815Y-259050D01*
X257815Y-259051D01*
X257817Y-259051D01*
X257819Y-259051D01*
X257897Y-259066D01*
X257970Y-259065D01*
X257974Y-259065D01*
X257975Y-259065D01*
X257976Y-259065D01*
X257978Y-259065D01*
X257979Y-259065D01*
X260700Y-259043D01*
D01*
X260700D01*
X260700Y-259043D01*
X261207Y-259039D01*
X261359Y-259007D01*
X261512Y-258977D01*
X261515Y-258975D01*
X261518Y-258974D01*
X261647Y-258887D01*
X261777Y-258800D01*
X261779Y-258797D01*
X261782Y-258795D01*
X261867Y-258665D01*
X261954Y-258535D01*
X261954Y-258532D01*
X261956Y-258529D01*
X261985Y-258376D01*
X262016Y-258223D01*
Y-225000D01*
X261954Y-224688D01*
X261777Y-224423D01*
X261777Y-224423D01*
X260610Y-223256D01*
X260345Y-223079D01*
X260033Y-223017D01*
D02*
G37*
G36*
X175542Y-237258D02*
X170228D01*
Y-243949D01*
X175542D01*
Y-242226D01*
X177271D01*
X177574Y-242529D01*
X178235Y-242803D01*
X178952D01*
X179613Y-242529D01*
X180120Y-242022D01*
X180394Y-241361D01*
Y-240645D01*
X180120Y-239983D01*
X179613Y-239477D01*
X178952Y-239203D01*
X178235D01*
X177574Y-239477D01*
X177271Y-239779D01*
X175542D01*
Y-237258D01*
D02*
G37*
G36*
X270900Y-240051D02*
Y-242834D01*
X273682D01*
X273475Y-242060D01*
X273041Y-241307D01*
X272426Y-240693D01*
X271674Y-240259D01*
X270900Y-240051D01*
D02*
G37*
G36*
X269900D02*
X269126Y-240259D01*
X268374Y-240693D01*
X267759Y-241307D01*
X267325Y-242060D01*
X267118Y-242834D01*
X269900D01*
Y-240051D01*
D02*
G37*
G36*
X204934Y-245460D02*
X202862D01*
Y-247728D01*
X204934D01*
Y-245460D01*
D02*
G37*
G36*
X201862D02*
X199791D01*
Y-247728D01*
X201862D01*
Y-245460D01*
D02*
G37*
G36*
X191200Y-247433D02*
Y-250216D01*
X193982D01*
X193775Y-249442D01*
X193341Y-248690D01*
X192726Y-248075D01*
X191974Y-247641D01*
X191200Y-247433D01*
D02*
G37*
G36*
X190200D02*
X189426Y-247641D01*
X188674Y-248075D01*
X188059Y-248690D01*
X187625Y-249442D01*
X187418Y-250216D01*
X190200D01*
Y-247433D01*
D02*
G37*
G36*
X204934Y-248728D02*
X202862D01*
Y-250997D01*
X204934D01*
Y-248728D01*
D02*
G37*
G36*
X201862D02*
X199791D01*
Y-250997D01*
X201862D01*
Y-248728D01*
D02*
G37*
G36*
X193982Y-251216D02*
X191200D01*
Y-253998D01*
X191974Y-253791D01*
X192726Y-253357D01*
X193341Y-252742D01*
X193775Y-251990D01*
X193982Y-251216D01*
D02*
G37*
G36*
X190200D02*
X187418D01*
X187625Y-251990D01*
X188059Y-252742D01*
X188674Y-253357D01*
X189426Y-253791D01*
X190200Y-253998D01*
Y-251216D01*
D02*
G37*
G36*
X115319Y-254096D02*
X114527D01*
Y-255551D01*
X114690Y-255519D01*
X115020Y-255298D01*
X115241Y-254968D01*
X115319Y-254578D01*
Y-254096D01*
D02*
G37*
G36*
X247355Y-259928D02*
X244201D01*
Y-262492D01*
X247355D01*
Y-259928D01*
D02*
G37*
G36*
X243201D02*
X240047D01*
Y-262492D01*
X243201D01*
Y-259928D01*
D02*
G37*
G36*
X98209Y-263250D02*
X96137D01*
Y-264928D01*
X98209D01*
Y-263250D01*
D02*
G37*
G36*
X95137D02*
X93066D01*
Y-264928D01*
X95137D01*
Y-263250D01*
D02*
G37*
G36*
X247355Y-263492D02*
X244201D01*
Y-266056D01*
X247355D01*
Y-263492D01*
D02*
G37*
G36*
X243201D02*
X240047D01*
Y-266056D01*
X243201D01*
Y-263492D01*
D02*
G37*
G36*
X91714Y-264825D02*
X89446D01*
Y-266897D01*
X91714D01*
Y-264825D01*
D02*
G37*
G36*
X88446D02*
X86177D01*
Y-266897D01*
X88446D01*
Y-264825D01*
D02*
G37*
G36*
X84306D02*
X82037D01*
Y-266897D01*
X84306D01*
Y-264825D01*
D02*
G37*
G36*
X81037D02*
X78769D01*
Y-266897D01*
X81037D01*
Y-264825D01*
D02*
G37*
G36*
X76753D02*
X74485D01*
Y-266897D01*
X76753D01*
Y-264825D01*
D02*
G37*
G36*
X73485D02*
X71216D01*
Y-266897D01*
X73485D01*
Y-264825D01*
D02*
G37*
G36*
X137588Y-264825D02*
X134421D01*
Y-267595D01*
X137588D01*
Y-264825D01*
D02*
G37*
G36*
X133421D02*
X130254D01*
Y-267595D01*
X133421D01*
Y-264825D01*
D02*
G37*
G36*
X151079Y-265092D02*
X147913D01*
Y-267862D01*
X151079D01*
Y-265092D01*
D02*
G37*
G36*
X146913D02*
X143746D01*
Y-267862D01*
X146913D01*
Y-265092D01*
D02*
G37*
G36*
X206509Y-265735D02*
X204437D01*
Y-268004D01*
X206509D01*
Y-265735D01*
D02*
G37*
G36*
X203437D02*
X201365D01*
Y-268004D01*
X203437D01*
Y-265735D01*
D02*
G37*
G36*
X206509Y-269004D02*
X204437D01*
Y-271272D01*
X206509D01*
Y-269004D01*
D02*
G37*
G36*
X203437D02*
X201365D01*
Y-271272D01*
X203437D01*
Y-269004D01*
D02*
G37*
G36*
X257246Y-260443D02*
X250554D01*
Y-265757D01*
X252677D01*
Y-265967D01*
Y-268185D01*
X252380Y-268308D01*
X251874Y-268814D01*
X251600Y-269476D01*
Y-270192D01*
X251874Y-270854D01*
X252380Y-271360D01*
X253042Y-271634D01*
X253758D01*
X254420Y-271360D01*
X254926Y-270854D01*
X255200Y-270192D01*
Y-269476D01*
X255123Y-269291D01*
Y-265967D01*
Y-265757D01*
X257246D01*
Y-260443D01*
D02*
G37*
G36*
X106206Y-270078D02*
X103937D01*
Y-272150D01*
X106206D01*
Y-270078D01*
D02*
G37*
G36*
X102937D02*
X100669D01*
Y-272150D01*
X102937D01*
Y-270078D01*
D02*
G37*
G36*
X273682Y-243834D02*
X270400D01*
X267118D01*
X267325Y-244607D01*
X267759Y-245360D01*
X268374Y-245974D01*
X269126Y-246409D01*
X269177Y-246422D01*
Y-261692D01*
X261200Y-269668D01*
Y-272565D01*
X259888Y-273760D01*
X260033Y-273789D01*
X260501Y-273696D01*
X260898Y-273430D01*
X271265Y-263064D01*
X271530Y-262667D01*
X271623Y-262198D01*
Y-246422D01*
X271674Y-246409D01*
X272426Y-245974D01*
X273041Y-245360D01*
X273475Y-244607D01*
X273682Y-243834D01*
D02*
G37*
G36*
X106206Y-273150D02*
X103937D01*
Y-275222D01*
X106206D01*
Y-274941D01*
Y-273150D01*
D02*
G37*
G36*
X102937D02*
X100669D01*
Y-275222D01*
X102937D01*
Y-273150D01*
D02*
G37*
G36*
X237709Y-273511D02*
X235146D01*
Y-276665D01*
X237709D01*
Y-273511D01*
D02*
G37*
G36*
Y-277665D02*
X235146D01*
Y-280820D01*
X237709D01*
Y-277665D01*
D02*
G37*
G36*
X160971Y-304497D02*
X160289D01*
X159630Y-304673D01*
X159040Y-305014D01*
X158557Y-305496D01*
X158216Y-306087D01*
X158040Y-306746D01*
Y-307428D01*
X158216Y-308086D01*
X158557Y-308677D01*
X159040Y-309159D01*
X159630Y-309500D01*
X160289Y-309677D01*
X160971D01*
X161630Y-309500D01*
X162220Y-309159D01*
X162702Y-308677D01*
X163043Y-308086D01*
X163220Y-307428D01*
Y-306746D01*
X163043Y-306087D01*
X162702Y-305496D01*
X162220Y-305014D01*
X161630Y-304673D01*
X160971Y-304497D01*
D02*
G37*
%LPD*%
G36*
X297625Y-135812D02*
Y-141698D01*
X297163Y-141890D01*
X293507Y-138233D01*
Y-132350D01*
X293968Y-132195D01*
X294007Y-132194D01*
X297625Y-135812D01*
D02*
G37*
G36*
X110422Y-235294D02*
X110577Y-235449D01*
X110661Y-235651D01*
X110661Y-235761D01*
X110661D01*
X110660Y-237277D01*
X111487D01*
Y-235761D01*
X111487Y-235651D01*
X111571Y-235449D01*
X111726Y-235294D01*
X111929Y-235210D01*
X112038D01*
Y-235210D01*
X112275Y-235210D01*
X112384D01*
X112587Y-235294D01*
X112742Y-235449D01*
X112826Y-235651D01*
Y-235761D01*
X112826D01*
Y-238851D01*
X114834Y-238851D01*
X114943D01*
X115146Y-238935D01*
X115301Y-239090D01*
X115385Y-239293D01*
Y-239403D01*
X115385D01*
X115385Y-250859D01*
Y-250969D01*
X115301Y-251172D01*
X115146Y-251327D01*
X114943Y-251411D01*
X114834Y-251411D01*
X112826Y-251411D01*
X112826Y-254501D01*
X112826Y-254611D01*
X112742Y-254813D01*
X112587Y-254968D01*
X112384Y-255052D01*
X112275Y-255052D01*
X112275D01*
X112275D01*
D01*
X112038Y-255052D01*
X111929Y-255052D01*
X111726Y-254968D01*
X111571Y-254813D01*
X111487Y-254611D01*
Y-254501D01*
Y-252985D01*
X110660D01*
X110660Y-254501D01*
Y-254611D01*
X110576Y-254813D01*
X110422Y-254968D01*
X110219Y-255052D01*
X109763D01*
X109561Y-254968D01*
X109406Y-254813D01*
X109322Y-254611D01*
Y-254501D01*
X109322Y-254501D01*
Y-251411D01*
X107204D01*
X107002Y-251327D01*
X106847Y-251172D01*
X106763Y-250969D01*
Y-250859D01*
Y-250859D01*
Y-239403D01*
Y-239293D01*
X106847Y-239090D01*
X107002Y-238935D01*
X107204Y-238851D01*
X107314D01*
Y-238851D01*
X109322D01*
X109322Y-235761D01*
Y-235651D01*
X109406Y-235449D01*
X109561Y-235294D01*
X109763Y-235210D01*
X109873D01*
Y-235210D01*
X110109Y-235210D01*
X110219Y-235210D01*
X110422Y-235294D01*
D02*
G37*
G36*
X96637Y-204815D02*
Y-233372D01*
X94734D01*
Y-236107D01*
X94272Y-236298D01*
X93764Y-235789D01*
Y-233307D01*
X88620D01*
Y-233927D01*
X85987D01*
Y-227600D01*
X74887D01*
Y-242700D01*
X85987D01*
Y-236373D01*
X88620D01*
Y-237663D01*
X92052D01*
X92170Y-237687D01*
X92200D01*
X92871Y-238357D01*
X92679Y-238819D01*
X88620D01*
Y-243175D01*
X91640D01*
X92724Y-244260D01*
Y-245328D01*
X92817Y-245796D01*
X93083Y-246193D01*
X96637Y-249748D01*
Y-254508D01*
X96137Y-255008D01*
Y-257238D01*
X95637D01*
D01*
X96137D01*
Y-259416D01*
X96637D01*
Y-260144D01*
X96210Y-260572D01*
X96065D01*
X96043Y-260550D01*
X91714D01*
Y-258526D01*
X88946D01*
X86177D01*
Y-260550D01*
X84306D01*
Y-258526D01*
X81537D01*
X78769D01*
Y-260550D01*
X76753D01*
Y-258526D01*
X73985D01*
X71216D01*
Y-260550D01*
X49737D01*
Y-214350D01*
X59272Y-204815D01*
X96637Y-204815D01*
D02*
G37*
G36*
X162538Y-240104D02*
X165405D01*
Y-240603D01*
X165905D01*
Y-244159D01*
X166400D01*
Y-261000D01*
X165252D01*
X165203Y-260951D01*
X165136Y-260907D01*
X165079Y-260850D01*
X165016Y-260808D01*
X164942Y-260777D01*
X164938Y-260774D01*
X164934Y-260773D01*
X164805Y-260720D01*
X164801Y-260718D01*
X164796Y-260717D01*
X164722Y-260686D01*
X164722Y-260686D01*
X164722D01*
X164648Y-260671D01*
X164568Y-260671D01*
X164489Y-260655D01*
X151079D01*
Y-258590D01*
X147413D01*
X143746D01*
Y-260655D01*
X137588D01*
Y-258323D01*
X133921D01*
X130254D01*
Y-260655D01*
X122979D01*
X122952Y-260650D01*
X122871Y-260650D01*
X122871Y-260650D01*
X122792Y-260634D01*
X122394D01*
Y-253596D01*
X120037D01*
X119590Y-253418D01*
X119556Y-253304D01*
X119532Y-253186D01*
X119510Y-253153D01*
X119498Y-253114D01*
X119422Y-253021D01*
X119355Y-252922D01*
X119351Y-252898D01*
X119493Y-252684D01*
X119571Y-252295D01*
Y-251747D01*
X119493Y-251357D01*
X119279Y-251037D01*
X119493Y-250716D01*
X119571Y-250326D01*
Y-249778D01*
X119493Y-249389D01*
X119279Y-249068D01*
X119493Y-248747D01*
X119526Y-248584D01*
X117570D01*
Y-247584D01*
X119526D01*
X119493Y-247420D01*
X119279Y-247099D01*
X119493Y-246779D01*
X119526Y-246615D01*
X117570D01*
Y-245615D01*
X119526D01*
X119493Y-245452D01*
X119279Y-245131D01*
X119493Y-244810D01*
X119526Y-244647D01*
X117570D01*
Y-243647D01*
X119770D01*
X119987Y-243402D01*
X128753D01*
X128763Y-243412D01*
X129160Y-243677D01*
X129628Y-243770D01*
X140536D01*
X141004Y-243677D01*
X141401Y-243412D01*
X143541Y-241272D01*
X143807Y-240875D01*
X143900Y-240407D01*
Y-239511D01*
X145169Y-238241D01*
X149322D01*
Y-238555D01*
X149415Y-239024D01*
X149680Y-239421D01*
X150711Y-240451D01*
Y-242683D01*
X154148D01*
X154476Y-242683D01*
X154976Y-242683D01*
X156030D01*
Y-240603D01*
X156530D01*
Y-240103D01*
X158413D01*
Y-238741D01*
X158413Y-238524D01*
X158796Y-238241D01*
X162538D01*
Y-240104D01*
D02*
G37*
%LPC*%
G36*
X114834Y-251411D02*
X114834D01*
D01*
X114834D01*
D02*
G37*
G36*
X63487Y-206946D02*
Y-209729D01*
X66270D01*
X66062Y-208955D01*
X65628Y-208203D01*
X65013Y-207588D01*
X64261Y-207154D01*
X63487Y-206946D01*
D02*
G37*
G36*
X62487Y-206946D02*
X61713Y-207154D01*
X60961Y-207588D01*
X60347Y-208203D01*
X59912Y-208955D01*
X59705Y-209729D01*
X62487D01*
Y-206946D01*
D02*
G37*
G36*
X66270Y-210729D02*
X63487D01*
Y-213511D01*
X64261Y-213304D01*
X65013Y-212869D01*
X65628Y-212255D01*
X66062Y-211503D01*
X66270Y-210729D01*
D02*
G37*
G36*
X62487D02*
X59705D01*
X59912Y-211503D01*
X60347Y-212255D01*
X60961Y-212869D01*
X61713Y-213304D01*
X62487Y-213511D01*
Y-210729D01*
D02*
G37*
G36*
X62987Y-227600D02*
X57937D01*
Y-234650D01*
X62987D01*
Y-227600D01*
D02*
G37*
G36*
X56937D02*
X51887D01*
Y-234650D01*
X56937D01*
Y-227600D01*
D02*
G37*
G36*
X62987Y-235650D02*
X57937D01*
Y-242700D01*
X62987D01*
Y-235650D01*
D02*
G37*
G36*
X56937D02*
X51887D01*
Y-242700D01*
X56937D01*
Y-235650D01*
D02*
G37*
G36*
X95137Y-255060D02*
X93066D01*
Y-256738D01*
X95137D01*
Y-255060D01*
D02*
G37*
G36*
X91714Y-255454D02*
X89446D01*
Y-257526D01*
X91714D01*
Y-255454D01*
D02*
G37*
G36*
X76753D02*
X74485D01*
Y-257526D01*
X76753D01*
Y-255454D01*
D02*
G37*
G36*
X84306D02*
X82037D01*
Y-257526D01*
X84306D01*
Y-255454D01*
D02*
G37*
G36*
X81037D02*
X78769D01*
Y-257526D01*
X81037D01*
Y-255454D01*
D02*
G37*
G36*
X73485D02*
X71216D01*
Y-257526D01*
X73485D01*
Y-255454D01*
D02*
G37*
G36*
X88446D02*
X86177D01*
Y-257526D01*
X88446D01*
Y-255454D01*
D02*
G37*
G36*
X95137Y-257738D02*
X93066D01*
Y-259416D01*
X95137D01*
Y-257738D01*
D02*
G37*
G36*
X158413Y-241103D02*
X157030D01*
Y-242683D01*
X158413D01*
Y-241103D01*
D02*
G37*
G36*
X164905Y-241104D02*
X162538D01*
Y-244159D01*
X164905D01*
Y-241104D01*
D02*
G37*
G36*
X137588Y-254553D02*
X134421D01*
Y-257323D01*
X137588D01*
Y-254553D01*
D02*
G37*
G36*
X133421D02*
X130254D01*
Y-257323D01*
X133421D01*
Y-254553D01*
D02*
G37*
G36*
X151079Y-254821D02*
X147913D01*
Y-257590D01*
X151079D01*
Y-254821D01*
D02*
G37*
G36*
X146913D02*
X143746D01*
Y-257590D01*
X146913D01*
Y-254821D01*
D02*
G37*
%LPD*%
G36*
X239087Y-240662D02*
X233354D01*
Y-227055D01*
X239087D01*
Y-240662D01*
D02*
G37*
G36*
X261200Y-225000D02*
Y-258223D01*
X260693Y-258227D01*
X260693Y-258227D01*
X257972Y-258250D01*
X257972Y-258250D01*
X257969Y-258250D01*
X257968Y-258249D01*
X257890Y-258250D01*
X257890Y-258250D01*
X257887Y-258248D01*
X257824Y-258222D01*
X257822Y-258222D01*
X257821Y-258221D01*
X257758Y-258196D01*
X257757Y-258195D01*
X257754Y-258194D01*
X257699Y-258140D01*
X257631Y-258095D01*
X257600Y-258064D01*
X257571Y-258044D01*
X257555Y-258038D01*
X257543Y-258026D01*
X257536Y-258021D01*
X257536Y-258021D01*
X257517Y-258009D01*
X257503Y-258003D01*
X257497Y-257998D01*
X257464Y-257987D01*
X257456Y-257983D01*
Y-256120D01*
X250344D01*
Y-258284D01*
X250343Y-258285D01*
X250343Y-258285D01*
X250342Y-258286D01*
X250342Y-258286D01*
X250316Y-258291D01*
X250315Y-258291D01*
X250308Y-258293D01*
X250271Y-258309D01*
X250264Y-258313D01*
X250264Y-258313D01*
X247871Y-258333D01*
X247871Y-258333D01*
X247869Y-258333D01*
X247867Y-258332D01*
X247790Y-258333D01*
X247789Y-258333D01*
X247786Y-258331D01*
X247723Y-258305D01*
X247721Y-258305D01*
X247720Y-258304D01*
X247689Y-258291D01*
X247667Y-258287D01*
X247600Y-258260D01*
X247541Y-258221D01*
X247532Y-258217D01*
X247450Y-258201D01*
X247373Y-258169D01*
X247367Y-258168D01*
X247355Y-258157D01*
Y-256405D01*
X243701D01*
X240047D01*
Y-258379D01*
X240046Y-258379D01*
X240046Y-258379D01*
X240046Y-258379D01*
X240041Y-258382D01*
X240040Y-258383D01*
X239966Y-258398D01*
X235014Y-258439D01*
X234940Y-258374D01*
X231890D01*
Y-257874D01*
X231390D01*
Y-256578D01*
X230459D01*
X230314Y-256459D01*
Y-252326D01*
X230267D01*
Y-246457D01*
Y-239383D01*
X231213D01*
Y-241732D01*
X231294Y-242142D01*
X231526Y-242489D01*
X231874Y-242721D01*
X232283Y-242803D01*
X240158D01*
X240567Y-242721D01*
X240915Y-242489D01*
X241147Y-242142D01*
X241228Y-241732D01*
Y-239383D01*
X243004D01*
Y-233858D01*
Y-228334D01*
X241228D01*
Y-225984D01*
X241147Y-225575D01*
X240915Y-225227D01*
X240567Y-224995D01*
X240158Y-224914D01*
X232283D01*
X231874Y-224995D01*
X231526Y-225227D01*
X231294Y-225575D01*
X231213Y-225984D01*
Y-228334D01*
X225184D01*
Y-239383D01*
X227820D01*
Y-245233D01*
X227543D01*
X227075Y-245326D01*
X226678Y-245592D01*
X226653Y-245617D01*
X226010Y-245552D01*
X225971Y-245494D01*
X224938Y-244461D01*
Y-244033D01*
X224663Y-243371D01*
X224157Y-242865D01*
X223496Y-242591D01*
X223138D01*
Y-240381D01*
X220459D01*
X220236Y-239973D01*
Y-235617D01*
X215093D01*
Y-239973D01*
X214870Y-240381D01*
X211235D01*
Y-239694D01*
X213805D01*
Y-235339D01*
X208661D01*
Y-236293D01*
X194300D01*
Y-223833D01*
X260033D01*
X261200Y-225000D01*
D02*
G37*
G36*
X216371Y-240243D02*
X216441Y-240277D01*
Y-243139D01*
X216480Y-243334D01*
X216487Y-243371D01*
X216534Y-243607D01*
X216799Y-244004D01*
X221914Y-249118D01*
Y-255027D01*
X222007Y-255496D01*
X222056Y-255568D01*
Y-256349D01*
X221865Y-256602D01*
X221612Y-256792D01*
X220832D01*
X220759Y-256744D01*
X220291Y-256650D01*
X219131D01*
X219023Y-256578D01*
X218796Y-256426D01*
X218538Y-256375D01*
X211233Y-249070D01*
X211023Y-248860D01*
Y-245670D01*
X209885D01*
Y-245460D01*
Y-243334D01*
Y-242732D01*
X210877Y-241740D01*
X211142Y-241343D01*
X211161Y-241246D01*
X211235Y-241197D01*
X214870D01*
X214984Y-241174D01*
X215100Y-241164D01*
X215139Y-241143D01*
X215182Y-241135D01*
X215279Y-241070D01*
X215382Y-241016D01*
X215410Y-240982D01*
X215447Y-240958D01*
X215512Y-240861D01*
X215586Y-240772D01*
X215809Y-240364D01*
X216096Y-240260D01*
X216327Y-240236D01*
X216371Y-240243D01*
D02*
G37*
G36*
X231390Y-269169D02*
X231313Y-269246D01*
X231136Y-269511D01*
X231074Y-269823D01*
X231074Y-269823D01*
Y-273393D01*
X230623Y-273511D01*
X230574Y-273511D01*
X228059D01*
Y-277165D01*
Y-280820D01*
X230574D01*
X230623Y-280820D01*
X231074Y-280937D01*
Y-291300D01*
X231136Y-291612D01*
X231151Y-291634D01*
X230763Y-291953D01*
X230110Y-291300D01*
X91150D01*
Y-277365D01*
X215443D01*
Y-273664D01*
X219610D01*
X220078Y-273571D01*
X220475Y-273306D01*
X222225Y-271556D01*
X222491Y-271159D01*
X222584Y-270691D01*
Y-270341D01*
X223745Y-269179D01*
X224121Y-269005D01*
X224512Y-269188D01*
X224606Y-269251D01*
Y-266626D01*
X225606D01*
Y-269251D01*
X226022Y-268973D01*
X226158D01*
X226574Y-269251D01*
Y-266626D01*
X227574D01*
Y-269251D01*
X227991Y-268973D01*
X228127D01*
X228543Y-269251D01*
Y-266626D01*
X229043D01*
Y-266126D01*
X230339D01*
Y-265561D01*
X230435Y-265172D01*
X230825Y-265075D01*
X231390D01*
Y-269169D01*
D02*
G37*
G36*
X218860Y-265075D02*
X221356D01*
X221745Y-265172D01*
X221842Y-265561D01*
Y-267622D01*
X220495Y-268969D01*
X220230Y-269366D01*
X220137Y-269834D01*
Y-270184D01*
X219103Y-271217D01*
X215443D01*
Y-265003D01*
X218496D01*
X218860Y-265075D01*
D02*
G37*
%LPC*%
G36*
X213805Y-229827D02*
X211733D01*
Y-231505D01*
X213805D01*
Y-229827D01*
D02*
G37*
G36*
X210733D02*
X208661D01*
Y-231505D01*
X210733D01*
Y-229827D01*
D02*
G37*
G36*
X220236Y-230105D02*
X218165D01*
Y-231784D01*
X220236D01*
Y-230105D01*
D02*
G37*
G36*
X217165D02*
X215093D01*
Y-231784D01*
X217165D01*
Y-230105D01*
D02*
G37*
G36*
X247257Y-228334D02*
X244004D01*
Y-233358D01*
X247257D01*
Y-228334D01*
D02*
G37*
G36*
X213805Y-232505D02*
X211733D01*
Y-234183D01*
X213805D01*
Y-232505D01*
D02*
G37*
G36*
X210733D02*
X208661D01*
Y-234183D01*
X210733D01*
Y-232505D01*
D02*
G37*
G36*
X220236Y-232784D02*
X218165D01*
Y-234461D01*
X220236D01*
Y-232784D01*
D02*
G37*
G36*
X217165D02*
X215093D01*
Y-234461D01*
X217165D01*
Y-232784D01*
D02*
G37*
G36*
X247257Y-234358D02*
X244004D01*
Y-239383D01*
X247257D01*
Y-234358D01*
D02*
G37*
G36*
X257456Y-252753D02*
X254400D01*
Y-255120D01*
X257456D01*
Y-252753D01*
D02*
G37*
G36*
X253400D02*
X250344D01*
Y-255120D01*
X253400D01*
Y-252753D01*
D02*
G37*
G36*
X247355Y-252842D02*
X244201D01*
Y-255405D01*
X247355D01*
Y-252842D01*
D02*
G37*
G36*
X243201D02*
X240047D01*
Y-255405D01*
X243201D01*
Y-252842D01*
D02*
G37*
G36*
X233320Y-256578D02*
X232390D01*
Y-257374D01*
X234515D01*
X234237Y-256958D01*
X233816Y-256677D01*
X233320Y-256578D01*
D02*
G37*
G36*
X230339Y-267126D02*
X229543D01*
Y-269251D01*
X229959Y-268973D01*
X230240Y-268553D01*
X230339Y-268057D01*
Y-267126D01*
D02*
G37*
G36*
X227059Y-273511D02*
X224495D01*
Y-276665D01*
X227059D01*
Y-273511D01*
D02*
G37*
G36*
Y-277665D02*
X224495D01*
Y-280820D01*
X227059D01*
Y-277665D01*
D02*
G37*
%LPD*%
D16*
X298922Y-89401D02*
G03*
X294942Y-94956I685J-4694D01*
G01*
X299255Y-79271D02*
G03*
X299439Y-79099I-449J662D01*
G01*
X299138Y-79351D02*
G03*
X296250Y-80717I466J-4720D01*
G01*
X184380Y-190646D02*
X187267Y-193532D01*
X201400D01*
X182322Y-201800D02*
X201400D01*
X178927Y-198405D02*
X182322Y-201800D01*
X184380Y-190646D02*
Y-184605D01*
X190849Y-178136D01*
X188300Y-189965D02*
Y-188166D01*
X190849Y-185617D01*
X209788Y-181877D02*
X210012Y-182100D01*
X199511Y-181877D02*
X209788D01*
X178927Y-198405D02*
Y-168300D01*
X178069Y-167443D02*
X178927Y-168300D01*
X152011Y-167300D02*
X152154Y-167443D01*
X178069D01*
X258600Y-182100D02*
X258700Y-182000D01*
X248988Y-182100D02*
X258600D01*
X258700Y-182000D02*
X259200D01*
X21739Y-94600D02*
X28100D01*
X15551Y-100787D02*
X21739Y-94600D01*
X217665Y-243139D02*
Y-237795D01*
Y-243139D02*
X223138Y-248612D01*
Y-255027D02*
Y-248612D01*
X223138Y-244391D02*
X225106Y-246359D01*
Y-255027D02*
Y-246359D01*
X260033Y-272565D02*
X270400Y-262198D01*
X225106Y-259842D02*
X226090Y-260827D01*
X220291Y-259842D02*
X225106D01*
X114510Y-126716D02*
X115400Y-125827D01*
Y-122000D01*
X114510Y-129571D02*
Y-126716D01*
X119819Y-113665D02*
X130644D01*
X120823Y-80594D02*
X130644D01*
X119760Y-118390D02*
X132078D01*
X119619Y-118530D02*
X119760Y-118390D01*
X122617Y-56712D02*
X123388Y-57483D01*
Y-59368D02*
Y-57483D01*
X116222Y-107018D02*
X117120Y-106120D01*
X93309Y-91180D02*
X115053D01*
X113270Y-109970D02*
X116222Y-107018D01*
X115053Y-91180D02*
X118173Y-94300D01*
X130176D01*
X117120Y-106120D02*
X118920D01*
X93170Y-91041D02*
X93309Y-91180D01*
X116222Y-107018D02*
Y-107018D01*
X130176Y-94300D02*
X130644Y-94768D01*
X110236Y-73541D02*
Y-68110D01*
X90953Y-95905D02*
X121428D01*
X89370Y-97163D02*
X89695D01*
X90953Y-95905D01*
X132601Y-129571D02*
X133384Y-128787D01*
X114510Y-129571D02*
X132601D01*
X123246Y-71146D02*
X130644D01*
X115800Y-63700D02*
X123246Y-71146D01*
X116222Y-68110D02*
X121653Y-73541D01*
Y-74531D02*
Y-73541D01*
X110236Y-68110D02*
X116222D01*
X227075Y-255027D02*
Y-246925D01*
X229043Y-255027D02*
Y-246457D01*
X227075Y-246925D02*
X227543Y-246457D01*
X229043D01*
Y-233964D01*
X18654Y-33000D02*
X85100D01*
X111732Y-118390D02*
Y-118110D01*
X101900Y-120050D02*
X110072D01*
X111732Y-118390D01*
X33575Y-7900D02*
X34275Y-8600D01*
X34600D01*
X13805Y-7900D02*
X33575D01*
X13780Y-7874D02*
X13805Y-7900D01*
X270400Y-262198D02*
Y-243334D01*
X124845Y-108941D02*
X130644D01*
X123581Y-107677D02*
X124845Y-108941D01*
X104578Y-236713D02*
X104624Y-236666D01*
X104578Y-238241D02*
Y-236713D01*
X100437Y-232480D02*
X104624Y-236666D01*
X108121D01*
X100437Y-232480D02*
Y-214172D01*
X105771Y-208838D01*
X109364D01*
X283608Y-73261D02*
Y-66648D01*
X283656Y-66600D01*
X287331Y-64567D02*
X292305D01*
X287164Y-64400D02*
X287331Y-64567D01*
X275233Y-64400D02*
X287164D01*
X275065Y-64567D02*
X275233Y-64400D01*
X112156Y-168639D02*
Y-167051D01*
X115293Y-163915D01*
X113000Y-169483D02*
X115083D01*
X115200Y-169600D01*
X112156Y-168639D02*
X113000Y-169483D01*
X126847Y-145866D02*
X128018Y-144695D01*
X133795D01*
X121394Y-145866D02*
X126847D01*
X120823Y-156106D02*
Y-146436D01*
X121394Y-145866D01*
X115293Y-157615D02*
X119314D01*
X120823Y-156106D01*
X6693Y-101378D02*
X7283Y-100787D01*
X265700Y-238635D02*
Y-236807D01*
X270400Y-232107D01*
X136346Y-237735D02*
X137616D01*
X134883Y-236273D02*
X136346Y-237735D01*
X137616D02*
X138436Y-238555D01*
X131349Y-236273D02*
X134883D01*
X101334Y-242178D02*
X104578D01*
X100218Y-241062D02*
X101334Y-242178D01*
X97306Y-241062D02*
X100218D01*
X97306Y-244159D02*
Y-241062D01*
Y-245452D02*
Y-244159D01*
X97318Y-244147D01*
X104578D01*
X105532Y-39069D02*
Y-36300D01*
X109100Y-32732D02*
Y-24400D01*
X105532Y-36300D02*
X109100Y-32732D01*
X254400Y-93503D02*
X264854D01*
X266900Y-95550D01*
X274946Y-99400D02*
X279200D01*
X271096Y-95550D02*
X274946Y-99400D01*
X266900Y-95550D02*
X271096D01*
X205711Y-98717D02*
X266431D01*
X266900Y-98248D02*
Y-95550D01*
X266431Y-98717D02*
X266900Y-98248D01*
X158577Y-54589D02*
X162061Y-58073D01*
X166250Y-108886D02*
X166455Y-109091D01*
X183400Y-75870D02*
X183948Y-76418D01*
X122862Y-123114D02*
X130644D01*
X187900Y-70900D02*
X193000Y-76000D01*
X144496Y-141100D02*
X148149D01*
X184251Y-104217D02*
X191010D01*
X145400Y-58126D02*
X152544D01*
X196200Y-73261D02*
X245021D01*
X184251Y-104217D02*
X191010D01*
X121428Y-90043D02*
X121472Y-90000D01*
X162061Y-58073D02*
X167501D01*
X183400Y-85319D02*
X192455D01*
X183400Y-71146D02*
X183646Y-70900D01*
X158577Y-54589D02*
Y-54539D01*
X145400Y-49394D02*
X152544D01*
X123581Y-90043D02*
X130644D01*
X129347Y-137880D02*
X135620D01*
X191010Y-104217D02*
X198593Y-111800D01*
X142407Y-108886D02*
X148812D01*
X142337Y-97646D02*
X148812D01*
X130644Y-123114D02*
X132108D01*
X135620Y-137880D02*
X136551Y-136949D01*
X162114Y-49394D02*
X167501D01*
X149987Y-45806D02*
X149987D01*
X141554Y-142495D02*
X141786Y-142727D01*
X158577Y-45857D02*
X162114Y-49394D01*
X183948Y-76418D02*
X190081D01*
X122617Y-63700D02*
X125338Y-66421D01*
X193000Y-76000D02*
X239222D01*
X183400Y-66421D02*
X183679Y-66700D01*
X158577Y-45857D02*
Y-45806D01*
X148722Y-140527D02*
X152700D01*
X155449Y-137531D02*
Y-133551D01*
X189639Y-66700D02*
X196200Y-73261D01*
X154400Y-142727D02*
X155100Y-142027D01*
X136551Y-130345D02*
X138109Y-128787D01*
X182687Y-80594D02*
X190255D01*
X160324Y-97646D02*
X166455D01*
X182279Y-104078D02*
X184251D01*
X183400Y-33350D02*
X190255D01*
X160324Y-108886D02*
X166250D01*
X183400Y-104078D02*
X184251D01*
X155100Y-142027D02*
Y-137880D01*
X123538Y-90000D02*
X123581Y-90043D01*
X136551Y-136949D02*
Y-130345D01*
X182501Y-113750D02*
X192383D01*
X142337Y-108817D02*
X142407Y-108886D01*
X128940Y-142495D02*
X141554D01*
X121472Y-90000D02*
X123538D01*
X184251Y-104078D02*
X184251Y-104078D01*
X183646Y-70900D02*
X187900D01*
X184251Y-104217D02*
X191010D01*
X183679Y-66700D02*
X189639D01*
X183400Y-104078D02*
X184251D01*
X183400D02*
X184251D01*
X141276Y-137880D02*
X144496Y-141100D01*
X183400Y-104217D02*
X191010D01*
X183400Y-104078D02*
X184251D01*
X183400D02*
X184251D01*
X166455Y-137531D02*
Y-128787D01*
X183400Y-104078D02*
X184251D01*
X198593Y-111800D02*
X206221D01*
X184251Y-104217D02*
X191010D01*
X161800Y-134101D02*
Y-128857D01*
X184251Y-104217D02*
X191010D01*
X141786Y-142727D02*
X154400D01*
X184251Y-104217D02*
X191010D01*
X161731Y-128787D02*
X161800Y-128857D01*
X141276Y-137880D02*
Y-130345D01*
X183400Y-118390D02*
X183679Y-118110D01*
X148149Y-141100D02*
X148722Y-140527D01*
X183679Y-118110D02*
X211478D01*
X183400Y-123114D02*
X190748D01*
X180628Y-128787D02*
X183231Y-126184D01*
X190982D01*
X161800Y-134101D02*
X162600Y-134901D01*
Y-139534D02*
Y-134901D01*
X122617Y-142727D02*
X128709D01*
X128940Y-142495D01*
X150600Y-137700D02*
X150724Y-137576D01*
X155100Y-137880D02*
X155449Y-137531D01*
X157006Y-131994D02*
Y-128787D01*
X155449Y-133551D02*
X157006Y-131994D01*
X150724Y-137576D02*
Y-130345D01*
X120300Y-85319D02*
X130644D01*
X150724Y-130345D02*
X152282Y-128787D01*
X121428Y-95905D02*
X125016Y-99492D01*
X146260Y-137880D02*
Y-130085D01*
X125016Y-99492D02*
X130644D01*
X146260Y-130085D02*
X147557Y-128787D01*
X123581Y-33350D02*
X130644D01*
X141276Y-130345D02*
X142833Y-128787D01*
X125338Y-66421D02*
X130644D01*
X242400Y-14750D02*
X243100Y-15450D01*
Y-27800D02*
Y-15450D01*
X232400Y-27800D02*
Y-14750D01*
X230890Y-263779D02*
X231890D01*
X230825Y-265075D02*
Y-263845D01*
X230890Y-263779D01*
X261478Y-46741D02*
X263902D01*
X283608Y-7291D02*
Y-2788D01*
X259836Y-48384D02*
X261478Y-46741D01*
X300930Y-7291D02*
Y-2430D01*
X309828Y-9909D02*
Y-8669D01*
X263902Y-46741D02*
X264572Y-46071D01*
X259836Y-48384D02*
X259836D01*
X279277Y-7291D02*
Y-2977D01*
X260065Y-7521D02*
X261947D01*
X262210Y-7783D02*
X265261D01*
X292269Y-2614D02*
X292284Y-2600D01*
X259836Y-7291D02*
X260065Y-7521D01*
X261947D02*
X262210Y-7783D01*
X292269Y-7291D02*
Y-2614D01*
X287938Y-7291D02*
Y-2977D01*
X279200Y-2900D02*
X279277Y-2977D01*
X309828Y-8669D02*
Y-2362D01*
X283608Y-2788D02*
X283656Y-2740D01*
X300900Y-2400D02*
X300930Y-2430D01*
X296500Y-2500D02*
X296600Y-2600D01*
Y-7291D02*
Y-2600D01*
X257650Y-36550D02*
X259000Y-37900D01*
Y-39900D02*
X259200Y-40100D01*
X259000Y-39900D02*
Y-37900D01*
X257650Y-36550D02*
Y-31800D01*
X119422Y-184840D02*
X122862Y-181400D01*
X117125Y-198800D02*
X119422Y-196503D01*
Y-184840D01*
X99545Y-246115D02*
X104578D01*
X97969D02*
X99545D01*
Y-247013D02*
X100615Y-248084D01*
X99545Y-247013D02*
Y-246115D01*
X100615Y-248084D02*
X104578D01*
X93948Y-245328D02*
Y-243753D01*
Y-245328D02*
X98672Y-250052D01*
X104578D01*
X97306Y-245452D02*
X97969Y-246115D01*
X96912Y-241062D02*
X97306D01*
X99545Y-182414D02*
Y-175999D01*
Y-191401D02*
Y-182414D01*
X98068Y-182224D02*
X99354D01*
X99545Y-182414D01*
X188300Y-237517D02*
X210236D01*
X210012Y-237741D02*
X210236Y-237517D01*
X210012Y-240875D02*
Y-237741D01*
X208661Y-242225D02*
X210012Y-240875D01*
X208661Y-248228D02*
Y-242225D01*
X299606Y-88882D02*
Y-84095D01*
X298922Y-89401D02*
X299138Y-89351D01*
X298922Y-89401D02*
X298922Y-89401D01*
X299138Y-89351D02*
X299606Y-88882D01*
X227165Y-78882D02*
X230461D01*
X206557D02*
X227165D01*
Y-85319D02*
Y-78882D01*
X223662Y-93503D02*
X227165D01*
X17592Y-146771D02*
X17672Y-146850D01*
X15472Y-146771D02*
X17592D01*
X12205Y-143504D02*
X15472Y-146771D01*
X12205Y-143504D02*
Y-140039D01*
X70604Y-166535D02*
X102869Y-198800D01*
X37896Y-166535D02*
X70604D01*
X102869Y-198800D02*
X117125D01*
X100013Y-191869D02*
X103268D01*
X99545Y-191401D02*
X100013Y-191869D01*
X201400Y-209407D02*
Y-201800D01*
X114125Y-232505D02*
Y-232347D01*
X115670Y-230802D02*
Y-230261D01*
X114125Y-232347D02*
X115670Y-230802D01*
X114027Y-232603D02*
X114125Y-232505D01*
X114027Y-236666D02*
Y-232603D01*
X113954Y-236594D02*
X114027Y-236666D01*
X92707Y-236463D02*
X95934Y-239690D01*
Y-240084D02*
Y-239690D01*
X92170Y-236463D02*
X92707D01*
X95934Y-240084D02*
X96912Y-241062D01*
X90857Y-235150D02*
X92170Y-236463D01*
X95637Y-257238D02*
X100855Y-252021D01*
X114510Y-141408D02*
X115510Y-142408D01*
X114746Y-59368D02*
X123388D01*
X125717Y-61697D01*
X130644D01*
X121653Y-74531D02*
X122992Y-75870D01*
X130644D01*
X120823Y-104217D02*
X130644D01*
X118920Y-106120D02*
X120823Y-104217D01*
X298922Y-89401D02*
X298922Y-89401D01*
X294942Y-95027D02*
Y-94956D01*
X169514Y-145004D02*
X170223Y-144295D01*
X169514Y-156106D02*
Y-145004D01*
X170223Y-144295D02*
Y-137880D01*
X171179Y-136923D01*
X175904Y-138829D02*
Y-128787D01*
X177611Y-143825D02*
Y-140535D01*
X175904Y-138829D02*
X177611Y-140535D01*
Y-143825D02*
X177892Y-144106D01*
X177703Y-151697D02*
Y-144295D01*
Y-151697D02*
X179356Y-153350D01*
X184380Y-144295D02*
X189498D01*
X180590Y-139534D02*
X187598D01*
X194498Y-132634D01*
X296000Y-184900D02*
X296876D01*
X285000D02*
X296000D01*
X192444Y-89065D02*
X197415Y-84095D01*
X184378Y-89065D02*
X192444D01*
X197415Y-84095D02*
X205906D01*
X183400Y-90043D02*
X184378Y-89065D01*
X183400Y-94768D02*
X193080D01*
X195409Y-92439D01*
X191613Y-99023D02*
Y-98180D01*
X191144Y-99492D02*
X191613Y-99023D01*
X183400Y-99492D02*
X191144D01*
X191613Y-98180D02*
X205175D01*
X206100Y-140700D02*
X219779D01*
X183400Y-108817D02*
X190255D01*
X190255Y-108817D02*
X190708D01*
X190255Y-108817D02*
X190255Y-108817D01*
X190708D02*
X190982Y-109091D01*
X299138Y-79351D02*
X299255Y-79271D01*
X299138Y-79351D02*
X299138Y-79351D01*
X153094Y-165271D02*
X201062D01*
Y-158400D01*
X79331Y-137100D02*
X83100Y-133331D01*
X107424Y-129571D02*
Y-124073D01*
X114510Y-141408D02*
Y-129571D01*
X107424Y-124073D02*
X107480Y-124016D01*
X99545Y-157615D02*
X107419D01*
X86940D02*
X99545D01*
X107419D02*
X115293D01*
X122816Y-169380D02*
X133795D01*
X115200Y-169600D02*
X120300Y-174700D01*
X138795Y-149380D02*
X146260D01*
X161800Y-189100D02*
X169500Y-181400D01*
X149588D02*
X150724D01*
X153400Y-189100D02*
X161800D01*
X141900Y-186100D02*
X156300D01*
X161000Y-181400D01*
X125016Y-164380D02*
X133795D01*
X133476Y-174700D02*
X138795Y-169380D01*
X133795Y-149380D02*
Y-144695D01*
X159200Y-144295D02*
X163924D01*
X138795Y-164380D02*
X146260D01*
X144900Y-169615D02*
X150600Y-163915D01*
X138795Y-159380D02*
X146260D01*
X144900Y-170737D02*
Y-169615D01*
X143000Y-174900D02*
X150600Y-167300D01*
X152011D01*
X148963Y-171200D02*
X175300D01*
X153065Y-165243D02*
X153094Y-165271D01*
X171179Y-136923D02*
Y-128787D01*
X79160Y-137100D02*
X79331D01*
X115293Y-163915D02*
X115490D01*
X98068Y-165391D02*
X99545Y-163915D01*
X107419Y-168639D02*
Y-163915D01*
X99545Y-175999D02*
X100013Y-175531D01*
X98068Y-182224D02*
Y-165391D01*
X100013Y-175531D02*
X103268D01*
X111732D02*
X116433D01*
X111732Y-191869D02*
X116433D01*
X138795Y-174900D02*
X143000D01*
X147388Y-183600D02*
X149588Y-181400D01*
X136400Y-183600D02*
X147388D01*
X142337Y-173300D02*
X144900Y-170737D01*
X137434Y-173300D02*
X142337D01*
X138763Y-181400D02*
X148963Y-171200D01*
X134995Y-178700D02*
X138795Y-174900D01*
X134234Y-176500D02*
X137434Y-173300D01*
X120300Y-178700D02*
Y-174700D01*
X130189Y-176500D02*
X134234D01*
X126109Y-176900D02*
X129789D01*
X131100Y-178700D02*
X134995D01*
X120300Y-174700D02*
X133476D01*
X129789Y-176900D02*
X130189Y-176500D01*
X122862Y-181400D02*
X138763D01*
X138436Y-235012D02*
Y-222493D01*
X137937Y-221994D02*
X138436Y-222493D01*
X137937Y-221994D02*
Y-212950D01*
X131349Y-231942D02*
Y-224363D01*
X131064Y-224078D02*
X131349Y-224363D01*
X131064Y-224078D02*
Y-214350D01*
X109322Y-207263D02*
X118779D01*
X148200Y-233480D02*
X150546Y-235826D01*
X142676Y-239004D02*
X148200Y-233480D01*
X125050Y-236273D02*
X125444D01*
X123869Y-237454D02*
X125050Y-236273D01*
X150546Y-238555D02*
Y-235826D01*
Y-238555D02*
X151714Y-239724D01*
X136782Y-240210D02*
X138436Y-238555D01*
X142676Y-240407D02*
Y-239004D01*
X151714Y-239724D02*
X151911D01*
X152594Y-240407D01*
Y-240603D02*
Y-240407D01*
X172885Y-240603D02*
X173284Y-241003D01*
X178594D01*
X140536Y-242547D02*
X142676Y-240407D01*
X129259Y-242178D02*
X129628Y-242547D01*
X140536D01*
X122098Y-237454D02*
X123869D01*
X121310Y-238241D02*
X122098Y-237454D01*
X117570Y-238241D02*
X121310D01*
X117570Y-240210D02*
X136782D01*
X101965D02*
X104578D01*
X117570Y-242178D02*
X129259D01*
X171537Y-257856D02*
Y-253050D01*
X168737Y-260655D02*
X171537Y-257856D01*
X103437Y-258279D02*
X108121Y-253596D01*
X103437Y-266351D02*
Y-258279D01*
X97306Y-235550D02*
X101965Y-240210D01*
X91192Y-240997D02*
X93948Y-243753D01*
X100855Y-252021D02*
X104578D01*
X80437Y-235150D02*
X90857D01*
X215411Y-37300D02*
X219700D01*
X279200Y-173000D02*
X281100Y-174900D01*
X296000D01*
X285648Y-195769D02*
X286517Y-194900D01*
X278100Y-194800D02*
X279069Y-195769D01*
X286517Y-194900D02*
X296000D01*
X279069Y-195769D02*
X285648D01*
X278100Y-194800D02*
Y-191600D01*
X259800Y-173300D02*
X278100Y-191600D01*
X268400Y-168300D02*
X285000Y-184900D01*
X257200Y-168300D02*
X268400D01*
X245021Y-128134D02*
X250139D01*
X245021Y-141520D02*
X251211D01*
X245334Y-153925D02*
X251043D01*
X230231Y-79112D02*
X230461Y-78882D01*
X256300Y-173300D02*
X259800D01*
X190252Y-56712D02*
X191613Y-58073D01*
X193080D01*
X193828Y-58821D01*
X189927Y-56712D02*
X190252D01*
X193879Y-67558D02*
X199424D01*
X193828Y-60202D02*
X195043Y-61417D01*
X193828Y-60202D02*
Y-58821D01*
X195043Y-61417D02*
X199424D01*
X230231Y-79634D02*
Y-79112D01*
X205906Y-79534D02*
X206557Y-78882D01*
X234573Y-54847D02*
X234646Y-54774D01*
X234500Y-61417D02*
X234573Y-61344D01*
Y-54847D01*
X231245Y-64792D02*
X235375D01*
X235600Y-65017D01*
X212205Y-84095D02*
X217915D01*
X205906D02*
Y-79534D01*
X219779Y-67558D02*
X223120Y-70900D01*
X251493D02*
X257826Y-64567D01*
X223120Y-70900D02*
X251493D01*
X205523Y-55812D02*
X216709D01*
X261030Y-56600D02*
X283700D01*
X231020Y-64567D02*
X231245Y-64792D01*
X216709Y-55812D02*
X228114Y-67217D01*
X250413D01*
X261030Y-56600D01*
X221065Y-63700D02*
X226182Y-68817D01*
X251313D01*
X260230Y-59900D01*
X205723Y-67558D02*
X219779D01*
X194598Y-54847D02*
X199424D01*
X259200Y-69969D02*
X265261D01*
X210673Y-63231D02*
X211142Y-63700D01*
X221065D01*
X210673Y-63231D02*
Y-62969D01*
X205773Y-62500D02*
X210205D01*
X210673Y-62969D01*
X227165Y-61417D02*
X231020D01*
X300900Y-62031D02*
X301369Y-62500D01*
X309828D01*
X300900Y-62031D02*
Y-59900D01*
X257826Y-64567D02*
X275065D01*
X274946Y-69969D02*
Y-64686D01*
X275065Y-64567D01*
X224369Y-52165D02*
X230069D01*
X222400Y-54134D02*
X224369Y-52165D01*
X256867Y-53767D02*
X283978D01*
X256800Y-53700D02*
X256867Y-53767D01*
X283978D02*
X285011Y-54800D01*
X288200D01*
X208661Y-96100D02*
X221065D01*
X223662Y-93503D01*
X99168Y-84095D02*
Y-68110D01*
X104900Y-62378D01*
Y-50900D01*
X26772Y-100028D02*
X27800Y-99000D01*
X26772Y-107677D02*
Y-100028D01*
X220889Y-50197D02*
X230069D01*
X243200Y-32800D02*
X249612Y-39212D01*
X251200D01*
X236614Y-46925D02*
X236835D01*
X237743Y-46016D01*
X249712D01*
X236614Y-47589D02*
Y-46925D01*
X249712Y-46016D02*
X251200Y-44529D01*
X251350Y-31800D02*
Y-26650D01*
X251200Y-26500D02*
X251350Y-26650D01*
X253400Y-269834D02*
X253900Y-269334D01*
Y-263100D01*
X13780Y-37874D02*
X18654Y-33000D01*
X83100Y-41100D02*
Y-40500D01*
Y-133331D02*
Y-41100D01*
X70394Y-145866D02*
X79160Y-137100D01*
X113091Y-61024D02*
X114746Y-59368D01*
X110236Y-61024D02*
X113091D01*
X111931Y-53385D02*
X116800Y-48516D01*
Y-47143D01*
X98601Y-59187D02*
Y-50900D01*
X96765Y-61024D02*
X98601Y-59187D01*
X108174Y-50900D02*
X111931Y-47143D01*
X116800D01*
X104900Y-50900D02*
X108174D01*
X107431Y-22731D02*
X109100Y-24400D01*
X105532Y-22731D02*
X107431D01*
X114469Y-39069D02*
X116800Y-41400D01*
X105532Y-39069D02*
X114469D01*
X93469Y-22731D02*
X97068D01*
X91600Y-24600D02*
X93469Y-22731D01*
X96100Y-44900D02*
X97068Y-43932D01*
Y-39069D01*
X11317Y-165648D02*
X12205Y-166535D01*
X21579D02*
X30608D01*
X201033Y-158371D02*
X201062Y-158400D01*
X194498Y-132634D02*
X207705D01*
X212205Y-128134D01*
X231020Y-61417D02*
X232446Y-59992D01*
Y-57864D02*
X232677Y-57633D01*
Y-54774D01*
X232446Y-59992D02*
Y-57864D01*
X226865Y-153925D02*
X237066D01*
X210900D02*
X219779D01*
X195485Y-111616D02*
X199780Y-115910D01*
X285890D01*
X286743Y-116763D01*
X212205Y-128134D02*
X219036D01*
X226123D02*
X236753D01*
X226865Y-141520D02*
X236753D01*
X193507Y-111616D02*
X195485D01*
X190982Y-109091D02*
X193507Y-111616D01*
X199102Y-103044D02*
X199668Y-102478D01*
X198293Y-104455D02*
X199102Y-103646D01*
X199668Y-102478D02*
X236241D01*
X201062Y-105590D02*
X202573Y-104078D01*
X198293Y-104780D02*
Y-104455D01*
X199102Y-103646D02*
Y-103044D01*
X200974Y-105590D02*
X201062D01*
X202573Y-104078D02*
X235578D01*
X198800Y-101037D02*
X198958Y-100878D01*
X198372Y-100610D02*
X198800Y-101037D01*
X205175Y-98180D02*
X205711Y-98717D01*
X196200Y-100380D02*
X196429Y-100610D01*
X198372D01*
X205906Y-96648D02*
X206374Y-97117D01*
X198958Y-100878D02*
X236904D01*
X206374Y-97117D02*
X207320D01*
X236241Y-102478D02*
X236963Y-103200D01*
X207320Y-97117D02*
X208337Y-96100D01*
X205906Y-96648D02*
Y-92439D01*
X237626Y-101600D02*
X284764D01*
X236904Y-100878D02*
X237626Y-101600D01*
X284764D02*
X292198Y-94166D01*
X235578Y-104078D02*
X236300Y-104800D01*
X236963Y-103200D02*
X287100D01*
X236300Y-104800D02*
X288901D01*
X299606Y-94095D01*
X206450Y-106278D02*
X235160D01*
X287100Y-103200D02*
X294942Y-95358D01*
X235160Y-106278D02*
X235282Y-106400D01*
X289563D01*
X215889Y-108000D02*
X293512D01*
X215411Y-108478D02*
X215889Y-108000D01*
X210431Y-108478D02*
X215411D01*
X289563Y-106400D02*
X291869Y-104095D01*
X220889Y-110200D02*
X221489Y-109600D01*
X216800Y-110200D02*
X220889D01*
X221489Y-109600D02*
X292794D01*
X293263Y-110069D01*
X222400Y-111800D02*
X224698D01*
X225161Y-111337D01*
X290181D01*
X287731Y-113600D02*
X288694Y-114563D01*
X231020Y-113600D02*
X287731D01*
X293263Y-117751D02*
Y-110069D01*
X290181Y-111337D02*
X290650Y-111805D01*
Y-117834D02*
Y-111805D01*
X293512Y-108000D02*
X299606Y-114094D01*
X286743Y-118769D02*
Y-116763D01*
X13858Y-17795D02*
X31811D01*
X13780Y-17874D02*
X13858Y-17795D01*
X31811D02*
X31890Y-17717D01*
X14576Y-28670D02*
X88270D01*
X13780Y-27874D02*
X14576Y-28670D01*
X88270D02*
X88500Y-28900D01*
X78390Y-58848D02*
X78400Y-58838D01*
X70394Y-58858D02*
X70404Y-58848D01*
X78390D01*
X103584Y-113750D02*
X107364Y-109970D01*
X266900Y-89250D02*
Y-84095D01*
X249825Y-8450D02*
X254400D01*
X249606Y-8669D02*
X249825Y-8450D01*
X254400Y-14750D02*
X254500Y-14850D01*
Y-19100D02*
Y-14850D01*
X260230Y-59900D02*
X300900D01*
X230800Y-41100D02*
X232677Y-42977D01*
Y-47589D02*
Y-42977D01*
X234646Y-43701D02*
X235831Y-42515D01*
X238250Y-41100D02*
X238531D01*
X236835Y-42515D02*
X238250Y-41100D01*
X235831Y-42515D02*
X236835D01*
X234646Y-47589D02*
Y-43701D01*
X237700Y-61417D02*
Y-58960D01*
X236614Y-57874D02*
X237700Y-58960D01*
X292198Y-94166D02*
Y-93503D01*
X292153Y-93458D02*
X292198Y-93503D01*
X292153Y-93458D02*
Y-84815D01*
X296250Y-80717D01*
X294942Y-95358D02*
Y-95027D01*
X299439Y-79099D02*
X299606Y-78882D01*
Y-74094D01*
X208337Y-96100D02*
X208661D01*
X212205Y-92439D02*
X217915D01*
X291869Y-104095D02*
X299606D01*
X288694Y-118458D02*
Y-114563D01*
X246457Y-54134D02*
Y-50197D01*
X239222Y-54134D02*
X246457D01*
X250768Y-56712D02*
Y-56387D01*
X249606Y-54134D02*
X250230Y-54757D01*
Y-55849D02*
Y-54757D01*
Y-55849D02*
X250768Y-56387D01*
X236614Y-57874D02*
Y-54774D01*
X257650Y-31800D02*
X257946Y-31504D01*
X264572D01*
X286743Y-118769D02*
X290083Y-122109D01*
Y-138980D02*
Y-122109D01*
Y-138980D02*
X297225Y-146122D01*
Y-153682D02*
Y-146122D01*
Y-153682D02*
X301969Y-158425D01*
X288694Y-118458D02*
X292284Y-122047D01*
Y-138740D02*
Y-122047D01*
Y-138740D02*
X301969Y-148425D01*
X294863Y-131320D02*
X301969Y-138425D01*
X294863Y-131320D02*
Y-122047D01*
X290650Y-117834D02*
X294863Y-122047D01*
X293263Y-117751D02*
X299606Y-124094D01*
X195409Y-92439D02*
X205906D01*
X54731Y-14954D02*
X57723D01*
X60866Y-11811D01*
X51968Y-17717D02*
X54731Y-14954D01*
X80866Y-11811D02*
X89370D01*
X70394Y-145866D02*
X71378Y-146850D01*
X12205Y-158461D02*
Y-151575D01*
X21579Y-166535D02*
X22047Y-166067D01*
X12205Y-166535D02*
X21579D01*
X22047Y-166067D02*
Y-135508D01*
X21579Y-135039D02*
X22047Y-135508D01*
X12205Y-135039D02*
X21579D01*
X26303Y-145397D02*
Y-130039D01*
Y-145397D02*
X26772Y-145866D01*
X40630D01*
X26772Y-122561D02*
Y-115551D01*
Y-129571D02*
Y-122561D01*
X14449D02*
X26772D01*
X13980Y-122092D02*
X14449Y-122561D01*
X13980Y-122092D02*
Y-116142D01*
X12205Y-130039D02*
X26303D01*
X26772Y-129571D01*
X6693Y-116142D02*
Y-101378D01*
X14961Y-78465D02*
X30315D01*
X31890Y-46729D02*
X32358Y-46260D01*
X30315Y-78465D02*
X31890Y-76890D01*
X32358Y-46260D02*
X40630D01*
X31890Y-76890D02*
Y-46729D01*
X228937Y-233858D02*
X229043Y-233964D01*
X218645Y-257874D02*
X220291D01*
X218327Y-257557D02*
X218645Y-257874D01*
X217990Y-257557D02*
X218327D01*
X208661Y-248228D02*
X217990Y-257557D01*
X211709Y-261811D02*
X220291D01*
X209055Y-259157D02*
X211709Y-261811D01*
X202756Y-263779D02*
Y-259157D01*
Y-263779D02*
X220291D01*
X210630Y-267323D02*
X211024Y-267717D01*
X223138Y-268057D02*
Y-266626D01*
X221360Y-269834D02*
X223138Y-268057D01*
X221360Y-270691D02*
Y-269834D01*
X219610Y-272441D02*
X221360Y-270691D01*
X214173Y-272441D02*
X219610D01*
X210236Y-268504D02*
X214173Y-272441D01*
D18*
X30709Y-166535D02*
D03*
X37795D02*
D03*
X6793Y-116142D02*
D03*
X13880D02*
D03*
X226865Y-141520D02*
D03*
X219779D02*
D03*
X226123Y-128134D02*
D03*
X219036D02*
D03*
X219779Y-153925D02*
D03*
X226865D02*
D03*
D19*
X12205Y-165648D02*
D03*
Y-159348D02*
D03*
X116800Y-47421D02*
D03*
Y-41122D02*
D03*
X201400Y-194517D02*
D03*
Y-200816D02*
D03*
X99545Y-163915D02*
D03*
Y-157615D02*
D03*
X115293D02*
D03*
Y-163915D02*
D03*
X107419Y-157615D02*
D03*
Y-163915D02*
D03*
X103437Y-266351D02*
D03*
Y-272650D02*
D03*
X88946Y-264325D02*
D03*
Y-258026D02*
D03*
X81537Y-264325D02*
D03*
Y-258026D02*
D03*
X73985Y-264325D02*
D03*
Y-258026D02*
D03*
X101900Y-120050D02*
D03*
Y-113750D02*
D03*
X254400Y-8450D02*
D03*
Y-14750D02*
D03*
X266900Y-95550D02*
D03*
Y-89250D02*
D03*
D20*
X251200Y-45414D02*
D03*
Y-38327D02*
D03*
X118542Y-215925D02*
D03*
Y-208838D02*
D03*
X109364Y-215925D02*
D03*
Y-208838D02*
D03*
D21*
X199511Y-181877D02*
D03*
X190849Y-185617D02*
D03*
Y-178136D02*
D03*
D22*
X210012Y-182100D02*
D03*
X248988D02*
D03*
D23*
X15551Y-100787D02*
D03*
X7283D02*
D03*
X236753Y-128134D02*
D03*
X245021D02*
D03*
X236753Y-141520D02*
D03*
X245021D02*
D03*
X237066Y-153925D02*
D03*
X245334D02*
D03*
D24*
X270400Y-243334D02*
D03*
X62987Y-210229D02*
D03*
X270400Y-232107D02*
D03*
X171537Y-253050D02*
D03*
X201400Y-209407D02*
D03*
X86940Y-157615D02*
D03*
X169500Y-181400D02*
D03*
X161000D02*
D03*
X150724D02*
D03*
X215411Y-37300D02*
D03*
X309828Y-62500D02*
D03*
X190700Y-250716D02*
D03*
X188300Y-237517D02*
D03*
X227165Y-85319D02*
D03*
Y-93503D02*
D03*
X99168Y-84095D02*
D03*
X274946Y-69969D02*
D03*
X283608Y-73261D02*
D03*
X254400Y-93503D02*
D03*
X265261Y-69969D02*
D03*
D25*
X130644Y-33350D02*
D03*
Y-38075D02*
D03*
Y-42799D02*
D03*
Y-47524D02*
D03*
Y-52248D02*
D03*
Y-56972D02*
D03*
Y-61697D02*
D03*
Y-66421D02*
D03*
Y-71146D02*
D03*
Y-75870D02*
D03*
Y-80594D02*
D03*
Y-85319D02*
D03*
Y-90043D02*
D03*
Y-94768D02*
D03*
Y-99492D02*
D03*
Y-104217D02*
D03*
Y-108941D02*
D03*
Y-113665D02*
D03*
Y-118390D02*
D03*
Y-123114D02*
D03*
X183400D02*
D03*
Y-118390D02*
D03*
Y-113665D02*
D03*
Y-108941D02*
D03*
Y-104217D02*
D03*
Y-99492D02*
D03*
Y-94768D02*
D03*
Y-90043D02*
D03*
Y-85319D02*
D03*
Y-80594D02*
D03*
Y-75870D02*
D03*
Y-71146D02*
D03*
Y-66421D02*
D03*
Y-61697D02*
D03*
Y-56972D02*
D03*
Y-52248D02*
D03*
Y-47524D02*
D03*
Y-42799D02*
D03*
Y-38075D02*
D03*
Y-33350D02*
D03*
D26*
X133384Y-128787D02*
D03*
X142833D02*
D03*
X147557D02*
D03*
X152282D02*
D03*
X157006D02*
D03*
X161731D02*
D03*
X166455D02*
D03*
X171179D02*
D03*
X175904D02*
D03*
X180628D02*
D03*
X138109D02*
D03*
D27*
X148812Y-108886D02*
D03*
Y-97646D02*
D03*
X160324Y-108886D02*
D03*
Y-97646D02*
D03*
X152544Y-58126D02*
D03*
Y-49394D02*
D03*
X161135Y-58126D02*
D03*
Y-49394D02*
D03*
X70394Y-145866D02*
D03*
D28*
X309828Y-8669D02*
D03*
D29*
X305064Y-7291D02*
D03*
D30*
X300930D02*
D03*
X296600D02*
D03*
X292269D02*
D03*
X287938D02*
D03*
X283608D02*
D03*
X279277D02*
D03*
X274946D02*
D03*
D31*
X265261Y-7783D02*
D03*
D32*
X264572Y-46071D02*
D03*
Y-31504D02*
D03*
D33*
X278352Y-49909D02*
D03*
X301855D02*
D03*
D34*
X172885Y-240603D02*
D03*
X165404D02*
D03*
D35*
X97306Y-235550D02*
D03*
Y-241062D02*
D03*
X91192Y-235485D02*
D03*
Y-240997D02*
D03*
X131064Y-208838D02*
D03*
Y-214350D02*
D03*
X131349Y-230761D02*
D03*
Y-236273D02*
D03*
X125444Y-230761D02*
D03*
Y-236273D02*
D03*
X95637Y-262750D02*
D03*
Y-257238D02*
D03*
X211233Y-232005D02*
D03*
Y-237517D02*
D03*
X217665Y-237795D02*
D03*
Y-232283D02*
D03*
D36*
X57437Y-235150D02*
D03*
X80437D02*
D03*
D37*
X231020Y-61417D02*
D03*
Y-64567D02*
D03*
D38*
X232677Y-47589D02*
D03*
X234646D02*
D03*
X236614D02*
D03*
Y-54774D02*
D03*
X234646D02*
D03*
X232677D02*
D03*
D39*
X239222Y-48228D02*
D03*
Y-50197D02*
D03*
Y-52165D02*
D03*
Y-54134D02*
D03*
X230069D02*
D03*
Y-52165D02*
D03*
Y-50197D02*
D03*
Y-48228D02*
D03*
D40*
X113270Y-109970D02*
D03*
X107364D02*
D03*
D41*
X178081Y-144295D02*
D03*
X184380D02*
D03*
X170223D02*
D03*
X163924D02*
D03*
X205723Y-61417D02*
D03*
X199424D02*
D03*
Y-54847D02*
D03*
X205723D02*
D03*
X251350Y-31800D02*
D03*
X257650D02*
D03*
X98601Y-50900D02*
D03*
X104900D02*
D03*
X205723Y-67558D02*
D03*
X199424D02*
D03*
X212205Y-84095D02*
D03*
X205906D02*
D03*
X212750Y-92200D02*
D03*
X206450D02*
D03*
X202362Y-248228D02*
D03*
X208661D02*
D03*
X209055Y-259157D02*
D03*
X202756D02*
D03*
X210236Y-268504D02*
D03*
X203937D02*
D03*
D42*
X103268Y-175531D02*
D03*
Y-191869D02*
D03*
X111732D02*
D03*
Y-175531D02*
D03*
X97068Y-22731D02*
D03*
Y-39069D02*
D03*
X105532D02*
D03*
Y-22731D02*
D03*
D43*
X179356Y-156106D02*
D03*
X169514D02*
D03*
D44*
X114510Y-129571D02*
D03*
X107424D02*
D03*
X227559Y-277165D02*
D03*
X234646D02*
D03*
D45*
X137937Y-209407D02*
D03*
Y-212950D02*
D03*
X138436Y-235012D02*
D03*
Y-238555D02*
D03*
D46*
X148200Y-233480D02*
D03*
Y-229149D02*
D03*
D47*
X152594Y-240603D02*
D03*
X156530D02*
D03*
D48*
X147413Y-264593D02*
D03*
Y-258090D02*
D03*
X133921Y-264325D02*
D03*
Y-257823D02*
D03*
D49*
X117570Y-238241D02*
D03*
Y-240210D02*
D03*
Y-242178D02*
D03*
Y-244147D02*
D03*
Y-246115D02*
D03*
Y-248084D02*
D03*
Y-250052D02*
D03*
Y-252021D02*
D03*
X104578D02*
D03*
Y-250052D02*
D03*
Y-248084D02*
D03*
Y-246115D02*
D03*
Y-244147D02*
D03*
Y-242178D02*
D03*
Y-240210D02*
D03*
Y-238241D02*
D03*
D50*
X114027Y-236666D02*
D03*
Y-253596D02*
D03*
X108121D02*
D03*
Y-236666D02*
D03*
D51*
X253900Y-255620D02*
D03*
Y-263100D02*
D03*
D52*
X243701Y-255906D02*
D03*
Y-262992D02*
D03*
X110236Y-68110D02*
D03*
Y-61024D02*
D03*
D53*
X243504Y-233858D02*
D03*
X228937D02*
D03*
D54*
X249606Y-54134D02*
D03*
X246457D02*
D03*
D55*
X26772Y-107677D02*
D03*
Y-115551D02*
D03*
D56*
X231890Y-257874D02*
D03*
Y-259842D02*
D03*
Y-261811D02*
D03*
Y-263779D02*
D03*
X220291D02*
D03*
Y-261811D02*
D03*
Y-259842D02*
D03*
Y-257874D02*
D03*
D57*
X229043Y-266626D02*
D03*
X227075D02*
D03*
X225106D02*
D03*
X223138D02*
D03*
Y-255027D02*
D03*
X225106D02*
D03*
X227075D02*
D03*
D58*
X229043D02*
D03*
D92*
X226090Y-260827D02*
D03*
D98*
X40630Y-71457D02*
D03*
Y-46260D02*
D03*
X70394Y-58858D02*
D03*
X40630Y-145866D02*
D03*
D102*
X188300Y-189965D02*
D03*
X259200Y-182000D02*
D03*
X28100Y-94600D02*
D03*
X223138Y-244391D02*
D03*
X221700Y-285600D02*
D03*
X115400Y-122000D02*
D03*
X120823Y-80594D02*
D03*
X119819Y-113665D02*
D03*
X122617Y-56712D02*
D03*
X110236Y-73541D02*
D03*
X111732Y-100380D02*
D03*
X115800Y-63700D02*
D03*
X93170Y-91041D02*
D03*
X89370Y-97163D02*
D03*
X85100Y-33000D02*
D03*
X62400Y-36200D02*
D03*
X67700Y-36000D02*
D03*
X111732Y-118110D02*
D03*
X247796Y-273254D02*
D03*
X34600Y-8600D02*
D03*
X244201Y-268553D02*
D03*
X237709D02*
D03*
X123581Y-107677D02*
D03*
X283656Y-66600D02*
D03*
X195500Y-271272D02*
D03*
X191453D02*
D03*
X187400Y-271360D02*
D03*
X191453Y-266126D02*
D03*
X195500Y-265967D02*
D03*
X187400Y-266056D02*
D03*
X265700Y-238635D02*
D03*
X190255Y-80594D02*
D03*
X162600Y-139534D02*
D03*
X167501Y-58073D02*
D03*
X239222Y-76000D02*
D03*
X190081Y-76418D02*
D03*
X167501Y-49394D02*
D03*
X166455Y-97646D02*
D03*
X129347Y-137880D02*
D03*
X206221Y-111800D02*
D03*
X190255Y-33350D02*
D03*
X192455Y-85319D02*
D03*
X245021Y-73261D02*
D03*
X122617Y-63700D02*
D03*
X211478Y-118110D02*
D03*
X190982Y-126184D02*
D03*
X145400Y-49394D02*
D03*
X122862Y-123114D02*
D03*
X145400Y-58126D02*
D03*
X142337Y-108817D02*
D03*
X166455Y-109091D02*
D03*
X142337Y-97646D02*
D03*
X150600Y-137700D02*
D03*
X122617Y-142727D02*
D03*
X192383Y-113750D02*
D03*
X141276Y-137880D02*
D03*
X190748Y-123114D02*
D03*
X166455Y-137531D02*
D03*
X146260Y-137880D02*
D03*
X152700Y-140527D02*
D03*
X119619Y-118530D02*
D03*
X121428Y-90043D02*
D03*
X120300Y-85319D02*
D03*
X123581Y-33350D02*
D03*
X232400Y-27800D02*
D03*
X292284Y-2600D02*
D03*
X259836Y-7291D02*
D03*
X279200Y-2900D02*
D03*
X300900Y-2400D02*
D03*
X259836Y-48384D02*
D03*
X287938Y-2977D02*
D03*
X309828Y-2362D02*
D03*
X283656Y-2740D02*
D03*
X296500Y-2500D02*
D03*
X88446Y-211503D02*
D03*
X84244Y-211427D02*
D03*
X80437D02*
D03*
X76753Y-211503D02*
D03*
X72890D02*
D03*
X88446Y-207386D02*
D03*
X84244D02*
D03*
X80437D02*
D03*
X76753Y-207588D02*
D03*
X72890D02*
D03*
X17672Y-146850D02*
D03*
X189498Y-144295D02*
D03*
X102000Y-201800D02*
D03*
X180590Y-139534D02*
D03*
X159200Y-144295D02*
D03*
X125016Y-164380D02*
D03*
X115200Y-169600D02*
D03*
X120300Y-178700D02*
D03*
X122816Y-169380D02*
D03*
X126109Y-176900D02*
D03*
X107419Y-168639D02*
D03*
X116433Y-175531D02*
D03*
X153065Y-165243D02*
D03*
X136400Y-183600D02*
D03*
X175300Y-171200D02*
D03*
X153400Y-189100D02*
D03*
X141900Y-186100D02*
D03*
X146260Y-164380D02*
D03*
X150600Y-163915D02*
D03*
X131100Y-178700D02*
D03*
X115510Y-142408D02*
D03*
X146260Y-159380D02*
D03*
X107480Y-124016D02*
D03*
X133795Y-144695D02*
D03*
X146260Y-149380D02*
D03*
X116433Y-191869D02*
D03*
X178594Y-241003D02*
D03*
X168737Y-260655D02*
D03*
X154648Y-273254D02*
D03*
X154476Y-269650D02*
D03*
X150546D02*
D03*
X142237D02*
D03*
X138936D02*
D03*
Y-272807D02*
D03*
X146913Y-273254D02*
D03*
X142237D02*
D03*
X135250D02*
D03*
Y-269650D02*
D03*
X146913D02*
D03*
X130956Y-273254D02*
D03*
Y-269650D02*
D03*
X150476Y-273254D02*
D03*
X119537Y-230261D02*
D03*
X115670D02*
D03*
X115813Y-226250D02*
D03*
X119537D02*
D03*
X111726D02*
D03*
X108121D02*
D03*
X108023Y-230261D02*
D03*
X111649D02*
D03*
X104578Y-226250D02*
D03*
Y-230261D02*
D03*
X127037Y-269650D02*
D03*
Y-273254D02*
D03*
X116637Y-258250D02*
D03*
Y-262150D02*
D03*
X112899Y-262307D02*
D03*
X112696Y-258323D02*
D03*
X108984Y-258526D02*
D03*
X108822Y-262250D02*
D03*
X111074Y-250151D02*
D03*
X114125Y-247198D02*
D03*
X111074D02*
D03*
X108023D02*
D03*
X114125Y-243064D02*
D03*
X111074D02*
D03*
X108023D02*
D03*
X111074Y-240111D02*
D03*
X97306Y-268866D02*
D03*
Y-272450D02*
D03*
X93592D02*
D03*
X93499Y-268796D02*
D03*
X89446Y-268966D02*
D03*
Y-272450D02*
D03*
X86177D02*
D03*
X85987Y-268966D02*
D03*
X82037Y-268866D02*
D03*
Y-272450D02*
D03*
X77955Y-268966D02*
D03*
Y-272450D02*
D03*
X73985Y-268966D02*
D03*
X73937Y-272450D02*
D03*
X279200Y-173000D02*
D03*
X257200Y-168300D02*
D03*
X250139Y-128134D02*
D03*
X251043Y-153925D02*
D03*
X251211Y-141520D02*
D03*
X230461Y-78882D02*
D03*
X256300Y-173300D02*
D03*
X189927Y-56712D02*
D03*
X193879Y-67558D02*
D03*
X234500Y-61417D02*
D03*
X235600Y-65017D02*
D03*
X217915Y-84095D02*
D03*
X194598Y-54847D02*
D03*
X259200Y-69969D02*
D03*
X227165Y-61417D02*
D03*
X219700Y-37300D02*
D03*
X222400Y-54134D02*
D03*
X259200Y-40100D02*
D03*
X27800Y-99000D02*
D03*
X220889Y-50197D02*
D03*
X243200Y-32800D02*
D03*
X251200Y-26500D02*
D03*
X97068Y-288000D02*
D03*
Y-283633D02*
D03*
Y-279700D02*
D03*
X93400Y-288000D02*
D03*
X93355Y-283633D02*
D03*
X93400Y-279700D02*
D03*
X253400Y-269834D02*
D03*
X83100Y-41100D02*
D03*
X111931Y-53385D02*
D03*
X96765Y-61024D02*
D03*
X91600Y-24600D02*
D03*
X96100Y-44900D02*
D03*
X210900Y-153925D02*
D03*
X206100Y-140700D02*
D03*
X201062Y-158400D02*
D03*
X200974Y-105590D02*
D03*
X198293Y-104780D02*
D03*
X196200Y-100380D02*
D03*
X206450Y-106278D02*
D03*
X210431Y-108478D02*
D03*
X216800Y-110200D02*
D03*
X222400Y-111800D02*
D03*
X231020Y-113600D02*
D03*
X243100Y-27800D02*
D03*
X31890Y-17717D02*
D03*
X88500Y-28900D02*
D03*
X78400Y-58838D02*
D03*
X266900Y-84095D02*
D03*
X249606Y-8669D02*
D03*
X254500Y-19100D02*
D03*
X256800Y-53700D02*
D03*
X288200Y-54800D02*
D03*
X279200Y-99400D02*
D03*
X300900Y-59900D02*
D03*
X292305Y-64567D02*
D03*
X283700Y-56600D02*
D03*
X230800Y-41100D02*
D03*
X238531D02*
D03*
X237700Y-61417D02*
D03*
X208661Y-96100D02*
D03*
X217915Y-92439D02*
D03*
X246457Y-50197D02*
D03*
X250768Y-56712D02*
D03*
X89370Y-11811D02*
D03*
X51968Y-17717D02*
D03*
X12205Y-151575D02*
D03*
D103*
X294942Y-95027D02*
D03*
D104*
X160630Y-307087D02*
D03*
X21260Y-216142D02*
D03*
X290551Y-225984D02*
D03*
X99800Y-10600D02*
D03*
D105*
X111074Y-245131D02*
D03*
D106*
X12205Y-130039D02*
D03*
Y-135039D02*
D03*
D107*
X301969Y-138425D02*
D03*
X299606Y-74094D02*
D03*
X296000Y-174900D02*
D03*
X13780Y-7874D02*
D03*
D108*
X301969Y-148425D02*
D03*
Y-158425D02*
D03*
X299606Y-94095D02*
D03*
Y-84095D02*
D03*
Y-104095D02*
D03*
Y-114094D02*
D03*
Y-124094D02*
D03*
X296000Y-194900D02*
D03*
Y-184900D02*
D03*
X70866Y-11811D02*
D03*
X80866D02*
D03*
X212400Y-14750D02*
D03*
X222400D02*
D03*
X232400D02*
D03*
X13780Y-57874D02*
D03*
Y-47874D02*
D03*
Y-37874D02*
D03*
Y-17874D02*
D03*
Y-27874D02*
D03*
D109*
X133795Y-149380D02*
D03*
X138795D02*
D03*
Y-159380D02*
D03*
Y-154380D02*
D03*
X133795Y-159380D02*
D03*
Y-154380D02*
D03*
Y-164380D02*
D03*
Y-169380D02*
D03*
X138795Y-164380D02*
D03*
Y-169380D02*
D03*
D110*
X60866Y-11811D02*
D03*
X242400Y-14750D02*
D03*
D111*
X14961Y-85827D02*
D03*
D112*
Y-75827D02*
D03*
D113*
X12205Y-140039D02*
D03*
D114*
X110800Y-3300D02*
D03*
X111100Y-12200D02*
D03*
Y-22085D02*
D03*
X118200Y-28900D02*
D03*
X128100D02*
D03*
X147557D02*
D03*
X138109D02*
D03*
X157006D02*
D03*
X167501D02*
D03*
X177300D02*
D03*
X187200D02*
D03*
X197100D02*
D03*
X204695Y-22085D02*
D03*
X204924Y-4200D02*
D03*
Y-12200D02*
D03*
M02*
