G04*
G04 #@! TF.GenerationSoftware,Altium Limited,Altium Designer,21.1.1 (26)*
G04*
G04 Layer_Color=65535*
%FSLAX25Y25*%
%MOIN*%
G70*
G04*
G04 #@! TF.SameCoordinates,1EF24474-C81F-45A5-81BD-A50C78BF7B70*
G04*
G04*
G04 #@! TF.FilePolarity,Positive*
G04*
G01*
G75*
%ADD10C,0.01000*%
%ADD11C,0.00984*%
%ADD12C,0.00787*%
%ADD13C,0.01575*%
%ADD14C,0.00600*%
%ADD15C,0.00800*%
%ADD16C,0.00500*%
D10*
X122534Y-32323D02*
G03*
X122534Y-32323I-1409J0D01*
G01*
D11*
X302468Y-130858D02*
G03*
X302468Y-130858I-500J0D01*
G01*
X225787Y-48228D02*
G03*
X225787Y-48228I-492J0D01*
G01*
X165675Y-156106D02*
G03*
X165675Y-156106I-492J0D01*
G01*
X108515Y-233025D02*
G03*
X108515Y-233025I-492J0D01*
G01*
X296500Y-167333D02*
G03*
X296500Y-167333I-500J0D01*
G01*
X53799Y-11811D02*
G03*
X53799Y-11811I-500J0D01*
G01*
X249209Y-14750D02*
G03*
X249209Y-14750I-500J0D01*
G01*
X225492Y-226969D02*
G03*
X225492Y-226969I-492J0D01*
G01*
X65925Y-155709D02*
G03*
X65925Y-155709I-492J0D01*
G01*
X275438Y-2960D02*
G03*
X275438Y-2960I-492J0D01*
G01*
X15453Y-68760D02*
G03*
X15453Y-68760I-492J0D01*
G01*
X12697Y-146653D02*
G03*
X12697Y-146653I-492J0D01*
G01*
X229535Y-249976D02*
G03*
X229535Y-249976I-492J0D01*
G01*
D12*
X304434Y-11818D02*
G03*
X306006Y-11035I0J1969D01*
G01*
X272664Y-10979D02*
G03*
X274277Y-11818I1612J1129D01*
G01*
X283902Y-12212D02*
G03*
X284295Y-11818I0J394D01*
G01*
X294138D02*
G03*
X294531Y-12212I394J0D01*
G01*
X271697Y-6849D02*
G03*
X270340Y-6307I-1357J-1426D01*
G01*
X294531Y-12212D02*
G03*
X294925Y-11818I0J394D01*
G01*
X283508D02*
G03*
X283902Y-12212I394J0D01*
G01*
X17461Y-127426D02*
G03*
X17462Y-142652I-5257J-7614D01*
G01*
X101119Y-160962D02*
Y-160568D01*
X97970Y-160962D02*
Y-160568D01*
X168948Y-242966D02*
X169342D01*
X168948Y-238241D02*
X169342D01*
X95928Y-238503D02*
Y-238109D01*
X98684Y-238503D02*
Y-238109D01*
X92570Y-238438D02*
Y-238044D01*
X89814Y-238438D02*
Y-238044D01*
X55701Y-221914D02*
X82174D01*
Y-248386D02*
Y-243376D01*
Y-226924D02*
Y-221914D01*
X55701Y-248386D02*
X82174D01*
X55701D02*
Y-243376D01*
Y-226924D02*
Y-221914D01*
X223125Y-143291D02*
X223519D01*
X223125Y-139748D02*
X223519D01*
X289449Y-163425D02*
X311968D01*
Y-133425D01*
X289449D02*
X311968D01*
X289449Y-163425D02*
Y-133425D01*
X289587Y-129095D02*
Y-69095D01*
X312106D01*
X289587Y-129095D02*
X312106D01*
Y-69095D01*
X227461Y-57382D02*
Y-44980D01*
Y-57382D02*
X241831D01*
Y-44980D01*
X227461D02*
X241831D01*
X181034Y-142720D02*
X181428D01*
X181034Y-145870D02*
X181428D01*
X166876Y-145870D02*
X167270D01*
X166876Y-142720D02*
X167270D01*
X113718Y-160962D02*
Y-160568D01*
X116867Y-160962D02*
Y-160568D01*
X108993Y-160962D02*
Y-160568D01*
X105844Y-160962D02*
Y-160568D01*
X110770Y-132031D02*
X111164D01*
X110770Y-127110D02*
X111164D01*
X116770Y-212578D02*
Y-212185D01*
X120313Y-212578D02*
Y-212185D01*
X132442Y-211791D02*
Y-211397D01*
X129686Y-211791D02*
Y-211397D01*
X151854Y-267062D02*
Y-255621D01*
X142971Y-267062D02*
Y-255621D01*
X129972Y-233714D02*
Y-233320D01*
X132727Y-233714D02*
Y-233320D01*
X138362Y-266795D02*
Y-255353D01*
X129480Y-266795D02*
Y-255353D01*
X124066Y-233714D02*
Y-233320D01*
X126822Y-233714D02*
Y-233320D01*
X107592Y-212578D02*
Y-212185D01*
X111135Y-212578D02*
Y-212185D01*
X105012Y-269697D02*
Y-269303D01*
X101863Y-269697D02*
Y-269303D01*
X94259Y-260191D02*
Y-259797D01*
X97015Y-260191D02*
Y-259797D01*
X87371Y-261372D02*
Y-260978D01*
X90520Y-261372D02*
Y-260978D01*
X79962Y-261372D02*
Y-260978D01*
X83112Y-261372D02*
Y-260978D01*
X72410Y-261372D02*
Y-260978D01*
X75560Y-261372D02*
Y-260978D01*
X103987Y-236292D02*
Y-236076D01*
Y-254186D02*
Y-253970D01*
X116861Y-254186D02*
X118160D01*
X103987D02*
X105286D01*
X118160Y-236292D02*
Y-236076D01*
Y-254186D02*
Y-253970D01*
X116861Y-236076D02*
X118160D01*
X103987D02*
X105286D01*
X283480Y-199900D02*
Y-169900D01*
X306000D01*
Y-199900D02*
Y-169900D01*
X283480Y-199900D02*
X306000D01*
X202376Y-59842D02*
X202770D01*
X202376Y-62992D02*
X202770D01*
X202376Y-56421D02*
X202770D01*
X202376Y-53272D02*
X202770D01*
X85866Y-24331D02*
Y-1811D01*
X55866D02*
X85866D01*
X55866Y-24331D02*
Y-1811D01*
Y-24331D02*
X85866D01*
X206142Y-2230D02*
X246142D01*
Y-24750D02*
Y-2230D01*
X206142Y-24750D02*
X246142D01*
X206142D02*
Y-2230D01*
X254546Y-46016D02*
Y-37724D01*
X247853Y-46016D02*
Y-37724D01*
X254303Y-33375D02*
X254697D01*
X254303Y-30225D02*
X254697D01*
X256262Y-259557D02*
Y-259163D01*
X251538Y-259557D02*
Y-259163D01*
X246161Y-259646D02*
Y-259252D01*
X241240Y-259646D02*
Y-259252D01*
X244882Y-242520D02*
Y-240158D01*
X227559Y-242520D02*
Y-240158D01*
X244882Y-227559D02*
Y-225197D01*
X227559Y-227559D02*
Y-225197D01*
Y-242520D02*
X244882D01*
X227559Y-225197D02*
X244882D01*
X209855Y-234958D02*
Y-234564D01*
X212611Y-234958D02*
Y-234564D01*
X219042Y-235236D02*
Y-234842D01*
X216287Y-235236D02*
Y-234842D01*
X120269Y-48843D02*
Y-39700D01*
X113331Y-48843D02*
Y-39700D01*
X101553Y-49325D02*
X101947D01*
X101553Y-52475D02*
X101947D01*
X204058Y-198552D02*
Y-196780D01*
X198742Y-198552D02*
Y-196780D01*
X203761Y-184284D02*
Y-182316D01*
X196083Y-184284D02*
Y-182316D01*
X222383Y-129905D02*
X222776D01*
X222383Y-126362D02*
X222776D01*
X240686Y-130595D02*
X241087D01*
X240686Y-125673D02*
X241087D01*
X241780Y-124276D02*
Y-119276D01*
X239280D02*
X241780Y-121776D01*
X239280Y-124276D02*
X241780Y-121776D01*
X239280Y-124276D02*
Y-119276D01*
X240686Y-143980D02*
X241087D01*
X240686Y-139059D02*
X241087D01*
X241780Y-137661D02*
Y-132661D01*
X239280D02*
X241780Y-135161D01*
X239280Y-137661D02*
X241780Y-135161D01*
X239280Y-137661D02*
Y-132661D01*
X240999Y-156386D02*
X241401D01*
X240999Y-151465D02*
X241401D01*
X242094Y-150067D02*
Y-145067D01*
X239594D02*
X242094Y-147567D01*
X239594Y-150067D02*
X242094Y-147567D01*
X239594Y-150067D02*
Y-145067D01*
X223125Y-152154D02*
X223519D01*
X223125Y-155697D02*
X223519D01*
X35630Y-153347D02*
Y-151279D01*
Y-140453D02*
Y-76870D01*
Y-66043D02*
Y-51673D01*
X46043Y-41142D02*
X75394D01*
Y-153347D02*
Y-151279D01*
Y-140453D02*
Y-64272D01*
Y-53445D02*
Y-41142D01*
X35630Y-153347D02*
X75394D01*
X103475Y-117097D02*
Y-116703D01*
X100325Y-117097D02*
Y-116703D01*
X269887Y-6307D02*
X270340D01*
X263670Y-27960D02*
Y-12015D01*
X263647Y-42527D02*
Y-35047D01*
X274277Y-11818D02*
X283508D01*
X310222Y-49929D02*
X310694D01*
X294925Y-11818D02*
X304434D01*
X263647Y-49929D02*
Y-49614D01*
X264848Y-51189D02*
X273037D01*
X308233D02*
X310222D01*
X310694Y-49929D02*
Y-13787D01*
X310222Y-51189D02*
Y-49929D01*
X283666Y-51189D02*
X296540D01*
X264119D02*
X264848D01*
X263647Y-49929D02*
X264119D01*
Y-51189D02*
Y-49929D01*
X307171Y-51189D02*
X308233D01*
X284295Y-11818D02*
X294138D01*
X255975Y-11797D02*
Y-11403D01*
X252825Y-11797D02*
Y-11403D01*
X202376Y-65983D02*
X202770D01*
X202376Y-69133D02*
X202770D01*
X268475Y-92597D02*
Y-92203D01*
X265325Y-92597D02*
Y-92203D01*
X208858Y-82520D02*
X209252D01*
X208858Y-85669D02*
X209252D01*
X209403Y-90625D02*
X209797D01*
X209403Y-93775D02*
X209797D01*
X26280Y-62874D02*
Y-2874D01*
X3760Y-62874D02*
X26280D01*
X3760Y-2874D02*
X26280D01*
X3760Y-62874D02*
Y-2874D01*
X2161Y-90531D02*
X27161D01*
X2161D02*
Y-71122D01*
X27161D01*
Y-90531D02*
Y-71122D01*
X28531Y-170977D02*
X39973D01*
X28531Y-162094D02*
X39973D01*
X16843Y-169006D02*
Y-155990D01*
X7566Y-169006D02*
Y-155990D01*
X28272Y-112543D02*
Y-110827D01*
X25272D02*
X28272D01*
X25272Y-111614D02*
X28272D01*
X25272Y-112543D02*
Y-110827D01*
X17461Y-142652D02*
Y-127427D01*
X4616Y-120583D02*
X16057D01*
X4616Y-111700D02*
X16057D01*
X13024Y-109646D02*
Y-104646D01*
X10524Y-107146D02*
X13024Y-104646D01*
X10524Y-107146D02*
X13024Y-109646D01*
X10524D02*
Y-104646D01*
X11216Y-103248D02*
X11618D01*
X11216Y-98327D02*
X11618D01*
X205315Y-249803D02*
X205709D01*
X205315Y-246654D02*
X205709D01*
X230906Y-274705D02*
X231299D01*
X230906Y-279626D02*
X231299D01*
X231012Y-254921D02*
X231996D01*
Y-255906D02*
Y-254921D01*
X220185D02*
X221169D01*
X220185Y-255906D02*
Y-254921D01*
X231012Y-266732D02*
X231996D01*
Y-265748D01*
X220185Y-266732D02*
X221169D01*
X220185D02*
Y-265748D01*
X205709Y-260731D02*
X206102D01*
X205709Y-257582D02*
X206102D01*
X206890Y-270079D02*
X207283D01*
X206890Y-266929D02*
X207283D01*
X107776Y-64764D02*
Y-64370D01*
X112697Y-64764D02*
Y-64370D01*
D13*
X116813Y-111545D02*
Y-108396D01*
D14*
X129795Y-171880D02*
X143295D01*
Y-146880D01*
X129795D02*
X143295D01*
X129795Y-171880D02*
Y-146880D01*
D15*
X114000Y-188700D02*
Y-178700D01*
X101000Y-188700D02*
Y-178700D01*
X106000Y-174700D02*
X109000D01*
X106000Y-192700D02*
X109000D01*
X107800Y-35900D02*
Y-25900D01*
X94800Y-35900D02*
Y-25900D01*
X99800Y-21900D02*
X102800D01*
X99800Y-39900D02*
X102800D01*
D16*
X248594Y-201195D02*
Y-187376D01*
X210405Y-201195D02*
X248594D01*
X210405D02*
Y-187415D01*
Y-176785D02*
Y-171667D01*
X219067Y-163005D01*
X248594D01*
Y-176785D02*
Y-163005D01*
X22399Y-187602D02*
X21400D01*
X21900D01*
Y-190102D01*
X21400Y-190602D01*
X20900D01*
X20400Y-190102D01*
X23399Y-188602D02*
Y-190102D01*
X23899Y-190602D01*
X25398D01*
Y-188602D01*
X26398Y-190602D02*
Y-188602D01*
X27898D01*
X28397Y-189102D01*
Y-190602D01*
X32396Y-187602D02*
Y-190602D01*
X33896D01*
X34396Y-190102D01*
Y-189602D01*
X33896Y-189102D01*
X32396D01*
X33896D01*
X34396Y-188602D01*
Y-188102D01*
X33896Y-187602D01*
X32396D01*
X36895Y-190602D02*
X35895D01*
X35395Y-190102D01*
Y-189102D01*
X35895Y-188602D01*
X36895D01*
X37394Y-189102D01*
Y-189602D01*
X35395D01*
X38894Y-190602D02*
X39894D01*
X40393Y-190102D01*
Y-189102D01*
X39894Y-188602D01*
X38894D01*
X38394Y-189102D01*
Y-190102D01*
X38894Y-190602D01*
X41393D02*
Y-188602D01*
X41893D01*
X42393Y-189102D01*
Y-190602D01*
Y-189102D01*
X42893Y-188602D01*
X43393Y-189102D01*
Y-190602D01*
X47391D02*
Y-187602D01*
X48891D01*
X49391Y-188102D01*
Y-189102D01*
X48891Y-189602D01*
X47391D01*
X50390Y-188602D02*
Y-190102D01*
X50890Y-190602D01*
X52390D01*
Y-191101D01*
X51890Y-191601D01*
X51390D01*
X52390Y-190602D02*
Y-188602D01*
X53889Y-190602D02*
X54889D01*
X55389Y-190102D01*
Y-189102D01*
X54889Y-188602D01*
X53889D01*
X53389Y-189102D01*
Y-190102D01*
X53889Y-190602D01*
X22399Y-193901D02*
X21900Y-193401D01*
X20900D01*
X20400Y-193901D01*
Y-194401D01*
X20900Y-194901D01*
X21900D01*
X22399Y-195400D01*
Y-195900D01*
X21900Y-196400D01*
X20900D01*
X20400Y-195900D01*
X23399Y-193401D02*
Y-196400D01*
Y-194901D01*
X23899Y-194401D01*
X24899D01*
X25398Y-194901D01*
Y-196400D01*
X26398D02*
X27398D01*
X26898D01*
Y-194401D01*
X26398D01*
X28897D02*
X29897Y-196400D01*
X30897Y-194401D01*
X32396D02*
X33396D01*
X33896Y-194901D01*
Y-196400D01*
X32396D01*
X31896Y-195900D01*
X32396Y-195400D01*
X33896D01*
X34895Y-196400D02*
Y-194401D01*
X35395D01*
X35895Y-194901D01*
Y-196400D01*
Y-194901D01*
X36395Y-194401D01*
X36895Y-194901D01*
Y-196400D01*
X40893Y-193401D02*
Y-196400D01*
X42393D01*
X42893Y-195900D01*
Y-193901D01*
X42393Y-193401D01*
X40893D01*
X45392Y-196400D02*
X44392D01*
X43892Y-195900D01*
Y-194901D01*
X44392Y-194401D01*
X45392D01*
X45892Y-194901D01*
Y-195400D01*
X43892D01*
X46891Y-193401D02*
Y-196400D01*
Y-194901D01*
X47391Y-194401D01*
X48391D01*
X48891Y-194901D01*
Y-196400D01*
X49891D02*
X50890D01*
X50390D01*
Y-194401D01*
X49891D01*
X52390Y-196400D02*
Y-194401D01*
X53889D01*
X54389Y-194901D01*
Y-196400D01*
X55389Y-194401D02*
Y-195900D01*
X55888Y-196400D01*
X56388Y-195900D01*
X56888Y-196400D01*
X57388Y-195900D01*
Y-194401D01*
X58887D02*
X59887D01*
X60387Y-194901D01*
Y-196400D01*
X58887D01*
X58388Y-195900D01*
X58887Y-195400D01*
X60387D01*
X61387Y-196400D02*
X62386D01*
X61887D01*
Y-193401D01*
X61387D01*
X20288Y-184100D02*
Y-182101D01*
X21287Y-181101D01*
X22287Y-182101D01*
Y-184100D01*
Y-182600D01*
X20288D01*
X23287Y-184100D02*
Y-182101D01*
X24786D01*
X25286Y-182600D01*
Y-184100D01*
X26786Y-181601D02*
Y-182101D01*
X26286D01*
X27286D01*
X26786D01*
Y-183600D01*
X27286Y-184100D01*
X28785D02*
X29785D01*
X29285D01*
Y-182101D01*
X28785D01*
X31284Y-182600D02*
X33283D01*
X34783Y-181601D02*
Y-182101D01*
X34283D01*
X35283D01*
X34783D01*
Y-183600D01*
X35283Y-184100D01*
X36782Y-181101D02*
Y-184100D01*
Y-182600D01*
X37282Y-182101D01*
X38282D01*
X38782Y-182600D01*
Y-184100D01*
X41281D02*
X40281D01*
X39781Y-183600D01*
Y-182600D01*
X40281Y-182101D01*
X41281D01*
X41781Y-182600D01*
Y-183100D01*
X39781D01*
X43280Y-184100D02*
Y-181601D01*
Y-182600D01*
X42780D01*
X43780D01*
X43280D01*
Y-181601D01*
X43780Y-181101D01*
X45779Y-181601D02*
Y-182101D01*
X45280D01*
X46279D01*
X45779D01*
Y-183600D01*
X46279Y-184100D01*
X50778Y-181101D02*
Y-184100D01*
X52277D01*
X52777Y-183600D01*
Y-183100D01*
Y-182600D01*
X52277Y-182101D01*
X50778D01*
X53777Y-184100D02*
X54777D01*
X54277D01*
Y-182101D01*
X53777D01*
X56276Y-184100D02*
Y-181101D01*
Y-183100D02*
X57776Y-182101D01*
X56276Y-183100D02*
X57776Y-184100D01*
X60775D02*
X59775D01*
X59275Y-183600D01*
Y-182600D01*
X59775Y-182101D01*
X60775D01*
X61274Y-182600D01*
Y-183100D01*
X59275D01*
X65273Y-184100D02*
X66273D01*
X65773D01*
Y-181101D01*
X65273D01*
X68272Y-184100D02*
X69272D01*
X69772Y-183600D01*
Y-182600D01*
X69272Y-182101D01*
X68272D01*
X67772Y-182600D01*
Y-183600D01*
X68272Y-184100D01*
X72771Y-182101D02*
X71271D01*
X70771Y-182600D01*
Y-183600D01*
X71271Y-184100D01*
X72771D01*
X73770D02*
Y-181101D01*
Y-183100D02*
X75270Y-182101D01*
X73770Y-183100D02*
X75270Y-184100D01*
X206196Y-189974D02*
Y-191973D01*
X253834Y-189187D02*
Y-191186D01*
X254834Y-190186D02*
X252835D01*
X95759Y-164317D02*
X92760D01*
Y-162817D01*
X93260Y-162318D01*
X94259D01*
X94759Y-162817D01*
Y-164317D01*
Y-163317D02*
X95759Y-162318D01*
Y-161318D02*
Y-160318D01*
Y-160818D01*
X92760D01*
X93260Y-161318D01*
X95759Y-156819D02*
Y-158819D01*
X93760Y-156819D01*
X93260D01*
X92760Y-157319D01*
Y-158319D01*
X93260Y-158819D01*
X282100Y-199049D02*
X279100D01*
Y-197549D01*
X279600Y-197050D01*
X280600D01*
X281100Y-197549D01*
Y-199049D01*
X282100Y-196050D02*
Y-195050D01*
Y-195550D01*
X279100D01*
X279600Y-196050D01*
X282100Y-193551D02*
Y-192551D01*
Y-193051D01*
X279100D01*
X279600Y-193551D01*
X246520Y-45099D02*
X243521D01*
Y-43599D01*
X244021Y-43099D01*
X245021D01*
X245520Y-43599D01*
Y-45099D01*
Y-44099D02*
X246520Y-43099D01*
Y-40100D02*
Y-42100D01*
X244521Y-40100D01*
X244021D01*
X243521Y-40600D01*
Y-41600D01*
X244021Y-42100D01*
X246020Y-39101D02*
X246520Y-38601D01*
Y-37601D01*
X246020Y-37101D01*
X244021D01*
X243521Y-37601D01*
Y-38601D01*
X244021Y-39101D01*
X244521D01*
X245021Y-38601D01*
Y-37101D01*
X114289Y-53974D02*
Y-50975D01*
X115789D01*
X116289Y-51475D01*
Y-52475D01*
X115789Y-52975D01*
X114289D01*
X115289D02*
X116289Y-53974D01*
X119288D02*
X117288D01*
X119288Y-51975D01*
Y-51475D01*
X118788Y-50975D01*
X117788D01*
X117288Y-51475D01*
X120288D02*
X120787Y-50975D01*
X121787D01*
X122287Y-51475D01*
Y-51975D01*
X121787Y-52475D01*
X122287Y-52975D01*
Y-53474D01*
X121787Y-53974D01*
X120787D01*
X120288Y-53474D01*
Y-52975D01*
X120787Y-52475D01*
X120288Y-51975D01*
Y-51475D01*
X120787Y-52475D02*
X121787D01*
X99601Y-54800D02*
X99101Y-54300D01*
X98101D01*
X97601Y-54800D01*
Y-56800D01*
X98101Y-57300D01*
X99101D01*
X99601Y-56800D01*
X102600Y-57300D02*
X100600D01*
X102600Y-55300D01*
Y-54800D01*
X102100Y-54300D01*
X101100D01*
X100600Y-54800D01*
X105099Y-57300D02*
Y-54300D01*
X103599Y-55800D01*
X105599D01*
X90101Y-35850D02*
X93099D01*
Y-34350D01*
X92600Y-33850D01*
X92100D01*
X91600Y-34350D01*
Y-35850D01*
Y-34350D01*
X91100Y-33850D01*
X90600D01*
X90101Y-34350D01*
Y-35850D01*
X90600Y-32851D02*
X90101Y-32351D01*
Y-31351D01*
X90600Y-30851D01*
X91100D01*
X91600Y-31351D01*
Y-31851D01*
Y-31351D01*
X92100Y-30851D01*
X92600D01*
X93099Y-31351D01*
Y-32351D01*
X92600Y-32851D01*
X197800Y-203349D02*
X194800D01*
Y-201849D01*
X195300Y-201349D01*
X196300D01*
X196800Y-201849D01*
Y-203349D01*
Y-202349D02*
X197800Y-201349D01*
Y-200350D02*
Y-199350D01*
Y-199850D01*
X194800D01*
X195300Y-200350D01*
X194800Y-197851D02*
Y-195851D01*
X195300D01*
X197300Y-197851D01*
X197800D01*
X199500Y-180100D02*
Y-178100D01*
X199000Y-177601D01*
X198001D01*
X197501Y-178100D01*
Y-180100D01*
X198001Y-180599D01*
X199000D01*
X198501Y-179600D02*
X199500Y-180599D01*
X199000D02*
X199500Y-180100D01*
X202499Y-180599D02*
X200500D01*
X202499Y-178600D01*
Y-178100D01*
X201999Y-177601D01*
X201000D01*
X200500Y-178100D01*
X217280Y-150880D02*
Y-147881D01*
X218779D01*
X219279Y-148381D01*
Y-149380D01*
X218779Y-149880D01*
X217280D01*
X218279D02*
X219279Y-150880D01*
X220279Y-150380D02*
X220778Y-150880D01*
X221778D01*
X222278Y-150380D01*
Y-148381D01*
X221778Y-147881D01*
X220778D01*
X220279Y-148381D01*
Y-148881D01*
X220778Y-149380D01*
X222278D01*
X217280Y-138200D02*
Y-135202D01*
X218779D01*
X219279Y-135701D01*
Y-136701D01*
X218779Y-137201D01*
X217280D01*
X218279D02*
X219279Y-138200D01*
X220279Y-135701D02*
X220778Y-135202D01*
X221778D01*
X222278Y-135701D01*
Y-136201D01*
X221778Y-136701D01*
X222278Y-137201D01*
Y-137701D01*
X221778Y-138200D01*
X220778D01*
X220279Y-137701D01*
Y-137201D01*
X220778Y-136701D01*
X220279Y-136201D01*
Y-135701D01*
X220778Y-136701D02*
X221778D01*
X207201Y-29199D02*
Y-26201D01*
X208700D01*
X209200Y-26700D01*
Y-27700D01*
X208700Y-28200D01*
X207201D01*
X212199Y-26201D02*
X210200D01*
Y-27700D01*
X211199Y-27200D01*
X211699D01*
X212199Y-27700D01*
Y-28700D01*
X211699Y-29199D01*
X210700D01*
X210200Y-28700D01*
X5481Y-94170D02*
Y-97169D01*
X6981D01*
X7480Y-96669D01*
Y-94670D01*
X6981Y-94170D01*
X5481D01*
X8480Y-97169D02*
X9480D01*
X8980D01*
Y-94170D01*
X8480Y-94670D01*
X3406Y-69334D02*
Y-66335D01*
X4906D01*
X5406Y-66835D01*
Y-67835D01*
X4906Y-68335D01*
X3406D01*
X6405Y-66835D02*
X6905Y-66335D01*
X7905D01*
X8405Y-66835D01*
Y-67335D01*
X7905Y-67835D01*
X7405D01*
X7905D01*
X8405Y-68335D01*
Y-68834D01*
X7905Y-69334D01*
X6905D01*
X6405Y-68834D01*
X243501Y-146926D02*
Y-149925D01*
X245001D01*
X245501Y-149425D01*
Y-147425D01*
X245001Y-146926D01*
X243501D01*
X248500Y-147425D02*
X248000Y-146926D01*
X247000D01*
X246500Y-147425D01*
Y-147925D01*
X247000Y-148425D01*
X248000D01*
X248500Y-148925D01*
Y-149425D01*
X248000Y-149925D01*
X247000D01*
X246500Y-149425D01*
X250999Y-149925D02*
Y-146926D01*
X249499Y-148425D01*
X251499D01*
X243501Y-134877D02*
Y-137876D01*
X245001D01*
X245501Y-137376D01*
Y-135377D01*
X245001Y-134877D01*
X243501D01*
X248500Y-135377D02*
X248000Y-134877D01*
X247000D01*
X246500Y-135377D01*
Y-135876D01*
X247000Y-136376D01*
X248000D01*
X248500Y-136876D01*
Y-137376D01*
X248000Y-137876D01*
X247000D01*
X246500Y-137376D01*
X249499Y-135377D02*
X249999Y-134877D01*
X250999D01*
X251499Y-135377D01*
Y-135876D01*
X250999Y-136376D01*
X250499D01*
X250999D01*
X251499Y-136876D01*
Y-137376D01*
X250999Y-137876D01*
X249999D01*
X249499Y-137376D01*
X243501Y-121615D02*
Y-124614D01*
X245001D01*
X245501Y-124114D01*
Y-122115D01*
X245001Y-121615D01*
X243501D01*
X248500Y-122115D02*
X248000Y-121615D01*
X247000D01*
X246500Y-122115D01*
Y-122614D01*
X247000Y-123114D01*
X248000D01*
X248500Y-123614D01*
Y-124114D01*
X248000Y-124614D01*
X247000D01*
X246500Y-124114D01*
X251499Y-124614D02*
X249499D01*
X251499Y-122614D01*
Y-122115D01*
X250999Y-121615D01*
X249999D01*
X249499Y-122115D01*
X32602Y-106162D02*
X29603D01*
Y-107662D01*
X30103Y-108162D01*
X32102D01*
X32602Y-107662D01*
Y-106162D01*
X29603Y-111161D02*
Y-109161D01*
X31602Y-111161D01*
X32102D01*
X32602Y-110661D01*
Y-109661D01*
X32102Y-109161D01*
X188483Y-35800D02*
Y-38300D01*
X188983Y-38800D01*
X189982D01*
X190482Y-38300D01*
Y-35800D01*
X192982Y-38800D02*
Y-35800D01*
X191482Y-37300D01*
X193481D01*
X5027Y-146866D02*
Y-144867D01*
X4527Y-144367D01*
X3528D01*
X3028Y-144867D01*
Y-146866D01*
X3528Y-147366D01*
X4527D01*
X4027Y-146366D02*
X5027Y-147366D01*
X4527D02*
X5027Y-146866D01*
X6027Y-147366D02*
X7026D01*
X6526D01*
Y-144367D01*
X6027Y-144867D01*
X49301Y-6700D02*
Y-3700D01*
X50800D01*
X51300Y-4200D01*
Y-5200D01*
X50800Y-5700D01*
X49301D01*
X52300Y-6700D02*
X53299D01*
X52799D01*
Y-3700D01*
X52300Y-4200D01*
X36796Y-35875D02*
X34797D01*
Y-37374D01*
X35797Y-36874D01*
X36296D01*
X36796Y-37374D01*
Y-38374D01*
X36296Y-38874D01*
X35297D01*
X34797Y-38374D01*
X37796Y-35875D02*
Y-37874D01*
X38796Y-38874D01*
X39795Y-37874D01*
Y-35875D01*
X43794Y-36874D02*
Y-38874D01*
Y-37874D01*
X44294Y-37374D01*
X44794Y-36874D01*
X45294D01*
X48293Y-38874D02*
X47293D01*
X46793Y-38374D01*
Y-37374D01*
X47293Y-36874D01*
X48293D01*
X48792Y-37374D01*
Y-37874D01*
X46793D01*
X49792Y-38874D02*
X50792D01*
X50292D01*
Y-35875D01*
X49792D01*
X52791Y-36874D02*
X53791D01*
X54291Y-37374D01*
Y-38874D01*
X52791D01*
X52291Y-38374D01*
X52791Y-37874D01*
X54291D01*
X55290Y-36874D02*
Y-38374D01*
X55790Y-38874D01*
X57290D01*
Y-39373D01*
X56790Y-39873D01*
X56290D01*
X57290Y-38874D02*
Y-36874D01*
X17004Y-112143D02*
X20004D01*
Y-113643D01*
X19504Y-114142D01*
X18504D01*
X18004Y-113643D01*
Y-112143D01*
Y-113143D02*
X17004Y-114142D01*
Y-117141D02*
Y-115142D01*
X19004Y-117141D01*
X19504D01*
X20004Y-116642D01*
Y-115642D01*
X19504Y-115142D01*
X17004Y-120140D02*
Y-118141D01*
X19004Y-120140D01*
X19504D01*
X20004Y-119641D01*
Y-118641D01*
X19504Y-118141D01*
X217201Y-124614D02*
Y-121615D01*
X218700D01*
X219200Y-122115D01*
Y-123114D01*
X218700Y-123614D01*
X217201D01*
X218200D02*
X219200Y-124614D01*
X220200Y-121615D02*
X222199D01*
Y-122115D01*
X220200Y-124114D01*
Y-124614D01*
X98264Y-117106D02*
X95265D01*
Y-115606D01*
X95765Y-115106D01*
X96765D01*
X97264Y-115606D01*
Y-117106D01*
Y-116106D02*
X98264Y-115106D01*
X95765Y-114107D02*
X95265Y-113607D01*
Y-112607D01*
X95765Y-112108D01*
X96265D01*
X96765Y-112607D01*
Y-113107D01*
Y-112607D01*
X97264Y-112108D01*
X97764D01*
X98264Y-112607D01*
Y-113607D01*
X97764Y-114107D01*
X8001Y-174000D02*
Y-171001D01*
X9501D01*
X10001Y-171500D01*
Y-172500D01*
X9501Y-173000D01*
X8001D01*
X9001D02*
X10001Y-174000D01*
X13000D02*
X11000D01*
X13000Y-172000D01*
Y-171500D01*
X12500Y-171001D01*
X11500D01*
X11000Y-171500D01*
X15499Y-174000D02*
Y-171001D01*
X13999Y-172500D01*
X15999D01*
X30501Y-160880D02*
Y-157881D01*
X32001D01*
X32501Y-158381D01*
Y-159380D01*
X32001Y-159880D01*
X30501D01*
X31501D02*
X32501Y-160880D01*
X35500D02*
X33500D01*
X35500Y-158880D01*
Y-158381D01*
X35000Y-157881D01*
X34000D01*
X33500Y-158381D01*
X36499D02*
X36999Y-157881D01*
X37999D01*
X38499Y-158381D01*
Y-158880D01*
X37999Y-159380D01*
X37499D01*
X37999D01*
X38499Y-159880D01*
Y-160380D01*
X37999Y-160880D01*
X36999D01*
X36499Y-160380D01*
X225101Y-40600D02*
Y-43100D01*
X225601Y-43600D01*
X226600D01*
X227100Y-43100D01*
Y-40600D01*
X228100Y-43600D02*
X229099D01*
X228600D01*
Y-40600D01*
X228100Y-41100D01*
X203876Y-96346D02*
X200877D01*
Y-94846D01*
X201377Y-94346D01*
X202376D01*
X202876Y-94846D01*
Y-96346D01*
Y-95346D02*
X203876Y-94346D01*
Y-93347D02*
Y-92347D01*
Y-92847D01*
X200877D01*
X201377Y-93347D01*
X200877Y-88848D02*
Y-90847D01*
X202376D01*
X201877Y-89848D01*
Y-89348D01*
X202376Y-88848D01*
X203376D01*
X203876Y-89348D01*
Y-90348D01*
X203376Y-90847D01*
X204831Y-80382D02*
Y-77383D01*
X206330D01*
X206830Y-77883D01*
Y-78882D01*
X206330Y-79382D01*
X204831D01*
X205830D02*
X206830Y-80382D01*
X207830D02*
X208829D01*
X208330D01*
Y-77383D01*
X207830Y-77883D01*
X210329D02*
X210829Y-77383D01*
X211828D01*
X212328Y-77883D01*
Y-79882D01*
X211828Y-80382D01*
X210829D01*
X210329Y-79882D01*
Y-77883D01*
X229001Y-67500D02*
X228501Y-67001D01*
X227501D01*
X227001Y-67500D01*
Y-69500D01*
X227501Y-69999D01*
X228501D01*
X229001Y-69500D01*
X232000Y-69999D02*
X230000D01*
X232000Y-68000D01*
Y-67500D01*
X231500Y-67001D01*
X230500D01*
X230000Y-67500D01*
X232999D02*
X233499Y-67001D01*
X234499D01*
X234999Y-67500D01*
Y-69500D01*
X234499Y-69999D01*
X233499D01*
X232999Y-69500D01*
Y-67500D01*
X254219Y-53634D02*
X254719Y-53134D01*
Y-52135D01*
X254219Y-51635D01*
X252220D01*
X251720Y-52135D01*
Y-53134D01*
X252220Y-53634D01*
X254219Y-54634D02*
X254719Y-55133D01*
Y-56133D01*
X254219Y-56633D01*
X253719D01*
X253220Y-56133D01*
X252720Y-56633D01*
X252220D01*
X251720Y-56133D01*
Y-55133D01*
X252220Y-54634D01*
X252720D01*
X253220Y-55133D01*
X253719Y-54634D01*
X254219D01*
X253220Y-55133D02*
Y-56133D01*
X211412Y-41300D02*
X213411D01*
X212412D01*
Y-44299D01*
X214411D02*
Y-41300D01*
X215911D01*
X216410Y-41800D01*
Y-42799D01*
X215911Y-43299D01*
X214411D01*
X219409Y-41300D02*
X218410Y-41800D01*
X217410Y-42799D01*
Y-43799D01*
X217910Y-44299D01*
X218910D01*
X219409Y-43799D01*
Y-43299D01*
X218910Y-42799D01*
X217410D01*
X254125Y-28299D02*
Y-25300D01*
X255625D01*
X256124Y-25800D01*
Y-26800D01*
X255625Y-27300D01*
X254125D01*
X255125D02*
X256124Y-28299D01*
X257124D02*
X258124D01*
X257624D01*
Y-25300D01*
X257124Y-25800D01*
X261123Y-28299D02*
Y-25300D01*
X259623Y-26800D01*
X261623D01*
X270601Y-88451D02*
X273600D01*
Y-89951D01*
X273100Y-90451D01*
X272100D01*
X271600Y-89951D01*
Y-88451D01*
Y-89451D02*
X270601Y-90451D01*
Y-91450D02*
Y-92450D01*
Y-91950D01*
X273600D01*
X273100Y-91450D01*
Y-93949D02*
X273600Y-94449D01*
Y-95449D01*
X273100Y-95949D01*
X272600D01*
X272100Y-95449D01*
Y-94949D01*
Y-95449D01*
X271600Y-95949D01*
X271100D01*
X270601Y-95449D01*
Y-94449D01*
X271100Y-93949D01*
X252554Y-3000D02*
X252054Y-2500D01*
X251054D01*
X250554Y-3000D01*
Y-4999D01*
X251054Y-5499D01*
X252054D01*
X252554Y-4999D01*
X253553Y-5499D02*
X254553D01*
X254053D01*
Y-2500D01*
X253553Y-3000D01*
X258052Y-2500D02*
X256053D01*
Y-3999D01*
X257052Y-3500D01*
X257552D01*
X258052Y-3999D01*
Y-4999D01*
X257552Y-5499D01*
X256552D01*
X256053Y-4999D01*
X265401Y-1500D02*
X264901Y-1001D01*
X263901D01*
X263401Y-1500D01*
Y-2000D01*
X263901Y-2500D01*
X264901D01*
X265401Y-3000D01*
Y-3500D01*
X264901Y-3999D01*
X263901D01*
X263401Y-3500D01*
X266400Y-1001D02*
Y-3999D01*
X267900D01*
X268400Y-3500D01*
Y-1500D01*
X267900Y-1001D01*
X266400D01*
X269399Y-3999D02*
X270399D01*
X269899D01*
Y-1001D01*
X269399Y-1500D01*
X27900Y-1501D02*
X30900D01*
Y-3000D01*
X30400Y-3500D01*
X29400D01*
X28900Y-3000D01*
Y-1501D01*
X27900Y-6499D02*
Y-4500D01*
X29900Y-6499D01*
X30400D01*
X30900Y-5999D01*
Y-5000D01*
X30400Y-4500D01*
X206080Y-156401D02*
Y-159400D01*
X208080D01*
X211079Y-156901D02*
X210579Y-156401D01*
X209579D01*
X209079Y-156901D01*
Y-157401D01*
X209579Y-157901D01*
X210579D01*
X211079Y-158400D01*
Y-158900D01*
X210579Y-159400D01*
X209579D01*
X209079Y-158900D01*
X122664Y-248672D02*
X120165D01*
X119665Y-249172D01*
Y-250172D01*
X120165Y-250672D01*
X122664D01*
X119665Y-253671D02*
Y-251671D01*
X121664Y-253671D01*
X122164D01*
X122664Y-253171D01*
Y-252171D01*
X122164Y-251671D01*
X126937Y-227449D02*
X123938D01*
Y-225949D01*
X124438Y-225449D01*
X125437D01*
X125937Y-225949D01*
Y-227449D01*
Y-226449D02*
X126937Y-225449D01*
Y-222450D02*
Y-224450D01*
X124937Y-222450D01*
X124438D01*
X123938Y-222950D01*
Y-223950D01*
X124438Y-224450D01*
X126937Y-221451D02*
Y-220451D01*
Y-220951D01*
X123938D01*
X124438Y-221451D01*
X149699Y-226492D02*
X146701D01*
Y-224992D01*
X147200Y-224493D01*
X148200D01*
X148700Y-224992D01*
Y-226492D01*
Y-225492D02*
X149699Y-224493D01*
Y-221494D02*
Y-223493D01*
X147700Y-221494D01*
X147200D01*
X146701Y-221993D01*
Y-222993D01*
X147200Y-223493D01*
Y-220494D02*
X146701Y-219994D01*
Y-218994D01*
X147200Y-218495D01*
X149200D01*
X149699Y-218994D01*
Y-219994D01*
X149200Y-220494D01*
X147200D01*
X132849Y-228112D02*
X129850D01*
Y-226613D01*
X130350Y-226113D01*
X131349D01*
X131849Y-226613D01*
Y-228112D01*
Y-227112D02*
X132849Y-226113D01*
Y-225113D02*
Y-224113D01*
Y-224613D01*
X129850D01*
X130350Y-225113D01*
X132349Y-222614D02*
X132849Y-222114D01*
Y-221114D01*
X132349Y-220615D01*
X130350D01*
X129850Y-221114D01*
Y-222114D01*
X130350Y-222614D01*
X130850D01*
X131349Y-222114D01*
Y-220615D01*
X150899Y-245759D02*
Y-242760D01*
X152399D01*
X152898Y-243260D01*
Y-244260D01*
X152399Y-244760D01*
X150899D01*
X151899D02*
X152898Y-245759D01*
X153898D02*
X154898D01*
X154398D01*
Y-242760D01*
X153898Y-243260D01*
X156397D02*
X156897Y-242760D01*
X157897D01*
X158397Y-243260D01*
Y-243760D01*
X157897Y-244260D01*
X158397Y-244760D01*
Y-245259D01*
X157897Y-245759D01*
X156897D01*
X156397Y-245259D01*
Y-244760D01*
X156897Y-244260D01*
X156397Y-243760D01*
Y-243260D01*
X156897Y-244260D02*
X157897D01*
X96095Y-232900D02*
Y-229901D01*
X97595D01*
X98094Y-230401D01*
Y-231400D01*
X97595Y-231900D01*
X96095D01*
X97095D02*
X98094Y-232900D01*
X99094D02*
X100094D01*
X99594D01*
Y-229901D01*
X99094Y-230401D01*
X103593Y-229901D02*
X102593Y-230401D01*
X101593Y-231400D01*
Y-232400D01*
X102093Y-232900D01*
X103093D01*
X103593Y-232400D01*
Y-231900D01*
X103093Y-231400D01*
X101593D01*
X252201Y-251500D02*
Y-248500D01*
X253700D01*
X254200Y-249000D01*
Y-250000D01*
X253700Y-250500D01*
X252201D01*
X253200D02*
X254200Y-251500D01*
X255200D02*
X256199D01*
X255699D01*
Y-248500D01*
X255200Y-249000D01*
X142900Y-209017D02*
X143400Y-208517D01*
Y-207517D01*
X142900Y-207017D01*
X140900D01*
X140401Y-207517D01*
Y-208517D01*
X140900Y-209017D01*
X140401Y-212016D02*
Y-210016D01*
X142400Y-212016D01*
X142900D01*
X143400Y-211516D01*
Y-210516D01*
X142900Y-210016D01*
Y-213016D02*
X143400Y-213515D01*
Y-214515D01*
X142900Y-215015D01*
X142400D01*
X141900Y-214515D01*
Y-214015D01*
Y-214515D01*
X141400Y-215015D01*
X140900D01*
X140401Y-214515D01*
Y-213515D01*
X140900Y-213016D01*
X129708Y-203731D02*
X129209Y-203231D01*
X128209D01*
X127709Y-203731D01*
Y-205730D01*
X128209Y-206230D01*
X129209D01*
X129708Y-205730D01*
X130708Y-206230D02*
X131708D01*
X131208D01*
Y-203231D01*
X130708Y-203731D01*
X133207Y-203231D02*
X135206D01*
Y-203731D01*
X133207Y-205730D01*
Y-206230D01*
X109700Y-267751D02*
X110199Y-267251D01*
Y-266251D01*
X109700Y-265751D01*
X107700D01*
X107201Y-266251D01*
Y-267251D01*
X107700Y-267751D01*
X107201Y-268750D02*
Y-269750D01*
Y-269250D01*
X110199D01*
X109700Y-268750D01*
X110199Y-273249D02*
X109700Y-272249D01*
X108700Y-271249D01*
X107700D01*
X107201Y-271749D01*
Y-272749D01*
X107700Y-273249D01*
X108200D01*
X108700Y-272749D01*
Y-271249D01*
X137436Y-230795D02*
X136936Y-231295D01*
Y-232295D01*
X137436Y-232795D01*
X139436D01*
X139936Y-232295D01*
Y-231295D01*
X139436Y-230795D01*
Y-229796D02*
X139936Y-229296D01*
Y-228296D01*
X139436Y-227796D01*
X137436D01*
X136936Y-228296D01*
Y-229296D01*
X137436Y-229796D01*
X137936D01*
X138436Y-229296D01*
Y-227796D01*
X95500Y-251900D02*
X95000Y-251400D01*
X94001D01*
X93501Y-251900D01*
Y-253900D01*
X94001Y-254399D01*
X95000D01*
X95500Y-253900D01*
X98499Y-251400D02*
X96500D01*
Y-252900D01*
X97500Y-252400D01*
X97999D01*
X98499Y-252900D01*
Y-253900D01*
X97999Y-254399D01*
X97000D01*
X96500Y-253900D01*
X88700Y-251700D02*
X88200Y-251201D01*
X87201D01*
X86701Y-251700D01*
Y-253700D01*
X87201Y-254200D01*
X88200D01*
X88700Y-253700D01*
X91199Y-254200D02*
Y-251201D01*
X89700Y-252700D01*
X91699D01*
X81037Y-251489D02*
X80538Y-250990D01*
X79538D01*
X79038Y-251489D01*
Y-253489D01*
X79538Y-253989D01*
X80538D01*
X81037Y-253489D01*
X82037Y-251489D02*
X82537Y-250990D01*
X83537D01*
X84036Y-251489D01*
Y-251989D01*
X83537Y-252489D01*
X83037D01*
X83537D01*
X84036Y-252989D01*
Y-253489D01*
X83537Y-253989D01*
X82537D01*
X82037Y-253489D01*
X73485Y-251489D02*
X72985Y-250990D01*
X71986D01*
X71486Y-251489D01*
Y-253489D01*
X71986Y-253989D01*
X72985D01*
X73485Y-253489D01*
X76484Y-253989D02*
X74485D01*
X76484Y-251989D01*
Y-251489D01*
X75984Y-250990D01*
X74985D01*
X74485Y-251489D01*
X91300Y-230100D02*
X90800Y-229601D01*
X89801D01*
X89301Y-230100D01*
Y-232100D01*
X89801Y-232599D01*
X90800D01*
X91300Y-232100D01*
X92300Y-232599D02*
X93299D01*
X92800D01*
Y-229601D01*
X92300Y-230100D01*
X145389Y-251842D02*
X144889Y-251342D01*
X143889D01*
X143389Y-251842D01*
Y-253841D01*
X143889Y-254341D01*
X144889D01*
X145389Y-253841D01*
X148388Y-254341D02*
X146388D01*
X148388Y-252342D01*
Y-251842D01*
X147888Y-251342D01*
X146888D01*
X146388Y-251842D01*
X151387Y-254341D02*
X149387D01*
X151387Y-252342D01*
Y-251842D01*
X150887Y-251342D01*
X149887D01*
X149387Y-251842D01*
X132401Y-251700D02*
X131901Y-251201D01*
X130901D01*
X130401Y-251700D01*
Y-253700D01*
X130901Y-254200D01*
X131901D01*
X132401Y-253700D01*
X135399Y-254200D02*
X133400D01*
X135399Y-252200D01*
Y-251700D01*
X134900Y-251201D01*
X133900D01*
X133400Y-251700D01*
X136399Y-254200D02*
X137399D01*
X136899D01*
Y-251201D01*
X136399Y-251700D01*
X118600Y-203100D02*
X118100Y-202601D01*
X117101D01*
X116601Y-203100D01*
Y-205100D01*
X117101Y-205599D01*
X118100D01*
X118600Y-205100D01*
X119600Y-202601D02*
X121599D01*
Y-203100D01*
X119600Y-205100D01*
Y-205599D01*
X108800Y-203000D02*
X108300Y-202501D01*
X107301D01*
X106801Y-203000D01*
Y-205000D01*
X107301Y-205500D01*
X108300D01*
X108800Y-205000D01*
X111799Y-202501D02*
X110800Y-203000D01*
X109800Y-204000D01*
Y-205000D01*
X110300Y-205500D01*
X111299D01*
X111799Y-205000D01*
Y-204500D01*
X111299Y-204000D01*
X109800D01*
X163956Y-236793D02*
Y-233794D01*
X165455D01*
X165955Y-234294D01*
Y-235294D01*
X165455Y-235793D01*
X163956D01*
X164956D02*
X165955Y-236793D01*
X168954D02*
X166955D01*
X168954Y-234794D01*
Y-234294D01*
X168455Y-233794D01*
X167455D01*
X166955Y-234294D01*
X219726Y-249160D02*
Y-251659D01*
X220226Y-252159D01*
X221226D01*
X221726Y-251659D01*
Y-249160D01*
X222725D02*
X224725D01*
Y-249660D01*
X222725Y-251659D01*
Y-252159D01*
X225001Y-220001D02*
Y-223000D01*
X227000D01*
X229999D02*
X228000D01*
X229999Y-221000D01*
Y-220500D01*
X229499Y-220001D01*
X228500D01*
X228000Y-220500D01*
X199938Y-244564D02*
Y-241565D01*
X201438D01*
X201938Y-242064D01*
Y-243064D01*
X201438Y-243564D01*
X199938D01*
X200938D02*
X201938Y-244564D01*
X204937D02*
X202937D01*
X204937Y-242564D01*
Y-242064D01*
X204437Y-241565D01*
X203437D01*
X202937Y-242064D01*
X205936Y-241565D02*
X207936D01*
Y-242064D01*
X205936Y-244064D01*
Y-244564D01*
X219199Y-228999D02*
X216200D01*
Y-227499D01*
X216700Y-226999D01*
X217700D01*
X218200Y-227499D01*
Y-228999D01*
Y-227999D02*
X219199Y-226999D01*
Y-224000D02*
Y-226000D01*
X217200Y-224000D01*
X216700D01*
X216200Y-224500D01*
Y-225500D01*
X216700Y-226000D01*
X216200Y-221001D02*
X216700Y-222001D01*
X217700Y-223001D01*
X218700D01*
X219199Y-222501D01*
Y-221501D01*
X218700Y-221001D01*
X218200D01*
X217700Y-221501D01*
Y-223001D01*
X212599Y-228999D02*
X209600D01*
Y-227499D01*
X210100Y-226999D01*
X211100D01*
X211600Y-227499D01*
Y-228999D01*
Y-227999D02*
X212599Y-226999D01*
Y-224000D02*
Y-226000D01*
X210600Y-224000D01*
X210100D01*
X209600Y-224500D01*
Y-225500D01*
X210100Y-226000D01*
X209600Y-221001D02*
Y-223001D01*
X211100D01*
X210600Y-222001D01*
Y-221501D01*
X211100Y-221001D01*
X212100D01*
X212599Y-221501D01*
Y-222501D01*
X212100Y-223001D01*
X204101Y-272300D02*
X203601Y-271800D01*
X202601D01*
X202101Y-272300D01*
Y-274300D01*
X202601Y-274799D01*
X203601D01*
X204101Y-274300D01*
X205100Y-272300D02*
X205600Y-271800D01*
X206600D01*
X207100Y-272300D01*
Y-272800D01*
X206600Y-273300D01*
X206100D01*
X206600D01*
X207100Y-273800D01*
Y-274300D01*
X206600Y-274799D01*
X205600D01*
X205100Y-274300D01*
X208099Y-272300D02*
X208599Y-271800D01*
X209599D01*
X210099Y-272300D01*
Y-274300D01*
X209599Y-274799D01*
X208599D01*
X208099Y-274300D01*
Y-272300D01*
X201980Y-253223D02*
X201480Y-252723D01*
X200481D01*
X199981Y-253223D01*
Y-255223D01*
X200481Y-255722D01*
X201480D01*
X201980Y-255223D01*
X204979Y-255722D02*
X202980D01*
X204979Y-253723D01*
Y-253223D01*
X204479Y-252723D01*
X203480D01*
X202980Y-253223D01*
X205979Y-255223D02*
X206479Y-255722D01*
X207478D01*
X207978Y-255223D01*
Y-253223D01*
X207478Y-252723D01*
X206479D01*
X205979Y-253223D01*
Y-253723D01*
X206479Y-254223D01*
X207978D01*
X241701Y-249071D02*
X241202Y-248571D01*
X240202D01*
X239702Y-249071D01*
Y-251070D01*
X240202Y-251570D01*
X241202D01*
X241701Y-251070D01*
X244701Y-251570D02*
X242701D01*
X244701Y-249571D01*
Y-249071D01*
X244201Y-248571D01*
X243201D01*
X242701Y-249071D01*
X245700D02*
X246200Y-248571D01*
X247200D01*
X247699Y-249071D01*
Y-249571D01*
X247200Y-250071D01*
X247699Y-250570D01*
Y-251070D01*
X247200Y-251570D01*
X246200D01*
X245700Y-251070D01*
Y-250570D01*
X246200Y-250071D01*
X245700Y-249571D01*
Y-249071D01*
X246200Y-250071D02*
X247200D01*
X227044Y-281932D02*
X226544Y-281432D01*
X225544D01*
X225044Y-281932D01*
Y-283931D01*
X225544Y-284431D01*
X226544D01*
X227044Y-283931D01*
X230043Y-284431D02*
X228043D01*
X230043Y-282432D01*
Y-281932D01*
X229543Y-281432D01*
X228543D01*
X228043Y-281932D01*
X231042Y-281432D02*
X233042D01*
Y-281932D01*
X231042Y-283931D01*
Y-284431D01*
X174595Y-251951D02*
X176594D01*
X175594D01*
Y-254949D01*
X177594D02*
Y-251951D01*
X179093D01*
X179593Y-252450D01*
Y-253450D01*
X179093Y-253950D01*
X177594D01*
X182592Y-251951D02*
X180593D01*
Y-253450D01*
X181593Y-252950D01*
X182092D01*
X182592Y-253450D01*
Y-254450D01*
X182092Y-254949D01*
X181093D01*
X180593Y-254450D01*
X267201Y-235844D02*
X269201D01*
X268201D01*
Y-238843D01*
X270200D02*
Y-235844D01*
X271700D01*
X272200Y-236344D01*
Y-237344D01*
X271700Y-237844D01*
X270200D01*
X274699Y-238843D02*
Y-235844D01*
X273199Y-237344D01*
X275199D01*
X185427Y-253528D02*
X187427D01*
X186427D01*
Y-256527D01*
X188427D02*
Y-253528D01*
X189926D01*
X190426Y-254028D01*
Y-255027D01*
X189926Y-255527D01*
X188427D01*
X191426Y-254028D02*
X191926Y-253528D01*
X192925D01*
X193425Y-254028D01*
Y-254527D01*
X192925Y-255027D01*
X192425D01*
X192925D01*
X193425Y-255527D01*
Y-256027D01*
X192925Y-256527D01*
X191926D01*
X191426Y-256027D01*
X288242Y-74699D02*
X285243D01*
Y-73200D01*
X285743Y-72700D01*
X286743D01*
X287242Y-73200D01*
Y-74699D01*
X285243Y-71700D02*
Y-69701D01*
X285743D01*
X287742Y-71700D01*
X288242D01*
X287899Y-139199D02*
X284900D01*
Y-137700D01*
X285400Y-137200D01*
X286400D01*
X286900Y-137700D01*
Y-139199D01*
X284900Y-134201D02*
X285400Y-135201D01*
X286400Y-136200D01*
X287400D01*
X287899Y-135700D01*
Y-134701D01*
X287400Y-134201D01*
X286900D01*
X286400Y-134701D01*
Y-136200D01*
X125903Y-151894D02*
X128402Y-151870D01*
X128897Y-151365D01*
X128887Y-150365D01*
X128383Y-149870D01*
X125883Y-149895D01*
X126374Y-148890D02*
X125869Y-148395D01*
X125859Y-147396D01*
X126354Y-146891D01*
X126854Y-146886D01*
X127358Y-147381D01*
X127363Y-147881D01*
X127358Y-147381D01*
X127854Y-146876D01*
X128353Y-146871D01*
X128858Y-147366D01*
X128868Y-148366D01*
X128373Y-148871D01*
X102676Y-82595D02*
X104675D01*
X103675D01*
Y-85594D01*
X105675D02*
Y-82595D01*
X107174D01*
X107674Y-83095D01*
Y-84095D01*
X107174Y-84594D01*
X105675D01*
X110673Y-85594D02*
X108674D01*
X110673Y-83595D01*
Y-83095D01*
X110173Y-82595D01*
X109174D01*
X108674Y-83095D01*
X113672Y-85594D02*
X111673D01*
X113672Y-83595D01*
Y-83095D01*
X113172Y-82595D01*
X112173D01*
X111673Y-83095D01*
X230833Y-83819D02*
X232832D01*
X231833D01*
Y-86818D01*
X233832D02*
Y-83819D01*
X235331D01*
X235831Y-84319D01*
Y-85319D01*
X235331Y-85819D01*
X233832D01*
X238830Y-86818D02*
X236831D01*
X238830Y-84819D01*
Y-84319D01*
X238331Y-83819D01*
X237331D01*
X236831Y-84319D01*
X239830Y-86818D02*
X240830D01*
X240330D01*
Y-83819D01*
X239830Y-84319D01*
X231002Y-92001D02*
X233001D01*
X232001D01*
Y-94999D01*
X234001D02*
Y-92001D01*
X235500D01*
X236000Y-92500D01*
Y-93500D01*
X235500Y-94000D01*
X234001D01*
X238999Y-94999D02*
X237000D01*
X238999Y-93000D01*
Y-92500D01*
X238499Y-92001D01*
X237500D01*
X237000Y-92500D01*
X239999D02*
X240499Y-92001D01*
X241498D01*
X241998Y-92500D01*
Y-94500D01*
X241498Y-94999D01*
X240499D01*
X239999Y-94500D01*
Y-92500D01*
X204451Y-207839D02*
X206451D01*
X205451D01*
Y-210838D01*
X207450D02*
Y-207839D01*
X208950D01*
X209450Y-208338D01*
Y-209338D01*
X208950Y-209838D01*
X207450D01*
X210449Y-210838D02*
X211449D01*
X210949D01*
Y-207839D01*
X210449Y-208338D01*
X212949Y-210338D02*
X213448Y-210838D01*
X214448D01*
X214948Y-210338D01*
Y-208338D01*
X214448Y-207839D01*
X213448D01*
X212949Y-208338D01*
Y-208838D01*
X213448Y-209338D01*
X214948D01*
X66592Y-208729D02*
X68591D01*
X67591D01*
Y-211728D01*
X69591D02*
Y-208729D01*
X71090D01*
X71590Y-209229D01*
Y-210229D01*
X71090Y-210729D01*
X69591D01*
X72590Y-211728D02*
X73589D01*
X73090D01*
Y-208729D01*
X72590Y-209229D01*
X75089D02*
X75589Y-208729D01*
X76588D01*
X77088Y-209229D01*
Y-209729D01*
X76588Y-210229D01*
X77088Y-210729D01*
Y-211228D01*
X76588Y-211728D01*
X75589D01*
X75089Y-211228D01*
Y-210729D01*
X75589Y-210229D01*
X75089Y-209729D01*
Y-209229D01*
X75589Y-210229D02*
X76588D01*
X184052Y-231101D02*
X186051D01*
X185051D01*
Y-234100D01*
X187051D02*
Y-231101D01*
X188550D01*
X189050Y-231600D01*
Y-232600D01*
X188550Y-233100D01*
X187051D01*
X190050Y-234100D02*
X191049D01*
X190550D01*
Y-231101D01*
X190050Y-231600D01*
X192549Y-231101D02*
X194548D01*
Y-231600D01*
X192549Y-233600D01*
Y-234100D01*
X81652Y-150001D02*
X83651D01*
X82651D01*
Y-152999D01*
X84651D02*
Y-150001D01*
X86150D01*
X86650Y-150500D01*
Y-151500D01*
X86150Y-152000D01*
X84651D01*
X87650Y-152999D02*
X88649D01*
X88150D01*
Y-150001D01*
X87650Y-150500D01*
X92148Y-150001D02*
X91149Y-150500D01*
X90149Y-151500D01*
Y-152500D01*
X90649Y-152999D01*
X91649D01*
X92148Y-152500D01*
Y-152000D01*
X91649Y-151500D01*
X90149D01*
X145463Y-174500D02*
X147462D01*
X146462D01*
Y-177499D01*
X148462D02*
Y-174500D01*
X149961D01*
X150461Y-175000D01*
Y-175999D01*
X149961Y-176499D01*
X148462D01*
X151461Y-177499D02*
X152460D01*
X151960D01*
Y-174500D01*
X151461Y-175000D01*
X155959Y-174500D02*
X153960D01*
Y-175999D01*
X154959Y-175499D01*
X155459D01*
X155959Y-175999D01*
Y-176999D01*
X155459Y-177499D01*
X154460D01*
X153960Y-176999D01*
X155752Y-184600D02*
X157751D01*
X156751D01*
Y-187600D01*
X158751D02*
Y-184600D01*
X160250D01*
X160750Y-185100D01*
Y-186100D01*
X160250Y-186600D01*
X158751D01*
X161750Y-187600D02*
X162749D01*
X162250D01*
Y-184600D01*
X161750Y-185100D01*
X165749Y-187600D02*
Y-184600D01*
X164249Y-186100D01*
X166248D01*
X238952Y-270100D02*
X240951D01*
X239951D01*
Y-273099D01*
X241951D02*
Y-270100D01*
X243450D01*
X243950Y-270600D01*
Y-271600D01*
X243450Y-272100D01*
X241951D01*
X244950Y-273099D02*
X245949D01*
X245450D01*
Y-270100D01*
X244950Y-270600D01*
X247449D02*
X247949Y-270100D01*
X248949D01*
X249448Y-270600D01*
Y-271100D01*
X248949Y-271600D01*
X248449D01*
X248949D01*
X249448Y-272100D01*
Y-272600D01*
X248949Y-273099D01*
X247949D01*
X247449Y-272600D01*
X164634Y-174500D02*
X166633D01*
X165633D01*
Y-177499D01*
X167633D02*
Y-174500D01*
X169132D01*
X169632Y-175000D01*
Y-175999D01*
X169132Y-176499D01*
X167633D01*
X170632Y-177499D02*
X171631D01*
X171132D01*
Y-174500D01*
X170632Y-175000D01*
X175130Y-177499D02*
X173131D01*
X175130Y-175499D01*
Y-175000D01*
X174630Y-174500D01*
X173631D01*
X173131Y-175000D01*
X249652Y-97435D02*
X251651D01*
X250651D01*
Y-100435D01*
X252651D02*
Y-97435D01*
X254150D01*
X254650Y-97935D01*
Y-98935D01*
X254150Y-99435D01*
X252651D01*
X255650Y-100435D02*
X256649D01*
X256149D01*
Y-97435D01*
X255650Y-97935D01*
X258149Y-100435D02*
X259149D01*
X258649D01*
Y-97435D01*
X258149Y-97935D01*
X271052Y-73987D02*
X273051D01*
X272051D01*
Y-76986D01*
X274051D02*
Y-73987D01*
X275550D01*
X276050Y-74486D01*
Y-75486D01*
X275550Y-75986D01*
X274051D01*
X277050Y-76986D02*
X278049D01*
X277550D01*
Y-73987D01*
X277050Y-74486D01*
X279549D02*
X280049Y-73987D01*
X281048D01*
X281548Y-74486D01*
Y-76486D01*
X281048Y-76986D01*
X280049D01*
X279549Y-76486D01*
Y-74486D01*
X304235Y-55700D02*
X306234D01*
X305235D01*
Y-58700D01*
X307234D02*
Y-55700D01*
X308733D01*
X309233Y-56200D01*
Y-57200D01*
X308733Y-57700D01*
X307234D01*
X310233Y-58200D02*
X310733Y-58700D01*
X311732D01*
X312232Y-58200D01*
Y-56200D01*
X311732Y-55700D01*
X310733D01*
X310233Y-56200D01*
Y-56700D01*
X310733Y-57200D01*
X312232D01*
X243855Y-67595D02*
X245854D01*
X244854D01*
Y-70594D01*
X246854D02*
Y-67595D01*
X248353D01*
X248853Y-68095D01*
Y-69095D01*
X248353Y-69594D01*
X246854D01*
X249853Y-68095D02*
X250353Y-67595D01*
X251352D01*
X251852Y-68095D01*
Y-68595D01*
X251352Y-69095D01*
X251852Y-69594D01*
Y-70094D01*
X251352Y-70594D01*
X250353D01*
X249853Y-70094D01*
Y-69594D01*
X250353Y-69095D01*
X249853Y-68595D01*
Y-68095D01*
X250353Y-69095D02*
X251352D01*
X260121Y-73987D02*
X262120D01*
X261120D01*
Y-76986D01*
X263120D02*
Y-73987D01*
X264619D01*
X265119Y-74486D01*
Y-75486D01*
X264619Y-75986D01*
X263120D01*
X266119Y-73987D02*
X268118D01*
Y-74486D01*
X266119Y-76486D01*
Y-76986D01*
X169538Y-305587D02*
X167539D01*
Y-307087D01*
X168538D01*
X167539D01*
Y-308586D01*
X170538Y-305587D02*
Y-308586D01*
X172037D01*
X172537Y-308086D01*
Y-306087D01*
X172037Y-305587D01*
X170538D01*
X175036Y-308586D02*
Y-305587D01*
X173537Y-307087D01*
X175536D01*
X96101Y-2500D02*
X94101D01*
Y-4000D01*
X95101D01*
X94101D01*
Y-5500D01*
X97100Y-2500D02*
Y-5500D01*
X98600D01*
X99100Y-5000D01*
Y-3000D01*
X98600Y-2500D01*
X97100D01*
X100099Y-3000D02*
X100599Y-2500D01*
X101599D01*
X102099Y-3000D01*
Y-3500D01*
X101599Y-4000D01*
X101099D01*
X101599D01*
X102099Y-4500D01*
Y-5000D01*
X101599Y-5500D01*
X100599D01*
X100099Y-5000D01*
X289001Y-216301D02*
X287001D01*
Y-217800D01*
X288001D01*
X287001D01*
Y-219300D01*
X290000Y-216301D02*
Y-219300D01*
X291500D01*
X292000Y-218800D01*
Y-216800D01*
X291500Y-216301D01*
X290000D01*
X294999Y-219300D02*
X292999D01*
X294999Y-217300D01*
Y-216800D01*
X294499Y-216301D01*
X293499D01*
X292999Y-216800D01*
X20312Y-206703D02*
X18313D01*
Y-208203D01*
X19312D01*
X18313D01*
Y-209702D01*
X21312Y-206703D02*
Y-209702D01*
X22811D01*
X23311Y-209202D01*
Y-207203D01*
X22811Y-206703D01*
X21312D01*
X24311Y-209702D02*
X25310D01*
X24811D01*
Y-206703D01*
X24311Y-207203D01*
X118367Y-184101D02*
X115368D01*
Y-185600D01*
X115868Y-186100D01*
X116368D01*
X116867Y-185600D01*
Y-184101D01*
Y-185600D01*
X117367Y-186100D01*
X117867D01*
X118367Y-185600D01*
Y-184101D01*
X115368Y-187100D02*
Y-188099D01*
Y-187600D01*
X118367D01*
X117867Y-187100D01*
X182853Y-156901D02*
X184852Y-159899D01*
Y-156901D02*
X182853Y-159899D01*
X185852D02*
X186852D01*
X186352D01*
Y-156901D01*
X185852Y-157400D01*
X118319Y-157319D02*
X121318D01*
Y-158819D01*
X120819Y-159318D01*
X119819D01*
X119319Y-158819D01*
Y-157319D01*
Y-158319D02*
X118319Y-159318D01*
Y-160318D02*
Y-161318D01*
Y-160818D01*
X121318D01*
X120819Y-160318D01*
X118319Y-162817D02*
Y-163817D01*
Y-163317D01*
X121318D01*
X120819Y-162817D01*
X208749Y-65059D02*
X211748D01*
Y-66559D01*
X211248Y-67058D01*
X210249D01*
X209749Y-66559D01*
Y-65059D01*
Y-66059D02*
X208749Y-67058D01*
X211748Y-70057D02*
X211248Y-69058D01*
X210249Y-68058D01*
X209249D01*
X208749Y-68558D01*
Y-69558D01*
X209249Y-70057D01*
X209749D01*
X210249Y-69558D01*
Y-68058D01*
X208655Y-58918D02*
X211654D01*
Y-60418D01*
X211154Y-60918D01*
X210154D01*
X209654Y-60418D01*
Y-58918D01*
Y-59918D02*
X208655Y-60918D01*
X211654Y-63916D02*
Y-61917D01*
X210154D01*
X210654Y-62917D01*
Y-63417D01*
X210154Y-63916D01*
X209155D01*
X208655Y-63417D01*
Y-62417D01*
X209155Y-61917D01*
X197175Y-51799D02*
Y-48800D01*
X198674D01*
X199174Y-49300D01*
Y-50300D01*
X198674Y-50800D01*
X197175D01*
X198175D02*
X199174Y-51799D01*
X201673D02*
Y-48800D01*
X200174Y-50300D01*
X202173D01*
X55994Y-217391D02*
Y-220390D01*
X57994D01*
X58993D02*
X59993D01*
X59493D01*
Y-217391D01*
X58993Y-217891D01*
X107271Y-104090D02*
Y-107089D01*
X108771D01*
X109271Y-106589D01*
Y-104590D01*
X108771Y-104090D01*
X107271D01*
X112270Y-104590D02*
X111770Y-104090D01*
X110770D01*
X110270Y-104590D01*
Y-105090D01*
X110770Y-105590D01*
X111770D01*
X112270Y-106089D01*
Y-106589D01*
X111770Y-107089D01*
X110770D01*
X110270Y-106589D01*
X113269Y-107089D02*
X114269D01*
X113769D01*
Y-104090D01*
X113269Y-104590D01*
X184751Y-147600D02*
X184251Y-147100D01*
X183251D01*
X182751Y-147600D01*
Y-149600D01*
X183251Y-150100D01*
X184251D01*
X184751Y-149600D01*
X185750Y-150100D02*
X186750D01*
X186250D01*
Y-147100D01*
X185750Y-147600D01*
X189749Y-150100D02*
Y-147100D01*
X188249Y-148600D01*
X190249D01*
X159981Y-147400D02*
X159481Y-146900D01*
X158482D01*
X157982Y-147400D01*
Y-149400D01*
X158482Y-149899D01*
X159481D01*
X159981Y-149400D01*
X160981Y-149899D02*
X161981D01*
X161481D01*
Y-146900D01*
X160981Y-147400D01*
X163480D02*
X163980Y-146900D01*
X164980D01*
X165480Y-147400D01*
Y-147900D01*
X164980Y-148400D01*
X164480D01*
X164980D01*
X165480Y-148900D01*
Y-149400D01*
X164980Y-149899D01*
X163980D01*
X163480Y-149400D01*
X105669Y-151891D02*
X105169Y-151391D01*
X104170D01*
X103670Y-151891D01*
Y-153891D01*
X104170Y-154391D01*
X105169D01*
X105669Y-153891D01*
X106669Y-154391D02*
X107669D01*
X107169D01*
Y-151391D01*
X106669Y-151891D01*
X111168Y-154391D02*
X109168D01*
X111168Y-152391D01*
Y-151891D01*
X110668Y-151391D01*
X109668D01*
X109168Y-151891D01*
X106871Y-134040D02*
X106372Y-133540D01*
X105372D01*
X104872Y-134040D01*
Y-136039D01*
X105372Y-136539D01*
X106372D01*
X106871Y-136039D01*
X107871Y-136539D02*
X108871D01*
X108371D01*
Y-133540D01*
X107871Y-134040D01*
X110370Y-136539D02*
X111370D01*
X110870D01*
Y-133540D01*
X110370Y-134040D01*
X103131Y-69860D02*
X102631Y-70359D01*
Y-71359D01*
X103131Y-71859D01*
X105130D01*
X105630Y-71359D01*
Y-70359D01*
X105130Y-69860D01*
X105630Y-68860D02*
Y-67860D01*
Y-68360D01*
X102631D01*
X103131Y-68860D01*
Y-66361D02*
X102631Y-65861D01*
Y-64861D01*
X103131Y-64361D01*
X105130D01*
X105630Y-64861D01*
Y-65861D01*
X105130Y-66361D01*
X103131D01*
M02*
