G04*
G04 #@! TF.GenerationSoftware,Altium Limited,Altium Designer,21.1.1 (26)*
G04*
G04 Layer_Physical_Order=2*
G04 Layer_Color=36540*
%FSLAX25Y25*%
%MOIN*%
G70*
G04*
G04 #@! TF.SameCoordinates,1EF24474-C81F-45A5-81BD-A50C78BF7B70*
G04*
G04*
G04 #@! TF.FilePolarity,Positive*
G04*
G01*
G75*
%ADD103C,0.07874*%
%ADD108C,0.02000*%
%ADD112R,0.07087X0.07087*%
%ADD113C,0.07087*%
%ADD114C,0.03960*%
%ADD115R,0.07087X0.07087*%
%ADD118R,0.04134X0.04134*%
%ADD121C,0.02800*%
G36*
X312492Y-6406D02*
X311024Y-7874D01*
X311024Y-161916D01*
X307157Y-195040D01*
X270866Y-258783D01*
X153663Y-310394D01*
X99158Y-289675D01*
X99002Y-289081D01*
X99268Y-288438D01*
Y-287562D01*
X98933Y-286754D01*
X98314Y-286135D01*
X98149Y-286066D01*
Y-285566D01*
X98314Y-285498D01*
X98933Y-284879D01*
X99268Y-284070D01*
Y-283195D01*
X98933Y-282386D01*
X98540Y-281993D01*
X98368Y-281666D01*
X98540Y-281340D01*
X98933Y-280946D01*
X99268Y-280138D01*
Y-279262D01*
X98933Y-278454D01*
X98314Y-277835D01*
X97506Y-277500D01*
X96631D01*
X95822Y-277835D01*
X95234Y-278423D01*
X94646Y-277835D01*
X93838Y-277500D01*
X92962D01*
X92154Y-277835D01*
X91535Y-278454D01*
X91200Y-279262D01*
Y-280138D01*
X91535Y-280946D01*
X91906Y-281317D01*
X92075Y-281693D01*
X91906Y-281971D01*
X91490Y-282386D01*
X91155Y-283195D01*
Y-284070D01*
X91490Y-284879D01*
X92109Y-285498D01*
X92297Y-285576D01*
Y-286076D01*
X92154Y-286135D01*
X91535Y-286754D01*
X91526Y-286775D01*
X61085Y-275204D01*
X28898Y-235719D01*
X9803Y-196953D01*
X3937Y-173228D01*
Y-5906D01*
X9436D01*
Y-12217D01*
X18123D01*
Y-5906D01*
X30305D01*
X30435Y-6254D01*
X30449Y-6406D01*
X29974Y-6880D01*
X29700Y-7542D01*
Y-8258D01*
X29974Y-8920D01*
X30480Y-9426D01*
X31142Y-9700D01*
X31858D01*
X32520Y-9426D01*
X33026Y-8920D01*
X33300Y-8258D01*
Y-7542D01*
X33026Y-6880D01*
X32551Y-6406D01*
X32565Y-6254D01*
X32695Y-5906D01*
X112134D01*
Y-10460D01*
X111556D01*
X110864Y-10746D01*
X110335Y-11276D01*
X110048Y-11968D01*
Y-12717D01*
X110335Y-13409D01*
X110864Y-13939D01*
X111556Y-14225D01*
X112134D01*
Y-20302D01*
X111556D01*
X110864Y-20589D01*
X110335Y-21119D01*
X110048Y-21811D01*
Y-22559D01*
X110335Y-23252D01*
X110864Y-23781D01*
X111556Y-24068D01*
X112134D01*
Y-25591D01*
X112205Y-25947D01*
Y-27559D01*
X113818D01*
X114173Y-27630D01*
X116348D01*
X116405Y-27716D01*
Y-28465D01*
X116692Y-29157D01*
X117222Y-29687D01*
X117914Y-29973D01*
X118663D01*
X119355Y-29687D01*
X119884Y-29157D01*
X120171Y-28465D01*
Y-27716D01*
X120229Y-27630D01*
X126190D01*
X126248Y-27716D01*
Y-28465D01*
X126535Y-29157D01*
X127064Y-29687D01*
X127756Y-29973D01*
X128505D01*
X129197Y-29687D01*
X129727Y-29157D01*
X130013Y-28465D01*
Y-27716D01*
X130071Y-27630D01*
X136033D01*
X136091Y-27716D01*
Y-28465D01*
X136377Y-29157D01*
X136907Y-29687D01*
X137599Y-29973D01*
X138348D01*
X139040Y-29687D01*
X139569Y-29157D01*
X139856Y-28465D01*
Y-27716D01*
X139914Y-27630D01*
X145875D01*
X145933Y-27716D01*
Y-28465D01*
X146220Y-29157D01*
X146749Y-29687D01*
X147441Y-29973D01*
X148190D01*
X148882Y-29687D01*
X149412Y-29157D01*
X149698Y-28465D01*
Y-27716D01*
X149756Y-27630D01*
X155718D01*
X155776Y-27716D01*
Y-28465D01*
X156062Y-29157D01*
X156592Y-29687D01*
X157284Y-29973D01*
X158033D01*
X158725Y-29687D01*
X159254Y-29157D01*
X159541Y-28465D01*
Y-27716D01*
X159599Y-27630D01*
X165560D01*
X165618Y-27716D01*
Y-28465D01*
X165905Y-29157D01*
X166434Y-29687D01*
X167126Y-29973D01*
X167875D01*
X168567Y-29687D01*
X169097Y-29157D01*
X169383Y-28465D01*
Y-27716D01*
X169441Y-27630D01*
X175403D01*
X175461Y-27716D01*
Y-28465D01*
X175747Y-29157D01*
X176277Y-29687D01*
X176969Y-29973D01*
X177718D01*
X178410Y-29687D01*
X178939Y-29157D01*
X179226Y-28465D01*
Y-27716D01*
X179284Y-27630D01*
X185246D01*
X185303Y-27716D01*
Y-28465D01*
X185590Y-29157D01*
X186119Y-29687D01*
X186811Y-29973D01*
X187560D01*
X188252Y-29687D01*
X188782Y-29157D01*
X189068Y-28465D01*
Y-27716D01*
X189126Y-27630D01*
X195088D01*
X195146Y-27716D01*
Y-28465D01*
X195432Y-29157D01*
X195962Y-29687D01*
X196654Y-29973D01*
X197403D01*
X198095Y-29687D01*
X198624Y-29157D01*
X198911Y-28465D01*
Y-27716D01*
X198969Y-27630D01*
X200787D01*
X201143Y-27559D01*
X202756D01*
Y-25945D01*
X202826Y-25591D01*
Y-24101D01*
X203026Y-23968D01*
X203774D01*
X204466Y-23681D01*
X204996Y-23152D01*
X205283Y-22459D01*
Y-21711D01*
X204996Y-21019D01*
X204466Y-20489D01*
X203774Y-20202D01*
X203026D01*
X202826Y-20069D01*
Y-14258D01*
X203026Y-14125D01*
X203774D01*
X204466Y-13839D01*
X204996Y-13309D01*
X205283Y-12617D01*
Y-11868D01*
X204996Y-11176D01*
X204466Y-10646D01*
X203774Y-10360D01*
X203026D01*
X202826Y-10227D01*
Y-5906D01*
X312285D01*
X312492Y-6406D01*
D02*
G37*
%LPC*%
G36*
X65209Y-7468D02*
X61366D01*
Y-11311D01*
X65209D01*
Y-7468D01*
D02*
G37*
G36*
X60366D02*
X56523D01*
Y-11311D01*
X60366D01*
Y-7468D01*
D02*
G37*
G36*
X89728Y-10011D02*
X89012D01*
X88350Y-10285D01*
X87844Y-10791D01*
X87570Y-11453D01*
Y-12169D01*
X87844Y-12831D01*
X88350Y-13337D01*
X89012Y-13611D01*
X89728D01*
X90390Y-13337D01*
X90896Y-12831D01*
X91170Y-12169D01*
Y-11453D01*
X90896Y-10791D01*
X90390Y-10285D01*
X89728Y-10011D01*
D02*
G37*
G36*
X245485Y-10406D02*
X241642D01*
Y-14250D01*
X245485D01*
Y-10406D01*
D02*
G37*
G36*
X240642D02*
X236799D01*
Y-14250D01*
X240642D01*
Y-10406D01*
D02*
G37*
G36*
X81438Y-7468D02*
X80294D01*
X79190Y-7764D01*
X78199Y-8336D01*
X77391Y-9144D01*
X76819Y-10135D01*
X76523Y-11239D01*
Y-12383D01*
X76819Y-13487D01*
X77391Y-14478D01*
X78199Y-15286D01*
X79190Y-15858D01*
X80294Y-16154D01*
X81438D01*
X82543Y-15858D01*
X83533Y-15286D01*
X84342Y-14478D01*
X84913Y-13487D01*
X85209Y-12383D01*
Y-11239D01*
X84913Y-10135D01*
X84342Y-9144D01*
X83533Y-8336D01*
X82543Y-7764D01*
X81438Y-7468D01*
D02*
G37*
G36*
X71438D02*
X70294D01*
X69190Y-7764D01*
X68199Y-8336D01*
X67391Y-9144D01*
X66819Y-10135D01*
X66523Y-11239D01*
Y-12383D01*
X66819Y-13487D01*
X67391Y-14478D01*
X68199Y-15286D01*
X69190Y-15858D01*
X70294Y-16154D01*
X71438D01*
X72543Y-15858D01*
X73533Y-15286D01*
X74342Y-14478D01*
X74914Y-13487D01*
X75209Y-12383D01*
Y-11239D01*
X74914Y-10135D01*
X74342Y-9144D01*
X73533Y-8336D01*
X72543Y-7764D01*
X71438Y-7468D01*
D02*
G37*
G36*
X65209Y-12311D02*
X61366D01*
Y-16154D01*
X65209D01*
Y-12311D01*
D02*
G37*
G36*
X60366D02*
X56523D01*
Y-16154D01*
X60366D01*
Y-12311D01*
D02*
G37*
G36*
X14351Y-13531D02*
X14279D01*
Y-17374D01*
X18123D01*
Y-17302D01*
X17827Y-16198D01*
X17255Y-15207D01*
X16446Y-14399D01*
X15456Y-13827D01*
X14351Y-13531D01*
D02*
G37*
G36*
X13280D02*
X13208D01*
X12103Y-13827D01*
X11113Y-14399D01*
X10304Y-15207D01*
X9732Y-16198D01*
X9436Y-17302D01*
Y-17374D01*
X13280D01*
Y-13531D01*
D02*
G37*
G36*
X245485Y-15250D02*
X241642D01*
Y-19093D01*
X245485D01*
Y-15250D01*
D02*
G37*
G36*
X240642D02*
X236799D01*
Y-19093D01*
X240642D01*
Y-15250D01*
D02*
G37*
G36*
X231714Y-10406D02*
X230570D01*
X229466Y-10702D01*
X228475Y-11274D01*
X227666Y-12083D01*
X227095Y-13073D01*
X226799Y-14178D01*
Y-15321D01*
X227095Y-16426D01*
X227666Y-17416D01*
X228475Y-18225D01*
X229466Y-18797D01*
X230570Y-19093D01*
X231714D01*
X232818Y-18797D01*
X233809Y-18225D01*
X234617Y-17416D01*
X235189Y-16426D01*
X235485Y-15321D01*
Y-14178D01*
X235189Y-13073D01*
X234617Y-12083D01*
X233809Y-11274D01*
X232818Y-10702D01*
X231714Y-10406D01*
D02*
G37*
G36*
X221714D02*
X220570D01*
X219465Y-10702D01*
X218475Y-11274D01*
X217666Y-12083D01*
X217095Y-13073D01*
X216799Y-14178D01*
Y-15321D01*
X217095Y-16426D01*
X217666Y-17416D01*
X218475Y-18225D01*
X219465Y-18797D01*
X220570Y-19093D01*
X221714D01*
X222818Y-18797D01*
X223809Y-18225D01*
X224617Y-17416D01*
X225189Y-16426D01*
X225485Y-15321D01*
Y-14178D01*
X225189Y-13073D01*
X224617Y-12083D01*
X223809Y-11274D01*
X222818Y-10702D01*
X221714Y-10406D01*
D02*
G37*
G36*
X211714D02*
X210570D01*
X209466Y-10702D01*
X208475Y-11274D01*
X207666Y-12083D01*
X207095Y-13073D01*
X206799Y-14178D01*
Y-15321D01*
X207095Y-16426D01*
X207666Y-17416D01*
X208475Y-18225D01*
X209466Y-18797D01*
X210570Y-19093D01*
X211714D01*
X212818Y-18797D01*
X213809Y-18225D01*
X214617Y-17416D01*
X215189Y-16426D01*
X215485Y-15321D01*
Y-14178D01*
X215189Y-13073D01*
X214617Y-12083D01*
X213809Y-11274D01*
X212818Y-10702D01*
X211714Y-10406D01*
D02*
G37*
G36*
X254858Y-17300D02*
X254142D01*
X253480Y-17574D01*
X252974Y-18080D01*
X252700Y-18742D01*
Y-19458D01*
X252974Y-20120D01*
X253480Y-20626D01*
X254142Y-20900D01*
X254858D01*
X255520Y-20626D01*
X256026Y-20120D01*
X256300Y-19458D01*
Y-18742D01*
X256026Y-18080D01*
X255520Y-17574D01*
X254858Y-17300D01*
D02*
G37*
G36*
X18123Y-18374D02*
X14279D01*
Y-22217D01*
X14351D01*
X15456Y-21921D01*
X16446Y-21350D01*
X17255Y-20541D01*
X17827Y-19550D01*
X18123Y-18446D01*
Y-18374D01*
D02*
G37*
G36*
X13280D02*
X9436D01*
Y-18446D01*
X9732Y-19550D01*
X10304Y-20541D01*
X11113Y-21350D01*
X12103Y-21921D01*
X13208Y-22217D01*
X13280D01*
Y-18374D01*
D02*
G37*
G36*
X251558Y-24700D02*
X250842D01*
X250180Y-24974D01*
X249674Y-25480D01*
X249400Y-26142D01*
Y-26858D01*
X249674Y-27520D01*
X250180Y-28026D01*
X250842Y-28300D01*
X251558D01*
X252220Y-28026D01*
X252726Y-27520D01*
X253000Y-26858D01*
Y-26142D01*
X252726Y-25480D01*
X252220Y-24974D01*
X251558Y-24700D01*
D02*
G37*
G36*
X228758Y-25000D02*
X228042D01*
X227380Y-25274D01*
X226874Y-25780D01*
X226600Y-26442D01*
Y-27158D01*
X226874Y-27820D01*
X227380Y-28326D01*
X228042Y-28600D01*
X228758D01*
X229420Y-28326D01*
X229926Y-27820D01*
X230200Y-27158D01*
Y-26442D01*
X229926Y-25780D01*
X229420Y-25274D01*
X228758Y-25000D01*
D02*
G37*
G36*
X88858Y-27100D02*
X88142D01*
X87480Y-27374D01*
X86974Y-27880D01*
X86700Y-28542D01*
Y-29258D01*
X86974Y-29920D01*
X87480Y-30426D01*
X88142Y-30700D01*
X88858D01*
X89520Y-30426D01*
X90026Y-29920D01*
X90300Y-29258D01*
Y-28542D01*
X90026Y-27880D01*
X89520Y-27374D01*
X88858Y-27100D01*
D02*
G37*
G36*
X14351Y-23531D02*
X13208D01*
X12103Y-23827D01*
X11113Y-24398D01*
X10304Y-25207D01*
X9732Y-26198D01*
X9436Y-27302D01*
Y-28446D01*
X9732Y-29550D01*
X10304Y-30541D01*
X11113Y-31350D01*
X12103Y-31921D01*
X13208Y-32217D01*
X14351D01*
X15456Y-31921D01*
X16446Y-31350D01*
X17255Y-30541D01*
X17827Y-29550D01*
X18123Y-28446D01*
Y-27302D01*
X17827Y-26198D01*
X17255Y-25207D01*
X16446Y-24398D01*
X15456Y-23827D01*
X14351Y-23531D01*
D02*
G37*
G36*
X243558Y-31000D02*
X242842D01*
X242180Y-31274D01*
X241674Y-31780D01*
X241400Y-32442D01*
Y-33158D01*
X241674Y-33820D01*
X242180Y-34326D01*
X242842Y-34600D01*
X243558D01*
X244220Y-34326D01*
X244726Y-33820D01*
X245000Y-33158D01*
Y-32442D01*
X244726Y-31780D01*
X244220Y-31274D01*
X243558Y-31000D01*
D02*
G37*
G36*
X68058Y-34200D02*
X67342D01*
X66680Y-34474D01*
X66174Y-34980D01*
X65900Y-35642D01*
Y-36358D01*
X66174Y-37020D01*
X66680Y-37526D01*
X67342Y-37800D01*
X68058D01*
X68720Y-37526D01*
X69226Y-37020D01*
X69500Y-36358D01*
Y-35642D01*
X69226Y-34980D01*
X68720Y-34474D01*
X68058Y-34200D01*
D02*
G37*
G36*
X62758Y-34400D02*
X62042D01*
X61380Y-34674D01*
X60874Y-35180D01*
X60600Y-35842D01*
Y-36558D01*
X60874Y-37220D01*
X61380Y-37726D01*
X62042Y-38000D01*
X62758D01*
X63420Y-37726D01*
X63926Y-37220D01*
X64200Y-36558D01*
Y-35842D01*
X63926Y-35180D01*
X63420Y-34674D01*
X62758Y-34400D01*
D02*
G37*
G36*
X85458Y-31200D02*
X84742D01*
X84080Y-31474D01*
X83574Y-31980D01*
X83300Y-32642D01*
Y-33358D01*
X83574Y-34020D01*
X83878Y-34323D01*
X84025Y-34650D01*
X83878Y-34977D01*
X83574Y-35280D01*
X83300Y-35942D01*
Y-36658D01*
X83574Y-37320D01*
X84080Y-37826D01*
X84742Y-38100D01*
X85458D01*
X86120Y-37826D01*
X86626Y-37320D01*
X86900Y-36658D01*
Y-35942D01*
X86626Y-35280D01*
X86322Y-34977D01*
X86175Y-34650D01*
X86322Y-34323D01*
X86626Y-34020D01*
X86900Y-33358D01*
Y-32642D01*
X86626Y-31980D01*
X86120Y-31474D01*
X85458Y-31200D01*
D02*
G37*
G36*
X220058Y-35500D02*
X219342D01*
X218680Y-35774D01*
X218174Y-36280D01*
X217900Y-36942D01*
Y-37658D01*
X218174Y-38320D01*
X218680Y-38826D01*
X219342Y-39100D01*
X220058D01*
X220720Y-38826D01*
X221226Y-38320D01*
X221500Y-37658D01*
Y-36942D01*
X221226Y-36280D01*
X220720Y-35774D01*
X220058Y-35500D01*
D02*
G37*
G36*
X259558Y-38300D02*
X258842D01*
X258180Y-38574D01*
X257674Y-39080D01*
X257400Y-39742D01*
Y-40458D01*
X257674Y-41120D01*
X258180Y-41626D01*
X258842Y-41900D01*
X259558D01*
X260220Y-41626D01*
X260726Y-41120D01*
X261000Y-40458D01*
Y-39742D01*
X260726Y-39080D01*
X260220Y-38574D01*
X259558Y-38300D01*
D02*
G37*
G36*
X14351Y-33531D02*
X13208D01*
X12103Y-33827D01*
X11113Y-34398D01*
X10304Y-35207D01*
X9732Y-36198D01*
X9436Y-37302D01*
Y-38446D01*
X9732Y-39551D01*
X10304Y-40541D01*
X11113Y-41350D01*
X12103Y-41921D01*
X13208Y-42217D01*
X14351D01*
X15456Y-41921D01*
X16446Y-41350D01*
X17255Y-40541D01*
X17827Y-39551D01*
X18123Y-38446D01*
Y-37302D01*
X17827Y-36198D01*
X17255Y-35207D01*
X16446Y-34398D01*
X15456Y-33827D01*
X14351Y-33531D01*
D02*
G37*
G36*
X238889Y-39300D02*
X238173D01*
X237512Y-39574D01*
X237005Y-40080D01*
X236731Y-40742D01*
Y-41458D01*
X237005Y-42120D01*
X237512Y-42626D01*
X238173Y-42900D01*
X238889D01*
X239551Y-42626D01*
X240057Y-42120D01*
X240331Y-41458D01*
Y-40742D01*
X240057Y-40080D01*
X239551Y-39574D01*
X238889Y-39300D01*
D02*
G37*
G36*
X231158D02*
X230442D01*
X229780Y-39574D01*
X229274Y-40080D01*
X229000Y-40742D01*
Y-41458D01*
X229274Y-42120D01*
X229780Y-42626D01*
X230442Y-42900D01*
X231158D01*
X231820Y-42626D01*
X232326Y-42120D01*
X232600Y-41458D01*
Y-40742D01*
X232326Y-40080D01*
X231820Y-39574D01*
X231158Y-39300D01*
D02*
G37*
G36*
X83458D02*
X82742D01*
X82080Y-39574D01*
X81574Y-40080D01*
X81300Y-40742D01*
Y-41458D01*
X81574Y-42120D01*
X82080Y-42626D01*
X82742Y-42900D01*
X83458D01*
X84120Y-42626D01*
X84626Y-42120D01*
X84900Y-41458D01*
Y-40742D01*
X84626Y-40080D01*
X84120Y-39574D01*
X83458Y-39300D01*
D02*
G37*
G36*
X41254Y-41523D02*
X40006D01*
X38802Y-41846D01*
X37721Y-42469D01*
X36839Y-43351D01*
X36216Y-44431D01*
X35893Y-45636D01*
Y-46883D01*
X36216Y-48088D01*
X36839Y-49168D01*
X37721Y-50050D01*
X38802Y-50674D01*
X40006Y-50997D01*
X41254D01*
X42458Y-50674D01*
X43538Y-50050D01*
X44420Y-49168D01*
X45044Y-48088D01*
X45367Y-46883D01*
Y-45636D01*
X45044Y-44431D01*
X44420Y-43351D01*
X43538Y-42469D01*
X42458Y-41846D01*
X41254Y-41523D01*
D02*
G37*
G36*
X246815Y-48397D02*
X246099D01*
X245437Y-48671D01*
X244931Y-49177D01*
X244657Y-49839D01*
Y-50555D01*
X244931Y-51217D01*
X245437Y-51723D01*
X246099Y-51997D01*
X246815D01*
X247476Y-51723D01*
X247983Y-51217D01*
X248257Y-50555D01*
Y-49839D01*
X247983Y-49177D01*
X247476Y-48671D01*
X246815Y-48397D01*
D02*
G37*
G36*
X14351Y-43531D02*
X13208D01*
X12103Y-43827D01*
X11113Y-44398D01*
X10304Y-45207D01*
X9732Y-46198D01*
X9436Y-47302D01*
Y-48446D01*
X9732Y-49551D01*
X10304Y-50541D01*
X11113Y-51350D01*
X12103Y-51921D01*
X13208Y-52217D01*
X14351D01*
X15456Y-51921D01*
X16446Y-51350D01*
X17255Y-50541D01*
X17827Y-49551D01*
X18123Y-48446D01*
Y-47302D01*
X17827Y-46198D01*
X17255Y-45207D01*
X16446Y-44398D01*
X15456Y-43827D01*
X14351Y-43531D01*
D02*
G37*
G36*
X112289Y-51585D02*
X111573D01*
X110911Y-51859D01*
X110405Y-52365D01*
X110131Y-53027D01*
Y-53743D01*
X110405Y-54405D01*
X110911Y-54911D01*
X111573Y-55185D01*
X112289D01*
X112950Y-54911D01*
X113457Y-54405D01*
X113731Y-53743D01*
Y-53027D01*
X113457Y-52365D01*
X112950Y-51859D01*
X112289Y-51585D01*
D02*
G37*
G36*
X257158Y-51900D02*
X256442D01*
X255780Y-52174D01*
X255274Y-52680D01*
X255000Y-53342D01*
Y-54058D01*
X255274Y-54720D01*
X255780Y-55226D01*
X256442Y-55500D01*
X257158D01*
X257820Y-55226D01*
X258326Y-54720D01*
X258600Y-54058D01*
Y-53342D01*
X258326Y-52680D01*
X257820Y-52174D01*
X257158Y-51900D01*
D02*
G37*
G36*
X288558Y-53000D02*
X287842D01*
X287180Y-53274D01*
X286674Y-53780D01*
X286400Y-54442D01*
Y-55158D01*
X286674Y-55820D01*
X287180Y-56326D01*
X287842Y-56600D01*
X288558D01*
X289220Y-56326D01*
X289726Y-55820D01*
X290000Y-55158D01*
Y-54442D01*
X289726Y-53780D01*
X289220Y-53274D01*
X288558Y-53000D01*
D02*
G37*
G36*
X194956Y-53047D02*
X194240D01*
X193579Y-53320D01*
X193072Y-53827D01*
X192798Y-54488D01*
Y-55204D01*
X193072Y-55866D01*
X193579Y-56372D01*
X194240Y-56647D01*
X194956D01*
X195618Y-56372D01*
X196124Y-55866D01*
X196398Y-55204D01*
Y-54488D01*
X196124Y-53827D01*
X195618Y-53320D01*
X194956Y-53047D01*
D02*
G37*
G36*
X71017Y-54121D02*
X70894D01*
Y-58358D01*
X75131D01*
Y-58235D01*
X74808Y-57030D01*
X74184Y-55950D01*
X73302Y-55068D01*
X72222Y-54444D01*
X71017Y-54121D01*
D02*
G37*
G36*
X69894D02*
X69770D01*
X68565Y-54444D01*
X67485Y-55068D01*
X66603Y-55950D01*
X65979Y-57030D01*
X65657Y-58235D01*
Y-58358D01*
X69894D01*
Y-54121D01*
D02*
G37*
G36*
X284058Y-54800D02*
X283342D01*
X282680Y-55074D01*
X282174Y-55580D01*
X281900Y-56242D01*
Y-56958D01*
X282174Y-57620D01*
X282680Y-58126D01*
X283342Y-58400D01*
X284058D01*
X284720Y-58126D01*
X285226Y-57620D01*
X285500Y-56958D01*
Y-56242D01*
X285226Y-55580D01*
X284720Y-55074D01*
X284058Y-54800D01*
D02*
G37*
G36*
X190285Y-54912D02*
X189569D01*
X188907Y-55186D01*
X188401Y-55692D01*
X188127Y-56354D01*
Y-57070D01*
X188401Y-57732D01*
X188907Y-58238D01*
X189569Y-58512D01*
X190285D01*
X190947Y-58238D01*
X191453Y-57732D01*
X191727Y-57070D01*
Y-56354D01*
X191453Y-55692D01*
X190947Y-55186D01*
X190285Y-54912D01*
D02*
G37*
G36*
X301258Y-58100D02*
X300542D01*
X299880Y-58374D01*
X299374Y-58880D01*
X299100Y-59542D01*
Y-60258D01*
X299374Y-60920D01*
X299880Y-61426D01*
X300542Y-61700D01*
X301258D01*
X301920Y-61426D01*
X302426Y-60920D01*
X302700Y-60258D01*
Y-59542D01*
X302426Y-58880D01*
X301920Y-58374D01*
X301258Y-58100D01*
D02*
G37*
G36*
X14351Y-53531D02*
X13208D01*
X12103Y-53827D01*
X11113Y-54399D01*
X10304Y-55207D01*
X9732Y-56198D01*
X9436Y-57302D01*
Y-58446D01*
X9732Y-59550D01*
X10304Y-60541D01*
X11113Y-61349D01*
X12103Y-61921D01*
X13208Y-62217D01*
X14351D01*
X15456Y-61921D01*
X16446Y-61349D01*
X17255Y-60541D01*
X17827Y-59550D01*
X18123Y-58446D01*
Y-57302D01*
X17827Y-56198D01*
X17255Y-55207D01*
X16446Y-54399D01*
X15456Y-53827D01*
X14351Y-53531D01*
D02*
G37*
G36*
X227523Y-59617D02*
X226807D01*
X226146Y-59891D01*
X225639Y-60398D01*
X225365Y-61059D01*
Y-61775D01*
X225639Y-62437D01*
X226146Y-62943D01*
X226807Y-63217D01*
X227523D01*
X228185Y-62943D01*
X228691Y-62437D01*
X228965Y-61775D01*
Y-61059D01*
X228691Y-60398D01*
X228185Y-59891D01*
X227523Y-59617D01*
D02*
G37*
G36*
X75131Y-59358D02*
X70894D01*
Y-63595D01*
X71017D01*
X72222Y-63273D01*
X73302Y-62649D01*
X74184Y-61767D01*
X74808Y-60687D01*
X75131Y-59482D01*
Y-59358D01*
D02*
G37*
G36*
X69894D02*
X65657D01*
Y-59482D01*
X65979Y-60687D01*
X66603Y-61767D01*
X67485Y-62649D01*
X68565Y-63273D01*
X69770Y-63595D01*
X69894D01*
Y-59358D01*
D02*
G37*
G36*
X292663Y-62767D02*
X291947D01*
X291286Y-63041D01*
X290779Y-63547D01*
X290505Y-64209D01*
Y-64925D01*
X290779Y-65587D01*
X291286Y-66093D01*
X291947Y-66367D01*
X292663D01*
X293325Y-66093D01*
X293831Y-65587D01*
X294105Y-64925D01*
Y-64209D01*
X293831Y-63547D01*
X293325Y-63041D01*
X292663Y-62767D01*
D02*
G37*
G36*
X194237Y-65758D02*
X193521D01*
X192860Y-66032D01*
X192353Y-66539D01*
X192079Y-67200D01*
Y-67916D01*
X192353Y-68578D01*
X192860Y-69084D01*
X193521Y-69358D01*
X194237D01*
X194899Y-69084D01*
X195405Y-68578D01*
X195679Y-67916D01*
Y-67200D01*
X195405Y-66539D01*
X194899Y-66032D01*
X194237Y-65758D01*
D02*
G37*
G36*
X122975Y-61900D02*
X122259D01*
X121598Y-62174D01*
X121091Y-62680D01*
X120817Y-63342D01*
Y-64058D01*
X121091Y-64720D01*
X121598Y-65226D01*
X121676Y-65258D01*
X121576Y-65758D01*
X121036D01*
X120374Y-66032D01*
X119868Y-66539D01*
X119594Y-67200D01*
Y-67916D01*
X119868Y-68578D01*
X120374Y-69084D01*
X121036Y-69358D01*
X121752D01*
X122413Y-69084D01*
X122920Y-68578D01*
X123194Y-67916D01*
Y-67200D01*
X122920Y-66539D01*
X122413Y-66032D01*
X122335Y-66000D01*
X122435Y-65500D01*
X122975D01*
X123637Y-65226D01*
X124143Y-64720D01*
X124417Y-64058D01*
Y-63342D01*
X124143Y-62680D01*
X123637Y-62174D01*
X122975Y-61900D01*
D02*
G37*
G36*
X259558Y-68169D02*
X258842D01*
X258180Y-68443D01*
X257674Y-68949D01*
X257400Y-69611D01*
Y-70327D01*
X257674Y-70988D01*
X258180Y-71495D01*
X258842Y-71769D01*
X259558D01*
X260220Y-71495D01*
X260726Y-70988D01*
X261000Y-70327D01*
Y-69611D01*
X260726Y-68949D01*
X260220Y-68443D01*
X259558Y-68169D01*
D02*
G37*
G36*
X245378Y-71461D02*
X244662D01*
X244001Y-71735D01*
X243495Y-72241D01*
X243220Y-72903D01*
Y-73619D01*
X243495Y-74280D01*
X244001Y-74787D01*
X244662Y-75061D01*
X245378D01*
X246040Y-74787D01*
X246546Y-74280D01*
X246820Y-73619D01*
Y-72903D01*
X246546Y-72241D01*
X246040Y-71735D01*
X245378Y-71461D01*
D02*
G37*
G36*
X41254Y-66720D02*
X40006D01*
X38802Y-67042D01*
X37721Y-67666D01*
X36839Y-68548D01*
X36216Y-69628D01*
X35893Y-70833D01*
Y-72080D01*
X36216Y-73285D01*
X36839Y-74365D01*
X37721Y-75247D01*
X38802Y-75871D01*
X40006Y-76194D01*
X41254D01*
X42458Y-75871D01*
X43538Y-75247D01*
X44420Y-74365D01*
X45044Y-73285D01*
X45367Y-72080D01*
Y-70833D01*
X45044Y-69628D01*
X44420Y-68548D01*
X43538Y-67666D01*
X42458Y-67042D01*
X41254Y-66720D01*
D02*
G37*
G36*
X239580Y-74200D02*
X238864D01*
X238203Y-74474D01*
X237697Y-74980D01*
X237422Y-75642D01*
Y-76358D01*
X237697Y-77020D01*
X238203Y-77526D01*
X238864Y-77800D01*
X239580D01*
X240242Y-77526D01*
X240748Y-77020D01*
X241022Y-76358D01*
Y-75642D01*
X240748Y-74980D01*
X240242Y-74474D01*
X239580Y-74200D01*
D02*
G37*
G36*
X303950Y-69751D02*
X295263D01*
Y-78438D01*
X303950D01*
Y-69751D01*
D02*
G37*
G36*
X18812Y-71976D02*
X11109D01*
Y-79678D01*
X18812D01*
Y-71976D01*
D02*
G37*
G36*
X230819Y-77083D02*
X230103D01*
X229441Y-77357D01*
X228935Y-77863D01*
X228661Y-78525D01*
Y-79241D01*
X228935Y-79902D01*
X229441Y-80409D01*
X230103Y-80682D01*
X230819D01*
X231480Y-80409D01*
X231987Y-79902D01*
X232261Y-79241D01*
Y-78525D01*
X231987Y-77863D01*
X231480Y-77357D01*
X230819Y-77083D01*
D02*
G37*
G36*
X190613Y-78794D02*
X189897D01*
X189235Y-79068D01*
X188729Y-79575D01*
X188455Y-80237D01*
Y-80953D01*
X188729Y-81614D01*
X189235Y-82121D01*
X189897Y-82394D01*
X190613D01*
X191275Y-82121D01*
X191781Y-81614D01*
X192055Y-80953D01*
Y-80237D01*
X191781Y-79575D01*
X191275Y-79068D01*
X190613Y-78794D01*
D02*
G37*
G36*
X121181D02*
X120465D01*
X119804Y-79068D01*
X119298Y-79575D01*
X119023Y-80237D01*
Y-80953D01*
X119298Y-81614D01*
X119804Y-82121D01*
X120465Y-82394D01*
X121181D01*
X121843Y-82121D01*
X122349Y-81614D01*
X122623Y-80953D01*
Y-80237D01*
X122349Y-79575D01*
X121843Y-79068D01*
X121181Y-78794D01*
D02*
G37*
G36*
X267258Y-82294D02*
X266542D01*
X265880Y-82569D01*
X265374Y-83075D01*
X265100Y-83736D01*
Y-84452D01*
X265374Y-85114D01*
X265880Y-85620D01*
X266542Y-85895D01*
X267258D01*
X267920Y-85620D01*
X268426Y-85114D01*
X268700Y-84452D01*
Y-83736D01*
X268426Y-83075D01*
X267920Y-82569D01*
X267258Y-82294D01*
D02*
G37*
G36*
X218273D02*
X217557D01*
X216895Y-82569D01*
X216389Y-83075D01*
X216115Y-83736D01*
Y-84452D01*
X216389Y-85114D01*
X216895Y-85620D01*
X217557Y-85895D01*
X218273D01*
X218935Y-85620D01*
X219441Y-85114D01*
X219715Y-84452D01*
Y-83736D01*
X219441Y-83075D01*
X218935Y-82569D01*
X218273Y-82294D01*
D02*
G37*
G36*
X192813Y-83519D02*
X192097D01*
X191436Y-83793D01*
X190929Y-84299D01*
X190655Y-84961D01*
Y-85677D01*
X190929Y-86339D01*
X191436Y-86845D01*
X192097Y-87119D01*
X192813D01*
X193475Y-86845D01*
X193981Y-86339D01*
X194255Y-85677D01*
Y-84961D01*
X193981Y-84299D01*
X193475Y-83793D01*
X192813Y-83519D01*
D02*
G37*
G36*
X120658D02*
X119942D01*
X119280Y-83793D01*
X118774Y-84299D01*
X118500Y-84961D01*
Y-85677D01*
X118774Y-86339D01*
X119280Y-86845D01*
X119942Y-87119D01*
X120658D01*
X121320Y-86845D01*
X121826Y-86339D01*
X122100Y-85677D01*
Y-84961D01*
X121826Y-84299D01*
X121320Y-83793D01*
X120658Y-83519D01*
D02*
G37*
G36*
X300178Y-79751D02*
X299035D01*
X297930Y-80047D01*
X296939Y-80619D01*
X296131Y-81428D01*
X295559Y-82418D01*
X295263Y-83523D01*
Y-84666D01*
X295559Y-85771D01*
X296131Y-86761D01*
X296939Y-87570D01*
X297930Y-88142D01*
X299035Y-88438D01*
X300178D01*
X301283Y-88142D01*
X302273Y-87570D01*
X303082Y-86761D01*
X303654Y-85771D01*
X303950Y-84666D01*
Y-83523D01*
X303654Y-82418D01*
X303082Y-81428D01*
X302273Y-80619D01*
X301283Y-80047D01*
X300178Y-79751D01*
D02*
G37*
G36*
X15468Y-81976D02*
X14454D01*
X13474Y-82238D01*
X12596Y-82745D01*
X11879Y-83462D01*
X11372Y-84340D01*
X11109Y-85320D01*
Y-86334D01*
X11372Y-87313D01*
X11879Y-88191D01*
X12596Y-88908D01*
X13474Y-89416D01*
X14454Y-89678D01*
X15468D01*
X16447Y-89416D01*
X17325Y-88908D01*
X18042Y-88191D01*
X18549Y-87313D01*
X18812Y-86334D01*
Y-85320D01*
X18549Y-84340D01*
X18042Y-83462D01*
X17325Y-82745D01*
X16447Y-82238D01*
X15468Y-81976D01*
D02*
G37*
G36*
X121786Y-88243D02*
X121070D01*
X120409Y-88517D01*
X119902Y-89024D01*
X119628Y-89685D01*
Y-90401D01*
X119902Y-91063D01*
X120409Y-91569D01*
X121070Y-91843D01*
X121786D01*
X122448Y-91569D01*
X122954Y-91063D01*
X123228Y-90401D01*
Y-89685D01*
X122954Y-89024D01*
X122448Y-88517D01*
X121786Y-88243D01*
D02*
G37*
G36*
X92798Y-89241D02*
X92082D01*
X91421Y-89515D01*
X90914Y-90022D01*
X90640Y-90683D01*
Y-91399D01*
X90914Y-92061D01*
X91421Y-92567D01*
X92082Y-92841D01*
X92798D01*
X93460Y-92567D01*
X93966Y-92061D01*
X94240Y-91399D01*
Y-90683D01*
X93966Y-90022D01*
X93460Y-89515D01*
X92798Y-89241D01*
D02*
G37*
G36*
X218273Y-90639D02*
X217557D01*
X216895Y-90913D01*
X216389Y-91419D01*
X216115Y-92081D01*
Y-92797D01*
X216389Y-93459D01*
X216895Y-93965D01*
X217557Y-94239D01*
X218273D01*
X218935Y-93965D01*
X219441Y-93459D01*
X219715Y-92797D01*
Y-92081D01*
X219441Y-91419D01*
X218935Y-90913D01*
X218273Y-90639D01*
D02*
G37*
G36*
X28458Y-92800D02*
X27742D01*
X27080Y-93074D01*
X26574Y-93580D01*
X26300Y-94242D01*
Y-94958D01*
X26574Y-95620D01*
X27080Y-96126D01*
X27742Y-96400D01*
X28458D01*
X29120Y-96126D01*
X29626Y-95620D01*
X29900Y-94958D01*
Y-94242D01*
X29626Y-93580D01*
X29120Y-93074D01*
X28458Y-92800D01*
D02*
G37*
G36*
X209019Y-94300D02*
X208303D01*
X207642Y-94574D01*
X207136Y-95080D01*
X206861Y-95742D01*
Y-96458D01*
X207136Y-97120D01*
X207642Y-97626D01*
X208303Y-97900D01*
X209019D01*
X209681Y-97626D01*
X210187Y-97120D01*
X210461Y-96458D01*
Y-95742D01*
X210187Y-95080D01*
X209681Y-94574D01*
X209019Y-94300D01*
D02*
G37*
G36*
X300178Y-89751D02*
X299035D01*
X297930Y-90047D01*
X296939Y-90619D01*
X296131Y-91428D01*
X295559Y-92418D01*
X295263Y-93523D01*
Y-94666D01*
X295559Y-95771D01*
X296131Y-96761D01*
X296939Y-97570D01*
X297930Y-98142D01*
X299035Y-98438D01*
X300178D01*
X301283Y-98142D01*
X302273Y-97570D01*
X303082Y-96761D01*
X303654Y-95771D01*
X303950Y-94666D01*
Y-93523D01*
X303654Y-92418D01*
X303082Y-91428D01*
X302273Y-90619D01*
X301283Y-90047D01*
X300178Y-89751D01*
D02*
G37*
G36*
X89728Y-95363D02*
X89012D01*
X88350Y-95637D01*
X87844Y-96144D01*
X87570Y-96805D01*
Y-97521D01*
X87844Y-98183D01*
X88350Y-98689D01*
X89012Y-98963D01*
X89728D01*
X90390Y-98689D01*
X90896Y-98183D01*
X91170Y-97521D01*
Y-96805D01*
X90896Y-96144D01*
X90390Y-95637D01*
X89728Y-95363D01*
D02*
G37*
G36*
X28158Y-97200D02*
X27442D01*
X26780Y-97474D01*
X26274Y-97980D01*
X26000Y-98642D01*
Y-99358D01*
X26274Y-100020D01*
X26780Y-100526D01*
X27442Y-100800D01*
X28158D01*
X28820Y-100526D01*
X29326Y-100020D01*
X29600Y-99358D01*
Y-98642D01*
X29326Y-97980D01*
X28820Y-97474D01*
X28158Y-97200D01*
D02*
G37*
G36*
X279558Y-97600D02*
X278842D01*
X278180Y-97874D01*
X277674Y-98380D01*
X277400Y-99042D01*
Y-99758D01*
X277674Y-100420D01*
X278180Y-100926D01*
X278842Y-101200D01*
X279558D01*
X280220Y-100926D01*
X280726Y-100420D01*
X281000Y-99758D01*
Y-99042D01*
X280726Y-98380D01*
X280220Y-97874D01*
X279558Y-97600D01*
D02*
G37*
G36*
X196558Y-98580D02*
X195842D01*
X195180Y-98854D01*
X194674Y-99361D01*
X194399Y-100022D01*
Y-100738D01*
X194674Y-101400D01*
X195180Y-101906D01*
X195842Y-102180D01*
X196558D01*
X197219Y-101906D01*
X197725Y-101400D01*
X198000Y-100738D01*
Y-100022D01*
X197725Y-99361D01*
X197219Y-98854D01*
X196558Y-98580D01*
D02*
G37*
G36*
X198651Y-102980D02*
X197935D01*
X197274Y-103254D01*
X196767Y-103761D01*
X196493Y-104422D01*
Y-105138D01*
X196767Y-105800D01*
X197274Y-106306D01*
X197935Y-106580D01*
X198651D01*
X199313Y-106306D01*
X199323Y-106308D01*
X199448Y-106609D01*
X199954Y-107115D01*
X200616Y-107390D01*
X201332D01*
X201993Y-107115D01*
X202500Y-106609D01*
X202774Y-105948D01*
Y-105231D01*
X202500Y-104570D01*
X201993Y-104064D01*
X201332Y-103790D01*
X200616D01*
X199954Y-104064D01*
X199944Y-104062D01*
X199819Y-103761D01*
X199313Y-103254D01*
X198651Y-102980D01*
D02*
G37*
G36*
X206808Y-104478D02*
X206092D01*
X205431Y-104752D01*
X204924Y-105258D01*
X204650Y-105920D01*
Y-106636D01*
X204924Y-107298D01*
X205431Y-107804D01*
X206092Y-108078D01*
X206808D01*
X207470Y-107804D01*
X207976Y-107298D01*
X208250Y-106636D01*
Y-105920D01*
X207976Y-105258D01*
X207470Y-104752D01*
X206808Y-104478D01*
D02*
G37*
G36*
X300178Y-99751D02*
X299035D01*
X297930Y-100047D01*
X296939Y-100619D01*
X296131Y-101428D01*
X295559Y-102418D01*
X295263Y-103523D01*
Y-104666D01*
X295559Y-105771D01*
X296131Y-106761D01*
X296939Y-107570D01*
X297930Y-108142D01*
X299035Y-108438D01*
X300178D01*
X301283Y-108142D01*
X302273Y-107570D01*
X303082Y-106761D01*
X303654Y-105771D01*
X303950Y-104666D01*
Y-103523D01*
X303654Y-102418D01*
X303082Y-101428D01*
X302273Y-100619D01*
X301283Y-100047D01*
X300178Y-99751D01*
D02*
G37*
G36*
X210789Y-106678D02*
X210073D01*
X209412Y-106952D01*
X208905Y-107458D01*
X208631Y-108120D01*
Y-108836D01*
X208905Y-109498D01*
X209412Y-110004D01*
X210073Y-110278D01*
X210789D01*
X211451Y-110004D01*
X211957Y-109498D01*
X212231Y-108836D01*
Y-108120D01*
X211957Y-107458D01*
X211451Y-106952D01*
X210789Y-106678D01*
D02*
G37*
G36*
X217158Y-108400D02*
X216442D01*
X215780Y-108674D01*
X215274Y-109180D01*
X215000Y-109842D01*
Y-110558D01*
X215274Y-111220D01*
X215780Y-111726D01*
X216442Y-112000D01*
X217158D01*
X217820Y-111726D01*
X218326Y-111220D01*
X218600Y-110558D01*
Y-109842D01*
X218326Y-109180D01*
X217820Y-108674D01*
X217158Y-108400D01*
D02*
G37*
G36*
X222758Y-110000D02*
X222042D01*
X221380Y-110274D01*
X220874Y-110780D01*
X220600Y-111442D01*
Y-112158D01*
X220874Y-112820D01*
X221380Y-113326D01*
X222042Y-113600D01*
X222758D01*
X223420Y-113326D01*
X223926Y-112820D01*
X224200Y-112158D01*
Y-111442D01*
X223926Y-110780D01*
X223420Y-110274D01*
X222758Y-110000D01*
D02*
G37*
G36*
X206579D02*
X205863D01*
X205201Y-110274D01*
X204695Y-110780D01*
X204421Y-111442D01*
Y-112158D01*
X204695Y-112820D01*
X205201Y-113326D01*
X205863Y-113600D01*
X206579D01*
X207240Y-113326D01*
X207747Y-112820D01*
X208021Y-112158D01*
Y-111442D01*
X207747Y-110780D01*
X207240Y-110274D01*
X206579Y-110000D01*
D02*
G37*
G36*
X231378Y-111800D02*
X230662D01*
X230001Y-112074D01*
X229494Y-112580D01*
X229220Y-113242D01*
Y-113958D01*
X229494Y-114620D01*
X230001Y-115126D01*
X230662Y-115400D01*
X231378D01*
X232040Y-115126D01*
X232546Y-114620D01*
X232820Y-113958D01*
Y-113242D01*
X232546Y-112580D01*
X232040Y-112074D01*
X231378Y-111800D01*
D02*
G37*
G36*
X120177Y-111865D02*
X119461D01*
X118799Y-112139D01*
X118293Y-112646D01*
X118019Y-113307D01*
Y-114023D01*
X118293Y-114685D01*
X118799Y-115191D01*
X119461Y-115465D01*
X120177D01*
X120838Y-115191D01*
X121345Y-114685D01*
X121619Y-114023D01*
Y-113307D01*
X121345Y-112646D01*
X120838Y-112139D01*
X120177Y-111865D01*
D02*
G37*
G36*
X192741Y-111950D02*
X192025D01*
X191363Y-112224D01*
X190857Y-112731D01*
X190583Y-113392D01*
Y-114108D01*
X190857Y-114770D01*
X191363Y-115276D01*
X192025Y-115550D01*
X192741D01*
X193403Y-115276D01*
X193909Y-114770D01*
X194183Y-114108D01*
Y-113392D01*
X193909Y-112731D01*
X193403Y-112224D01*
X192741Y-111950D01*
D02*
G37*
G36*
X300178Y-109751D02*
X299035D01*
X297930Y-110047D01*
X296939Y-110619D01*
X296131Y-111428D01*
X295559Y-112418D01*
X295263Y-113523D01*
Y-114666D01*
X295559Y-115771D01*
X296131Y-116761D01*
X296939Y-117570D01*
X297930Y-118142D01*
X299035Y-118438D01*
X300178D01*
X301283Y-118142D01*
X302273Y-117570D01*
X303082Y-116761D01*
X303654Y-115771D01*
X303950Y-114666D01*
Y-113523D01*
X303654Y-112418D01*
X303082Y-111428D01*
X302273Y-110619D01*
X301283Y-110047D01*
X300178Y-109751D01*
D02*
G37*
G36*
X211836Y-116310D02*
X211120D01*
X210458Y-116584D01*
X209952Y-117091D01*
X209678Y-117752D01*
Y-118468D01*
X209952Y-119130D01*
X210458Y-119636D01*
X211120Y-119910D01*
X211836D01*
X212498Y-119636D01*
X213004Y-119130D01*
X213278Y-118468D01*
Y-117752D01*
X213004Y-117091D01*
X212498Y-116584D01*
X211836Y-116310D01*
D02*
G37*
G36*
X119977Y-116730D02*
X119261D01*
X118600Y-117004D01*
X118094Y-117511D01*
X117819Y-118172D01*
Y-118888D01*
X118094Y-119550D01*
X118600Y-120056D01*
X119261Y-120330D01*
X119977D01*
X120639Y-120056D01*
X121145Y-119550D01*
X121419Y-118888D01*
Y-118172D01*
X121145Y-117511D01*
X120639Y-117004D01*
X119977Y-116730D01*
D02*
G37*
G36*
X96922Y-118450D02*
X96206D01*
X95544Y-118724D01*
X95038Y-119231D01*
X94764Y-119892D01*
Y-120608D01*
X95038Y-121270D01*
X95544Y-121776D01*
X96206Y-122050D01*
X96922D01*
X97583Y-121776D01*
X98090Y-121270D01*
X98364Y-120608D01*
Y-119892D01*
X98090Y-119231D01*
X97583Y-118724D01*
X96922Y-118450D01*
D02*
G37*
G36*
X191340Y-124384D02*
X190624D01*
X189962Y-124658D01*
X189456Y-125165D01*
X189182Y-125826D01*
Y-126542D01*
X189456Y-127204D01*
X189962Y-127710D01*
X190624Y-127984D01*
X191340D01*
X192002Y-127710D01*
X192508Y-127204D01*
X192782Y-126542D01*
Y-125826D01*
X192508Y-125165D01*
X192002Y-124658D01*
X191340Y-124384D01*
D02*
G37*
G36*
X300178Y-119751D02*
X299035D01*
X297930Y-120047D01*
X296939Y-120619D01*
X296131Y-121428D01*
X295559Y-122418D01*
X295263Y-123523D01*
Y-124666D01*
X295559Y-125771D01*
X296131Y-126761D01*
X296939Y-127570D01*
X297930Y-128142D01*
X299035Y-128438D01*
X300178D01*
X301283Y-128142D01*
X302273Y-127570D01*
X303082Y-126761D01*
X303654Y-125771D01*
X303950Y-124666D01*
Y-123523D01*
X303654Y-122418D01*
X303082Y-121428D01*
X302273Y-120619D01*
X301283Y-120047D01*
X300178Y-119751D01*
D02*
G37*
G36*
X166813Y-135731D02*
X166097D01*
X165436Y-136005D01*
X164929Y-136512D01*
X164655Y-137173D01*
Y-137889D01*
X164929Y-138551D01*
X165436Y-139057D01*
X166097Y-139331D01*
X166813D01*
X167475Y-139057D01*
X167981Y-138551D01*
X168255Y-137889D01*
Y-137173D01*
X167981Y-136512D01*
X167475Y-136005D01*
X166813Y-135731D01*
D02*
G37*
G36*
X12582Y-127172D02*
X11827D01*
X11098Y-127368D01*
X10444Y-127745D01*
X9911Y-128279D01*
X9533Y-128933D01*
X9338Y-129662D01*
Y-130417D01*
X9533Y-131146D01*
X9911Y-131800D01*
X10339Y-132229D01*
X10402Y-132539D01*
X10339Y-132850D01*
X9911Y-133279D01*
X9533Y-133933D01*
X9338Y-134662D01*
Y-135417D01*
X9533Y-136146D01*
X9837Y-136672D01*
X9638Y-137172D01*
X9338D01*
Y-139539D01*
X12205D01*
X15072D01*
Y-137172D01*
X14772D01*
X14572Y-136672D01*
X14876Y-136146D01*
X15072Y-135417D01*
Y-134662D01*
X14876Y-133933D01*
X14499Y-133279D01*
X14070Y-132850D01*
X14007Y-132539D01*
X14070Y-132229D01*
X14499Y-131800D01*
X14876Y-131146D01*
X15072Y-130417D01*
Y-129662D01*
X14876Y-128933D01*
X14499Y-128279D01*
X13965Y-127745D01*
X13311Y-127368D01*
X12582Y-127172D01*
D02*
G37*
G36*
X146618Y-136080D02*
X145902D01*
X145240Y-136354D01*
X144734Y-136860D01*
X144460Y-137522D01*
Y-138238D01*
X144734Y-138900D01*
X145240Y-139406D01*
X145902Y-139680D01*
X146618D01*
X147280Y-139406D01*
X147786Y-138900D01*
X148060Y-138238D01*
Y-137522D01*
X147786Y-136860D01*
X147280Y-136354D01*
X146618Y-136080D01*
D02*
G37*
G36*
X141634D02*
X140918D01*
X140256Y-136354D01*
X139750Y-136860D01*
X139476Y-137522D01*
Y-138238D01*
X139750Y-138900D01*
X140256Y-139406D01*
X140918Y-139680D01*
X141634D01*
X142295Y-139406D01*
X142801Y-138900D01*
X143076Y-138238D01*
Y-137522D01*
X142801Y-136860D01*
X142295Y-136354D01*
X141634Y-136080D01*
D02*
G37*
G36*
X129704D02*
X128988D01*
X128327Y-136354D01*
X127821Y-136860D01*
X127547Y-137522D01*
Y-138238D01*
X127821Y-138900D01*
X128327Y-139406D01*
X128988Y-139680D01*
X129704D01*
X130366Y-139406D01*
X130872Y-138900D01*
X131147Y-138238D01*
Y-137522D01*
X130872Y-136860D01*
X130366Y-136354D01*
X129704Y-136080D01*
D02*
G37*
G36*
X180948Y-137734D02*
X180232D01*
X179570Y-138008D01*
X179064Y-138514D01*
X178790Y-139176D01*
Y-139892D01*
X179064Y-140553D01*
X179570Y-141060D01*
X180232Y-141334D01*
X180948D01*
X181610Y-141060D01*
X182116Y-140553D01*
X182390Y-139892D01*
Y-139176D01*
X182116Y-138514D01*
X181610Y-138008D01*
X180948Y-137734D01*
D02*
G37*
G36*
X162958D02*
X162242D01*
X161580Y-138008D01*
X161074Y-138514D01*
X160800Y-139176D01*
Y-139892D01*
X161074Y-140553D01*
X161580Y-141060D01*
X162242Y-141334D01*
X162958D01*
X163620Y-141060D01*
X164126Y-140553D01*
X164400Y-139892D01*
Y-139176D01*
X164126Y-138514D01*
X163620Y-138008D01*
X162958Y-137734D01*
D02*
G37*
G36*
X150958Y-135900D02*
X150242D01*
X149580Y-136174D01*
X149074Y-136680D01*
X148800Y-137342D01*
Y-138058D01*
X149074Y-138720D01*
X149580Y-139226D01*
X150242Y-139500D01*
X150636D01*
X150972Y-139994D01*
X150900Y-140169D01*
Y-140885D01*
X151174Y-141546D01*
X151680Y-142053D01*
X152342Y-142327D01*
X153058D01*
X153720Y-142053D01*
X154226Y-141546D01*
X154500Y-140885D01*
Y-140169D01*
X154226Y-139507D01*
X153720Y-139001D01*
X153058Y-138727D01*
X152664D01*
X152328Y-138233D01*
X152400Y-138058D01*
Y-137342D01*
X152126Y-136680D01*
X151620Y-136174D01*
X150958Y-135900D01*
D02*
G37*
G36*
X206458Y-138900D02*
X205742D01*
X205080Y-139174D01*
X204574Y-139680D01*
X204300Y-140342D01*
Y-141058D01*
X204574Y-141720D01*
X205080Y-142226D01*
X205742Y-142500D01*
X206458D01*
X207120Y-142226D01*
X207626Y-141720D01*
X207900Y-141058D01*
Y-140342D01*
X207626Y-139680D01*
X207120Y-139174D01*
X206458Y-138900D01*
D02*
G37*
G36*
X306312Y-134082D02*
X297625D01*
Y-142769D01*
X306312D01*
Y-134082D01*
D02*
G37*
G36*
X15072Y-140539D02*
X12705D01*
Y-142906D01*
X15072D01*
Y-140539D01*
D02*
G37*
G36*
X11705D02*
X9338D01*
Y-142906D01*
X11705D01*
Y-140539D01*
D02*
G37*
G36*
X115868Y-140608D02*
X115152D01*
X114491Y-140882D01*
X113984Y-141388D01*
X113710Y-142050D01*
Y-142766D01*
X113984Y-143428D01*
X114491Y-143934D01*
X115152Y-144208D01*
X115868D01*
X116530Y-143934D01*
X117036Y-143428D01*
X117310Y-142766D01*
Y-142050D01*
X117036Y-141388D01*
X116530Y-140882D01*
X115868Y-140608D01*
D02*
G37*
G36*
X122975Y-140927D02*
X122259D01*
X121598Y-141201D01*
X121091Y-141707D01*
X120817Y-142369D01*
Y-143085D01*
X121091Y-143746D01*
X121598Y-144253D01*
X122259Y-144527D01*
X122975D01*
X123637Y-144253D01*
X124143Y-143746D01*
X124417Y-143085D01*
Y-142369D01*
X124143Y-141707D01*
X123637Y-141201D01*
X122975Y-140927D01*
D02*
G37*
G36*
X139295Y-146636D02*
Y-148880D01*
X141539D01*
X141386Y-148307D01*
X141020Y-147673D01*
X140502Y-147156D01*
X139868Y-146790D01*
X139295Y-146636D01*
D02*
G37*
G36*
X75131Y-141129D02*
X65657D01*
Y-150603D01*
X75131D01*
Y-141129D01*
D02*
G37*
G36*
X41254D02*
X40006D01*
X38802Y-141452D01*
X37721Y-142076D01*
X36839Y-142957D01*
X36216Y-144038D01*
X35893Y-145243D01*
Y-146490D01*
X36216Y-147695D01*
X36839Y-148775D01*
X37721Y-149657D01*
X38802Y-150280D01*
X40006Y-150603D01*
X41254D01*
X42458Y-150280D01*
X43538Y-149657D01*
X44420Y-148775D01*
X45044Y-147695D01*
X45367Y-146490D01*
Y-145243D01*
X45044Y-144038D01*
X44420Y-142957D01*
X43538Y-142076D01*
X42458Y-141452D01*
X41254Y-141129D01*
D02*
G37*
G36*
X302540Y-144082D02*
X301397D01*
X300292Y-144378D01*
X299302Y-144950D01*
X298493Y-145758D01*
X297921Y-146749D01*
X297625Y-147853D01*
Y-148997D01*
X297921Y-150102D01*
X298493Y-151092D01*
X299302Y-151901D01*
X300292Y-152472D01*
X301397Y-152769D01*
X302540D01*
X303645Y-152472D01*
X304635Y-151901D01*
X305444Y-151092D01*
X306016Y-150102D01*
X306312Y-148997D01*
Y-147853D01*
X306016Y-146749D01*
X305444Y-145758D01*
X304635Y-144950D01*
X303645Y-144378D01*
X302540Y-144082D01*
D02*
G37*
G36*
X211258Y-152125D02*
X210542D01*
X209880Y-152399D01*
X209374Y-152906D01*
X209100Y-153567D01*
Y-154283D01*
X209374Y-154945D01*
X209880Y-155451D01*
X210542Y-155725D01*
X211258D01*
X211920Y-155451D01*
X212426Y-154945D01*
X212700Y-154283D01*
Y-153567D01*
X212426Y-152906D01*
X211920Y-152399D01*
X211258Y-152125D01*
D02*
G37*
G36*
X201420Y-156600D02*
X200704D01*
X200042Y-156874D01*
X199536Y-157380D01*
X199262Y-158042D01*
Y-158758D01*
X199536Y-159420D01*
X200042Y-159926D01*
X200704Y-160200D01*
X201420D01*
X202081Y-159926D01*
X202588Y-159420D01*
X202862Y-158758D01*
Y-158042D01*
X202588Y-157380D01*
X202081Y-156874D01*
X201420Y-156600D01*
D02*
G37*
G36*
X302540Y-154082D02*
X301397D01*
X300292Y-154378D01*
X299302Y-154950D01*
X298493Y-155758D01*
X297921Y-156749D01*
X297625Y-157853D01*
Y-158997D01*
X297921Y-160102D01*
X298493Y-161092D01*
X299302Y-161901D01*
X300292Y-162472D01*
X301397Y-162768D01*
X302540D01*
X303645Y-162472D01*
X304635Y-161901D01*
X305444Y-161092D01*
X306016Y-160102D01*
X306312Y-158997D01*
Y-157853D01*
X306016Y-156749D01*
X305444Y-155758D01*
X304635Y-154950D01*
X303645Y-154378D01*
X302540Y-154082D01*
D02*
G37*
G36*
X125374Y-162580D02*
X124658D01*
X123996Y-162854D01*
X123490Y-163361D01*
X123216Y-164022D01*
Y-164738D01*
X123490Y-165400D01*
X123996Y-165906D01*
X124658Y-166180D01*
X125374D01*
X126035Y-165906D01*
X126542Y-165400D01*
X126816Y-164738D01*
Y-164022D01*
X126542Y-163361D01*
X126035Y-162854D01*
X125374Y-162580D01*
D02*
G37*
G36*
X150958Y-162115D02*
X150242D01*
X149580Y-162389D01*
X149074Y-162895D01*
X148800Y-163557D01*
Y-164273D01*
X149074Y-164934D01*
X149580Y-165440D01*
X150242Y-165715D01*
X150958D01*
X151253Y-165593D01*
X151265Y-165601D01*
X151539Y-166262D01*
X152045Y-166769D01*
X152707Y-167043D01*
X153423D01*
X154085Y-166769D01*
X154591Y-166262D01*
X154865Y-165601D01*
Y-164885D01*
X154591Y-164223D01*
X154085Y-163717D01*
X153423Y-163443D01*
X152707D01*
X152412Y-163565D01*
X152400Y-163557D01*
X152126Y-162895D01*
X151620Y-162389D01*
X150958Y-162115D01*
D02*
G37*
G36*
X257558Y-166500D02*
X256842D01*
X256180Y-166774D01*
X255674Y-167280D01*
X255400Y-167942D01*
Y-168658D01*
X255674Y-169320D01*
X256180Y-169826D01*
X256842Y-170100D01*
X257558D01*
X258220Y-169826D01*
X258726Y-169320D01*
X259000Y-168658D01*
Y-167942D01*
X258726Y-167280D01*
X258220Y-166774D01*
X257558Y-166500D01*
D02*
G37*
G36*
X123174Y-167580D02*
X122458D01*
X121796Y-167854D01*
X121290Y-168361D01*
X121016Y-169022D01*
Y-169738D01*
X121290Y-170400D01*
X121796Y-170906D01*
X122458Y-171180D01*
X123174D01*
X123835Y-170906D01*
X124342Y-170400D01*
X124616Y-169738D01*
Y-169022D01*
X124342Y-168361D01*
X123835Y-167854D01*
X123174Y-167580D01*
D02*
G37*
G36*
X115558Y-167800D02*
X114842D01*
X114180Y-168074D01*
X113674Y-168580D01*
X113400Y-169242D01*
Y-169958D01*
X113674Y-170620D01*
X114180Y-171126D01*
X114842Y-171400D01*
X115558D01*
X116220Y-171126D01*
X116726Y-170620D01*
X117000Y-169958D01*
Y-169242D01*
X116726Y-168580D01*
X116220Y-168074D01*
X115558Y-167800D01*
D02*
G37*
G36*
X134153Y-142895D02*
X133437D01*
X132776Y-143169D01*
X132269Y-143676D01*
X131995Y-144337D01*
Y-145053D01*
X132269Y-145715D01*
X132776Y-146221D01*
X132829Y-146243D01*
X132795Y-146770D01*
X132722Y-146790D01*
X132088Y-147156D01*
X131571Y-147673D01*
X131205Y-148307D01*
X131015Y-149014D01*
Y-149746D01*
X131205Y-150453D01*
X131571Y-151087D01*
X132072Y-151588D01*
X132132Y-151660D01*
Y-152101D01*
X132072Y-152173D01*
X131571Y-152673D01*
X131205Y-153307D01*
X131015Y-154014D01*
Y-154746D01*
X131205Y-155453D01*
X131571Y-156087D01*
X132072Y-156588D01*
X132132Y-156660D01*
Y-157101D01*
X132072Y-157173D01*
X131571Y-157673D01*
X131205Y-158307D01*
X131015Y-159014D01*
Y-159746D01*
X131205Y-160453D01*
X131571Y-161087D01*
X132072Y-161588D01*
X132132Y-161660D01*
Y-162101D01*
X132072Y-162172D01*
X131571Y-162673D01*
X131205Y-163307D01*
X131015Y-164014D01*
Y-164746D01*
X131205Y-165453D01*
X131571Y-166087D01*
X132072Y-166588D01*
X132132Y-166660D01*
Y-167101D01*
X132072Y-167173D01*
X131571Y-167673D01*
X131205Y-168307D01*
X131015Y-169014D01*
Y-169746D01*
X131205Y-170453D01*
X131571Y-171087D01*
X132088Y-171605D01*
X132722Y-171971D01*
X133429Y-172160D01*
X134161D01*
X134868Y-171971D01*
X135502Y-171605D01*
X136003Y-171104D01*
X136075Y-171043D01*
X136516D01*
X136588Y-171104D01*
X137088Y-171605D01*
X137722Y-171971D01*
X138429Y-172160D01*
X139161D01*
X139868Y-171971D01*
X140502Y-171605D01*
X141020Y-171087D01*
X141386Y-170453D01*
X141575Y-169746D01*
Y-169014D01*
X141386Y-168307D01*
X141020Y-167673D01*
X140519Y-167173D01*
X140458Y-167101D01*
Y-166660D01*
X140519Y-166588D01*
X141020Y-166087D01*
X141386Y-165453D01*
X141539Y-164880D01*
X138795D01*
Y-163880D01*
X141539D01*
X141386Y-163307D01*
X141020Y-162673D01*
X140519Y-162172D01*
X140458Y-162101D01*
Y-161660D01*
X140519Y-161588D01*
X141020Y-161087D01*
X141386Y-160453D01*
X141539Y-159880D01*
X138795D01*
Y-158880D01*
X141539D01*
X141386Y-158307D01*
X141020Y-157673D01*
X140519Y-157173D01*
X140458Y-157101D01*
Y-156660D01*
X140519Y-156588D01*
X141020Y-156087D01*
X141386Y-155453D01*
X141575Y-154746D01*
Y-154014D01*
X141386Y-153307D01*
X141020Y-152673D01*
X140519Y-152173D01*
X140458Y-152101D01*
Y-151660D01*
X140519Y-151588D01*
X141020Y-151087D01*
X141386Y-150453D01*
X141539Y-149880D01*
X138795D01*
Y-149380D01*
X138295D01*
Y-146636D01*
X137722Y-146790D01*
X137088Y-147156D01*
X136588Y-147657D01*
X136516Y-147717D01*
X136075D01*
X136003Y-147657D01*
X135502Y-147156D01*
X134868Y-146790D01*
X134796Y-146770D01*
X134761Y-146243D01*
X134815Y-146221D01*
X135321Y-145715D01*
X135595Y-145053D01*
Y-144337D01*
X135321Y-143676D01*
X134815Y-143169D01*
X134153Y-142895D01*
D02*
G37*
G36*
X175658Y-169400D02*
X174942D01*
X174280Y-169674D01*
X173774Y-170180D01*
X173500Y-170842D01*
Y-171558D01*
X173774Y-172220D01*
X174280Y-172726D01*
X174942Y-173000D01*
X175658D01*
X176320Y-172726D01*
X176826Y-172220D01*
X177100Y-171558D01*
Y-170842D01*
X176826Y-170180D01*
X176320Y-169674D01*
X175658Y-169400D01*
D02*
G37*
G36*
X300343Y-170557D02*
X296500D01*
Y-174400D01*
X300343D01*
Y-170557D01*
D02*
G37*
G36*
X295500D02*
X291657D01*
Y-174400D01*
X295500D01*
Y-170557D01*
D02*
G37*
G36*
X256658Y-171500D02*
X255942D01*
X255280Y-171774D01*
X254774Y-172280D01*
X254500Y-172942D01*
Y-173658D01*
X254774Y-174320D01*
X255280Y-174826D01*
X255942Y-175100D01*
X256658D01*
X257320Y-174826D01*
X257826Y-174320D01*
X258100Y-173658D01*
Y-172942D01*
X257826Y-172280D01*
X257320Y-171774D01*
X256658Y-171500D01*
D02*
G37*
G36*
X126468Y-175100D02*
X125751D01*
X125090Y-175374D01*
X124583Y-175880D01*
X124309Y-176542D01*
Y-177258D01*
X124583Y-177920D01*
X125090Y-178426D01*
X125751Y-178700D01*
X126468D01*
X127129Y-178426D01*
X127635Y-177920D01*
X127909Y-177258D01*
Y-176542D01*
X127635Y-175880D01*
X127129Y-175374D01*
X126468Y-175100D01*
D02*
G37*
G36*
X300343Y-175400D02*
X296500D01*
Y-179243D01*
X300343D01*
Y-175400D01*
D02*
G37*
G36*
X295500D02*
X291657D01*
Y-179243D01*
X295500D01*
Y-175400D01*
D02*
G37*
G36*
X131458Y-176900D02*
X130742D01*
X130080Y-177174D01*
X129574Y-177680D01*
X129300Y-178342D01*
Y-179058D01*
X129574Y-179720D01*
X130080Y-180226D01*
X130742Y-180500D01*
X131458D01*
X132120Y-180226D01*
X132626Y-179720D01*
X132900Y-179058D01*
Y-178342D01*
X132626Y-177680D01*
X132120Y-177174D01*
X131458Y-176900D01*
D02*
G37*
G36*
X120658D02*
X119942D01*
X119280Y-177174D01*
X118774Y-177680D01*
X118500Y-178342D01*
Y-179058D01*
X118774Y-179720D01*
X119280Y-180226D01*
X119942Y-180500D01*
X120658D01*
X121320Y-180226D01*
X121826Y-179720D01*
X122100Y-179058D01*
Y-178342D01*
X121826Y-177680D01*
X121320Y-177174D01*
X120658Y-176900D01*
D02*
G37*
G36*
X259558Y-180200D02*
X258842D01*
X258180Y-180474D01*
X257674Y-180980D01*
X257400Y-181642D01*
Y-182358D01*
X257674Y-183020D01*
X258180Y-183526D01*
X258842Y-183800D01*
X259558D01*
X260220Y-183526D01*
X260726Y-183020D01*
X261000Y-182358D01*
Y-181642D01*
X260726Y-180980D01*
X260220Y-180474D01*
X259558Y-180200D01*
D02*
G37*
G36*
X136758Y-181800D02*
X136042D01*
X135380Y-182074D01*
X134874Y-182580D01*
X134600Y-183242D01*
Y-183958D01*
X134874Y-184620D01*
X135380Y-185126D01*
X136042Y-185400D01*
X136758D01*
X137420Y-185126D01*
X137926Y-184620D01*
X138200Y-183958D01*
Y-183242D01*
X137926Y-182580D01*
X137420Y-182074D01*
X136758Y-181800D01*
D02*
G37*
G36*
X142258Y-184300D02*
X141542D01*
X140880Y-184574D01*
X140374Y-185080D01*
X140100Y-185742D01*
Y-186458D01*
X140374Y-187120D01*
X140880Y-187626D01*
X141542Y-187900D01*
X142258D01*
X142920Y-187626D01*
X143426Y-187120D01*
X143700Y-186458D01*
Y-185742D01*
X143426Y-185080D01*
X142920Y-184574D01*
X142258Y-184300D01*
D02*
G37*
G36*
X296572Y-180557D02*
X295428D01*
X294323Y-180853D01*
X293333Y-181424D01*
X292525Y-182233D01*
X291953Y-183224D01*
X291657Y-184328D01*
Y-185472D01*
X291953Y-186576D01*
X292525Y-187567D01*
X293333Y-188375D01*
X294323Y-188947D01*
X295428Y-189243D01*
X296572D01*
X297676Y-188947D01*
X298667Y-188375D01*
X299476Y-187567D01*
X300047Y-186576D01*
X300343Y-185472D01*
Y-184328D01*
X300047Y-183224D01*
X299476Y-182233D01*
X298667Y-181424D01*
X297676Y-180853D01*
X296572Y-180557D01*
D02*
G37*
G36*
X153758Y-187300D02*
X153042D01*
X152380Y-187574D01*
X151874Y-188080D01*
X151600Y-188742D01*
Y-189458D01*
X151874Y-190120D01*
X152380Y-190626D01*
X153042Y-190900D01*
X153758D01*
X154420Y-190626D01*
X154926Y-190120D01*
X155200Y-189458D01*
Y-188742D01*
X154926Y-188080D01*
X154420Y-187574D01*
X153758Y-187300D01*
D02*
G37*
G36*
X296572Y-190557D02*
X295428D01*
X294323Y-190853D01*
X293333Y-191425D01*
X292525Y-192233D01*
X291953Y-193224D01*
X291657Y-194328D01*
Y-195472D01*
X291953Y-196576D01*
X292525Y-197567D01*
X293333Y-198375D01*
X294323Y-198947D01*
X295428Y-199243D01*
X296572D01*
X297676Y-198947D01*
X298667Y-198375D01*
X299476Y-197567D01*
X300047Y-196576D01*
X300343Y-195472D01*
Y-194328D01*
X300047Y-193224D01*
X299476Y-192233D01*
X298667Y-191425D01*
X297676Y-190853D01*
X296572Y-190557D01*
D02*
G37*
G36*
X102358Y-200000D02*
X101642D01*
X100980Y-200274D01*
X100474Y-200780D01*
X100200Y-201442D01*
Y-202158D01*
X100474Y-202820D01*
X100980Y-203326D01*
X101642Y-203600D01*
X102358D01*
X103020Y-203326D01*
X103526Y-202820D01*
X103800Y-202158D01*
Y-201442D01*
X103526Y-200780D01*
X103020Y-200274D01*
X102358Y-200000D01*
D02*
G37*
G36*
X240158Y-224914D02*
X232283D01*
X231874Y-224995D01*
X231526Y-225227D01*
X231294Y-225575D01*
X231213Y-225984D01*
Y-241732D01*
X231294Y-242142D01*
X231526Y-242489D01*
X231874Y-242721D01*
X232283Y-242803D01*
X240158D01*
X240567Y-242721D01*
X240915Y-242489D01*
X241147Y-242142D01*
X241228Y-241732D01*
Y-225984D01*
X241147Y-225575D01*
X240915Y-225227D01*
X240567Y-224995D01*
X240158Y-224914D01*
D02*
G37*
G36*
X178952Y-239203D02*
X178235D01*
X177574Y-239477D01*
X177068Y-239983D01*
X176794Y-240645D01*
Y-241361D01*
X177068Y-242022D01*
X177574Y-242529D01*
X178235Y-242803D01*
X178952D01*
X179613Y-242529D01*
X180120Y-242022D01*
X180394Y-241361D01*
Y-240645D01*
X180120Y-239983D01*
X179613Y-239477D01*
X178952Y-239203D01*
D02*
G37*
G36*
X169095Y-258856D02*
X168379D01*
X167718Y-259130D01*
X167211Y-259636D01*
X166937Y-260297D01*
Y-261014D01*
X167211Y-261675D01*
X167718Y-262181D01*
X168379Y-262456D01*
X169095D01*
X169757Y-262181D01*
X170263Y-261675D01*
X170537Y-261014D01*
Y-260297D01*
X170263Y-259636D01*
X169757Y-259130D01*
X169095Y-258856D01*
D02*
G37*
%LPD*%
G36*
X239087Y-240662D02*
X233354D01*
Y-227055D01*
X239087D01*
Y-240662D01*
D02*
G37*
D103*
X70394Y-58858D02*
D03*
D108*
X167501Y-49394D02*
D03*
X122862Y-123114D02*
D03*
X190748D02*
D03*
X167501Y-58073D02*
D03*
X123581Y-33350D02*
D03*
X190081Y-76418D02*
D03*
X190255Y-33350D02*
D03*
X142337Y-108817D02*
D03*
X166455Y-109091D02*
D03*
X142337Y-97646D02*
D03*
X166455D02*
D03*
X145400Y-58126D02*
D03*
Y-49394D02*
D03*
X17672Y-146850D02*
D03*
X189498Y-144295D02*
D03*
X159200D02*
D03*
X107419Y-168639D02*
D03*
X116433Y-175531D02*
D03*
X146260Y-164380D02*
D03*
Y-159380D02*
D03*
X107480Y-124016D02*
D03*
X146260Y-149380D02*
D03*
X116433Y-191869D02*
D03*
X111074Y-250151D02*
D03*
X114125Y-247198D02*
D03*
X111074D02*
D03*
X108023D02*
D03*
X114125Y-243064D02*
D03*
X111074D02*
D03*
X108023D02*
D03*
X111074Y-240111D02*
D03*
X279200Y-173000D02*
D03*
X250139Y-128134D02*
D03*
X251043Y-153925D02*
D03*
X251211Y-141520D02*
D03*
X234500Y-61417D02*
D03*
X235600Y-65017D02*
D03*
X222400Y-54134D02*
D03*
X259836Y-48384D02*
D03*
X220889Y-50197D02*
D03*
X110236Y-73541D02*
D03*
X96765Y-61024D02*
D03*
X91600Y-24600D02*
D03*
X96100Y-44900D02*
D03*
X197600Y-188000D02*
D03*
X238531Y-26650D02*
D03*
X31890Y-17717D02*
D03*
X78400Y-58838D02*
D03*
X249606Y-8669D02*
D03*
X259836Y-7291D02*
D03*
X237700Y-61417D02*
D03*
X250768Y-56712D02*
D03*
X51968Y-17717D02*
D03*
X12205Y-151575D02*
D03*
D112*
X296000Y-174900D02*
D03*
D113*
X13780Y-17874D02*
D03*
D114*
X138795Y-149380D02*
D03*
Y-159380D02*
D03*
Y-164380D02*
D03*
D115*
X60866Y-11811D02*
D03*
X241142Y-14750D02*
D03*
D118*
X12205Y-140039D02*
D03*
D121*
X154648Y-273254D02*
D03*
X154476Y-269650D02*
D03*
X150546D02*
D03*
X142237D02*
D03*
X138936D02*
D03*
Y-272807D02*
D03*
X146913Y-273254D02*
D03*
X142237D02*
D03*
X135250D02*
D03*
Y-269650D02*
D03*
X146913D02*
D03*
X130956Y-273254D02*
D03*
Y-269650D02*
D03*
X150476Y-273254D02*
D03*
X119537Y-230261D02*
D03*
X115670D02*
D03*
X115813Y-226250D02*
D03*
X119537D02*
D03*
X111726D02*
D03*
X108121D02*
D03*
X108023Y-230261D02*
D03*
X111649D02*
D03*
X104578Y-226250D02*
D03*
Y-230261D02*
D03*
X127037Y-269650D02*
D03*
Y-273254D02*
D03*
X116637Y-258250D02*
D03*
Y-262150D02*
D03*
X112899Y-262307D02*
D03*
X112696Y-258323D02*
D03*
X108984Y-258526D02*
D03*
X108822Y-262250D02*
D03*
X97306Y-268866D02*
D03*
Y-272450D02*
D03*
X93592D02*
D03*
X93499Y-268796D02*
D03*
X89446Y-268966D02*
D03*
Y-272450D02*
D03*
X86177D02*
D03*
X85987Y-268966D02*
D03*
X82037Y-268866D02*
D03*
Y-272450D02*
D03*
X77955Y-268966D02*
D03*
Y-272450D02*
D03*
X73985Y-268966D02*
D03*
X73937Y-272450D02*
D03*
M02*
