G04*
G04 #@! TF.GenerationSoftware,Altium Limited,Altium Designer,21.1.1 (26)*
G04*
G04 Layer_Color=16711935*
%FSLAX25Y25*%
%MOIN*%
G70*
G04*
G04 #@! TF.SameCoordinates,1EF24474-C81F-45A5-81BD-A50C78BF7B70*
G04*
G04*
G04 #@! TF.FilePolarity,Negative*
G04*
G01*
G75*
%ADD25R,0.07874X0.07874*%
%ADD99R,0.07487X0.07487*%
%ADD100C,0.07487*%
%ADD101C,0.04360*%
%ADD102R,0.07487X0.07487*%
%ADD103C,0.07874*%
%ADD104C,0.06502*%
%ADD105R,0.06502X0.06502*%
%ADD106R,0.04534X0.04534*%
%ADD107C,0.04534*%
%ADD108C,0.02000*%
D25*
X70394Y-145866D02*
D03*
D99*
X301969Y-138425D02*
D03*
X299606Y-74094D02*
D03*
X296000Y-174900D02*
D03*
X13780Y-7874D02*
D03*
D100*
X301969Y-148425D02*
D03*
Y-158425D02*
D03*
X299606Y-94095D02*
D03*
Y-84095D02*
D03*
Y-104095D02*
D03*
Y-114094D02*
D03*
Y-124094D02*
D03*
X296000Y-194900D02*
D03*
Y-184900D02*
D03*
X70866Y-11811D02*
D03*
X80866D02*
D03*
X211142Y-14750D02*
D03*
X221142D02*
D03*
X231142D02*
D03*
X13780Y-57874D02*
D03*
Y-47874D02*
D03*
Y-37874D02*
D03*
Y-17874D02*
D03*
Y-27874D02*
D03*
D101*
X133795Y-149380D02*
D03*
X138795D02*
D03*
Y-159380D02*
D03*
Y-154380D02*
D03*
X133795Y-159380D02*
D03*
Y-154380D02*
D03*
Y-164380D02*
D03*
Y-169380D02*
D03*
X138795Y-164380D02*
D03*
Y-169380D02*
D03*
D102*
X60866Y-11811D02*
D03*
X241142Y-14750D02*
D03*
D103*
X40630Y-71457D02*
D03*
Y-46260D02*
D03*
X70394Y-58858D02*
D03*
X40630Y-145866D02*
D03*
D104*
X14961Y-85827D02*
D03*
D105*
Y-75827D02*
D03*
D106*
X12205Y-140039D02*
D03*
D107*
Y-135039D02*
D03*
Y-130039D02*
D03*
D108*
X111074Y-250151D02*
D03*
X114125Y-247198D02*
D03*
X111074D02*
D03*
X108023D02*
D03*
X114125Y-243064D02*
D03*
X111074D02*
D03*
X108023D02*
D03*
X111074Y-240111D02*
D03*
M02*
