G04*
G04 #@! TF.GenerationSoftware,Altium Limited,Altium Designer,21.1.1 (26)*
G04*
G04 Layer_Physical_Order=1*
G04 Layer_Color=255*
%FSLAX25Y25*%
%MOIN*%
G70*
G04*
G04 #@! TF.SameCoordinates,1EF24474-C81F-45A5-81BD-A50C78BF7B70*
G04*
G04*
G04 #@! TF.FilePolarity,Positive*
G04*
G01*
G75*
%ADD15C,0.00800*%
%ADD19R,0.03937X0.03543*%
%ADD20C,0.05000*%
%ADD21R,0.04134X0.05512*%
%ADD22R,0.03543X0.02756*%
%ADD23R,0.09500X0.13500*%
%ADD24R,0.04331X0.04331*%
%ADD25R,0.07874X0.07874*%
%ADD26R,0.02756X0.04724*%
%ADD27R,0.04724X0.02756*%
%ADD28R,0.02047X0.02047*%
%ADD29R,0.01378X0.02264*%
%ADD30R,0.02264X0.01378*%
%ADD31R,0.03150X0.03150*%
%ADD32R,0.03543X0.03937*%
%ADD33R,0.02559X0.04134*%
%ADD34R,0.04331X0.07480*%
%ADD35R,0.04528X0.05709*%
%ADD36R,0.04331X0.04331*%
%ADD37R,0.02441X0.02441*%
%ADD38R,0.02953X0.02559*%
%ADD39R,0.02165X0.02559*%
%ADD40R,0.05733X0.04940*%
G04:AMPARAMS|DCode=41|XSize=23.62mil|YSize=9.45mil|CornerRadius=1.98mil|HoleSize=0mil|Usage=FLASHONLY|Rotation=0.000|XOffset=0mil|YOffset=0mil|HoleType=Round|Shape=RoundedRectangle|*
%AMROUNDEDRECTD41*
21,1,0.02362,0.00548,0,0,0.0*
21,1,0.01965,0.00945,0,0,0.0*
1,1,0.00397,0.00983,-0.00274*
1,1,0.00397,-0.00983,-0.00274*
1,1,0.00397,-0.00983,0.00274*
1,1,0.00397,0.00983,0.00274*
%
%ADD41ROUNDEDRECTD41*%
G04:AMPARAMS|DCode=42|XSize=9.45mil|YSize=23.62mil|CornerRadius=1.98mil|HoleSize=0mil|Usage=FLASHONLY|Rotation=0.000|XOffset=0mil|YOffset=0mil|HoleType=Round|Shape=RoundedRectangle|*
%AMROUNDEDRECTD42*
21,1,0.00945,0.01965,0,0,0.0*
21,1,0.00548,0.02362,0,0,0.0*
1,1,0.00397,0.00274,-0.00983*
1,1,0.00397,-0.00274,-0.00983*
1,1,0.00397,-0.00274,0.00983*
1,1,0.00397,0.00274,0.00983*
%
%ADD42ROUNDEDRECTD42*%
%ADD43R,0.03197X0.02975*%
%ADD44R,0.05512X0.04134*%
%ADD45R,0.05709X0.04528*%
%ADD46R,0.05906X0.09449*%
%ADD47R,0.03788X0.03400*%
%ADD48R,0.04724X0.03543*%
%ADD49R,0.05906X0.06693*%
%ADD50R,0.04724X0.04724*%
%ADD51R,0.02047X0.02047*%
%ADD52R,0.07480X0.05315*%
%ADD53R,0.04724X0.03937*%
%ADD54R,0.06102X0.05315*%
%ADD55R,0.03347X0.04331*%
%ADD56R,0.02953X0.04331*%
%ADD57R,0.04606X0.07087*%
%ADD58R,0.04154X0.05733*%
%ADD59R,0.06127X0.04942*%
%ADD60R,0.01968X0.03150*%
G04:AMPARAMS|DCode=61|XSize=9.42mil|YSize=38.03mil|CornerRadius=4.71mil|HoleSize=0mil|Usage=FLASHONLY|Rotation=270.000|XOffset=0mil|YOffset=0mil|HoleType=Round|Shape=RoundedRectangle|*
%AMROUNDEDRECTD61*
21,1,0.00942,0.02861,0,0,270.0*
21,1,0.00000,0.03803,0,0,270.0*
1,1,0.00942,-0.01431,0.00000*
1,1,0.00942,-0.01431,0.00000*
1,1,0.00942,0.01431,0.00000*
1,1,0.00942,0.01431,0.00000*
%
%ADD61ROUNDEDRECTD61*%
G04:AMPARAMS|DCode=62|XSize=38.03mil|YSize=9.42mil|CornerRadius=4.71mil|HoleSize=0mil|Usage=FLASHONLY|Rotation=270.000|XOffset=0mil|YOffset=0mil|HoleType=Round|Shape=RoundedRectangle|*
%AMROUNDEDRECTD62*
21,1,0.03803,0.00000,0,0,270.0*
21,1,0.02861,0.00942,0,0,270.0*
1,1,0.00942,0.00000,-0.01431*
1,1,0.00942,0.00000,0.01431*
1,1,0.00942,0.00000,0.01431*
1,1,0.00942,0.00000,-0.01431*
%
%ADD62ROUNDEDRECTD62*%
%ADD63R,0.00942X0.03803*%
G04:AMPARAMS|DCode=86|XSize=15.75mil|YSize=27.56mil|CornerRadius=1.97mil|HoleSize=0mil|Usage=FLASHONLY|Rotation=0.000|XOffset=0mil|YOffset=0mil|HoleType=Round|Shape=RoundedRectangle|*
%AMROUNDEDRECTD86*
21,1,0.01575,0.02362,0,0,0.0*
21,1,0.01181,0.02756,0,0,0.0*
1,1,0.00394,0.00591,-0.01181*
1,1,0.00394,-0.00591,-0.01181*
1,1,0.00394,-0.00591,0.01181*
1,1,0.00394,0.00591,0.01181*
%
%ADD86ROUNDEDRECTD86*%
G04:AMPARAMS|DCode=87|XSize=15.75mil|YSize=9.84mil|CornerRadius=1.97mil|HoleSize=0mil|Usage=FLASHONLY|Rotation=0.000|XOffset=0mil|YOffset=0mil|HoleType=Round|Shape=RoundedRectangle|*
%AMROUNDEDRECTD87*
21,1,0.01575,0.00591,0,0,0.0*
21,1,0.01181,0.00984,0,0,0.0*
1,1,0.00394,0.00591,-0.00295*
1,1,0.00394,-0.00591,-0.00295*
1,1,0.00394,-0.00591,0.00295*
1,1,0.00394,0.00591,0.00295*
%
%ADD87ROUNDEDRECTD87*%
%ADD98R,0.06614X0.06614*%
%ADD103C,0.07874*%
%ADD108C,0.02000*%
%ADD109C,0.00800*%
%ADD110C,0.04000*%
%ADD111C,0.07760*%
%ADD112R,0.07087X0.07087*%
%ADD113C,0.07087*%
%ADD114C,0.03960*%
%ADD115R,0.07087X0.07087*%
%ADD116C,0.06102*%
%ADD117R,0.06102X0.06102*%
%ADD118R,0.04134X0.04134*%
%ADD119C,0.04134*%
%ADD120C,0.02165*%
%ADD121C,0.02800*%
G36*
X151714Y-231942D02*
X150830D01*
X150476Y-231589D01*
Y-231401D01*
X150476Y-230901D01*
Y-229649D01*
X145924D01*
Y-230901D01*
X145924Y-231229D01*
X145924Y-231589D01*
X145570Y-231942D01*
X139660D01*
Y-222493D01*
X139566Y-222025D01*
X139301Y-221628D01*
X139161Y-221488D01*
Y-214970D01*
X139958D01*
Y-211427D01*
Y-209907D01*
X135917D01*
Y-211427D01*
Y-214970D01*
X136714D01*
Y-221994D01*
X136807Y-222463D01*
X137072Y-222860D01*
X137213Y-223000D01*
Y-231942D01*
X133921D01*
Y-228583D01*
X132573D01*
Y-224363D01*
X132480Y-223895D01*
X132288Y-223607D01*
Y-216528D01*
X133636D01*
Y-212172D01*
X128492D01*
Y-216528D01*
X129841D01*
Y-224078D01*
X129934Y-224546D01*
X130126Y-224834D01*
Y-228583D01*
X128778D01*
Y-231942D01*
X128016D01*
Y-231261D01*
X122872D01*
Y-231942D01*
X116953D01*
X116686Y-231442D01*
X116800Y-231270D01*
X116893Y-230802D01*
Y-230261D01*
X116800Y-229793D01*
X116535Y-229396D01*
X116138Y-229131D01*
X115670Y-229037D01*
X115202Y-229131D01*
X114805Y-229396D01*
X114540Y-229793D01*
X114446Y-230261D01*
Y-230295D01*
X113260Y-231482D01*
X112995Y-231879D01*
X112982Y-231942D01*
X98782D01*
Y-204815D01*
X151714D01*
Y-231942D01*
D02*
G37*
G36*
X110422Y-235294D02*
X110577Y-235449D01*
X110661Y-235651D01*
X110661Y-235761D01*
X110661D01*
X110660Y-237277D01*
X111487D01*
Y-235761D01*
X111487Y-235651D01*
X111571Y-235449D01*
X111726Y-235294D01*
X111929Y-235210D01*
X112038D01*
Y-235210D01*
X112275Y-235210D01*
X112384D01*
X112587Y-235294D01*
X112742Y-235449D01*
X112826Y-235651D01*
Y-235761D01*
X112826D01*
Y-238851D01*
X114834Y-238851D01*
X114943D01*
X115146Y-238935D01*
X115301Y-239090D01*
X115385Y-239293D01*
Y-239403D01*
X115385D01*
X115385Y-250859D01*
Y-250969D01*
X115301Y-251172D01*
X115146Y-251327D01*
X114943Y-251411D01*
X114834Y-251411D01*
X112826Y-251411D01*
X112826Y-254501D01*
X112826Y-254611D01*
X112742Y-254813D01*
X112587Y-254968D01*
X112384Y-255052D01*
X112275Y-255052D01*
X112275D01*
X112275D01*
D01*
X112038Y-255052D01*
X111929Y-255052D01*
X111726Y-254968D01*
X111571Y-254813D01*
X111487Y-254611D01*
Y-254501D01*
Y-252985D01*
X110660D01*
X110660Y-254501D01*
Y-254611D01*
X110576Y-254813D01*
X110422Y-254968D01*
X110219Y-255052D01*
X109763D01*
X109561Y-254968D01*
X109406Y-254813D01*
X109322Y-254611D01*
Y-254501D01*
X109322Y-254501D01*
Y-251411D01*
X107204D01*
X107002Y-251327D01*
X106847Y-251172D01*
X106763Y-250969D01*
Y-250859D01*
Y-250859D01*
Y-239403D01*
Y-239293D01*
X106847Y-239090D01*
X107002Y-238935D01*
X107204Y-238851D01*
X107314D01*
Y-238851D01*
X109322D01*
X109322Y-235761D01*
Y-235651D01*
X109406Y-235449D01*
X109561Y-235294D01*
X109763Y-235210D01*
X109873D01*
Y-235210D01*
X110109Y-235210D01*
X110219Y-235210D01*
X110422Y-235294D01*
D02*
G37*
G36*
X96637Y-204815D02*
Y-233372D01*
X94734D01*
Y-236107D01*
X94272Y-236298D01*
X93764Y-235789D01*
Y-233307D01*
X88620D01*
Y-233927D01*
X85987D01*
Y-227600D01*
X74887D01*
Y-242700D01*
X85987D01*
Y-236373D01*
X88620D01*
Y-237663D01*
X92052D01*
X92170Y-237687D01*
X92200D01*
X92871Y-238357D01*
X92679Y-238819D01*
X88620D01*
Y-243175D01*
X91640D01*
X92724Y-244260D01*
Y-245328D01*
X92817Y-245796D01*
X93083Y-246193D01*
X96637Y-249748D01*
Y-254508D01*
X96137Y-255008D01*
Y-257238D01*
X95637D01*
D01*
X96137D01*
Y-259416D01*
X96637D01*
Y-260144D01*
X96210Y-260572D01*
X96065D01*
X96043Y-260550D01*
X91714D01*
Y-258526D01*
X88946D01*
X86177D01*
Y-260550D01*
X84306D01*
Y-258526D01*
X81537D01*
X78769D01*
Y-260550D01*
X76753D01*
Y-258526D01*
X73985D01*
X71216D01*
Y-260550D01*
X49737D01*
Y-214350D01*
X59272Y-204815D01*
X96637Y-204815D01*
D02*
G37*
G36*
X239087Y-240662D02*
X233354D01*
Y-227055D01*
X239087D01*
Y-240662D01*
D02*
G37*
G36*
X162538Y-240104D02*
X165405D01*
Y-241104D01*
X162538D01*
Y-244159D01*
X165404D01*
Y-255341D01*
X165404Y-255341D01*
Y-260655D01*
X151079D01*
Y-258590D01*
X147413D01*
X143746D01*
Y-260655D01*
X137588D01*
Y-258323D01*
X133921D01*
X130254D01*
Y-260655D01*
X122899D01*
X122872Y-260644D01*
Y-249307D01*
X125050D01*
X125518Y-249214D01*
X125915Y-248949D01*
X126181Y-248552D01*
X126274Y-248084D01*
X126181Y-247616D01*
X125915Y-247219D01*
X125769Y-247121D01*
X125513Y-246906D01*
X125456Y-246431D01*
X125477Y-246330D01*
X125383Y-245862D01*
X125178Y-245554D01*
X125262Y-245131D01*
X125169Y-244663D01*
X124904Y-244266D01*
X124501Y-243864D01*
X124693Y-243402D01*
X128753D01*
X128763Y-243412D01*
X129160Y-243677D01*
X129628Y-243770D01*
X140536D01*
X141004Y-243677D01*
X141401Y-243412D01*
X143541Y-241272D01*
X143807Y-240875D01*
X143900Y-240407D01*
Y-239511D01*
X144605Y-238805D01*
X149372D01*
X149415Y-239024D01*
X149680Y-239421D01*
X150711Y-240451D01*
Y-242683D01*
X154476D01*
Y-242683D01*
X154648D01*
Y-242683D01*
X156030D01*
Y-240603D01*
X156530D01*
Y-240103D01*
X158413D01*
Y-238805D01*
X162538D01*
Y-240104D01*
D02*
G37*
G36*
X261200Y-225000D02*
Y-258223D01*
X257811Y-258251D01*
X257456Y-257899D01*
Y-256120D01*
X250344D01*
Y-258313D01*
X247710Y-258334D01*
X247355Y-257982D01*
Y-256405D01*
X243701D01*
X240047D01*
Y-258397D01*
X235014Y-258439D01*
X234960Y-258374D01*
X231890D01*
Y-257874D01*
X231390D01*
Y-256578D01*
X230459D01*
X230314Y-256459D01*
Y-252326D01*
X230267D01*
Y-246457D01*
Y-239383D01*
X231213D01*
Y-241732D01*
X231294Y-242142D01*
X231526Y-242489D01*
X231874Y-242721D01*
X232283Y-242803D01*
X240158D01*
X240567Y-242721D01*
X240915Y-242489D01*
X241147Y-242142D01*
X241228Y-241732D01*
Y-239383D01*
X243004D01*
Y-233858D01*
Y-228334D01*
X241228D01*
Y-225984D01*
X241147Y-225575D01*
X240915Y-225227D01*
X240567Y-224995D01*
X240158Y-224914D01*
X232283D01*
X231874Y-224995D01*
X231526Y-225227D01*
X231294Y-225575D01*
X231213Y-225984D01*
Y-228334D01*
X225184D01*
Y-239383D01*
X227820D01*
Y-245233D01*
X227543D01*
X227075Y-245326D01*
X226678Y-245592D01*
X226209Y-246060D01*
X225944Y-246457D01*
X225851Y-246925D01*
Y-252010D01*
X225351Y-252350D01*
X225106Y-252301D01*
X224861Y-252350D01*
X224361Y-252010D01*
Y-247053D01*
X224268Y-246585D01*
X224003Y-246188D01*
X223138Y-245323D01*
X223138Y-240381D01*
X220459D01*
X220236Y-239973D01*
Y-235617D01*
X215093D01*
Y-239973D01*
X214870Y-240381D01*
X211096D01*
X210848Y-239881D01*
X210990Y-239694D01*
X213805D01*
Y-235339D01*
X208661D01*
Y-236293D01*
X194300D01*
Y-223833D01*
X260033D01*
X261200Y-225000D01*
D02*
G37*
G36*
X120299Y-255577D02*
X120696Y-255842D01*
X121165Y-255936D01*
X121437Y-255881D01*
X121937Y-256194D01*
Y-261450D01*
X122792D01*
X122899Y-261471D01*
X122899Y-261471D01*
X122899Y-261471D01*
X130254D01*
Y-263825D01*
X133921D01*
X137588D01*
Y-261471D01*
X143746D01*
Y-264092D01*
X147413D01*
X151079D01*
Y-261471D01*
X164569D01*
X165404Y-262307D01*
X165404Y-262307D01*
Y-275441D01*
X106615D01*
X106206Y-275222D01*
X106206Y-274941D01*
Y-273150D01*
X100669D01*
Y-274941D01*
X100669Y-275222D01*
X100260Y-275441D01*
X69828D01*
X69237Y-274850D01*
Y-261650D01*
X70759D01*
X71216Y-261753D01*
X71216Y-262150D01*
Y-263825D01*
X73985D01*
X76753D01*
X76753Y-261753D01*
X77211Y-261650D01*
X78312D01*
X78769Y-261753D01*
X78769Y-262150D01*
Y-263825D01*
X81537D01*
X84306D01*
X84306Y-261753D01*
X84763Y-261650D01*
X85720D01*
X86177Y-261753D01*
X86177Y-262150D01*
Y-263825D01*
X88946D01*
X91714D01*
X91714Y-261753D01*
X92171Y-261650D01*
X93066D01*
Y-262250D01*
X95637D01*
X98209D01*
Y-261650D01*
X99251D01*
X100437Y-260463D01*
Y-254169D01*
X101156Y-253450D01*
X105883D01*
X106074Y-253912D01*
X102572Y-257414D01*
X102307Y-257811D01*
X102214Y-258279D01*
Y-263779D01*
X100669D01*
Y-268922D01*
X106206D01*
Y-263779D01*
X104661D01*
Y-258786D01*
X107851Y-255596D01*
X108395D01*
X108785Y-255519D01*
X108888Y-255449D01*
X108984Y-255545D01*
X109249Y-255722D01*
X109451Y-255806D01*
X109763Y-255868D01*
X110219D01*
X110531Y-255806D01*
X110734Y-255722D01*
X111074Y-255577D01*
X111414Y-255722D01*
X111617Y-255806D01*
X111929Y-255868D01*
X112038Y-255868D01*
X112038Y-255868D01*
X112038Y-255868D01*
X112275Y-255868D01*
X112384Y-255868D01*
X112696Y-255806D01*
X112696Y-255806D01*
X112899Y-255722D01*
X113163Y-255545D01*
X113259Y-255449D01*
X113363Y-255519D01*
X113527Y-255551D01*
Y-253596D01*
X114527D01*
Y-255551D01*
X114690Y-255519D01*
X115020Y-255298D01*
X115241Y-254968D01*
X115319Y-254578D01*
Y-253450D01*
X118172D01*
X120299Y-255577D01*
D02*
G37*
G36*
X221360Y-247006D02*
Y-256578D01*
X219023D01*
X218796Y-256426D01*
X218538Y-256375D01*
X211233Y-249070D01*
Y-245460D01*
X209885D01*
Y-243334D01*
X217688D01*
X221360Y-247006D01*
D02*
G37*
G36*
X257237Y-258830D02*
X257238Y-258831D01*
X257239Y-258833D01*
X257370Y-258919D01*
X257502Y-259006D01*
X257504Y-259006D01*
X257505Y-259007D01*
X257658Y-259036D01*
X257814Y-259067D01*
X257816Y-259066D01*
X257818Y-259067D01*
X260845Y-259042D01*
X261200Y-259394D01*
Y-263697D01*
X256793Y-268104D01*
X256528Y-268501D01*
X256435Y-268969D01*
X256528Y-269437D01*
X256793Y-269834D01*
X257190Y-270099D01*
X257658Y-270193D01*
X258126Y-270099D01*
X258523Y-269834D01*
X260738Y-267619D01*
X261200Y-267811D01*
Y-272565D01*
X251500Y-281400D01*
X247444Y-284463D01*
X237315Y-291300D01*
X231890D01*
Y-280820D01*
X234146D01*
Y-277165D01*
Y-273511D01*
X231890D01*
Y-269823D01*
X235295Y-266417D01*
X235561Y-266020D01*
X235654Y-265552D01*
Y-264889D01*
X235561Y-264421D01*
X235295Y-264024D01*
X234443Y-263172D01*
X234268Y-262796D01*
X234452Y-262405D01*
X234515Y-262311D01*
X231890D01*
Y-261311D01*
X234515D01*
X234237Y-260895D01*
Y-260759D01*
X234515Y-260343D01*
X231890D01*
Y-259343D01*
X234842D01*
X234880Y-259306D01*
X234979Y-259246D01*
X235020Y-259254D01*
X240053Y-259213D01*
X240206Y-259181D01*
X240359Y-259151D01*
X240361Y-259149D01*
X240365Y-259148D01*
X240494Y-259060D01*
X240623Y-258974D01*
X240625Y-258971D01*
X240628Y-258969D01*
X247220D01*
X247270Y-259002D01*
X247401Y-259089D01*
X247403Y-259089D01*
X247404Y-259090D01*
X247557Y-259119D01*
X247713Y-259150D01*
X247715Y-259150D01*
X247717Y-259150D01*
X250351Y-259128D01*
X250503Y-259097D01*
X250656Y-259066D01*
X250659Y-259064D01*
X250662Y-259064D01*
X250792Y-258976D01*
X250921Y-258889D01*
X250923Y-258886D01*
X250926Y-258885D01*
X251011Y-258754D01*
X251056Y-258687D01*
X257092D01*
X257237Y-258830D01*
D02*
G37*
G36*
X207438Y-245460D02*
X206090D01*
Y-250997D01*
X209700D01*
X217125Y-258422D01*
X217522Y-258687D01*
X217751Y-259215D01*
X217666Y-259343D01*
X220291D01*
Y-260343D01*
X217440D01*
X217274Y-260588D01*
X212216D01*
X211627Y-259998D01*
Y-256388D01*
X206484D01*
Y-261925D01*
X209791D01*
X209883Y-262056D01*
X209624Y-262556D01*
X203979D01*
Y-261925D01*
X205328D01*
Y-256388D01*
X200184D01*
Y-261925D01*
X201532D01*
Y-263779D01*
X201625Y-264248D01*
X201891Y-264645D01*
X202288Y-264910D01*
X202756Y-265003D01*
X213291D01*
X213495Y-265471D01*
X213298Y-265711D01*
X212808Y-265735D01*
Y-265735D01*
X207665D01*
Y-271272D01*
X211274D01*
X213013Y-273011D01*
X212806Y-273511D01*
X184501Y-273511D01*
X184499Y-243687D01*
X184852Y-243334D01*
X207438Y-243334D01*
Y-245460D01*
D02*
G37*
G36*
X225606Y-269251D02*
X226022Y-268973D01*
X226158D01*
X226574Y-269251D01*
Y-266626D01*
X227574D01*
Y-269251D01*
X227862Y-269060D01*
X227879Y-269063D01*
X228182Y-269227D01*
X228188Y-269268D01*
X228105Y-269804D01*
X228072Y-269826D01*
X227807Y-270223D01*
X227713Y-270691D01*
X227807Y-271159D01*
X228072Y-271556D01*
X228469Y-271821D01*
X228937Y-271914D01*
X229292D01*
X229760Y-271821D01*
X230157Y-271556D01*
X230348Y-271365D01*
X230809Y-271556D01*
Y-273088D01*
X230623Y-273511D01*
X230310Y-273511D01*
X228059D01*
Y-277165D01*
Y-280820D01*
X230310D01*
X230623Y-280820D01*
X230809Y-281242D01*
Y-291347D01*
X230348Y-291538D01*
X230110Y-291300D01*
X91150D01*
Y-277365D01*
X215443D01*
Y-273664D01*
X219610D01*
X220078Y-273571D01*
X220475Y-273306D01*
X222225Y-271556D01*
X222491Y-271159D01*
X222584Y-270691D01*
Y-270341D01*
X223745Y-269179D01*
X224054Y-268973D01*
X224190D01*
X224606Y-269251D01*
Y-266626D01*
X225606D01*
Y-269251D01*
D02*
G37*
G36*
X221842Y-267622D02*
X220495Y-268969D01*
X220230Y-269366D01*
X220137Y-269834D01*
Y-270184D01*
X219103Y-271217D01*
X215443D01*
Y-266171D01*
X221842D01*
Y-267622D01*
D02*
G37*
%LPC*%
G36*
X121507Y-205873D02*
X115576D01*
Y-206040D01*
X112329D01*
Y-205873D01*
X106398D01*
Y-211804D01*
X112329D01*
Y-208487D01*
X115576D01*
Y-211804D01*
X121507D01*
Y-205873D01*
D02*
G37*
G36*
X133636Y-206660D02*
X131564D01*
Y-208338D01*
X133636D01*
Y-206660D01*
D02*
G37*
G36*
X130564D02*
X128492D01*
Y-208338D01*
X130564D01*
Y-206660D01*
D02*
G37*
G36*
X139958Y-207386D02*
X138437D01*
Y-208907D01*
X139958D01*
Y-207386D01*
D02*
G37*
G36*
X137437D02*
X135917D01*
Y-208907D01*
X137437D01*
Y-207386D01*
D02*
G37*
G36*
X133636Y-209338D02*
X131564D01*
Y-211016D01*
X133636D01*
Y-209338D01*
D02*
G37*
G36*
X130564D02*
X128492D01*
Y-211016D01*
X130564D01*
Y-209338D01*
D02*
G37*
G36*
X112329Y-212960D02*
X109864D01*
Y-215425D01*
X112329D01*
Y-212960D01*
D02*
G37*
G36*
X121507D02*
X119041D01*
Y-215425D01*
X121507D01*
Y-212960D01*
D02*
G37*
G36*
X118041D02*
X115576D01*
Y-215425D01*
X118041D01*
Y-212960D01*
D02*
G37*
G36*
X108864D02*
X106398D01*
Y-215425D01*
X108864D01*
Y-212960D01*
D02*
G37*
G36*
X121507Y-216425D02*
X119041D01*
Y-218890D01*
X121507D01*
Y-216425D01*
D02*
G37*
G36*
X118041D02*
X115576D01*
Y-218890D01*
X118041D01*
Y-216425D01*
D02*
G37*
G36*
X112329D02*
X109864D01*
Y-218890D01*
X112329D01*
Y-216425D01*
D02*
G37*
G36*
X108864D02*
X106398D01*
Y-218890D01*
X108864D01*
Y-216425D01*
D02*
G37*
G36*
X150476Y-227070D02*
X148700D01*
Y-228649D01*
X150476D01*
Y-227070D01*
D02*
G37*
G36*
X147700D02*
X145924D01*
Y-228649D01*
X147700D01*
Y-227070D01*
D02*
G37*
G36*
X128016Y-228583D02*
X125944D01*
Y-230261D01*
X128016D01*
Y-228583D01*
D02*
G37*
G36*
X124944D02*
X122872D01*
Y-230261D01*
X124944D01*
Y-228583D01*
D02*
G37*
G36*
X114834Y-251411D02*
X114834D01*
D01*
X114834D01*
D02*
G37*
G36*
X63487Y-206946D02*
Y-209729D01*
X66270D01*
X66062Y-208955D01*
X65628Y-208203D01*
X65013Y-207588D01*
X64261Y-207154D01*
X63487Y-206946D01*
D02*
G37*
G36*
X62487Y-206946D02*
X61713Y-207154D01*
X60961Y-207588D01*
X60347Y-208203D01*
X59912Y-208955D01*
X59705Y-209729D01*
X62487D01*
Y-206946D01*
D02*
G37*
G36*
X66270Y-210729D02*
X63487D01*
Y-213511D01*
X64261Y-213304D01*
X65013Y-212869D01*
X65628Y-212255D01*
X66062Y-211503D01*
X66270Y-210729D01*
D02*
G37*
G36*
X62487D02*
X59705D01*
X59912Y-211503D01*
X60347Y-212255D01*
X60961Y-212869D01*
X61713Y-213304D01*
X62487Y-213511D01*
Y-210729D01*
D02*
G37*
G36*
X62987Y-227600D02*
X57937D01*
Y-234650D01*
X62987D01*
Y-227600D01*
D02*
G37*
G36*
X56937D02*
X51887D01*
Y-234650D01*
X56937D01*
Y-227600D01*
D02*
G37*
G36*
X62987Y-235650D02*
X57937D01*
Y-242700D01*
X62987D01*
Y-235650D01*
D02*
G37*
G36*
X56937D02*
X51887D01*
Y-242700D01*
X56937D01*
Y-235650D01*
D02*
G37*
G36*
X95137Y-255060D02*
X93066D01*
Y-256738D01*
X95137D01*
Y-255060D01*
D02*
G37*
G36*
X91714Y-255454D02*
X89446D01*
Y-257526D01*
X91714D01*
Y-255454D01*
D02*
G37*
G36*
X76753D02*
X74485D01*
Y-257526D01*
X76753D01*
Y-255454D01*
D02*
G37*
G36*
X84306D02*
X82037D01*
Y-257526D01*
X84306D01*
Y-255454D01*
D02*
G37*
G36*
X81037D02*
X78769D01*
Y-257526D01*
X81037D01*
Y-255454D01*
D02*
G37*
G36*
X73485D02*
X71216D01*
Y-257526D01*
X73485D01*
Y-255454D01*
D02*
G37*
G36*
X88446D02*
X86177D01*
Y-257526D01*
X88446D01*
Y-255454D01*
D02*
G37*
G36*
X95137Y-257738D02*
X93066D01*
Y-259416D01*
X95137D01*
Y-257738D01*
D02*
G37*
G36*
X158413Y-241103D02*
X157030D01*
Y-242683D01*
X158413D01*
Y-241103D01*
D02*
G37*
G36*
X137588Y-254553D02*
X134421D01*
Y-257323D01*
X137588D01*
Y-254553D01*
D02*
G37*
G36*
X133421D02*
X130254D01*
Y-257323D01*
X133421D01*
Y-254553D01*
D02*
G37*
G36*
X151079Y-254821D02*
X147913D01*
Y-257590D01*
X151079D01*
Y-254821D01*
D02*
G37*
G36*
X146913D02*
X143746D01*
Y-257590D01*
X146913D01*
Y-254821D01*
D02*
G37*
G36*
X213805Y-229827D02*
X211733D01*
Y-231505D01*
X213805D01*
Y-229827D01*
D02*
G37*
G36*
X210733D02*
X208661D01*
Y-231505D01*
X210733D01*
Y-229827D01*
D02*
G37*
G36*
X220236Y-230105D02*
X218165D01*
Y-231784D01*
X220236D01*
Y-230105D01*
D02*
G37*
G36*
X217165D02*
X215093D01*
Y-231784D01*
X217165D01*
Y-230105D01*
D02*
G37*
G36*
X247257Y-228334D02*
X244004D01*
Y-233358D01*
X247257D01*
Y-228334D01*
D02*
G37*
G36*
X213805Y-232505D02*
X211733D01*
Y-234183D01*
X213805D01*
Y-232505D01*
D02*
G37*
G36*
X210733D02*
X208661D01*
Y-234183D01*
X210733D01*
Y-232505D01*
D02*
G37*
G36*
X220236Y-232784D02*
X218165D01*
Y-234461D01*
X220236D01*
Y-232784D01*
D02*
G37*
G36*
X217165D02*
X215093D01*
Y-234461D01*
X217165D01*
Y-232784D01*
D02*
G37*
G36*
X247257Y-234358D02*
X244004D01*
Y-239383D01*
X247257D01*
Y-234358D01*
D02*
G37*
G36*
X257456Y-252753D02*
X254400D01*
Y-255120D01*
X257456D01*
Y-252753D01*
D02*
G37*
G36*
X253400D02*
X250344D01*
Y-255120D01*
X253400D01*
Y-252753D01*
D02*
G37*
G36*
X247355Y-252842D02*
X244201D01*
Y-255405D01*
X247355D01*
Y-252842D01*
D02*
G37*
G36*
X243201D02*
X240047D01*
Y-255405D01*
X243201D01*
Y-252842D01*
D02*
G37*
G36*
X233320Y-256578D02*
X232390D01*
Y-257374D01*
X234515D01*
X234237Y-256958D01*
X233816Y-256677D01*
X233320Y-256578D01*
D02*
G37*
G36*
X98209Y-263250D02*
X96137D01*
Y-264928D01*
X98209D01*
Y-263250D01*
D02*
G37*
G36*
X95137D02*
X93066D01*
Y-264928D01*
X95137D01*
Y-263250D01*
D02*
G37*
G36*
X91714Y-264825D02*
X89446D01*
Y-266897D01*
X91714D01*
Y-264825D01*
D02*
G37*
G36*
X88446D02*
X86177D01*
Y-266897D01*
X88446D01*
Y-264825D01*
D02*
G37*
G36*
X84306D02*
X82037D01*
Y-266897D01*
X84306D01*
Y-264825D01*
D02*
G37*
G36*
X81037D02*
X78769D01*
Y-266897D01*
X81037D01*
Y-264825D01*
D02*
G37*
G36*
X76753D02*
X74485D01*
Y-266897D01*
X76753D01*
Y-264825D01*
D02*
G37*
G36*
X73485D02*
X71216D01*
Y-266897D01*
X73485D01*
Y-264825D01*
D02*
G37*
G36*
X137588Y-264825D02*
X134421D01*
Y-267595D01*
X137588D01*
Y-264825D01*
D02*
G37*
G36*
X133421D02*
X130254D01*
Y-267595D01*
X133421D01*
Y-264825D01*
D02*
G37*
G36*
X151079Y-265092D02*
X147913D01*
Y-267862D01*
X151079D01*
Y-265092D01*
D02*
G37*
G36*
X146913D02*
X143746D01*
Y-267862D01*
X146913D01*
Y-265092D01*
D02*
G37*
G36*
X106206Y-270078D02*
X103937D01*
Y-272150D01*
X106206D01*
Y-270078D01*
D02*
G37*
G36*
X102937D02*
X100669D01*
Y-272150D01*
X102937D01*
Y-270078D01*
D02*
G37*
G36*
X247355Y-259928D02*
X244201D01*
Y-262492D01*
X247355D01*
Y-259928D01*
D02*
G37*
G36*
X243201D02*
X240047D01*
Y-262492D01*
X243201D01*
Y-259928D01*
D02*
G37*
G36*
X247355Y-263492D02*
X244201D01*
Y-266056D01*
X247355D01*
Y-263492D01*
D02*
G37*
G36*
X243201D02*
X240047D01*
Y-266056D01*
X243201D01*
Y-263492D01*
D02*
G37*
G36*
X257456Y-260233D02*
X250344D01*
Y-265967D01*
X252677D01*
Y-268185D01*
X252380Y-268308D01*
X251874Y-268814D01*
X251600Y-269476D01*
Y-270192D01*
X251874Y-270854D01*
X252380Y-271360D01*
X253042Y-271634D01*
X253758D01*
X254420Y-271360D01*
X254926Y-270854D01*
X255200Y-270192D01*
Y-269476D01*
X255123Y-269291D01*
Y-265967D01*
X257456D01*
Y-260233D01*
D02*
G37*
G36*
X244701Y-273383D02*
Y-276165D01*
X247483D01*
X247276Y-275392D01*
X246842Y-274639D01*
X246227Y-274025D01*
X245475Y-273590D01*
X244701Y-273383D01*
D02*
G37*
G36*
X243701Y-273383D02*
X242927Y-273590D01*
X242175Y-274025D01*
X241560Y-274639D01*
X241126Y-275392D01*
X240918Y-276165D01*
X243701D01*
Y-273383D01*
D02*
G37*
G36*
X237709Y-273511D02*
X235146D01*
Y-276665D01*
X237709D01*
Y-273511D01*
D02*
G37*
G36*
X243701Y-277165D02*
X240918D01*
X241126Y-277939D01*
X241560Y-278692D01*
X242175Y-279306D01*
X242927Y-279741D01*
X243701Y-279948D01*
Y-277165D01*
D02*
G37*
G36*
X247483D02*
X244701D01*
Y-279948D01*
X245475Y-279741D01*
X246227Y-279306D01*
X246842Y-278692D01*
X247276Y-277939D01*
X247483Y-277165D01*
D02*
G37*
G36*
X237709Y-277665D02*
X235146D01*
Y-280820D01*
X237709D01*
Y-277665D01*
D02*
G37*
G36*
X204934Y-245460D02*
X202862D01*
Y-247728D01*
X204934D01*
Y-245460D01*
D02*
G37*
G36*
X201862D02*
X199791D01*
Y-247728D01*
X201862D01*
Y-245460D01*
D02*
G37*
G36*
X204934Y-248728D02*
X202862D01*
Y-250997D01*
X204934D01*
Y-248728D01*
D02*
G37*
G36*
X201862D02*
X199791D01*
Y-250997D01*
X201862D01*
Y-248728D01*
D02*
G37*
G36*
X189926Y-256560D02*
Y-259343D01*
X192709D01*
X192501Y-258569D01*
X192067Y-257816D01*
X191453Y-257202D01*
X190700Y-256767D01*
X189926Y-256560D01*
D02*
G37*
G36*
X188926Y-256560D02*
X188153Y-256767D01*
X187400Y-257202D01*
X186786Y-257816D01*
X186351Y-258569D01*
X186144Y-259343D01*
X188926D01*
Y-256560D01*
D02*
G37*
G36*
Y-260343D02*
X186144D01*
X186351Y-261116D01*
X186786Y-261869D01*
X187400Y-262483D01*
X188153Y-262918D01*
X188926Y-263125D01*
Y-260343D01*
D02*
G37*
G36*
X192709D02*
X189926D01*
Y-263125D01*
X190700Y-262918D01*
X191453Y-262483D01*
X192067Y-261869D01*
X192501Y-261116D01*
X192709Y-260343D01*
D02*
G37*
G36*
X206509Y-265735D02*
X204437D01*
Y-268004D01*
X206509D01*
Y-265735D01*
D02*
G37*
G36*
X203437D02*
X201365D01*
Y-268004D01*
X203437D01*
Y-265735D01*
D02*
G37*
G36*
X206509Y-269004D02*
X204437D01*
Y-271272D01*
X206509D01*
Y-269004D01*
D02*
G37*
G36*
X203437D02*
X201365D01*
Y-271272D01*
X203437D01*
Y-269004D01*
D02*
G37*
G36*
X227059Y-273511D02*
X224495D01*
Y-276665D01*
X227059D01*
Y-273511D01*
D02*
G37*
G36*
Y-277665D02*
X224495D01*
Y-280820D01*
X227059D01*
Y-277665D01*
D02*
G37*
%LPD*%
D15*
X298922Y-89401D02*
G03*
X294942Y-94956I685J-4694D01*
G01*
X299255Y-79271D02*
G03*
X299439Y-79099I-449J662D01*
G01*
X299138Y-79351D02*
G03*
X296250Y-80717I466J-4720D01*
G01*
X166455Y-137531D02*
Y-128787D01*
X162600Y-139534D02*
Y-134901D01*
X161800Y-134101D02*
X162600Y-134901D01*
X161800Y-134101D02*
Y-128857D01*
X92440Y-91041D02*
X92579Y-91180D01*
X121472Y-90000D02*
X123538D01*
X144496Y-141100D02*
X148149D01*
X193000Y-76000D02*
X239222D01*
X141276Y-137880D02*
X144496Y-141100D01*
X123538Y-90000D02*
X123581Y-90043D01*
X141276Y-130345D02*
X142833Y-128787D01*
X142337Y-97646D02*
X148812D01*
X130176Y-94300D02*
X130644Y-94768D01*
X135620Y-137880D02*
X136551Y-136949D01*
X125338Y-66421D02*
X130644D01*
X145400Y-49394D02*
X152544D01*
X115053Y-91180D02*
X118173Y-94300D01*
X124981Y-71146D02*
X130644D01*
X183400Y-104078D02*
X184251D01*
X182279D02*
X184251D01*
X90953Y-95905D02*
X121428D01*
X183400Y-118390D02*
X183679Y-118110D01*
X122862Y-123114D02*
X130644D01*
X158577Y-45857D02*
Y-45806D01*
X119760Y-118390D02*
X132078D01*
X155100Y-142027D02*
Y-137880D01*
X125016Y-99492D02*
X130644D01*
X129347Y-137880D02*
X135620D01*
X123581Y-33350D02*
X130644D01*
X149987Y-45806D02*
X149987D01*
X120300Y-85319D02*
X130644D01*
X89370Y-97163D02*
X89695D01*
X121428Y-95905D02*
X125016Y-99492D01*
X141276Y-137880D02*
Y-130345D01*
X118173Y-94300D02*
X130176D01*
X150600Y-137700D02*
X150724Y-137576D01*
X183400Y-85319D02*
X192455D01*
X121394Y-67558D02*
X124981Y-71146D01*
X184251Y-104217D02*
X191010D01*
X122617Y-63700D02*
X125338Y-66421D01*
X157006Y-131994D02*
Y-128787D01*
X119619Y-118530D02*
X119760Y-118390D01*
X154400Y-142727D02*
X155100Y-142027D01*
X89695Y-97163D02*
X90953Y-95905D01*
X120823Y-80594D02*
X130644D01*
Y-123114D02*
X132108D01*
X122617Y-142727D02*
X128709D01*
X162114Y-49394D02*
X167501D01*
X119819Y-113665D02*
X130644D01*
X123581Y-90043D02*
X130644D01*
X136551Y-136949D02*
Y-130345D01*
X180628Y-128787D02*
X183231Y-126184D01*
X92579Y-91180D02*
X115053D01*
X160324Y-97646D02*
X166455D01*
X121428Y-90043D02*
X121472Y-90000D01*
X148149Y-141100D02*
X148722Y-140527D01*
X183400Y-75870D02*
X183948Y-76418D01*
X148722Y-140527D02*
X152700D01*
X183646Y-70900D02*
X187900D01*
X160324Y-108886D02*
X166250D01*
X146260Y-137880D02*
Y-130085D01*
X191010Y-104217D02*
X198593Y-111800D01*
X146260Y-130085D02*
X147557Y-128787D01*
X141554Y-142495D02*
X141786Y-142727D01*
X150724Y-137576D02*
Y-130345D01*
X183400Y-71146D02*
X183646Y-70900D01*
X150724Y-130345D02*
X152282Y-128787D01*
X161731D02*
X161800Y-128857D01*
X155449Y-137531D02*
Y-133551D01*
X128709Y-142727D02*
X128940Y-142495D01*
X162061Y-58073D02*
X167501D01*
X128940Y-142495D02*
X141554D01*
X141786Y-142727D02*
X154400D01*
X183948Y-76418D02*
X190081D01*
X155100Y-137880D02*
X155449Y-137531D01*
Y-133551D02*
X157006Y-131994D01*
X189639Y-66700D02*
X196200Y-73261D01*
X183231Y-126184D02*
X190982D01*
X183400Y-104217D02*
X191010D01*
X183400Y-123114D02*
X190748D01*
X166250Y-108886D02*
X166455Y-109091D01*
X183679Y-118110D02*
X211478D01*
X182501Y-113750D02*
X192383D01*
X184251Y-104078D02*
X184251Y-104078D01*
X198593Y-111800D02*
X206221D01*
X182687Y-80594D02*
X190255D01*
X196200Y-73261D02*
X245021D01*
X142337Y-108817D02*
X142407Y-108886D01*
X187900Y-70900D02*
X193000Y-76000D01*
X183400Y-66421D02*
X183679Y-66700D01*
X189639D01*
X183400Y-33350D02*
X190255D01*
X136551Y-130345D02*
X138109Y-128787D01*
X142407Y-108886D02*
X148812D01*
X145400Y-58126D02*
X152544D01*
X158577Y-45857D02*
X162114Y-49394D01*
X158577Y-54589D02*
X162061Y-58073D01*
X158577Y-54589D02*
Y-54539D01*
X299606Y-88882D02*
Y-84095D01*
X298922Y-89401D02*
X299138Y-89351D01*
X298922Y-89401D02*
X298922Y-89401D01*
X299138Y-89351D02*
X299606Y-88882D01*
X227165Y-78882D02*
X230461D01*
X206557D02*
X227165D01*
Y-85319D02*
Y-78882D01*
X223662Y-93503D02*
X227165D01*
X17592Y-146771D02*
X17672Y-146850D01*
X15472Y-146771D02*
X17592D01*
X12205Y-143504D02*
X15472Y-146771D01*
X12205Y-143504D02*
Y-140039D01*
X70604Y-166535D02*
X102869Y-198800D01*
X37896Y-166535D02*
X70604D01*
X102869Y-198800D02*
X117125D01*
X100013Y-191869D02*
X103268D01*
X99545Y-191401D02*
X100013Y-191869D01*
X99545Y-191401D02*
Y-183700D01*
X197600Y-184835D02*
X198249Y-184186D01*
X198544D01*
X197600Y-188000D02*
Y-184835D01*
X198354Y-182224D02*
X198544Y-182414D01*
X194011Y-182224D02*
X198354D01*
X201400Y-209407D02*
Y-201800D01*
X114125Y-232505D02*
Y-232347D01*
X115670Y-230802D02*
Y-230261D01*
X114125Y-232347D02*
X115670Y-230802D01*
X114027Y-232603D02*
X114125Y-232505D01*
X114027Y-236666D02*
Y-232603D01*
X113954Y-236594D02*
X114027Y-236666D01*
X92707Y-236463D02*
X95934Y-239690D01*
Y-240084D02*
Y-239690D01*
X92170Y-236463D02*
X92707D01*
X95934Y-240084D02*
X96912Y-241062D01*
X97306D01*
X90857Y-235150D02*
X92170Y-236463D01*
X99935Y-244147D02*
X104578D01*
X97699Y-241062D02*
X98677Y-242040D01*
Y-242889D02*
Y-242040D01*
X98895Y-244147D02*
X99935D01*
X98677Y-242889D02*
X99935Y-244147D01*
X97306Y-241062D02*
X97699D01*
X95637Y-257238D02*
X100855Y-252021D01*
X114510Y-141408D02*
X115510Y-142408D01*
X114746Y-59368D02*
X123388D01*
X125717Y-61697D01*
X130644D01*
X121653Y-74531D02*
X122992Y-75870D01*
X121653Y-74531D02*
Y-73541D01*
X122992Y-75870D02*
X130644D01*
X238531Y-26650D02*
Y-13780D01*
X120823Y-104217D02*
X130644D01*
X118920Y-106120D02*
X120823Y-104217D01*
X132601Y-129571D02*
X133384Y-128787D01*
X114510Y-129571D02*
X132601D01*
X298922Y-89401D02*
X298922Y-89401D01*
X294942Y-95027D02*
Y-94956D01*
X169514Y-145004D02*
X170223Y-144295D01*
X169514Y-156106D02*
Y-145004D01*
X170223Y-144295D02*
Y-137880D01*
X171179Y-136923D01*
X175904Y-138829D02*
Y-128787D01*
X177611Y-143825D02*
Y-140535D01*
X175904Y-138829D02*
X177611Y-140535D01*
Y-143825D02*
X177892Y-144106D01*
X177703Y-151697D02*
Y-144295D01*
Y-151697D02*
X179356Y-153350D01*
X184380Y-144295D02*
X189498D01*
X180590Y-139534D02*
X187598D01*
X194498Y-132634D01*
X296000Y-184900D02*
X296876D01*
X285000D02*
X296000D01*
X192444Y-89065D02*
X197415Y-84095D01*
X184378Y-89065D02*
X192444D01*
X197415Y-84095D02*
X205906D01*
X183400Y-90043D02*
X184378Y-89065D01*
X183400Y-94768D02*
X193080D01*
X195409Y-92439D01*
X191613Y-99023D02*
Y-98180D01*
X191144Y-99492D02*
X191613Y-99023D01*
X183400Y-99492D02*
X191144D01*
X191613Y-98180D02*
X205175D01*
X206100Y-140700D02*
X219779D01*
X183400Y-108817D02*
X190255D01*
X190255Y-108817D02*
X190708D01*
X190255Y-108817D02*
X190255Y-108817D01*
X190708D02*
X190982Y-109091D01*
X299138Y-79351D02*
X299255Y-79271D01*
X299138Y-79351D02*
X299138Y-79351D01*
X153094Y-165271D02*
X201062D01*
Y-158400D01*
X193542Y-182692D02*
X194011Y-182224D01*
X193542Y-188753D02*
Y-182692D01*
X201300Y-183300D02*
X201400Y-183200D01*
Y-181400D01*
X114494Y-201431D02*
X122394D01*
X114494D02*
X117125Y-198800D01*
X79331Y-137100D02*
X83100Y-133331D01*
X107424Y-129571D02*
Y-124073D01*
X114510Y-141408D02*
Y-129571D01*
X107424Y-124073D02*
X107480Y-124016D01*
X99545Y-157615D02*
X107419D01*
X86940D02*
X99545D01*
X107419D02*
X115293D01*
X122816Y-169380D02*
X133795D01*
X115200Y-169600D02*
X120300Y-174700D01*
X138795Y-149380D02*
X146260D01*
X161800Y-189100D02*
X169500Y-181400D01*
X149588D02*
X150724D01*
X153400Y-189100D02*
X161800D01*
X141900Y-186100D02*
X156300D01*
X161000Y-181400D01*
X125016Y-164380D02*
X133795D01*
X133476Y-174700D02*
X138795Y-169380D01*
X133795Y-149380D02*
Y-144695D01*
X159200Y-144295D02*
X163924D01*
X138795Y-164380D02*
X146260D01*
X144900Y-169615D02*
X150600Y-163915D01*
X138795Y-159380D02*
X146260D01*
X144900Y-170737D02*
Y-169615D01*
X143000Y-174900D02*
X150600Y-167300D01*
X152011D01*
X148963Y-171200D02*
X175300D01*
X152011Y-167300D02*
X152154Y-167443D01*
X153065Y-165243D02*
X153094Y-165271D01*
X171179Y-136923D02*
Y-128787D01*
X96765Y-120050D02*
X101900D01*
X79160Y-137100D02*
X79331D01*
X96564Y-120250D02*
X96765Y-120050D01*
X115293Y-163915D02*
X115490D01*
X98068Y-165391D02*
X99545Y-163915D01*
X107419Y-168639D02*
Y-163915D01*
X99545Y-183700D02*
Y-175999D01*
X100013Y-175531D01*
X98068Y-182224D02*
Y-165391D01*
Y-182224D02*
X99545Y-183700D01*
X100013Y-175531D02*
X103268D01*
X111732D02*
X116433D01*
X111732Y-191869D02*
X116433D01*
X122394Y-181869D02*
X122862Y-181400D01*
X138795Y-174900D02*
X143000D01*
X147388Y-183600D02*
X149588Y-181400D01*
X136400Y-183600D02*
X147388D01*
X142337Y-173300D02*
X144900Y-170737D01*
X137434Y-173300D02*
X142337D01*
X138763Y-181400D02*
X148963Y-171200D01*
X134995Y-178700D02*
X138795Y-174900D01*
X134234Y-176500D02*
X137434Y-173300D01*
X120300Y-178700D02*
Y-174700D01*
X130189Y-176500D02*
X134234D01*
X126109Y-176900D02*
X129789D01*
X131100Y-178700D02*
X134995D01*
X120300Y-174700D02*
X133476D01*
X129789Y-176900D02*
X130189Y-176500D01*
X122862Y-181400D02*
X138763D01*
X122394Y-201431D02*
Y-181869D01*
X138436Y-233480D02*
Y-222493D01*
X137937Y-221994D02*
X138436Y-222493D01*
X137937Y-221994D02*
Y-212950D01*
X131349Y-231942D02*
Y-224363D01*
X131064Y-224078D02*
X131349Y-224363D01*
X131064Y-224078D02*
Y-214350D01*
X109322Y-207263D02*
X118779D01*
X148200Y-233480D02*
X150546Y-235826D01*
X142676Y-239004D02*
X148200Y-233480D01*
X125050Y-236273D02*
X125444D01*
X123869Y-237454D02*
X125050Y-236273D01*
X150546Y-238555D02*
Y-235826D01*
X128594Y-240210D02*
X131349Y-237454D01*
X150546Y-238555D02*
X151714Y-239724D01*
X136782Y-240210D02*
X138436Y-238555D01*
X142676Y-240407D02*
Y-239004D01*
X151714Y-239724D02*
X151911D01*
X152594Y-240407D01*
X128594Y-240210D02*
X136782D01*
X152594Y-240603D02*
Y-240407D01*
X172885Y-240603D02*
X173284Y-241003D01*
X178594D01*
X140536Y-242547D02*
X142676Y-240407D01*
X129259Y-242178D02*
X129628Y-242547D01*
X140536D01*
X124038Y-246115D02*
X124253Y-246330D01*
X122098Y-237454D02*
X123869D01*
X121310Y-238241D02*
X122098Y-237454D01*
X117570Y-238241D02*
X121310D01*
X117570Y-240210D02*
X128594D01*
X101965D02*
X104578D01*
X117570Y-242178D02*
X129259D01*
X101394D02*
X104578D01*
X117570Y-244147D02*
X123054D01*
X124038Y-245131D01*
X117570Y-246115D02*
X124038D01*
X100864D02*
X104578D01*
X171537Y-257856D02*
Y-253050D01*
X168737Y-260655D02*
X171537Y-257856D01*
X100864Y-246115D02*
X102832Y-248084D01*
X117570D02*
X125050D01*
X102832D02*
X104578D01*
X98672Y-250052D02*
X104578D01*
X117570Y-252021D02*
X118473D01*
X121165Y-254712D01*
X103437Y-258279D02*
X108121Y-253596D01*
X103437Y-266351D02*
Y-258279D01*
X97306Y-235550D02*
X101965Y-240210D01*
X97306Y-241062D02*
X100277D01*
X101394Y-242178D01*
X91192Y-240997D02*
X93948Y-243753D01*
Y-245328D02*
Y-243753D01*
X98895Y-244147D02*
X100864Y-246115D01*
X93948Y-245328D02*
X98672Y-250052D01*
X100855Y-252021D02*
X104578D01*
X80437Y-235150D02*
X90857D01*
X152154Y-167443D02*
X194829D01*
X215411Y-37300D02*
X219700D01*
X279200Y-173000D02*
X281100Y-174900D01*
X296000D01*
X285648Y-195769D02*
X286517Y-194900D01*
X278100Y-194800D02*
X279069Y-195769D01*
X286517Y-194900D02*
X296000D01*
X279069Y-195769D02*
X285648D01*
X278100Y-194800D02*
Y-191600D01*
X259800Y-173300D02*
X278100Y-191600D01*
X268400Y-168300D02*
X285000Y-184900D01*
X257200Y-168300D02*
X268400D01*
X245021Y-128134D02*
X250139D01*
X245021Y-141520D02*
X251211D01*
X245334Y-153925D02*
X251043D01*
X230231Y-79112D02*
X230461Y-78882D01*
X256300Y-173300D02*
X259800D01*
X190252Y-56712D02*
X191613Y-58073D01*
X193080D01*
X193828Y-58821D01*
X189927Y-56712D02*
X190252D01*
X193879Y-67558D02*
X199424D01*
X193828Y-60202D02*
X195043Y-61417D01*
X193828Y-60202D02*
Y-58821D01*
X195043Y-61417D02*
X199424D01*
X230231Y-79634D02*
Y-79112D01*
X205906Y-79534D02*
X206557Y-78882D01*
X234573Y-54847D02*
X234646Y-54774D01*
X234500Y-61417D02*
X234573Y-61344D01*
Y-54847D01*
X231245Y-64792D02*
X235375D01*
X235600Y-65017D01*
X212205Y-84095D02*
X217915D01*
X205906D02*
Y-79534D01*
X219779Y-67558D02*
X223120Y-70900D01*
X251493D02*
X257826Y-64567D01*
X223120Y-70900D02*
X251493D01*
X205523Y-55812D02*
X216709D01*
X261030Y-56600D02*
X283700D01*
X231020Y-64567D02*
X231245Y-64792D01*
X247600Y-66700D02*
Y-62800D01*
X216709Y-55812D02*
X228114Y-67217D01*
X250413D01*
X247500Y-66800D02*
X247600Y-66700D01*
X250413Y-67217D02*
X261030Y-56600D01*
X221065Y-63700D02*
X226182Y-68817D01*
X251313D01*
X260230Y-59900D01*
X205723Y-67558D02*
X219779D01*
X194598Y-54847D02*
X199424D01*
X259200Y-69969D02*
X265261D01*
X210673Y-63231D02*
X211142Y-63700D01*
X221065D01*
X210673Y-63231D02*
Y-62969D01*
X205773Y-62500D02*
X210205D01*
X210673Y-62969D01*
X227165Y-61417D02*
X231020D01*
X300900Y-62031D02*
X301369Y-62500D01*
X309828D01*
X300900Y-62031D02*
Y-59900D01*
X257826Y-64567D02*
X275065D01*
X292305D01*
X274946Y-69969D02*
Y-64686D01*
X275065Y-64567D01*
X254400Y-93503D02*
X260609D01*
X224369Y-52165D02*
X230069D01*
X222400Y-54134D02*
X224369Y-52165D01*
X259836Y-48384D02*
X259836D01*
X261478Y-46741D01*
X263902D02*
X264572Y-46071D01*
X261478Y-46741D02*
X263902D01*
X256867Y-53767D02*
X283978D01*
X256800Y-53700D02*
X256867Y-53767D01*
X283978D02*
X285011Y-54800D01*
X288200D01*
X259200Y-40100D02*
Y-33350D01*
X257650Y-31800D02*
X259200Y-33350D01*
X266703Y-95550D02*
X266900D01*
X262655D02*
X266703D01*
X260609Y-93503D02*
X262655Y-95550D01*
X257658Y-268969D02*
X271200Y-255427D01*
Y-242200D01*
X188300Y-237517D02*
X211233D01*
X208661Y-96100D02*
X221065D01*
X223662Y-93503D01*
X99168Y-84095D02*
Y-68110D01*
X104900Y-62378D01*
Y-50900D01*
X26772Y-100028D02*
X27800Y-99000D01*
X26772Y-107677D02*
Y-100028D01*
X220889Y-50197D02*
X230069D01*
X243200Y-32800D02*
X249612Y-39212D01*
X251200D01*
X236614Y-46925D02*
X236835D01*
X237743Y-46016D01*
X249712D01*
X236614Y-47589D02*
Y-46925D01*
X249712Y-46016D02*
X251200Y-44529D01*
X251350Y-31800D02*
Y-26650D01*
X251200Y-26500D02*
X251350Y-26650D01*
X253400Y-269834D02*
X253900Y-269334D01*
Y-263100D01*
X228937Y-270691D02*
X229292D01*
X234430Y-265552D01*
X233320Y-263779D02*
X234430Y-264889D01*
Y-265552D02*
Y-264889D01*
X231890Y-263779D02*
X233320D01*
X208661Y-248228D02*
Y-240088D01*
X211233Y-237517D01*
X18654Y-33000D02*
X85100D01*
X13780Y-37874D02*
X18654Y-33000D01*
X21739Y-94600D02*
X28100D01*
X15551Y-100787D02*
X21739Y-94600D01*
X83100Y-41100D02*
Y-40500D01*
Y-133331D02*
Y-41100D01*
X70394Y-145866D02*
X79160Y-137100D01*
X113091Y-61024D02*
X114746Y-59368D01*
X110236Y-61024D02*
X113091D01*
X110236Y-73541D02*
Y-68110D01*
X116222D01*
X121653Y-73541D01*
X111931Y-53385D02*
X116800Y-48516D01*
Y-47143D01*
X98601Y-59187D02*
Y-50900D01*
X96765Y-61024D02*
X98601Y-59187D01*
X108174Y-50900D02*
X111931Y-47143D01*
X116800D01*
X104900Y-50900D02*
X108174D01*
X109100Y-35502D02*
Y-24400D01*
X105532Y-39069D02*
X109100Y-35502D01*
X107431Y-22731D02*
X109100Y-24400D01*
X105532Y-22731D02*
X107431D01*
X114469Y-39069D02*
X116800Y-41400D01*
X105532Y-39069D02*
X114469D01*
X93469Y-22731D02*
X97068D01*
X91600Y-24600D02*
X93469Y-22731D01*
X96100Y-44900D02*
X97068Y-43932D01*
Y-39069D01*
X11317Y-165648D02*
X12205Y-166535D01*
X21579D02*
X30608D01*
X194829Y-167443D02*
X195297Y-167911D01*
X201033Y-158371D02*
X201062Y-158400D01*
X195297Y-176986D02*
Y-167911D01*
X194498Y-132634D02*
X207705D01*
X212205Y-128134D01*
X191942Y-192342D02*
Y-180341D01*
X195297Y-176986D01*
X191942Y-192342D02*
X201400Y-201800D01*
X193542Y-188753D02*
X197274Y-192485D01*
X199038D01*
X202900Y-179900D02*
X207450D01*
X201400Y-181400D02*
X202900Y-179900D01*
X258700Y-182000D02*
X259200D01*
X258600Y-182100D02*
X258700Y-182000D01*
X248988Y-182100D02*
X258600D01*
X231020Y-61417D02*
X232446Y-59992D01*
Y-57864D02*
X232677Y-57633D01*
Y-54774D01*
X232446Y-59992D02*
Y-57864D01*
X226865Y-153925D02*
X237066D01*
X210900D02*
X219779D01*
X195485Y-111616D02*
X199780Y-115910D01*
X285890D01*
X286743Y-116763D01*
X212205Y-128134D02*
X219036D01*
X226123D02*
X236753D01*
X226865Y-141520D02*
X236753D01*
X193507Y-111616D02*
X195485D01*
X190982Y-109091D02*
X193507Y-111616D01*
X117120Y-106120D02*
X118920D01*
X199102Y-103044D02*
X199668Y-102478D01*
X198293Y-104455D02*
X199102Y-103646D01*
X199668Y-102478D02*
X236241D01*
X201062Y-105590D02*
X202573Y-104078D01*
X198293Y-104780D02*
Y-104455D01*
X199102Y-103646D02*
Y-103044D01*
X200974Y-105590D02*
X201062D01*
X202573Y-104078D02*
X235578D01*
X198800Y-101037D02*
X198958Y-100878D01*
X198372Y-100610D02*
X198800Y-101037D01*
X205175Y-98180D02*
X205711Y-98717D01*
X263536D02*
X266703Y-95550D01*
X196200Y-100380D02*
X196429Y-100610D01*
X198372D01*
X205711Y-98717D02*
X263536D01*
X205906Y-96648D02*
X206374Y-97117D01*
X198958Y-100878D02*
X236904D01*
X206374Y-97117D02*
X207320D01*
X236241Y-102478D02*
X236963Y-103200D01*
X207320Y-97117D02*
X208337Y-96100D01*
X205906Y-96648D02*
Y-92439D01*
X237626Y-101600D02*
X284764D01*
X236904Y-100878D02*
X237626Y-101600D01*
X284764D02*
X292198Y-94166D01*
X235578Y-104078D02*
X236300Y-104800D01*
X236963Y-103200D02*
X287100D01*
X236300Y-104800D02*
X288901D01*
X299606Y-94095D01*
X206450Y-106278D02*
X235160D01*
X287100Y-103200D02*
X294942Y-95358D01*
X235160Y-106278D02*
X235282Y-106400D01*
X289563D01*
X215889Y-108000D02*
X293512D01*
X215411Y-108478D02*
X215889Y-108000D01*
X210431Y-108478D02*
X215411D01*
X289563Y-106400D02*
X291869Y-104095D01*
X220889Y-110200D02*
X221489Y-109600D01*
X216800Y-110200D02*
X220889D01*
X221489Y-109600D02*
X292794D01*
X293263Y-110069D01*
X222400Y-111800D02*
X224698D01*
X225161Y-111337D01*
X290181D01*
X287731Y-113600D02*
X288694Y-114563D01*
X231020Y-113600D02*
X287731D01*
X228466Y-26734D02*
Y-13845D01*
X228531Y-13780D01*
X228400Y-26800D02*
X228466Y-26734D01*
X293263Y-117751D02*
Y-110069D01*
X290181Y-111337D02*
X290650Y-111805D01*
Y-117834D02*
Y-111805D01*
X293512Y-108000D02*
X299606Y-114094D01*
X286743Y-118769D02*
Y-116763D01*
X13780Y-7874D02*
X13805Y-7900D01*
X31500D01*
X13858Y-17795D02*
X31811D01*
X13780Y-17874D02*
X13858Y-17795D01*
X31811D02*
X31890Y-17717D01*
X14576Y-28670D02*
X88270D01*
X13780Y-27874D02*
X14576Y-28670D01*
X88270D02*
X88500Y-28900D01*
X78390Y-58848D02*
X78400Y-58838D01*
X70394Y-58858D02*
X70404Y-58848D01*
X78390D01*
X116222Y-107018D02*
X117120Y-106120D01*
X116222Y-107018D02*
Y-107018D01*
X113270Y-109970D02*
X116222Y-107018D01*
X103584Y-113750D02*
X107364Y-109970D01*
X266900Y-89250D02*
Y-84095D01*
X270750Y-99400D02*
X279200D01*
X266900Y-95550D02*
X270750Y-99400D01*
X249825Y-8450D02*
X254400D01*
X249606Y-8669D02*
X249825Y-8450D01*
X254400Y-14750D02*
X254500Y-14850D01*
Y-19100D02*
Y-14850D01*
X283608Y-7291D02*
Y-2788D01*
X283656Y-2740D01*
X279200Y-2900D02*
X279277Y-2977D01*
Y-7291D02*
Y-2977D01*
X287938Y-7291D02*
Y-2977D01*
X259836Y-7291D02*
X260065Y-7521D01*
X261947D01*
X262210Y-7783D01*
X265261D01*
X260230Y-59900D02*
X300900D01*
X230800Y-41100D02*
X232677Y-42977D01*
Y-47589D02*
Y-42977D01*
X234646Y-43701D02*
X235831Y-42515D01*
X238250Y-41100D02*
X238531D01*
X236835Y-42515D02*
X238250Y-41100D01*
X235831Y-42515D02*
X236835D01*
X234646Y-47589D02*
Y-43701D01*
X237700Y-61417D02*
Y-58960D01*
X236614Y-57874D02*
X237700Y-58960D01*
X292198Y-94166D02*
Y-93503D01*
X292153Y-93458D02*
X292198Y-93503D01*
X292153Y-93458D02*
Y-84815D01*
X296250Y-80717D01*
X294942Y-95358D02*
Y-95027D01*
X299439Y-79099D02*
X299606Y-78882D01*
Y-74094D01*
X208337Y-96100D02*
X208661D01*
X212205Y-92439D02*
X217915D01*
X291869Y-104095D02*
X299606D01*
X288694Y-118458D02*
Y-114563D01*
X246457Y-54134D02*
Y-50197D01*
X239222Y-54134D02*
X246457D01*
X250768Y-56712D02*
Y-56387D01*
X249606Y-54134D02*
X250230Y-54757D01*
Y-55849D02*
Y-54757D01*
Y-55849D02*
X250768Y-56387D01*
X236614Y-57874D02*
Y-54774D01*
X257650Y-31800D02*
X257946Y-31504D01*
X264572D01*
X292269Y-7291D02*
Y-2614D01*
X292284Y-2600D01*
X296600Y-7291D02*
Y-2600D01*
X296500Y-2500D02*
X296600Y-2600D01*
X300900Y-2400D02*
X300930Y-2430D01*
Y-7291D02*
Y-2430D01*
X309828Y-8669D02*
Y-2362D01*
Y-9909D02*
Y-8669D01*
X286743Y-118769D02*
X290083Y-122109D01*
Y-138980D02*
Y-122109D01*
Y-138980D02*
X297225Y-146122D01*
Y-153682D02*
Y-146122D01*
Y-153682D02*
X301969Y-158425D01*
X288694Y-118458D02*
X292284Y-122047D01*
Y-138740D02*
Y-122047D01*
Y-138740D02*
X301969Y-148425D01*
X294863Y-131320D02*
X301969Y-138425D01*
X294863Y-131320D02*
Y-122047D01*
X290650Y-117834D02*
X294863Y-122047D01*
X293263Y-117751D02*
X299606Y-124094D01*
X195409Y-92439D02*
X205906D01*
X54731Y-14954D02*
X57723D01*
X60866Y-11811D01*
X51968Y-17717D02*
X54731Y-14954D01*
X80866Y-11811D02*
X89370D01*
X70394Y-145866D02*
X71378Y-146850D01*
X12205Y-158461D02*
Y-151575D01*
X21579Y-166535D02*
X22047Y-166067D01*
X12205Y-166535D02*
X21579D01*
X22047Y-166067D02*
Y-135508D01*
X21579Y-135039D02*
X22047Y-135508D01*
X12205Y-135039D02*
X21579D01*
X26303Y-145397D02*
Y-130039D01*
Y-145397D02*
X26772Y-145866D01*
X40630D01*
X26772Y-122561D02*
Y-115551D01*
Y-129571D02*
Y-122561D01*
X14449D02*
X26772D01*
X13980Y-122092D02*
X14449Y-122561D01*
X13980Y-122092D02*
Y-116142D01*
X12205Y-130039D02*
X26303D01*
X26772Y-129571D01*
X6496Y-103150D02*
X6693Y-103347D01*
Y-116142D02*
Y-103347D01*
X14961Y-78465D02*
X30315D01*
X31890Y-46729D02*
X32358Y-46260D01*
X30315Y-78465D02*
X31890Y-76890D01*
X32358Y-46260D02*
X40630D01*
X31890Y-76890D02*
Y-46729D01*
X217665Y-241580D02*
Y-237795D01*
Y-241580D02*
X223138Y-247053D01*
Y-255027D02*
Y-247053D01*
X227075Y-255027D02*
Y-246925D01*
X229043Y-246457D02*
Y-233964D01*
Y-255027D02*
Y-246457D01*
X227543D02*
X229043D01*
X227075Y-246925D02*
X227543Y-246457D01*
X228937Y-233858D02*
X229043Y-233964D01*
X218645Y-257874D02*
X220291D01*
X218327Y-257557D02*
X218645Y-257874D01*
X217990Y-257557D02*
X218327D01*
X208661Y-248228D02*
X217990Y-257557D01*
X211709Y-261811D02*
X220291D01*
X209055Y-259157D02*
X211709Y-261811D01*
X202756Y-263779D02*
Y-259157D01*
Y-263779D02*
X220291D01*
X210630Y-267323D02*
X211024Y-267717D01*
X223138Y-268057D02*
Y-266626D01*
X221360Y-269834D02*
X223138Y-268057D01*
X221360Y-270691D02*
Y-269834D01*
X219610Y-272441D02*
X221360Y-270691D01*
X214173Y-272441D02*
X219610D01*
X210236Y-268504D02*
X214173Y-272441D01*
D19*
X99545Y-163915D02*
D03*
Y-157615D02*
D03*
X115293D02*
D03*
Y-163915D02*
D03*
X107419Y-157615D02*
D03*
Y-163915D02*
D03*
X103437Y-266351D02*
D03*
Y-272650D02*
D03*
X88946Y-264325D02*
D03*
Y-258026D02*
D03*
X81537Y-264325D02*
D03*
Y-258026D02*
D03*
X73985Y-264325D02*
D03*
Y-258026D02*
D03*
X101900Y-120050D02*
D03*
Y-113750D02*
D03*
X254400Y-8450D02*
D03*
Y-14750D02*
D03*
X266900Y-95550D02*
D03*
Y-89250D02*
D03*
D20*
X271200Y-242200D02*
D03*
X171537Y-253050D02*
D03*
X201400Y-209407D02*
D03*
X86940Y-157615D02*
D03*
X169500Y-181400D02*
D03*
X161000D02*
D03*
X150724D02*
D03*
X62987Y-210229D02*
D03*
X215411Y-37300D02*
D03*
X309828Y-62500D02*
D03*
X189426Y-259842D02*
D03*
X188300Y-237517D02*
D03*
X227165Y-85319D02*
D03*
Y-93503D02*
D03*
X99168Y-84095D02*
D03*
X244201Y-276665D02*
D03*
X274946Y-69969D02*
D03*
X247600Y-62800D02*
D03*
X254400Y-93503D02*
D03*
X265261Y-69969D02*
D03*
D21*
X172885Y-240603D02*
D03*
X165404D02*
D03*
D22*
X97306Y-235550D02*
D03*
Y-241062D02*
D03*
X91192Y-235485D02*
D03*
Y-240997D02*
D03*
X131064Y-208838D02*
D03*
Y-214350D02*
D03*
X131349Y-230761D02*
D03*
Y-236273D02*
D03*
X125444Y-230761D02*
D03*
Y-236273D02*
D03*
X95637Y-262750D02*
D03*
Y-257238D02*
D03*
X211233Y-232005D02*
D03*
Y-237517D02*
D03*
X217665Y-237795D02*
D03*
Y-232283D02*
D03*
D23*
X57437Y-235150D02*
D03*
X80437D02*
D03*
D24*
X226865Y-141520D02*
D03*
X219779D02*
D03*
X226123Y-128134D02*
D03*
X219036D02*
D03*
X219779Y-153925D02*
D03*
X226865D02*
D03*
D25*
X161135Y-49394D02*
D03*
Y-58126D02*
D03*
X152544Y-49394D02*
D03*
Y-58126D02*
D03*
X160324Y-97646D02*
D03*
Y-108886D02*
D03*
X148812Y-97646D02*
D03*
Y-108886D02*
D03*
X70394Y-145866D02*
D03*
D26*
X138109Y-128787D02*
D03*
X180628D02*
D03*
X175904D02*
D03*
X171179D02*
D03*
X166455D02*
D03*
X161731D02*
D03*
X157006D02*
D03*
X152282D02*
D03*
X147557D02*
D03*
X142833D02*
D03*
X133384D02*
D03*
D27*
X183400Y-33350D02*
D03*
Y-38075D02*
D03*
Y-42799D02*
D03*
Y-47524D02*
D03*
Y-52248D02*
D03*
Y-56972D02*
D03*
Y-61697D02*
D03*
Y-66421D02*
D03*
Y-71146D02*
D03*
Y-75870D02*
D03*
Y-80594D02*
D03*
Y-85319D02*
D03*
Y-90043D02*
D03*
Y-94768D02*
D03*
Y-99492D02*
D03*
Y-104217D02*
D03*
Y-108941D02*
D03*
Y-113665D02*
D03*
Y-118390D02*
D03*
Y-123114D02*
D03*
X130644D02*
D03*
Y-118390D02*
D03*
Y-113665D02*
D03*
Y-108941D02*
D03*
Y-104217D02*
D03*
Y-99492D02*
D03*
Y-94768D02*
D03*
Y-90043D02*
D03*
Y-85319D02*
D03*
Y-80594D02*
D03*
Y-75870D02*
D03*
Y-71146D02*
D03*
Y-66421D02*
D03*
Y-61697D02*
D03*
Y-56972D02*
D03*
Y-52248D02*
D03*
Y-47524D02*
D03*
Y-42799D02*
D03*
Y-38075D02*
D03*
Y-33350D02*
D03*
D28*
X231020Y-61417D02*
D03*
Y-64567D02*
D03*
D29*
X232677Y-47589D02*
D03*
X234646D02*
D03*
X236614D02*
D03*
Y-54774D02*
D03*
X234646D02*
D03*
X232677D02*
D03*
D30*
X239222Y-48228D02*
D03*
Y-50197D02*
D03*
Y-52165D02*
D03*
Y-54134D02*
D03*
X230069D02*
D03*
Y-52165D02*
D03*
Y-50197D02*
D03*
Y-48228D02*
D03*
D31*
X113270Y-109970D02*
D03*
X107364D02*
D03*
D32*
X178081Y-144295D02*
D03*
X184380D02*
D03*
X170223D02*
D03*
X163924D02*
D03*
X205723Y-61417D02*
D03*
X199424D02*
D03*
Y-54847D02*
D03*
X205723D02*
D03*
X251350Y-31800D02*
D03*
X257650D02*
D03*
X98601Y-50900D02*
D03*
X104900D02*
D03*
X205723Y-67558D02*
D03*
X199424D02*
D03*
X212205Y-84095D02*
D03*
X205906D02*
D03*
X212750Y-92200D02*
D03*
X206450D02*
D03*
X202362Y-248228D02*
D03*
X208661D02*
D03*
X209055Y-259157D02*
D03*
X202756D02*
D03*
X210236Y-268504D02*
D03*
X203937D02*
D03*
D33*
X103268Y-175531D02*
D03*
Y-191869D02*
D03*
X111732D02*
D03*
Y-175531D02*
D03*
X97068Y-22731D02*
D03*
Y-39069D02*
D03*
X105532D02*
D03*
Y-22731D02*
D03*
D34*
X179356Y-156106D02*
D03*
X169514D02*
D03*
D35*
X114510Y-129571D02*
D03*
X107424D02*
D03*
X227559Y-277165D02*
D03*
X234646D02*
D03*
D36*
X118542Y-215925D02*
D03*
Y-208838D02*
D03*
X109364Y-215925D02*
D03*
Y-208838D02*
D03*
D37*
X137937Y-209407D02*
D03*
Y-212950D02*
D03*
X138436Y-235012D02*
D03*
Y-238555D02*
D03*
D38*
X148200Y-233480D02*
D03*
Y-229149D02*
D03*
D39*
X152594Y-240603D02*
D03*
X156530D02*
D03*
D40*
X147413Y-264593D02*
D03*
Y-258090D02*
D03*
X133921Y-264325D02*
D03*
Y-257823D02*
D03*
D41*
X117570Y-238241D02*
D03*
Y-240210D02*
D03*
Y-242178D02*
D03*
Y-244147D02*
D03*
Y-246115D02*
D03*
Y-248084D02*
D03*
Y-250052D02*
D03*
Y-252021D02*
D03*
X104578D02*
D03*
Y-250052D02*
D03*
Y-248084D02*
D03*
Y-246115D02*
D03*
Y-244147D02*
D03*
Y-242178D02*
D03*
Y-240210D02*
D03*
Y-238241D02*
D03*
D42*
X114027Y-236666D02*
D03*
Y-253596D02*
D03*
X108121D02*
D03*
Y-236666D02*
D03*
D43*
X251200Y-44529D02*
D03*
Y-39212D02*
D03*
D44*
X253900Y-255620D02*
D03*
Y-263100D02*
D03*
D45*
X243701Y-255906D02*
D03*
Y-262992D02*
D03*
X110236Y-68110D02*
D03*
Y-61024D02*
D03*
D46*
X243504Y-233858D02*
D03*
X228937D02*
D03*
D47*
X116800Y-47143D02*
D03*
Y-41400D02*
D03*
D48*
X201400Y-193532D02*
D03*
Y-201800D02*
D03*
D49*
X248988Y-182100D02*
D03*
X210012D02*
D03*
D50*
X236753Y-128134D02*
D03*
X245021D02*
D03*
X236753Y-141520D02*
D03*
X245021D02*
D03*
X237066Y-153925D02*
D03*
X245334D02*
D03*
X7283Y-100787D02*
D03*
X15551D02*
D03*
D51*
X249606Y-54134D02*
D03*
X246457D02*
D03*
D52*
X301855Y-49909D02*
D03*
X278352D02*
D03*
D53*
X264572Y-31504D02*
D03*
Y-46071D02*
D03*
D54*
X265261Y-7783D02*
D03*
D55*
X274946Y-7291D02*
D03*
X279277D02*
D03*
X283608D02*
D03*
X287938D02*
D03*
X292269D02*
D03*
X296600D02*
D03*
X300930D02*
D03*
D56*
X305064D02*
D03*
D57*
X309828Y-8669D02*
D03*
D58*
X30608Y-166535D02*
D03*
X37896D02*
D03*
X6693Y-116142D02*
D03*
X13980D02*
D03*
D59*
X12205Y-166535D02*
D03*
Y-158461D02*
D03*
D60*
X26772Y-107677D02*
D03*
Y-115551D02*
D03*
D61*
X231890Y-257874D02*
D03*
Y-259842D02*
D03*
Y-261811D02*
D03*
Y-263779D02*
D03*
X220291D02*
D03*
Y-261811D02*
D03*
Y-259842D02*
D03*
Y-257874D02*
D03*
D62*
X229043Y-266626D02*
D03*
X227075D02*
D03*
X225106D02*
D03*
X223138D02*
D03*
Y-255027D02*
D03*
X225106D02*
D03*
X227075D02*
D03*
D63*
X229043D02*
D03*
D86*
X201300Y-183300D02*
D03*
D87*
X198544Y-184186D02*
D03*
Y-182414D02*
D03*
D98*
X226090Y-260827D02*
D03*
D103*
X40630Y-71457D02*
D03*
Y-46260D02*
D03*
X70394Y-58858D02*
D03*
X40630Y-145866D02*
D03*
D108*
X166455Y-137531D02*
D03*
X162600Y-139534D02*
D03*
X89370Y-97163D02*
D03*
X167501Y-49394D02*
D03*
X122862Y-123114D02*
D03*
X119819Y-113665D02*
D03*
X120300Y-85319D02*
D03*
X121394Y-67558D02*
D03*
X190748Y-123114D02*
D03*
X167501Y-58073D02*
D03*
X119619Y-118530D02*
D03*
X206221Y-111800D02*
D03*
X121428Y-90043D02*
D03*
X92440Y-91041D02*
D03*
X123581Y-33350D02*
D03*
X120823Y-80594D02*
D03*
X122617Y-63700D02*
D03*
X152700Y-140527D02*
D03*
X141276Y-137880D02*
D03*
X190081Y-76418D02*
D03*
X146260Y-137880D02*
D03*
X190982Y-126184D02*
D03*
X150600Y-137700D02*
D03*
X122617Y-142727D02*
D03*
X190255Y-33350D02*
D03*
X239222Y-76000D02*
D03*
X245021Y-73261D02*
D03*
X129347Y-137880D02*
D03*
X192455Y-85319D02*
D03*
X211478Y-118110D02*
D03*
X142337Y-108817D02*
D03*
X166455Y-109091D02*
D03*
X192383Y-113750D02*
D03*
X190255Y-80594D02*
D03*
X142337Y-97646D02*
D03*
X166455D02*
D03*
X145400Y-58126D02*
D03*
Y-49394D02*
D03*
X17672Y-146850D02*
D03*
X189498Y-144295D02*
D03*
X102000Y-201800D02*
D03*
X180590Y-139534D02*
D03*
X159200Y-144295D02*
D03*
X125016Y-164380D02*
D03*
X115200Y-169600D02*
D03*
X120300Y-178700D02*
D03*
X122816Y-169380D02*
D03*
X126109Y-176900D02*
D03*
X107419Y-168639D02*
D03*
X116433Y-175531D02*
D03*
X153065Y-165243D02*
D03*
X136400Y-183600D02*
D03*
X175300Y-171200D02*
D03*
X153400Y-189100D02*
D03*
X141900Y-186100D02*
D03*
X146260Y-164380D02*
D03*
X150600Y-163915D02*
D03*
X131100Y-178700D02*
D03*
X115510Y-142408D02*
D03*
X146260Y-159380D02*
D03*
X107480Y-124016D02*
D03*
X133795Y-144695D02*
D03*
X146260Y-149380D02*
D03*
X116433Y-191869D02*
D03*
X96564Y-120250D02*
D03*
X178594Y-241003D02*
D03*
X168737Y-260655D02*
D03*
X111074Y-250151D02*
D03*
X114125Y-247198D02*
D03*
X111074D02*
D03*
X108023D02*
D03*
X114125Y-243064D02*
D03*
X111074D02*
D03*
X108023D02*
D03*
X111074Y-240111D02*
D03*
X279200Y-173000D02*
D03*
X257200Y-168300D02*
D03*
X250139Y-128134D02*
D03*
X251043Y-153925D02*
D03*
X251211Y-141520D02*
D03*
X230461Y-78882D02*
D03*
X256300Y-173300D02*
D03*
X189927Y-56712D02*
D03*
X193879Y-67558D02*
D03*
X234500Y-61417D02*
D03*
X235600Y-65017D02*
D03*
X217915Y-84095D02*
D03*
X194598Y-54847D02*
D03*
X259200Y-69969D02*
D03*
X227165Y-61417D02*
D03*
X219700Y-37300D02*
D03*
X222400Y-54134D02*
D03*
X259836Y-48384D02*
D03*
X259200Y-40100D02*
D03*
X27800Y-99000D02*
D03*
X220889Y-50197D02*
D03*
X243200Y-32800D02*
D03*
X251200Y-26500D02*
D03*
X253400Y-269834D02*
D03*
X85100Y-36300D02*
D03*
X67700Y-36000D02*
D03*
X62400Y-36200D02*
D03*
X28100Y-94600D02*
D03*
X83100Y-41100D02*
D03*
X110236Y-73541D02*
D03*
X111931Y-53385D02*
D03*
X96765Y-61024D02*
D03*
X91600Y-24600D02*
D03*
X96100Y-44900D02*
D03*
X85100Y-33000D02*
D03*
X197600Y-188000D02*
D03*
X259200Y-182000D02*
D03*
X210900Y-153925D02*
D03*
X206100Y-140700D02*
D03*
X201062Y-158400D02*
D03*
X200974Y-105590D02*
D03*
X198293Y-104780D02*
D03*
X196200Y-100380D02*
D03*
X206450Y-106278D02*
D03*
X210431Y-108478D02*
D03*
X216800Y-110200D02*
D03*
X222400Y-111800D02*
D03*
X231020Y-113600D02*
D03*
X238531Y-26650D02*
D03*
X228400Y-26800D02*
D03*
X31500Y-7900D02*
D03*
X31890Y-17717D02*
D03*
X88500Y-28900D02*
D03*
X78400Y-58838D02*
D03*
X266900Y-84095D02*
D03*
X249606Y-8669D02*
D03*
X254500Y-19100D02*
D03*
X256800Y-53700D02*
D03*
X288200Y-54800D02*
D03*
X283656Y-2740D02*
D03*
X279200Y-2900D02*
D03*
X287938Y-2977D02*
D03*
X259836Y-7291D02*
D03*
X279200Y-99400D02*
D03*
X300900Y-59900D02*
D03*
X292305Y-64567D02*
D03*
X283700Y-56600D02*
D03*
X230800Y-41100D02*
D03*
X238531D02*
D03*
X237700Y-61417D02*
D03*
X208661Y-96100D02*
D03*
X217915Y-92439D02*
D03*
X246457Y-50197D02*
D03*
X250768Y-56712D02*
D03*
X292284Y-2600D02*
D03*
X296500Y-2500D02*
D03*
X300900Y-2400D02*
D03*
X309828Y-2362D02*
D03*
X89370Y-11811D02*
D03*
X51968Y-17717D02*
D03*
X12205Y-151575D02*
D03*
D109*
X294942Y-95027D02*
D03*
D110*
X160630Y-307087D02*
D03*
X21260Y-216142D02*
D03*
X290551Y-225984D02*
D03*
X102800Y-11400D02*
D03*
D111*
X111074Y-245131D02*
D03*
D112*
X301969Y-138425D02*
D03*
X299606Y-74094D02*
D03*
X296000Y-174900D02*
D03*
X13780Y-7874D02*
D03*
D113*
X301969Y-148425D02*
D03*
Y-158425D02*
D03*
X299606Y-94095D02*
D03*
Y-84095D02*
D03*
Y-104095D02*
D03*
Y-114094D02*
D03*
Y-124094D02*
D03*
X296000Y-194900D02*
D03*
Y-184900D02*
D03*
X70866Y-11811D02*
D03*
X80866D02*
D03*
X211142Y-14750D02*
D03*
X221142D02*
D03*
X231142D02*
D03*
X13780Y-57874D02*
D03*
Y-47874D02*
D03*
Y-37874D02*
D03*
Y-17874D02*
D03*
Y-27874D02*
D03*
D114*
X133795Y-149380D02*
D03*
X138795D02*
D03*
Y-159380D02*
D03*
Y-154380D02*
D03*
X133795Y-159380D02*
D03*
Y-154380D02*
D03*
Y-164380D02*
D03*
Y-169380D02*
D03*
X138795Y-164380D02*
D03*
Y-169380D02*
D03*
D115*
X60866Y-11811D02*
D03*
X241142Y-14750D02*
D03*
D116*
X14961Y-85827D02*
D03*
D117*
Y-75827D02*
D03*
D118*
X12205Y-140039D02*
D03*
D119*
Y-135039D02*
D03*
Y-130039D02*
D03*
D120*
X147816Y-28091D02*
D03*
X111931Y-12342D02*
D03*
Y-22185D02*
D03*
X118288Y-28091D02*
D03*
X128131D02*
D03*
X137973D02*
D03*
X157658D02*
D03*
X111931Y-2500D02*
D03*
X167501Y-28091D02*
D03*
X177343D02*
D03*
X187186D02*
D03*
X197028D02*
D03*
X203400Y-22085D02*
D03*
Y-2400D02*
D03*
Y-12242D02*
D03*
D121*
X154648Y-273254D02*
D03*
X154476Y-269650D02*
D03*
X150546D02*
D03*
X142237D02*
D03*
X138936D02*
D03*
Y-272807D02*
D03*
X146913Y-273254D02*
D03*
X142237D02*
D03*
X135250D02*
D03*
Y-269650D02*
D03*
X146913D02*
D03*
X130956Y-273254D02*
D03*
Y-269650D02*
D03*
X150476Y-273254D02*
D03*
X119537Y-230261D02*
D03*
X115670D02*
D03*
X115813Y-226250D02*
D03*
X119537D02*
D03*
X111726D02*
D03*
X108121D02*
D03*
X108023Y-230261D02*
D03*
X111649D02*
D03*
X104578Y-226250D02*
D03*
Y-230261D02*
D03*
X127037Y-269650D02*
D03*
Y-273254D02*
D03*
X116637Y-258250D02*
D03*
Y-262150D02*
D03*
X112899Y-262307D02*
D03*
X112696Y-258323D02*
D03*
X108984Y-258526D02*
D03*
X108822Y-262250D02*
D03*
X97306Y-268866D02*
D03*
Y-272450D02*
D03*
X93592D02*
D03*
X93499Y-268796D02*
D03*
X89446Y-268966D02*
D03*
Y-272450D02*
D03*
X86177D02*
D03*
X85987Y-268966D02*
D03*
X82037Y-268866D02*
D03*
Y-272450D02*
D03*
X77955Y-268966D02*
D03*
Y-272450D02*
D03*
X73985Y-268966D02*
D03*
X73937Y-272450D02*
D03*
X97068Y-288000D02*
D03*
Y-283633D02*
D03*
Y-279700D02*
D03*
X93400Y-288000D02*
D03*
X93355Y-283633D02*
D03*
X93400Y-279700D02*
D03*
M02*
