G04*
G04 #@! TF.GenerationSoftware,Altium Limited,Altium Designer,21.1.1 (26)*
G04*
G04 Layer_Color=32896*
%FSLAX25Y25*%
%MOIN*%
G70*
G04*
G04 #@! TF.SameCoordinates,1EF24474-C81F-45A5-81BD-A50C78BF7B70*
G04*
G04*
G04 #@! TF.FilePolarity,Positive*
G04*
G01*
G75*
%ADD16C,0.00500*%
%ADD122R,0.88329X0.39000*%
G36*
X38732Y-31732D02*
X39315D01*
Y-31805D01*
X39753D01*
Y-31878D01*
X40117D01*
Y-31951D01*
X40409D01*
Y-32024D01*
X40700D01*
Y-32096D01*
X40919D01*
Y-32169D01*
X41138D01*
Y-32242D01*
X41356D01*
Y-32315D01*
X41575D01*
Y-32388D01*
X41794D01*
Y-32461D01*
X41939D01*
Y-32534D01*
X42158D01*
Y-32607D01*
X42304D01*
Y-32680D01*
X42450D01*
Y-32752D01*
X42596D01*
Y-32825D01*
X42741D01*
Y-32898D01*
X42887D01*
Y-32971D01*
X43033D01*
Y-33044D01*
X43179D01*
Y-33117D01*
X43252D01*
Y-33190D01*
X43398D01*
Y-33263D01*
X43543D01*
Y-33336D01*
X43616D01*
Y-33409D01*
X43762D01*
Y-33481D01*
X43835D01*
Y-33554D01*
X43981D01*
Y-33627D01*
X44054D01*
Y-33700D01*
X44199D01*
Y-33773D01*
X44272D01*
Y-33846D01*
X44345D01*
Y-33919D01*
X44491D01*
Y-33992D01*
X44564D01*
Y-34065D01*
X44637D01*
Y-34137D01*
X44710D01*
Y-34210D01*
X44855D01*
Y-34283D01*
X44928D01*
Y-34356D01*
X45001D01*
Y-34429D01*
X45074D01*
Y-34502D01*
X45147D01*
Y-34575D01*
X45220D01*
Y-34648D01*
X45366D01*
Y-34721D01*
X45439D01*
Y-34794D01*
X45511D01*
Y-34866D01*
X45584D01*
Y-34939D01*
X45657D01*
Y-35012D01*
X45730D01*
Y-35085D01*
X45803D01*
Y-35158D01*
X45876D01*
Y-35231D01*
X45949D01*
Y-35304D01*
Y-35377D01*
X46022D01*
Y-35450D01*
Y-35523D01*
X46095D01*
Y-35596D01*
Y-35668D01*
Y-35741D01*
Y-35814D01*
Y-35887D01*
X46022D01*
Y-35960D01*
Y-36033D01*
Y-36106D01*
X45949D01*
Y-36179D01*
X45876D01*
Y-36252D01*
X45803D01*
Y-36325D01*
X45584D01*
Y-36397D01*
X45293D01*
Y-36325D01*
X45074D01*
Y-36252D01*
X45001D01*
Y-36179D01*
X44928D01*
Y-36106D01*
X44855D01*
Y-36033D01*
X44783D01*
Y-35960D01*
X44710D01*
Y-35887D01*
X44637D01*
Y-35814D01*
X44564D01*
Y-35741D01*
X44491D01*
Y-35668D01*
X44418D01*
Y-35596D01*
X44345D01*
Y-35523D01*
X44272D01*
Y-35450D01*
X44126D01*
Y-35377D01*
X44054D01*
Y-35304D01*
X43981D01*
Y-35231D01*
X43908D01*
Y-35158D01*
X43835D01*
Y-35085D01*
X43689D01*
Y-35012D01*
X43616D01*
Y-34939D01*
X43543D01*
Y-34866D01*
X43398D01*
Y-34794D01*
X43325D01*
Y-34721D01*
X43179D01*
Y-34648D01*
X43106D01*
Y-34575D01*
X42960D01*
Y-34502D01*
X42887D01*
Y-34429D01*
X42741D01*
Y-34356D01*
X42596D01*
Y-34283D01*
X42523D01*
Y-34210D01*
X42377D01*
Y-34137D01*
X42231D01*
Y-34065D01*
X42085D01*
Y-33992D01*
X41939D01*
Y-33919D01*
X41794D01*
Y-33846D01*
X41648D01*
Y-33773D01*
X41429D01*
Y-33700D01*
X41283D01*
Y-33627D01*
X41065D01*
Y-33554D01*
X40919D01*
Y-33481D01*
X40700D01*
Y-33409D01*
X40409D01*
Y-33336D01*
X40190D01*
Y-33263D01*
X39898D01*
Y-33190D01*
X39534D01*
Y-33117D01*
X39096D01*
Y-33044D01*
X38513D01*
Y-32971D01*
X36691D01*
Y-33044D01*
X36108D01*
Y-33117D01*
X35670D01*
Y-33190D01*
X35306D01*
Y-33263D01*
X35014D01*
Y-33336D01*
X34795D01*
Y-33409D01*
X34504D01*
Y-33481D01*
X34285D01*
Y-33554D01*
X34066D01*
Y-33627D01*
X33921D01*
Y-33700D01*
X33702D01*
Y-33773D01*
X33556D01*
Y-33846D01*
X33410D01*
Y-33919D01*
X33265D01*
Y-33992D01*
X33119D01*
Y-34065D01*
X32973D01*
Y-34137D01*
X32827D01*
Y-34210D01*
X32681D01*
Y-34283D01*
X32536D01*
Y-34356D01*
X32463D01*
Y-34429D01*
X32317D01*
Y-34502D01*
X32244D01*
Y-34575D01*
X32098D01*
Y-34648D01*
X31952D01*
Y-34721D01*
X31879D01*
Y-34794D01*
X31807D01*
Y-34866D01*
X31661D01*
Y-34939D01*
X31588D01*
Y-35012D01*
X31515D01*
Y-35085D01*
X31369D01*
Y-35158D01*
X31296D01*
Y-35231D01*
X31223D01*
Y-35304D01*
X31150D01*
Y-35377D01*
X31005D01*
Y-35450D01*
X30932D01*
Y-35523D01*
X30859D01*
Y-35596D01*
X30786D01*
Y-35668D01*
X30713D01*
Y-35741D01*
X30640D01*
Y-35814D01*
X30567D01*
Y-35887D01*
X30494D01*
Y-35960D01*
X30422D01*
Y-36033D01*
X30349D01*
Y-36106D01*
X30276D01*
Y-36179D01*
X30203D01*
Y-36252D01*
X30130D01*
Y-36325D01*
X29911D01*
Y-36397D01*
X29620D01*
Y-36325D01*
X29401D01*
Y-36252D01*
X29328D01*
Y-36179D01*
X29255D01*
Y-36106D01*
X29182D01*
Y-36033D01*
Y-35960D01*
Y-35887D01*
X29109D01*
Y-35814D01*
Y-35741D01*
Y-35668D01*
Y-35596D01*
Y-35523D01*
X29182D01*
Y-35450D01*
Y-35377D01*
X29255D01*
Y-35304D01*
Y-35231D01*
X29328D01*
Y-35158D01*
X29401D01*
Y-35085D01*
X29474D01*
Y-35012D01*
X29547D01*
Y-34939D01*
X29620D01*
Y-34866D01*
X29693D01*
Y-34794D01*
X29765D01*
Y-34721D01*
X29838D01*
Y-34648D01*
X29984D01*
Y-34575D01*
X30057D01*
Y-34502D01*
X30130D01*
Y-34429D01*
X30203D01*
Y-34356D01*
X30276D01*
Y-34283D01*
X30349D01*
Y-34210D01*
X30494D01*
Y-34137D01*
X30567D01*
Y-34065D01*
X30640D01*
Y-33992D01*
X30713D01*
Y-33919D01*
X30859D01*
Y-33846D01*
X30932D01*
Y-33773D01*
X31005D01*
Y-33700D01*
X31150D01*
Y-33627D01*
X31223D01*
Y-33554D01*
X31369D01*
Y-33481D01*
X31442D01*
Y-33409D01*
X31588D01*
Y-33336D01*
X31661D01*
Y-33263D01*
X31807D01*
Y-33190D01*
X31952D01*
Y-33117D01*
X32025D01*
Y-33044D01*
X32171D01*
Y-32971D01*
X32317D01*
Y-32898D01*
X32463D01*
Y-32825D01*
X32609D01*
Y-32752D01*
X32754D01*
Y-32680D01*
X32900D01*
Y-32607D01*
X33046D01*
Y-32534D01*
X33265D01*
Y-32461D01*
X33410D01*
Y-32388D01*
X33629D01*
Y-32315D01*
X33848D01*
Y-32242D01*
X34066D01*
Y-32169D01*
X34285D01*
Y-32096D01*
X34504D01*
Y-32024D01*
X34795D01*
Y-31951D01*
X35087D01*
Y-31878D01*
X35451D01*
Y-31805D01*
X35889D01*
Y-31732D01*
X36472D01*
Y-31659D01*
X38732D01*
Y-31732D01*
D02*
G37*
G36*
X38659Y-35596D02*
X39096D01*
Y-35668D01*
X39461D01*
Y-35741D01*
X39753D01*
Y-35814D01*
X39971D01*
Y-35887D01*
X40190D01*
Y-35960D01*
X40409D01*
Y-36033D01*
X40554D01*
Y-36106D01*
X40773D01*
Y-36179D01*
X40919D01*
Y-36252D01*
X41065D01*
Y-36325D01*
X41210D01*
Y-36397D01*
X41356D01*
Y-36470D01*
X41502D01*
Y-36543D01*
X41648D01*
Y-36616D01*
X41794D01*
Y-36689D01*
X41867D01*
Y-36762D01*
X42012D01*
Y-36835D01*
X42085D01*
Y-36908D01*
X42231D01*
Y-36981D01*
X42304D01*
Y-37053D01*
X42377D01*
Y-37126D01*
X42523D01*
Y-37199D01*
X42596D01*
Y-37272D01*
X42669D01*
Y-37345D01*
X42814D01*
Y-37418D01*
X42887D01*
Y-37491D01*
X42960D01*
Y-37564D01*
X43033D01*
Y-37637D01*
X43106D01*
Y-37710D01*
X43179D01*
Y-37782D01*
X43252D01*
Y-37855D01*
X43325D01*
Y-37928D01*
X43470D01*
Y-38001D01*
X43543D01*
Y-38074D01*
Y-38147D01*
X43616D01*
Y-38220D01*
Y-38293D01*
X43689D01*
Y-38366D01*
Y-38438D01*
Y-38511D01*
Y-38584D01*
Y-38657D01*
X43616D01*
Y-38730D01*
Y-38803D01*
X43543D01*
Y-38876D01*
X43470D01*
Y-38949D01*
X43398D01*
Y-39022D01*
X43325D01*
Y-39095D01*
X43106D01*
Y-39167D01*
X42887D01*
Y-39095D01*
X42741D01*
Y-39022D01*
X42596D01*
Y-38949D01*
X42523D01*
Y-38876D01*
X42450D01*
Y-38803D01*
X42377D01*
Y-38730D01*
X42304D01*
Y-38657D01*
X42231D01*
Y-38584D01*
X42085D01*
Y-38511D01*
X42012D01*
Y-38438D01*
X41939D01*
Y-38366D01*
X41867D01*
Y-38293D01*
X41794D01*
Y-38220D01*
X41648D01*
Y-38147D01*
X41575D01*
Y-38074D01*
X41429D01*
Y-38001D01*
X41356D01*
Y-37928D01*
X41210D01*
Y-37855D01*
X41138D01*
Y-37782D01*
X40992D01*
Y-37710D01*
X40846D01*
Y-37637D01*
X40700D01*
Y-37564D01*
X40627D01*
Y-37491D01*
X40409D01*
Y-37418D01*
X40263D01*
Y-37345D01*
X40117D01*
Y-37272D01*
X39898D01*
Y-37199D01*
X39680D01*
Y-37126D01*
X39461D01*
Y-37053D01*
X39242D01*
Y-36981D01*
X38878D01*
Y-36908D01*
X38440D01*
Y-36835D01*
X36764D01*
Y-36908D01*
X36326D01*
Y-36981D01*
X35962D01*
Y-37053D01*
X35743D01*
Y-37126D01*
X35524D01*
Y-37199D01*
X35306D01*
Y-37272D01*
X35087D01*
Y-37345D01*
X34941D01*
Y-37418D01*
X34795D01*
Y-37491D01*
X34577D01*
Y-37564D01*
X34504D01*
Y-37637D01*
X34358D01*
Y-37710D01*
X34212D01*
Y-37782D01*
X34066D01*
Y-37855D01*
X33994D01*
Y-37928D01*
X33848D01*
Y-38001D01*
X33775D01*
Y-38074D01*
X33629D01*
Y-38147D01*
X33556D01*
Y-38220D01*
X33410D01*
Y-38293D01*
X33338D01*
Y-38366D01*
X33265D01*
Y-38438D01*
X33192D01*
Y-38511D01*
X33119D01*
Y-38584D01*
X32973D01*
Y-38657D01*
X32900D01*
Y-38730D01*
X32827D01*
Y-38803D01*
X32754D01*
Y-38876D01*
X32681D01*
Y-38949D01*
X32609D01*
Y-39022D01*
X32463D01*
Y-39095D01*
X32244D01*
Y-39167D01*
X32098D01*
Y-39095D01*
X31879D01*
Y-39022D01*
X31807D01*
Y-38949D01*
X31734D01*
Y-38876D01*
X31661D01*
Y-38803D01*
X31588D01*
Y-38730D01*
Y-38657D01*
X31515D01*
Y-38584D01*
Y-38511D01*
Y-38438D01*
Y-38366D01*
Y-38293D01*
X31588D01*
Y-38220D01*
Y-38147D01*
X31661D01*
Y-38074D01*
Y-38001D01*
X31734D01*
Y-37928D01*
X31879D01*
Y-37855D01*
X31952D01*
Y-37782D01*
X32025D01*
Y-37710D01*
X32098D01*
Y-37637D01*
X32171D01*
Y-37564D01*
X32244D01*
Y-37491D01*
X32317D01*
Y-37418D01*
X32390D01*
Y-37345D01*
X32463D01*
Y-37272D01*
X32609D01*
Y-37199D01*
X32681D01*
Y-37126D01*
X32827D01*
Y-37053D01*
X32900D01*
Y-36981D01*
X32973D01*
Y-36908D01*
X33119D01*
Y-36835D01*
X33192D01*
Y-36762D01*
X33338D01*
Y-36689D01*
X33483D01*
Y-36616D01*
X33556D01*
Y-36543D01*
X33702D01*
Y-36470D01*
X33848D01*
Y-36397D01*
X33994D01*
Y-36325D01*
X34139D01*
Y-36252D01*
X34285D01*
Y-36179D01*
X34431D01*
Y-36106D01*
X34650D01*
Y-36033D01*
X34795D01*
Y-35960D01*
X35014D01*
Y-35887D01*
X35233D01*
Y-35814D01*
X35451D01*
Y-35741D01*
X35743D01*
Y-35668D01*
X36108D01*
Y-35596D01*
X36545D01*
Y-35523D01*
X38659D01*
Y-35596D01*
D02*
G37*
G36*
X38222Y-39459D02*
X38586D01*
Y-39532D01*
X38805D01*
Y-39605D01*
X39024D01*
Y-39678D01*
X39242D01*
Y-39751D01*
X39388D01*
Y-39824D01*
X39534D01*
Y-39897D01*
X39680D01*
Y-39969D01*
X39825D01*
Y-40042D01*
X39971D01*
Y-40115D01*
X40044D01*
Y-40188D01*
X40190D01*
Y-40261D01*
X40263D01*
Y-40334D01*
X40409D01*
Y-40407D01*
X40481D01*
Y-40480D01*
X40554D01*
Y-40553D01*
X40627D01*
Y-40626D01*
X40700D01*
Y-40698D01*
X40773D01*
Y-40771D01*
X40846D01*
Y-40844D01*
X40919D01*
Y-40917D01*
X40992D01*
Y-40990D01*
Y-41063D01*
Y-41136D01*
Y-41209D01*
Y-41282D01*
Y-41355D01*
Y-41427D01*
Y-41500D01*
X40919D01*
Y-41573D01*
Y-41646D01*
X40846D01*
Y-41719D01*
X40773D01*
Y-41792D01*
X40627D01*
Y-41865D01*
X40117D01*
Y-41792D01*
X39971D01*
Y-41719D01*
X39898D01*
Y-41646D01*
X39825D01*
Y-41573D01*
X39680D01*
Y-41500D01*
X39607D01*
Y-41427D01*
X39534D01*
Y-41355D01*
X39461D01*
Y-41282D01*
X39315D01*
Y-41209D01*
X39169D01*
Y-41136D01*
X39096D01*
Y-41063D01*
X38951D01*
Y-40990D01*
X38732D01*
Y-40917D01*
X38586D01*
Y-40844D01*
X38368D01*
Y-40771D01*
X38003D01*
Y-40698D01*
X37128D01*
Y-40771D01*
X36764D01*
Y-40844D01*
X36545D01*
Y-40917D01*
X36399D01*
Y-40990D01*
X36180D01*
Y-41063D01*
X36035D01*
Y-41136D01*
X35962D01*
Y-41209D01*
X35816D01*
Y-41282D01*
X35743D01*
Y-41355D01*
X35597D01*
Y-41427D01*
X35524D01*
Y-41500D01*
X35451D01*
Y-41573D01*
X35379D01*
Y-41646D01*
X35306D01*
Y-41719D01*
X35160D01*
Y-41792D01*
X35014D01*
Y-41865D01*
X34504D01*
Y-41792D01*
X34358D01*
Y-41719D01*
X34285D01*
Y-41646D01*
X34212D01*
Y-41573D01*
Y-41500D01*
X34139D01*
Y-41427D01*
Y-41355D01*
Y-41282D01*
Y-41209D01*
Y-41136D01*
Y-41063D01*
Y-40990D01*
X34212D01*
Y-40917D01*
Y-40844D01*
X34285D01*
Y-40771D01*
X34358D01*
Y-40698D01*
X34431D01*
Y-40626D01*
X34504D01*
Y-40553D01*
X34577D01*
Y-40480D01*
X34650D01*
Y-40407D01*
X34795D01*
Y-40334D01*
X34868D01*
Y-40261D01*
X34941D01*
Y-40188D01*
X35087D01*
Y-40115D01*
X35160D01*
Y-40042D01*
X35306D01*
Y-39969D01*
X35451D01*
Y-39897D01*
X35597D01*
Y-39824D01*
X35743D01*
Y-39751D01*
X35889D01*
Y-39678D01*
X36108D01*
Y-39605D01*
X36326D01*
Y-39532D01*
X36545D01*
Y-39459D01*
X36909D01*
Y-39386D01*
X38222D01*
Y-39459D01*
D02*
G37*
G36*
X37711Y-43468D02*
X38003D01*
Y-43541D01*
X38149D01*
Y-43614D01*
X38222D01*
Y-43687D01*
X38295D01*
Y-43760D01*
X38368D01*
Y-43833D01*
X38440D01*
Y-43906D01*
X38513D01*
Y-43979D01*
Y-44052D01*
X38586D01*
Y-44125D01*
Y-44197D01*
X38659D01*
Y-44270D01*
Y-44343D01*
Y-44416D01*
Y-44489D01*
Y-44562D01*
Y-44635D01*
Y-44708D01*
Y-44781D01*
X38586D01*
Y-44854D01*
Y-44927D01*
Y-44999D01*
X38513D01*
Y-45072D01*
Y-45145D01*
X38440D01*
Y-45218D01*
X38368D01*
Y-45291D01*
X38295D01*
Y-45364D01*
X38222D01*
Y-45437D01*
X38076D01*
Y-45510D01*
X37930D01*
Y-45583D01*
X37201D01*
Y-45510D01*
X37055D01*
Y-45437D01*
X36909D01*
Y-45364D01*
X36837D01*
Y-45291D01*
X36764D01*
Y-45218D01*
X36691D01*
Y-45145D01*
X36618D01*
Y-45072D01*
Y-44999D01*
X36545D01*
Y-44927D01*
Y-44854D01*
Y-44781D01*
X36472D01*
Y-44708D01*
Y-44635D01*
Y-44562D01*
Y-44489D01*
Y-44416D01*
Y-44343D01*
Y-44270D01*
X36545D01*
Y-44197D01*
Y-44125D01*
Y-44052D01*
X36618D01*
Y-43979D01*
Y-43906D01*
X36691D01*
Y-43833D01*
X36764D01*
Y-43760D01*
X36837D01*
Y-43687D01*
X36909D01*
Y-43614D01*
X36982D01*
Y-43541D01*
X37128D01*
Y-43468D01*
X37420D01*
Y-43396D01*
X37711D01*
Y-43468D01*
D02*
G37*
G36*
X24298Y-38949D02*
X24954D01*
Y-39022D01*
X25464D01*
Y-39095D01*
X25829D01*
Y-39167D01*
X26048D01*
Y-39240D01*
X26339D01*
Y-39313D01*
X26631D01*
Y-39386D01*
X26849D01*
Y-39459D01*
X26995D01*
Y-39532D01*
X27214D01*
Y-39605D01*
X27433D01*
Y-39678D01*
X27578D01*
Y-39751D01*
X27724D01*
Y-39824D01*
X27870D01*
Y-39897D01*
X28016D01*
Y-39969D01*
X28162D01*
Y-40042D01*
X28380D01*
Y-40115D01*
X28453D01*
Y-40188D01*
X28599D01*
Y-40261D01*
X28745D01*
Y-40334D01*
X28818D01*
Y-40407D01*
X28964D01*
Y-40480D01*
X29109D01*
Y-40553D01*
X29182D01*
Y-40626D01*
X29328D01*
Y-40698D01*
X29401D01*
Y-40771D01*
X29474D01*
Y-40844D01*
X29620D01*
Y-40917D01*
X29693D01*
Y-40990D01*
X29765D01*
Y-41063D01*
X29911D01*
Y-41136D01*
X29984D01*
Y-41209D01*
X30057D01*
Y-41282D01*
X30130D01*
Y-41355D01*
X30203D01*
Y-41427D01*
X30276D01*
Y-41500D01*
X30349D01*
Y-41573D01*
X30494D01*
Y-41646D01*
X30567D01*
Y-41719D01*
X30640D01*
Y-41792D01*
X30713D01*
Y-41865D01*
X30786D01*
Y-41938D01*
X30859D01*
Y-42011D01*
X30932D01*
Y-42083D01*
X31005D01*
Y-42156D01*
Y-42229D01*
X31078D01*
Y-42302D01*
X31150D01*
Y-42375D01*
X31223D01*
Y-42448D01*
X31296D01*
Y-42521D01*
X31369D01*
Y-42594D01*
X31442D01*
Y-42667D01*
Y-42740D01*
X31515D01*
Y-42812D01*
X31588D01*
Y-42885D01*
X31661D01*
Y-42958D01*
Y-43031D01*
X31734D01*
Y-43104D01*
X31807D01*
Y-43177D01*
X31879D01*
Y-43250D01*
Y-43323D01*
X31952D01*
Y-43396D01*
X32025D01*
Y-43468D01*
Y-43541D01*
X32098D01*
Y-43614D01*
X32171D01*
Y-43687D01*
Y-43760D01*
X32244D01*
Y-43833D01*
Y-43906D01*
X32317D01*
Y-43979D01*
X32390D01*
Y-44052D01*
Y-44125D01*
X32463D01*
Y-44197D01*
Y-44270D01*
X32536D01*
Y-44343D01*
Y-44416D01*
X32609D01*
Y-44489D01*
Y-44562D01*
X32681D01*
Y-44635D01*
Y-44708D01*
X32754D01*
Y-44781D01*
Y-44854D01*
X32827D01*
Y-44927D01*
Y-44999D01*
X32900D01*
Y-45072D01*
Y-45145D01*
Y-45218D01*
X32973D01*
Y-45291D01*
Y-45364D01*
X33046D01*
Y-45437D01*
Y-45510D01*
Y-45583D01*
X33119D01*
Y-45656D01*
Y-45728D01*
Y-45801D01*
X33192D01*
Y-45874D01*
Y-45947D01*
Y-46020D01*
X33265D01*
Y-46093D01*
Y-46166D01*
Y-46239D01*
X33338D01*
Y-46312D01*
Y-46385D01*
Y-46457D01*
Y-46530D01*
X33410D01*
Y-46603D01*
Y-46676D01*
Y-46749D01*
Y-46822D01*
X33483D01*
Y-46895D01*
Y-46968D01*
Y-47041D01*
Y-47113D01*
Y-47186D01*
Y-47259D01*
X33556D01*
Y-47332D01*
Y-47405D01*
Y-47478D01*
Y-47551D01*
Y-47624D01*
Y-47697D01*
X33629D01*
Y-47770D01*
Y-47842D01*
Y-47915D01*
Y-47988D01*
Y-48061D01*
Y-48134D01*
Y-48207D01*
Y-48280D01*
Y-48353D01*
Y-48426D01*
Y-48499D01*
Y-48571D01*
Y-48644D01*
X33702D01*
Y-48717D01*
Y-48790D01*
Y-48863D01*
Y-48936D01*
Y-49009D01*
Y-49082D01*
Y-49155D01*
Y-49227D01*
Y-49300D01*
Y-49373D01*
Y-49446D01*
Y-49519D01*
Y-49592D01*
Y-49665D01*
Y-49738D01*
Y-49811D01*
Y-49884D01*
Y-49957D01*
Y-50029D01*
Y-50102D01*
Y-50175D01*
Y-50248D01*
Y-50321D01*
Y-50394D01*
Y-50467D01*
Y-50540D01*
Y-50613D01*
Y-50686D01*
Y-50758D01*
Y-50831D01*
Y-50904D01*
Y-50977D01*
Y-51050D01*
Y-51123D01*
Y-51196D01*
Y-51269D01*
Y-51342D01*
Y-51415D01*
Y-51487D01*
Y-51560D01*
Y-51633D01*
Y-51706D01*
Y-51779D01*
Y-51852D01*
Y-51925D01*
Y-51998D01*
Y-52071D01*
Y-52144D01*
Y-52216D01*
Y-52289D01*
Y-52362D01*
Y-52435D01*
Y-52508D01*
Y-52581D01*
Y-52654D01*
Y-52727D01*
Y-52800D01*
Y-52873D01*
Y-52945D01*
Y-53018D01*
Y-53091D01*
Y-53164D01*
Y-53237D01*
Y-53310D01*
Y-53383D01*
Y-53456D01*
Y-53528D01*
Y-53601D01*
Y-53674D01*
Y-53747D01*
Y-53820D01*
Y-53893D01*
Y-53966D01*
Y-54039D01*
Y-54112D01*
Y-54185D01*
Y-54258D01*
Y-54330D01*
Y-54403D01*
Y-54476D01*
Y-54549D01*
Y-54622D01*
Y-54695D01*
Y-54768D01*
Y-54841D01*
Y-54914D01*
Y-54987D01*
Y-55059D01*
Y-55132D01*
Y-55205D01*
Y-55278D01*
Y-55351D01*
Y-55424D01*
Y-55497D01*
Y-55570D01*
Y-55643D01*
Y-55716D01*
Y-55788D01*
Y-55861D01*
Y-55934D01*
Y-56007D01*
Y-56080D01*
Y-56153D01*
Y-56226D01*
Y-56299D01*
Y-56372D01*
Y-56445D01*
Y-56517D01*
Y-56590D01*
Y-56663D01*
Y-56736D01*
Y-56809D01*
Y-56882D01*
Y-56955D01*
Y-57028D01*
Y-57101D01*
Y-57174D01*
Y-57246D01*
Y-57319D01*
Y-57392D01*
Y-57465D01*
Y-57538D01*
Y-57611D01*
Y-57684D01*
Y-57757D01*
Y-57830D01*
Y-57902D01*
Y-57975D01*
Y-58048D01*
Y-58121D01*
Y-58194D01*
Y-58267D01*
Y-58340D01*
Y-58413D01*
Y-58486D01*
Y-58559D01*
Y-58631D01*
Y-58704D01*
Y-58777D01*
Y-58850D01*
Y-58923D01*
Y-58996D01*
Y-59069D01*
Y-59142D01*
Y-59215D01*
Y-59288D01*
Y-59360D01*
Y-59433D01*
Y-59506D01*
Y-59579D01*
Y-59652D01*
Y-59725D01*
Y-59798D01*
Y-59871D01*
Y-59944D01*
Y-60017D01*
Y-60089D01*
Y-60162D01*
Y-60235D01*
Y-60308D01*
Y-60381D01*
Y-60454D01*
Y-60527D01*
Y-60600D01*
Y-60673D01*
Y-60746D01*
Y-60818D01*
Y-60891D01*
Y-60964D01*
Y-61037D01*
Y-61110D01*
Y-61183D01*
Y-61256D01*
Y-61329D01*
Y-61402D01*
Y-61475D01*
Y-61547D01*
Y-61620D01*
Y-61693D01*
Y-61766D01*
Y-61839D01*
Y-61912D01*
Y-61985D01*
Y-62058D01*
Y-62131D01*
Y-62204D01*
Y-62276D01*
Y-62349D01*
Y-62422D01*
Y-62495D01*
Y-62568D01*
Y-62641D01*
Y-62714D01*
Y-62787D01*
Y-62860D01*
Y-62932D01*
Y-63005D01*
Y-63078D01*
Y-63151D01*
Y-63224D01*
Y-63297D01*
Y-63370D01*
Y-63443D01*
Y-63516D01*
Y-63589D01*
Y-63661D01*
Y-63734D01*
Y-63807D01*
Y-63880D01*
Y-63953D01*
Y-64026D01*
Y-64099D01*
Y-64172D01*
Y-64245D01*
Y-64318D01*
Y-64390D01*
Y-64463D01*
Y-64536D01*
Y-64609D01*
Y-64682D01*
Y-64755D01*
Y-64828D01*
Y-64901D01*
Y-64974D01*
Y-65047D01*
Y-65119D01*
Y-65192D01*
Y-65265D01*
Y-65338D01*
Y-65411D01*
Y-65484D01*
Y-65557D01*
Y-65630D01*
Y-65703D01*
Y-65776D01*
X35233D01*
Y-65848D01*
X35524D01*
Y-65921D01*
X35670D01*
Y-65994D01*
X35816D01*
Y-66067D01*
X35962D01*
Y-66140D01*
X36035D01*
Y-66213D01*
X36108D01*
Y-66286D01*
X36180D01*
Y-66359D01*
X36326D01*
Y-66432D01*
Y-66505D01*
X36399D01*
Y-66577D01*
X36472D01*
Y-66650D01*
X36545D01*
Y-66723D01*
Y-66796D01*
X36618D01*
Y-66869D01*
X36691D01*
Y-66942D01*
Y-67015D01*
X36764D01*
Y-67088D01*
Y-67161D01*
Y-67234D01*
X36837D01*
Y-67306D01*
Y-67379D01*
Y-67452D01*
Y-67525D01*
Y-67598D01*
X36909D01*
Y-67671D01*
Y-67744D01*
Y-67817D01*
Y-67890D01*
Y-67962D01*
Y-68035D01*
Y-68108D01*
Y-68181D01*
Y-68254D01*
Y-68327D01*
Y-68400D01*
Y-68473D01*
Y-68546D01*
Y-68619D01*
Y-68691D01*
Y-68764D01*
Y-68837D01*
Y-68910D01*
Y-68983D01*
Y-69056D01*
Y-69129D01*
Y-69202D01*
Y-69275D01*
Y-69348D01*
Y-69420D01*
Y-69493D01*
Y-69566D01*
Y-69639D01*
Y-69712D01*
Y-69785D01*
Y-69858D01*
Y-69931D01*
Y-70004D01*
Y-70077D01*
Y-70149D01*
Y-70222D01*
Y-70295D01*
Y-70368D01*
Y-70441D01*
Y-70514D01*
Y-70587D01*
Y-70660D01*
Y-70733D01*
Y-70806D01*
Y-70878D01*
Y-70951D01*
Y-71024D01*
Y-71097D01*
Y-71170D01*
Y-71243D01*
Y-71316D01*
Y-71389D01*
Y-71462D01*
Y-71535D01*
Y-71607D01*
Y-71680D01*
Y-71753D01*
Y-71826D01*
Y-71899D01*
Y-71972D01*
Y-72045D01*
Y-72118D01*
Y-72191D01*
Y-72263D01*
Y-72336D01*
Y-72409D01*
Y-72482D01*
Y-72555D01*
Y-72628D01*
Y-72701D01*
Y-72774D01*
Y-72847D01*
Y-72920D01*
Y-72992D01*
Y-73065D01*
Y-73138D01*
Y-73211D01*
Y-73284D01*
Y-73357D01*
Y-73430D01*
Y-73503D01*
Y-73576D01*
Y-73649D01*
Y-73721D01*
Y-73794D01*
Y-73867D01*
Y-73940D01*
Y-74013D01*
Y-74086D01*
Y-74159D01*
Y-74232D01*
Y-74305D01*
Y-74378D01*
X36837D01*
Y-74450D01*
Y-74523D01*
Y-74596D01*
Y-74669D01*
X36764D01*
Y-74742D01*
Y-74815D01*
Y-74888D01*
X36691D01*
Y-74961D01*
Y-75034D01*
X36618D01*
Y-75107D01*
Y-75179D01*
X36545D01*
Y-75252D01*
Y-75325D01*
X36472D01*
Y-75398D01*
X36399D01*
Y-75471D01*
X36326D01*
Y-75544D01*
X36253D01*
Y-75617D01*
X36180D01*
Y-75690D01*
X36108D01*
Y-75763D01*
X36035D01*
Y-75836D01*
X35889D01*
Y-75908D01*
X35743D01*
Y-75981D01*
X35597D01*
Y-76054D01*
X35379D01*
Y-76127D01*
X35160D01*
Y-76200D01*
X25392D01*
Y-76127D01*
X25027D01*
Y-76054D01*
X24881D01*
Y-75981D01*
X24735D01*
Y-75908D01*
X24590D01*
Y-75836D01*
X24517D01*
Y-75763D01*
X24371D01*
Y-75690D01*
X24298D01*
Y-75617D01*
X24225D01*
Y-75544D01*
X24152D01*
Y-75471D01*
X24079D01*
Y-75398D01*
X24006D01*
Y-75325D01*
X23934D01*
Y-75252D01*
X12124D01*
Y-75179D01*
X11760D01*
Y-75107D01*
X11541D01*
Y-75034D01*
X11395D01*
Y-74961D01*
X11249D01*
Y-74888D01*
X11176D01*
Y-74815D01*
X11030D01*
Y-74742D01*
X10958D01*
Y-74669D01*
X10885D01*
Y-74596D01*
X10812D01*
Y-74523D01*
X10739D01*
Y-74450D01*
X10666D01*
Y-74378D01*
Y-74305D01*
X10593D01*
Y-74232D01*
X10520D01*
Y-74159D01*
Y-74086D01*
X10447D01*
Y-74013D01*
Y-73940D01*
X10374D01*
Y-73867D01*
Y-73794D01*
Y-73721D01*
X10301D01*
Y-73649D01*
Y-73576D01*
Y-73503D01*
Y-73430D01*
X10229D01*
Y-73357D01*
Y-73284D01*
Y-73211D01*
Y-73138D01*
Y-73065D01*
Y-72992D01*
Y-72920D01*
Y-72847D01*
Y-72774D01*
Y-72701D01*
Y-72628D01*
Y-72555D01*
Y-72482D01*
Y-72409D01*
Y-72336D01*
Y-72263D01*
Y-72191D01*
Y-72118D01*
Y-72045D01*
Y-71972D01*
Y-71899D01*
Y-71826D01*
Y-71753D01*
Y-71680D01*
Y-71607D01*
Y-71535D01*
Y-71462D01*
Y-71389D01*
Y-71316D01*
Y-71243D01*
Y-71170D01*
Y-71097D01*
Y-71024D01*
Y-70951D01*
Y-70878D01*
Y-70806D01*
Y-70733D01*
Y-70660D01*
Y-70587D01*
Y-70514D01*
Y-70441D01*
Y-70368D01*
Y-70295D01*
Y-70222D01*
Y-70149D01*
Y-70077D01*
Y-70004D01*
Y-69931D01*
Y-69858D01*
Y-69785D01*
Y-69712D01*
Y-69639D01*
Y-69566D01*
Y-69493D01*
Y-69420D01*
Y-69348D01*
Y-69275D01*
Y-69202D01*
Y-69129D01*
Y-69056D01*
Y-68983D01*
Y-68910D01*
Y-68837D01*
Y-68764D01*
Y-68691D01*
Y-68619D01*
Y-68546D01*
X10301D01*
Y-68473D01*
Y-68400D01*
Y-68327D01*
Y-68254D01*
X10374D01*
Y-68181D01*
Y-68108D01*
Y-68035D01*
X10447D01*
Y-67962D01*
Y-67890D01*
X10520D01*
Y-67817D01*
Y-67744D01*
X10593D01*
Y-67671D01*
Y-67598D01*
X10666D01*
Y-67525D01*
X10739D01*
Y-67452D01*
X10812D01*
Y-67379D01*
X10885D01*
Y-67306D01*
X10958D01*
Y-67234D01*
X11030D01*
Y-67161D01*
X11103D01*
Y-67088D01*
X11249D01*
Y-67015D01*
X11322D01*
Y-66942D01*
X11468D01*
Y-66869D01*
X11687D01*
Y-66796D01*
X11905D01*
Y-66723D01*
X13436D01*
Y-66650D01*
Y-66577D01*
Y-66505D01*
Y-66432D01*
Y-66359D01*
Y-66286D01*
Y-66213D01*
Y-66140D01*
Y-66067D01*
Y-65994D01*
Y-65921D01*
Y-65848D01*
Y-65776D01*
Y-65703D01*
Y-65630D01*
Y-65557D01*
Y-65484D01*
Y-65411D01*
Y-65338D01*
Y-65265D01*
Y-65192D01*
Y-65119D01*
Y-65047D01*
Y-64974D01*
Y-64901D01*
Y-64828D01*
Y-64755D01*
Y-64682D01*
Y-64609D01*
Y-64536D01*
Y-64463D01*
Y-64390D01*
Y-64318D01*
Y-64245D01*
Y-64172D01*
Y-64099D01*
Y-64026D01*
Y-63953D01*
Y-63880D01*
Y-63807D01*
Y-63734D01*
Y-63661D01*
Y-63589D01*
Y-63516D01*
Y-63443D01*
Y-63370D01*
Y-63297D01*
Y-63224D01*
Y-63151D01*
Y-63078D01*
Y-63005D01*
Y-62932D01*
Y-62860D01*
Y-62787D01*
Y-62714D01*
Y-62641D01*
Y-62568D01*
Y-62495D01*
Y-62422D01*
Y-62349D01*
Y-62276D01*
Y-62204D01*
Y-62131D01*
Y-62058D01*
Y-61985D01*
Y-61912D01*
Y-61839D01*
Y-61766D01*
Y-61693D01*
Y-61620D01*
Y-61547D01*
Y-61475D01*
Y-61402D01*
Y-61329D01*
Y-61256D01*
Y-61183D01*
Y-61110D01*
Y-61037D01*
Y-60964D01*
Y-60891D01*
Y-60818D01*
Y-60746D01*
Y-60673D01*
Y-60600D01*
Y-60527D01*
Y-60454D01*
Y-60381D01*
Y-60308D01*
Y-60235D01*
Y-60162D01*
Y-60089D01*
Y-60017D01*
Y-59944D01*
Y-59871D01*
Y-59798D01*
Y-59725D01*
Y-59652D01*
Y-59579D01*
Y-59506D01*
Y-59433D01*
Y-59360D01*
Y-59288D01*
Y-59215D01*
Y-59142D01*
Y-59069D01*
Y-58996D01*
Y-58923D01*
Y-58850D01*
Y-58777D01*
Y-58704D01*
Y-58631D01*
Y-58559D01*
Y-58486D01*
Y-58413D01*
Y-58340D01*
Y-58267D01*
Y-58194D01*
Y-58121D01*
Y-58048D01*
Y-57975D01*
Y-57902D01*
Y-57830D01*
Y-57757D01*
Y-57684D01*
Y-57611D01*
Y-57538D01*
Y-57465D01*
Y-57392D01*
Y-57319D01*
Y-57246D01*
Y-57174D01*
Y-57101D01*
Y-57028D01*
Y-56955D01*
Y-56882D01*
Y-56809D01*
Y-56736D01*
Y-56663D01*
Y-56590D01*
Y-56517D01*
Y-56445D01*
Y-56372D01*
Y-56299D01*
Y-56226D01*
Y-56153D01*
Y-56080D01*
Y-56007D01*
Y-55934D01*
Y-55861D01*
Y-55788D01*
Y-55716D01*
Y-55643D01*
Y-55570D01*
Y-55497D01*
Y-55424D01*
Y-55351D01*
Y-55278D01*
Y-55205D01*
Y-55132D01*
Y-55059D01*
Y-54987D01*
Y-54914D01*
Y-54841D01*
Y-54768D01*
Y-54695D01*
Y-54622D01*
Y-54549D01*
Y-54476D01*
Y-54403D01*
Y-54330D01*
Y-54258D01*
Y-54185D01*
Y-54112D01*
Y-54039D01*
Y-53966D01*
Y-53893D01*
Y-53820D01*
Y-53747D01*
Y-53674D01*
Y-53601D01*
Y-53528D01*
Y-53456D01*
Y-53383D01*
Y-53310D01*
Y-53237D01*
Y-53164D01*
Y-53091D01*
Y-53018D01*
Y-52945D01*
Y-52873D01*
Y-52800D01*
Y-52727D01*
Y-52654D01*
Y-52581D01*
Y-52508D01*
Y-52435D01*
Y-52362D01*
Y-52289D01*
Y-52216D01*
Y-52144D01*
Y-52071D01*
Y-51998D01*
Y-51925D01*
Y-51852D01*
Y-51779D01*
Y-51706D01*
Y-51633D01*
Y-51560D01*
Y-51487D01*
Y-51415D01*
Y-51342D01*
Y-51269D01*
Y-51196D01*
Y-51123D01*
Y-51050D01*
Y-50977D01*
Y-50904D01*
Y-50831D01*
Y-50758D01*
Y-50686D01*
Y-50613D01*
Y-50540D01*
Y-50467D01*
Y-50394D01*
Y-50321D01*
Y-50248D01*
Y-50175D01*
Y-50102D01*
Y-50029D01*
Y-49957D01*
Y-49884D01*
Y-49811D01*
Y-49738D01*
Y-49665D01*
Y-49592D01*
Y-49519D01*
Y-49446D01*
Y-49373D01*
Y-49300D01*
Y-49227D01*
Y-49155D01*
Y-49082D01*
Y-49009D01*
Y-48936D01*
Y-48863D01*
Y-48790D01*
Y-48717D01*
Y-48644D01*
Y-48571D01*
X13509D01*
Y-48499D01*
Y-48426D01*
Y-48353D01*
Y-48280D01*
Y-48207D01*
Y-48134D01*
Y-48061D01*
Y-47988D01*
Y-47915D01*
Y-47842D01*
Y-47770D01*
Y-47697D01*
X13582D01*
Y-47624D01*
Y-47551D01*
Y-47478D01*
Y-47405D01*
Y-47332D01*
Y-47259D01*
Y-47186D01*
X13655D01*
Y-47113D01*
Y-47041D01*
Y-46968D01*
Y-46895D01*
Y-46822D01*
X13728D01*
Y-46749D01*
Y-46676D01*
Y-46603D01*
Y-46530D01*
X13801D01*
Y-46457D01*
Y-46385D01*
Y-46312D01*
Y-46239D01*
X13874D01*
Y-46166D01*
Y-46093D01*
Y-46020D01*
X13946D01*
Y-45947D01*
Y-45874D01*
Y-45801D01*
X14019D01*
Y-45728D01*
Y-45656D01*
Y-45583D01*
X14092D01*
Y-45510D01*
Y-45437D01*
Y-45364D01*
X14165D01*
Y-45291D01*
Y-45218D01*
X14238D01*
Y-45145D01*
Y-45072D01*
Y-44999D01*
X14311D01*
Y-44927D01*
Y-44854D01*
X14384D01*
Y-44781D01*
Y-44708D01*
X14457D01*
Y-44635D01*
Y-44562D01*
X14530D01*
Y-44489D01*
Y-44416D01*
X14603D01*
Y-44343D01*
Y-44270D01*
X14675D01*
Y-44197D01*
Y-44125D01*
X14748D01*
Y-44052D01*
Y-43979D01*
X14821D01*
Y-43906D01*
X14894D01*
Y-43833D01*
Y-43760D01*
X14967D01*
Y-43687D01*
Y-43614D01*
X15040D01*
Y-43541D01*
X15113D01*
Y-43468D01*
Y-43396D01*
X15186D01*
Y-43323D01*
X15259D01*
Y-43250D01*
Y-43177D01*
X15331D01*
Y-43104D01*
X15404D01*
Y-43031D01*
X15477D01*
Y-42958D01*
Y-42885D01*
X15550D01*
Y-42812D01*
X15623D01*
Y-42740D01*
Y-42667D01*
X15696D01*
Y-42594D01*
X15769D01*
Y-42521D01*
X15842D01*
Y-42448D01*
X15915D01*
Y-42375D01*
X15988D01*
Y-42302D01*
X16060D01*
Y-42229D01*
X16133D01*
Y-42156D01*
Y-42083D01*
X16206D01*
Y-42011D01*
X16279D01*
Y-41938D01*
X16352D01*
Y-41865D01*
X16425D01*
Y-41792D01*
X16498D01*
Y-41719D01*
X16571D01*
Y-41646D01*
X16644D01*
Y-41573D01*
X16790D01*
Y-41500D01*
X16862D01*
Y-41427D01*
X16935D01*
Y-41355D01*
X17008D01*
Y-41282D01*
X17081D01*
Y-41209D01*
X17154D01*
Y-41136D01*
X17227D01*
Y-41063D01*
X17373D01*
Y-40990D01*
X17446D01*
Y-40917D01*
X17518D01*
Y-40844D01*
X17664D01*
Y-40771D01*
X17737D01*
Y-40698D01*
X17810D01*
Y-40626D01*
X17956D01*
Y-40553D01*
X18029D01*
Y-40480D01*
X18175D01*
Y-40407D01*
X18320D01*
Y-40334D01*
X18393D01*
Y-40261D01*
X18539D01*
Y-40188D01*
X18685D01*
Y-40115D01*
X18758D01*
Y-40042D01*
X18976D01*
Y-39969D01*
X19122D01*
Y-39897D01*
X19268D01*
Y-39824D01*
X19414D01*
Y-39751D01*
X19560D01*
Y-39678D01*
X19705D01*
Y-39605D01*
X19924D01*
Y-39532D01*
X20143D01*
Y-39459D01*
X20289D01*
Y-39386D01*
X20507D01*
Y-39313D01*
X20799D01*
Y-39240D01*
X21091D01*
Y-39167D01*
X21309D01*
Y-39095D01*
X21674D01*
Y-39022D01*
X22184D01*
Y-38949D01*
X22840D01*
Y-38876D01*
X24298D01*
Y-38949D01*
D02*
G37*
%LPC*%
G36*
X24371Y-42083D02*
X22767D01*
Y-42156D01*
X22330D01*
Y-42229D01*
X21965D01*
Y-42302D01*
X21674D01*
Y-42375D01*
X21455D01*
Y-42448D01*
X21236D01*
Y-42521D01*
X21018D01*
Y-42594D01*
X20872D01*
Y-42667D01*
X20726D01*
Y-42740D01*
X20580D01*
Y-42812D01*
X20434D01*
Y-42885D01*
X20289D01*
Y-42958D01*
X20143D01*
Y-43031D01*
X19997D01*
Y-43104D01*
X19924D01*
Y-43177D01*
X19778D01*
Y-43250D01*
X19633D01*
Y-43323D01*
X19560D01*
Y-43396D01*
X19487D01*
Y-43468D01*
X19341D01*
Y-43541D01*
X19268D01*
Y-43614D01*
X19195D01*
Y-43687D01*
X19122D01*
Y-43760D01*
X19049D01*
Y-43833D01*
X18904D01*
Y-43906D01*
X18831D01*
Y-43979D01*
X18758D01*
Y-44052D01*
X18685D01*
Y-44125D01*
X18612D01*
Y-44197D01*
X18539D01*
Y-44270D01*
X18466D01*
Y-44343D01*
Y-44416D01*
X18393D01*
Y-44489D01*
X18320D01*
Y-44562D01*
X18248D01*
Y-44635D01*
X18175D01*
Y-44708D01*
X18102D01*
Y-44781D01*
Y-44854D01*
X18029D01*
Y-44927D01*
X17956D01*
Y-44999D01*
X17883D01*
Y-45072D01*
Y-45145D01*
X17810D01*
Y-45218D01*
X17737D01*
Y-45291D01*
Y-45364D01*
X17664D01*
Y-45437D01*
X17591D01*
Y-45510D01*
Y-45583D01*
X17518D01*
Y-45656D01*
Y-45728D01*
X17446D01*
Y-45801D01*
Y-45874D01*
X17373D01*
Y-45947D01*
Y-46020D01*
X17300D01*
Y-46093D01*
Y-46166D01*
X17227D01*
Y-46239D01*
Y-46312D01*
X17154D01*
Y-46385D01*
Y-46457D01*
Y-46530D01*
X17081D01*
Y-46603D01*
Y-46676D01*
Y-46749D01*
X17008D01*
Y-46822D01*
Y-46895D01*
X16935D01*
Y-46968D01*
Y-47041D01*
Y-47113D01*
Y-47186D01*
X16862D01*
Y-47259D01*
Y-47332D01*
Y-47405D01*
Y-47478D01*
X16790D01*
Y-47551D01*
Y-47624D01*
Y-47697D01*
Y-47770D01*
Y-47842D01*
X16717D01*
Y-47915D01*
Y-47988D01*
Y-48061D01*
Y-48134D01*
Y-48207D01*
Y-48280D01*
Y-48353D01*
Y-48426D01*
X16644D01*
Y-48499D01*
Y-48571D01*
Y-48644D01*
Y-48717D01*
Y-48790D01*
Y-48863D01*
Y-48936D01*
Y-49009D01*
Y-49082D01*
Y-49155D01*
Y-49227D01*
Y-49300D01*
Y-49373D01*
Y-49446D01*
Y-49519D01*
Y-49592D01*
Y-49665D01*
Y-49738D01*
Y-49811D01*
Y-49884D01*
Y-49957D01*
Y-50029D01*
Y-50102D01*
Y-50175D01*
Y-50248D01*
Y-50321D01*
Y-50394D01*
Y-50467D01*
Y-50540D01*
Y-50613D01*
Y-50686D01*
Y-50758D01*
Y-50831D01*
Y-50904D01*
Y-50977D01*
Y-51050D01*
Y-51123D01*
Y-51196D01*
Y-51269D01*
Y-51342D01*
Y-51415D01*
Y-51487D01*
Y-51560D01*
Y-51633D01*
Y-51706D01*
Y-51779D01*
Y-51852D01*
Y-51925D01*
Y-51998D01*
Y-52071D01*
Y-52144D01*
Y-52216D01*
Y-52289D01*
Y-52362D01*
Y-52435D01*
Y-52508D01*
Y-52581D01*
Y-52654D01*
Y-52727D01*
Y-52800D01*
Y-52873D01*
Y-52945D01*
Y-53018D01*
Y-53091D01*
Y-53164D01*
Y-53237D01*
Y-53310D01*
Y-53383D01*
Y-53456D01*
Y-53528D01*
Y-53601D01*
Y-53674D01*
Y-53747D01*
Y-53820D01*
Y-53893D01*
Y-53966D01*
Y-54039D01*
Y-54112D01*
Y-54185D01*
Y-54258D01*
Y-54330D01*
Y-54403D01*
Y-54476D01*
Y-54549D01*
Y-54622D01*
Y-54695D01*
Y-54768D01*
Y-54841D01*
Y-54914D01*
Y-54987D01*
Y-55059D01*
Y-55132D01*
Y-55205D01*
Y-55278D01*
Y-55351D01*
Y-55424D01*
Y-55497D01*
Y-55570D01*
Y-55643D01*
Y-55716D01*
Y-55788D01*
Y-55861D01*
Y-55934D01*
Y-56007D01*
Y-56080D01*
Y-56153D01*
Y-56226D01*
Y-56299D01*
Y-56372D01*
Y-56445D01*
Y-56517D01*
Y-56590D01*
Y-56663D01*
Y-56736D01*
Y-56809D01*
Y-56882D01*
Y-56955D01*
Y-57028D01*
Y-57101D01*
Y-57174D01*
Y-57246D01*
Y-57319D01*
Y-57392D01*
Y-57465D01*
Y-57538D01*
Y-57611D01*
Y-57684D01*
Y-57757D01*
Y-57830D01*
Y-57902D01*
Y-57975D01*
Y-58048D01*
Y-58121D01*
Y-58194D01*
Y-58267D01*
Y-58340D01*
Y-58413D01*
Y-58486D01*
Y-58559D01*
Y-58631D01*
Y-58704D01*
Y-58777D01*
Y-58850D01*
Y-58923D01*
Y-58996D01*
Y-59069D01*
Y-59142D01*
Y-59215D01*
Y-59288D01*
Y-59360D01*
Y-59433D01*
Y-59506D01*
Y-59579D01*
Y-59652D01*
Y-59725D01*
Y-59798D01*
Y-59871D01*
Y-59944D01*
Y-60017D01*
Y-60089D01*
Y-60162D01*
Y-60235D01*
Y-60308D01*
Y-60381D01*
Y-60454D01*
Y-60527D01*
Y-60600D01*
Y-60673D01*
Y-60746D01*
Y-60818D01*
Y-60891D01*
Y-60964D01*
Y-61037D01*
Y-61110D01*
Y-61183D01*
Y-61256D01*
Y-61329D01*
Y-61402D01*
Y-61475D01*
Y-61547D01*
Y-61620D01*
Y-61693D01*
Y-61766D01*
Y-61839D01*
Y-61912D01*
Y-61985D01*
Y-62058D01*
Y-62131D01*
Y-62204D01*
Y-62276D01*
Y-62349D01*
Y-62422D01*
Y-62495D01*
Y-62568D01*
Y-62641D01*
Y-62714D01*
Y-62787D01*
Y-62860D01*
Y-62932D01*
Y-63005D01*
Y-63078D01*
Y-63151D01*
Y-63224D01*
Y-63297D01*
Y-63370D01*
Y-63443D01*
Y-63516D01*
Y-63589D01*
Y-63661D01*
Y-63734D01*
Y-63807D01*
Y-63880D01*
Y-63953D01*
Y-64026D01*
Y-64099D01*
Y-64172D01*
Y-64245D01*
Y-64318D01*
Y-64390D01*
Y-64463D01*
Y-64536D01*
Y-64609D01*
Y-64682D01*
Y-64755D01*
Y-64828D01*
Y-64901D01*
Y-64974D01*
Y-65047D01*
Y-65119D01*
Y-65192D01*
Y-65265D01*
Y-65338D01*
Y-65411D01*
Y-65484D01*
Y-65557D01*
Y-65630D01*
Y-65703D01*
Y-65776D01*
Y-65848D01*
Y-65921D01*
Y-65994D01*
Y-66067D01*
Y-66140D01*
Y-66213D01*
Y-66286D01*
Y-66359D01*
Y-66432D01*
Y-66505D01*
Y-66577D01*
Y-66650D01*
Y-66723D01*
X23934D01*
Y-66650D01*
X24006D01*
Y-66577D01*
X24079D01*
Y-66505D01*
X24152D01*
Y-66432D01*
X24225D01*
Y-66359D01*
Y-66286D01*
X24371D01*
Y-66213D01*
X24444D01*
Y-66140D01*
X24517D01*
Y-66067D01*
X24663D01*
Y-65994D01*
X24808D01*
Y-65921D01*
X25027D01*
Y-65848D01*
X25173D01*
Y-65776D01*
X30494D01*
Y-65703D01*
Y-65630D01*
Y-65557D01*
Y-65484D01*
Y-65411D01*
Y-65338D01*
Y-65265D01*
Y-65192D01*
Y-65119D01*
Y-65047D01*
Y-64974D01*
Y-64901D01*
Y-64828D01*
Y-64755D01*
Y-64682D01*
Y-64609D01*
Y-64536D01*
Y-64463D01*
Y-64390D01*
Y-64318D01*
Y-64245D01*
Y-64172D01*
Y-64099D01*
Y-64026D01*
Y-63953D01*
Y-63880D01*
Y-63807D01*
Y-63734D01*
Y-63661D01*
Y-63589D01*
Y-63516D01*
Y-63443D01*
Y-63370D01*
Y-63297D01*
Y-63224D01*
Y-63151D01*
Y-63078D01*
Y-63005D01*
Y-62932D01*
Y-62860D01*
Y-62787D01*
Y-62714D01*
Y-62641D01*
Y-62568D01*
Y-62495D01*
Y-62422D01*
Y-62349D01*
Y-62276D01*
Y-62204D01*
Y-62131D01*
Y-62058D01*
Y-61985D01*
Y-61912D01*
Y-61839D01*
Y-61766D01*
Y-61693D01*
Y-61620D01*
Y-61547D01*
Y-61475D01*
Y-61402D01*
Y-61329D01*
Y-61256D01*
Y-61183D01*
Y-61110D01*
Y-61037D01*
Y-60964D01*
Y-60891D01*
Y-60818D01*
Y-60746D01*
Y-60673D01*
Y-60600D01*
Y-60527D01*
Y-60454D01*
Y-60381D01*
Y-60308D01*
Y-60235D01*
Y-60162D01*
Y-60089D01*
Y-60017D01*
Y-59944D01*
Y-59871D01*
Y-59798D01*
Y-59725D01*
Y-59652D01*
Y-59579D01*
Y-59506D01*
Y-59433D01*
Y-59360D01*
Y-59288D01*
Y-59215D01*
Y-59142D01*
Y-59069D01*
Y-58996D01*
Y-58923D01*
Y-58850D01*
Y-58777D01*
Y-58704D01*
Y-58631D01*
Y-58559D01*
Y-58486D01*
Y-58413D01*
Y-58340D01*
Y-58267D01*
Y-58194D01*
Y-58121D01*
Y-58048D01*
Y-57975D01*
Y-57902D01*
Y-57830D01*
Y-57757D01*
Y-57684D01*
Y-57611D01*
Y-57538D01*
Y-57465D01*
Y-57392D01*
Y-57319D01*
Y-57246D01*
Y-57174D01*
Y-57101D01*
Y-57028D01*
Y-56955D01*
Y-56882D01*
Y-56809D01*
Y-56736D01*
Y-56663D01*
Y-56590D01*
Y-56517D01*
Y-56445D01*
Y-56372D01*
Y-56299D01*
Y-56226D01*
Y-56153D01*
Y-56080D01*
Y-56007D01*
Y-55934D01*
Y-55861D01*
Y-55788D01*
Y-55716D01*
Y-55643D01*
Y-55570D01*
Y-55497D01*
Y-55424D01*
Y-55351D01*
Y-55278D01*
Y-55205D01*
Y-55132D01*
Y-55059D01*
Y-54987D01*
Y-54914D01*
Y-54841D01*
Y-54768D01*
Y-54695D01*
Y-54622D01*
Y-54549D01*
Y-54476D01*
Y-54403D01*
Y-54330D01*
Y-54258D01*
Y-54185D01*
Y-54112D01*
Y-54039D01*
Y-53966D01*
Y-53893D01*
Y-53820D01*
Y-53747D01*
Y-53674D01*
Y-53601D01*
Y-53528D01*
Y-53456D01*
Y-53383D01*
Y-53310D01*
Y-53237D01*
Y-53164D01*
Y-53091D01*
Y-53018D01*
Y-52945D01*
Y-52873D01*
Y-52800D01*
Y-52727D01*
Y-52654D01*
Y-52581D01*
Y-52508D01*
Y-52435D01*
Y-52362D01*
Y-52289D01*
Y-52216D01*
Y-52144D01*
Y-52071D01*
Y-51998D01*
Y-51925D01*
Y-51852D01*
Y-51779D01*
Y-51706D01*
Y-51633D01*
Y-51560D01*
Y-51487D01*
Y-51415D01*
Y-51342D01*
Y-51269D01*
Y-51196D01*
Y-51123D01*
Y-51050D01*
Y-50977D01*
Y-50904D01*
Y-50831D01*
Y-50758D01*
Y-50686D01*
Y-50613D01*
Y-50540D01*
Y-50467D01*
Y-50394D01*
Y-50321D01*
Y-50248D01*
Y-50175D01*
Y-50102D01*
Y-50029D01*
Y-49957D01*
Y-49884D01*
Y-49811D01*
Y-49738D01*
Y-49665D01*
Y-49592D01*
Y-49519D01*
Y-49446D01*
Y-49373D01*
Y-49300D01*
Y-49227D01*
Y-49155D01*
Y-49082D01*
Y-49009D01*
Y-48936D01*
Y-48863D01*
Y-48790D01*
Y-48717D01*
Y-48644D01*
Y-48571D01*
Y-48499D01*
Y-48426D01*
X30422D01*
Y-48353D01*
Y-48280D01*
Y-48207D01*
Y-48134D01*
Y-48061D01*
Y-47988D01*
Y-47915D01*
Y-47842D01*
X30349D01*
Y-47770D01*
Y-47697D01*
Y-47624D01*
Y-47551D01*
Y-47478D01*
X30276D01*
Y-47405D01*
Y-47332D01*
Y-47259D01*
Y-47186D01*
X30203D01*
Y-47113D01*
Y-47041D01*
Y-46968D01*
Y-46895D01*
X30130D01*
Y-46822D01*
Y-46749D01*
X30057D01*
Y-46676D01*
Y-46603D01*
Y-46530D01*
X29984D01*
Y-46457D01*
Y-46385D01*
Y-46312D01*
X29911D01*
Y-46239D01*
Y-46166D01*
X29838D01*
Y-46093D01*
Y-46020D01*
X29765D01*
Y-45947D01*
Y-45874D01*
X29693D01*
Y-45801D01*
Y-45728D01*
X29620D01*
Y-45656D01*
Y-45583D01*
X29547D01*
Y-45510D01*
Y-45437D01*
X29474D01*
Y-45364D01*
X29401D01*
Y-45291D01*
Y-45218D01*
X29328D01*
Y-45145D01*
X29255D01*
Y-45072D01*
Y-44999D01*
X29182D01*
Y-44927D01*
X29109D01*
Y-44854D01*
X29036D01*
Y-44781D01*
Y-44708D01*
X28964D01*
Y-44635D01*
X28891D01*
Y-44562D01*
X28818D01*
Y-44489D01*
X28745D01*
Y-44416D01*
X28672D01*
Y-44343D01*
Y-44270D01*
X28599D01*
Y-44197D01*
X28526D01*
Y-44125D01*
X28453D01*
Y-44052D01*
X28380D01*
Y-43979D01*
X28308D01*
Y-43906D01*
X28235D01*
Y-43833D01*
X28089D01*
Y-43760D01*
X28016D01*
Y-43687D01*
X27943D01*
Y-43614D01*
X27870D01*
Y-43541D01*
X27797D01*
Y-43468D01*
X27651D01*
Y-43396D01*
X27578D01*
Y-43323D01*
X27506D01*
Y-43250D01*
X27360D01*
Y-43177D01*
X27214D01*
Y-43104D01*
X27141D01*
Y-43031D01*
X26995D01*
Y-42958D01*
X26849D01*
Y-42885D01*
X26704D01*
Y-42812D01*
X26558D01*
Y-42740D01*
X26412D01*
Y-42667D01*
X26266D01*
Y-42594D01*
X26120D01*
Y-42521D01*
X25902D01*
Y-42448D01*
X25683D01*
Y-42375D01*
X25464D01*
Y-42302D01*
X25173D01*
Y-42229D01*
X24808D01*
Y-42156D01*
X24371D01*
Y-42083D01*
D02*
G37*
%LPD*%
D16*
X46595Y-46140D02*
X48594D01*
X47594D01*
Y-49139D01*
X51093D02*
X50094D01*
X49594Y-48639D01*
Y-47639D01*
X50094Y-47139D01*
X51093D01*
X51593Y-47639D01*
Y-48139D01*
X49594D01*
X53093Y-47139D02*
X54092D01*
X54592Y-47639D01*
Y-49139D01*
X53093D01*
X52593Y-48639D01*
X53093Y-48139D01*
X54592D01*
X55592Y-49139D02*
Y-47139D01*
X56092D01*
X56591Y-47639D01*
Y-49139D01*
Y-47639D01*
X57091Y-47139D01*
X57591Y-47639D01*
Y-49139D01*
X58591Y-47139D02*
X59091D01*
Y-47639D01*
X58591D01*
Y-47139D01*
Y-48639D02*
X59091D01*
Y-49139D01*
X58591D01*
Y-48639D01*
X64089Y-46140D02*
Y-49139D01*
Y-48139D01*
X66088Y-46140D01*
X64589Y-47639D01*
X66088Y-49139D01*
X68588Y-46140D02*
X67588D01*
X67088Y-46640D01*
Y-48639D01*
X67588Y-49139D01*
X68588D01*
X69087Y-48639D01*
Y-46640D01*
X68588Y-46140D01*
X70087D02*
X71087D01*
X70587D01*
Y-49139D01*
X70087D01*
X71087D01*
X72586D02*
Y-46140D01*
X74586Y-49139D01*
Y-46140D01*
X48594Y-51438D02*
X48094Y-50939D01*
X47095D01*
X46595Y-51438D01*
Y-51938D01*
X47095Y-52438D01*
X48094D01*
X48594Y-52938D01*
Y-53438D01*
X48094Y-53938D01*
X47095D01*
X46595Y-53438D01*
X49594Y-50939D02*
Y-53938D01*
Y-52438D01*
X50094Y-51938D01*
X51093D01*
X51593Y-52438D01*
Y-53938D01*
X52593D02*
X53592D01*
X53093D01*
Y-51938D01*
X52593D01*
X55092D02*
X56092Y-53938D01*
X57091Y-51938D01*
X58591D02*
X59591D01*
X60090Y-52438D01*
Y-53938D01*
X58591D01*
X58091Y-53438D01*
X58591Y-52938D01*
X60090D01*
X61090Y-53938D02*
Y-51938D01*
X61590D01*
X62090Y-52438D01*
Y-53938D01*
Y-52438D01*
X62590Y-51938D01*
X63089Y-52438D01*
Y-53938D01*
X67088Y-50939D02*
Y-53938D01*
X68588D01*
X69087Y-53438D01*
Y-51438D01*
X68588Y-50939D01*
X67088D01*
X71587Y-53938D02*
X70587D01*
X70087Y-53438D01*
Y-52438D01*
X70587Y-51938D01*
X71587D01*
X72087Y-52438D01*
Y-52938D01*
X70087D01*
X73086Y-50939D02*
Y-53938D01*
Y-52438D01*
X73586Y-51938D01*
X74586D01*
X75086Y-52438D01*
Y-53938D01*
X76085D02*
X77085D01*
X76585D01*
Y-51938D01*
X76085D01*
X78584Y-53938D02*
Y-51938D01*
X80084D01*
X80584Y-52438D01*
Y-53938D01*
X81583Y-51938D02*
Y-53438D01*
X82083Y-53938D01*
X82583Y-53438D01*
X83083Y-53938D01*
X83583Y-53438D01*
Y-51938D01*
X85082D02*
X86082D01*
X86582Y-52438D01*
Y-53938D01*
X85082D01*
X84582Y-53438D01*
X85082Y-52938D01*
X86582D01*
X87581Y-53938D02*
X88581D01*
X88081D01*
Y-50939D01*
X87581D01*
X48594Y-55738D02*
X47594D01*
X48094D01*
Y-58237D01*
X47594Y-58736D01*
X47095D01*
X46595Y-58237D01*
X49594Y-56737D02*
Y-58237D01*
X50094Y-58736D01*
X51593D01*
Y-56737D01*
X52593Y-58736D02*
Y-56737D01*
X54092D01*
X54592Y-57237D01*
Y-58736D01*
X58591Y-55738D02*
Y-58736D01*
X60090D01*
X60590Y-58237D01*
Y-57737D01*
X60090Y-57237D01*
X58591D01*
X60090D01*
X60590Y-56737D01*
Y-56237D01*
X60090Y-55738D01*
X58591D01*
X63089Y-58736D02*
X62090D01*
X61590Y-58237D01*
Y-57237D01*
X62090Y-56737D01*
X63089D01*
X63589Y-57237D01*
Y-57737D01*
X61590D01*
X65089Y-58736D02*
X66088D01*
X66588Y-58237D01*
Y-57237D01*
X66088Y-56737D01*
X65089D01*
X64589Y-57237D01*
Y-58237D01*
X65089Y-58736D01*
X67588D02*
Y-56737D01*
X68088D01*
X68588Y-57237D01*
Y-58736D01*
Y-57237D01*
X69087Y-56737D01*
X69587Y-57237D01*
Y-58736D01*
X73586D02*
Y-55738D01*
X75086D01*
X75585Y-56237D01*
Y-57237D01*
X75086Y-57737D01*
X73586D01*
X76585Y-56737D02*
Y-58237D01*
X77085Y-58736D01*
X78584D01*
Y-59236D01*
X78084Y-59736D01*
X77585D01*
X78584Y-58736D02*
Y-56737D01*
X80084Y-58736D02*
X81084D01*
X81583Y-58237D01*
Y-57237D01*
X81084Y-56737D01*
X80084D01*
X79584Y-57237D01*
Y-58237D01*
X80084Y-58736D01*
X46595Y-69334D02*
Y-67335D01*
X47594Y-66335D01*
X48594Y-67335D01*
Y-69334D01*
Y-67834D01*
X46595D01*
X49594Y-69334D02*
Y-67335D01*
X51093D01*
X51593Y-67834D01*
Y-69334D01*
X53093Y-66835D02*
Y-67335D01*
X52593D01*
X53592D01*
X53093D01*
Y-68834D01*
X53592Y-69334D01*
X55092D02*
X56092D01*
X55592D01*
Y-67335D01*
X55092D01*
X57591Y-67834D02*
X59591D01*
X61090Y-66835D02*
Y-67335D01*
X60590D01*
X61590D01*
X61090D01*
Y-68834D01*
X61590Y-69334D01*
X63089Y-66335D02*
Y-69334D01*
Y-67834D01*
X63589Y-67335D01*
X64589D01*
X65089Y-67834D01*
Y-69334D01*
X67588D02*
X66588D01*
X66088Y-68834D01*
Y-67834D01*
X66588Y-67335D01*
X67588D01*
X68088Y-67834D01*
Y-68334D01*
X66088D01*
X69587Y-69334D02*
Y-66835D01*
Y-67834D01*
X69087D01*
X70087D01*
X69587D01*
Y-66835D01*
X70087Y-66335D01*
X72087Y-66835D02*
Y-67335D01*
X71587D01*
X72586D01*
X72087D01*
Y-68834D01*
X72586Y-69334D01*
X77085Y-66335D02*
Y-69334D01*
X78584D01*
X79084Y-68834D01*
Y-68334D01*
Y-67834D01*
X78584Y-67335D01*
X77085D01*
X80084Y-69334D02*
X81084D01*
X80584D01*
Y-67335D01*
X80084D01*
X82583Y-69334D02*
Y-66335D01*
Y-68334D02*
X84083Y-67335D01*
X82583Y-68334D02*
X84083Y-69334D01*
X87082D02*
X86082D01*
X85582Y-68834D01*
Y-67834D01*
X86082Y-67335D01*
X87082D01*
X87581Y-67834D01*
Y-68334D01*
X85582D01*
X91580Y-69334D02*
X92580D01*
X92080D01*
Y-66335D01*
X91580D01*
X94579Y-69334D02*
X95579D01*
X96079Y-68834D01*
Y-67834D01*
X95579Y-67335D01*
X94579D01*
X94079Y-67834D01*
Y-68834D01*
X94579Y-69334D01*
X99078Y-67335D02*
X97578D01*
X97078Y-67834D01*
Y-68834D01*
X97578Y-69334D01*
X99078D01*
X100077D02*
Y-66335D01*
Y-68334D02*
X101577Y-67335D01*
X100077Y-68334D02*
X101577Y-69334D01*
X46595Y-74133D02*
Y-71134D01*
X48094D01*
X48594Y-71633D01*
Y-72633D01*
X48094Y-73133D01*
X46595D01*
X47594D02*
X48594Y-74133D01*
X51593Y-71134D02*
X49594D01*
Y-74133D01*
X51593D01*
X49594Y-72633D02*
X50593D01*
X52593Y-71134D02*
Y-73133D01*
X53592Y-74133D01*
X54592Y-73133D01*
Y-71134D01*
X55592Y-74133D02*
Y-73633D01*
X56092D01*
Y-74133D01*
X55592D01*
X61090D02*
X62090D01*
X61590D01*
Y-71134D01*
X61090Y-71633D01*
X63589Y-74133D02*
Y-73633D01*
X64089D01*
Y-74133D01*
X63589D01*
X66088Y-71633D02*
X66588Y-71134D01*
X67588D01*
X68088Y-71633D01*
Y-73633D01*
X67588Y-74133D01*
X66588D01*
X66088Y-73633D01*
Y-71633D01*
X69087Y-74133D02*
Y-73633D01*
X69587D01*
Y-74133D01*
X69087D01*
X71587Y-71633D02*
X72087Y-71134D01*
X73086D01*
X73586Y-71633D01*
Y-73633D01*
X73086Y-74133D01*
X72087D01*
X71587Y-73633D01*
Y-71633D01*
X13400Y-94500D02*
Y-92501D01*
X14400Y-91501D01*
X15399Y-92501D01*
Y-94500D01*
Y-93001D01*
X13400D01*
X16399Y-94500D02*
X17899D01*
X18398Y-94001D01*
X17899Y-93501D01*
X16899D01*
X16399Y-93001D01*
X16899Y-92501D01*
X18398D01*
X19398Y-94500D02*
X20898D01*
X21397Y-94001D01*
X20898Y-93501D01*
X19898D01*
X19398Y-93001D01*
X19898Y-92501D01*
X21397D01*
X23897Y-94500D02*
X22897D01*
X22397Y-94001D01*
Y-93001D01*
X22897Y-92501D01*
X23897D01*
X24396Y-93001D01*
Y-93501D01*
X22397D01*
X25396Y-94500D02*
Y-92501D01*
X25896D01*
X26396Y-93001D01*
Y-94500D01*
Y-93001D01*
X26896Y-92501D01*
X27395Y-93001D01*
Y-94500D01*
X28395Y-91501D02*
Y-94500D01*
X29895D01*
X30395Y-94001D01*
Y-93501D01*
Y-93001D01*
X29895Y-92501D01*
X28395D01*
X31394Y-94500D02*
X32394D01*
X31894D01*
Y-91501D01*
X31394D01*
X33893Y-92501D02*
Y-94001D01*
X34393Y-94500D01*
X35893D01*
Y-95000D01*
X35393Y-95500D01*
X34893D01*
X35893Y-94500D02*
Y-92501D01*
X39891Y-94500D02*
Y-91501D01*
X41391D01*
X41891Y-92001D01*
Y-93001D01*
X41391Y-93501D01*
X39891D01*
X40891D02*
X41891Y-94500D01*
X44890Y-91501D02*
X42891D01*
Y-94500D01*
X44890D01*
X42891Y-93001D02*
X43890D01*
X45889Y-91501D02*
Y-93501D01*
X46889Y-94500D01*
X47889Y-93501D01*
Y-91501D01*
X48888Y-94500D02*
Y-94001D01*
X49388D01*
Y-94500D01*
X48888D01*
D122*
X56665Y-116700D02*
D03*
M02*
