G04*
G04 #@! TF.GenerationSoftware,Altium Limited,Altium Designer,21.1.1 (26)*
G04*
G04 Layer_Color=8421504*
%FSLAX25Y25*%
%MOIN*%
G70*
G04*
G04 #@! TF.SameCoordinates,C68D4824-2329-4DC3-A8B2-0020690D2EBA*
G04*
G04*
G04 #@! TF.FilePolarity,Positive*
G04*
G01*
G75*
%ADD17R,0.04183X0.04183*%
%ADD18R,0.04331X0.04331*%
%ADD19R,0.03937X0.03543*%
%ADD20R,0.04331X0.04331*%
%ADD21R,0.02953X0.02362*%
%ADD22R,0.05906X0.06693*%
%ADD23R,0.04724X0.04724*%
%ADD24C,0.05000*%
%ADD25R,0.04724X0.02756*%
%ADD26R,0.02756X0.04724*%
%ADD27R,0.07874X0.07874*%
%ADD28R,0.04606X0.07087*%
%ADD29R,0.02953X0.04331*%
%ADD30R,0.03347X0.04331*%
%ADD31R,0.06102X0.05315*%
%ADD32R,0.04724X0.03937*%
%ADD33R,0.07480X0.05315*%
%ADD34R,0.04134X0.05512*%
%ADD35R,0.03543X0.02756*%
%ADD36R,0.09500X0.13500*%
%ADD37R,0.02047X0.02047*%
%ADD38R,0.01378X0.02264*%
%ADD39R,0.02264X0.01378*%
%ADD40R,0.03150X0.03150*%
%ADD41R,0.03543X0.03937*%
%ADD42R,0.02559X0.04134*%
%ADD43R,0.04331X0.07480*%
%ADD44R,0.04528X0.05709*%
%ADD45R,0.02441X0.02441*%
%ADD46R,0.02953X0.02559*%
%ADD47R,0.02165X0.02559*%
%ADD48R,0.05733X0.04940*%
G04:AMPARAMS|DCode=49|XSize=23.62mil|YSize=9.45mil|CornerRadius=1.98mil|HoleSize=0mil|Usage=FLASHONLY|Rotation=0.000|XOffset=0mil|YOffset=0mil|HoleType=Round|Shape=RoundedRectangle|*
%AMROUNDEDRECTD49*
21,1,0.02362,0.00548,0,0,0.0*
21,1,0.01965,0.00945,0,0,0.0*
1,1,0.00397,0.00983,-0.00274*
1,1,0.00397,-0.00983,-0.00274*
1,1,0.00397,-0.00983,0.00274*
1,1,0.00397,0.00983,0.00274*
%
%ADD49ROUNDEDRECTD49*%
G04:AMPARAMS|DCode=50|XSize=9.45mil|YSize=23.62mil|CornerRadius=1.98mil|HoleSize=0mil|Usage=FLASHONLY|Rotation=0.000|XOffset=0mil|YOffset=0mil|HoleType=Round|Shape=RoundedRectangle|*
%AMROUNDEDRECTD50*
21,1,0.00945,0.01965,0,0,0.0*
21,1,0.00548,0.02362,0,0,0.0*
1,1,0.00397,0.00274,-0.00983*
1,1,0.00397,-0.00274,-0.00983*
1,1,0.00397,-0.00274,0.00983*
1,1,0.00397,0.00274,0.00983*
%
%ADD50ROUNDEDRECTD50*%
%ADD51R,0.05512X0.04134*%
%ADD52R,0.05709X0.04528*%
%ADD53R,0.05906X0.09449*%
%ADD54R,0.02047X0.02047*%
%ADD55R,0.01968X0.03150*%
G04:AMPARAMS|DCode=56|XSize=9.42mil|YSize=38.03mil|CornerRadius=4.71mil|HoleSize=0mil|Usage=FLASHONLY|Rotation=270.000|XOffset=0mil|YOffset=0mil|HoleType=Round|Shape=RoundedRectangle|*
%AMROUNDEDRECTD56*
21,1,0.00942,0.02861,0,0,270.0*
21,1,0.00000,0.03803,0,0,270.0*
1,1,0.00942,-0.01431,0.00000*
1,1,0.00942,-0.01431,0.00000*
1,1,0.00942,0.01431,0.00000*
1,1,0.00942,0.01431,0.00000*
%
%ADD56ROUNDEDRECTD56*%
G04:AMPARAMS|DCode=57|XSize=38.03mil|YSize=9.42mil|CornerRadius=4.71mil|HoleSize=0mil|Usage=FLASHONLY|Rotation=270.000|XOffset=0mil|YOffset=0mil|HoleType=Round|Shape=RoundedRectangle|*
%AMROUNDEDRECTD57*
21,1,0.03803,0.00000,0,0,270.0*
21,1,0.02861,0.00942,0,0,270.0*
1,1,0.00942,0.00000,-0.01431*
1,1,0.00942,0.00000,0.01431*
1,1,0.00942,0.00000,0.01431*
1,1,0.00942,0.00000,-0.01431*
%
%ADD57ROUNDEDRECTD57*%
%ADD58R,0.00942X0.03803*%
G36*
X111960Y-235485D02*
X112353D01*
X112353Y-235485D01*
X112392Y-235485D01*
X112465Y-235515D01*
X112520Y-235571D01*
X112550Y-235643D01*
Y-235682D01*
Y-238340D01*
X112550D01*
X112550Y-238379D01*
X112520Y-238451D01*
X112465Y-238507D01*
X112392Y-238537D01*
X112353D01*
X109794Y-238537D01*
X109794D01*
X109755Y-238537D01*
X109683Y-238507D01*
X109627Y-238451D01*
X109598Y-238379D01*
Y-238340D01*
X109598Y-235682D01*
X109598Y-235643D01*
X109627Y-235571D01*
X109683Y-235515D01*
X109755Y-235485D01*
X109794D01*
X110188Y-235485D01*
X110188Y-235485D01*
X110227D01*
X110300Y-235515D01*
X110355Y-235571D01*
X110385Y-235643D01*
Y-235682D01*
X110385Y-237552D01*
X111763D01*
X111763Y-235682D01*
Y-235682D01*
X111763Y-235643D01*
X111793Y-235571D01*
X111848Y-235515D01*
X111920Y-235485D01*
X111960Y-235485D01*
D02*
G37*
G36*
X115004Y-239354D02*
X115060Y-239409D01*
X115090Y-239482D01*
Y-239521D01*
Y-242474D01*
Y-242513D01*
X115060Y-242585D01*
X115004Y-242640D01*
X114932Y-242670D01*
X111625D01*
X111553Y-242640D01*
X111497Y-242585D01*
X111468Y-242513D01*
Y-242474D01*
Y-239521D01*
Y-239482D01*
X111497Y-239409D01*
X111553Y-239354D01*
X111625Y-239324D01*
X114932D01*
X115004Y-239354D01*
D02*
G37*
G36*
X110595D02*
X110650Y-239409D01*
X110680Y-239482D01*
Y-239521D01*
Y-242474D01*
Y-242513D01*
X110650Y-242585D01*
X110595Y-242640D01*
X110522Y-242670D01*
X107216D01*
X107143Y-242640D01*
X107088Y-242585D01*
X107058Y-242513D01*
Y-242474D01*
Y-239521D01*
Y-239482D01*
X107088Y-239409D01*
X107143Y-239354D01*
X107216Y-239324D01*
X110522D01*
X110595Y-239354D01*
D02*
G37*
G36*
X115004Y-243488D02*
X115060Y-243543D01*
X115090Y-243616D01*
Y-243655D01*
Y-246607D01*
Y-246647D01*
X115060Y-246719D01*
X115004Y-246774D01*
X114932Y-246804D01*
X111625D01*
X111553Y-246774D01*
X111497Y-246719D01*
X111468Y-246647D01*
Y-246607D01*
Y-243655D01*
Y-243616D01*
X111497Y-243543D01*
X111553Y-243488D01*
X111625Y-243458D01*
X114932D01*
X115004Y-243488D01*
D02*
G37*
G36*
X110595D02*
X110650Y-243543D01*
X110680Y-243616D01*
Y-243655D01*
Y-246607D01*
Y-246647D01*
X110650Y-246719D01*
X110595Y-246774D01*
X110522Y-246804D01*
X107216D01*
X107143Y-246774D01*
X107088Y-246719D01*
X107058Y-246647D01*
Y-246607D01*
Y-243655D01*
Y-243616D01*
X107088Y-243543D01*
X107143Y-243488D01*
X107216Y-243458D01*
X110522D01*
X110595Y-243488D01*
D02*
G37*
G36*
X115004Y-247622D02*
X115060Y-247677D01*
X115090Y-247749D01*
Y-247789D01*
Y-250741D01*
Y-250780D01*
X115060Y-250853D01*
X115004Y-250908D01*
X114932Y-250938D01*
X111625D01*
X111553Y-250908D01*
X111497Y-250853D01*
X111468Y-250780D01*
Y-250741D01*
Y-247789D01*
Y-247749D01*
X111497Y-247677D01*
X111553Y-247622D01*
X111625Y-247592D01*
X114932D01*
X115004Y-247622D01*
D02*
G37*
G36*
X110595D02*
X110650Y-247677D01*
X110680Y-247749D01*
Y-247789D01*
Y-250741D01*
Y-250780D01*
X110650Y-250853D01*
X110595Y-250908D01*
X110522Y-250938D01*
X107216D01*
X107143Y-250908D01*
X107088Y-250853D01*
X107058Y-250780D01*
Y-250741D01*
Y-247789D01*
Y-247749D01*
X107088Y-247677D01*
X107143Y-247622D01*
X107216Y-247592D01*
X110522D01*
X110595Y-247622D01*
D02*
G37*
G36*
X112353Y-251726D02*
X112392Y-251726D01*
X112465Y-251755D01*
X112520Y-251811D01*
X112550Y-251883D01*
Y-251922D01*
X112550Y-254580D01*
X112550Y-254580D01*
X112550Y-254619D01*
X112520Y-254691D01*
X112465Y-254747D01*
X112392Y-254777D01*
X111960D01*
Y-254777D01*
X111920D01*
X111848Y-254747D01*
X111793Y-254691D01*
X111763Y-254619D01*
Y-254580D01*
Y-252710D01*
X110385D01*
X110385Y-254580D01*
X110385D01*
X110385Y-254619D01*
X110355Y-254691D01*
X110300Y-254747D01*
X110227Y-254777D01*
X110188Y-254777D01*
X109794Y-254777D01*
X109755Y-254777D01*
X109683Y-254747D01*
X109627Y-254691D01*
X109598Y-254619D01*
Y-254580D01*
X109598Y-251922D01*
X109598Y-251922D01*
X109598Y-251883D01*
X109627Y-251811D01*
X109683Y-251755D01*
X109755Y-251726D01*
X109794Y-251726D01*
X112353Y-251726D01*
Y-251726D01*
D02*
G37*
D17*
X226090Y-260827D02*
D03*
D18*
X30709Y-166535D02*
D03*
X37795D02*
D03*
X6793Y-116142D02*
D03*
X13880D02*
D03*
X226865Y-141520D02*
D03*
X219779D02*
D03*
X226123Y-128134D02*
D03*
X219036D02*
D03*
X219779Y-153925D02*
D03*
X226865D02*
D03*
D19*
X12205Y-165648D02*
D03*
Y-159348D02*
D03*
X116800Y-47421D02*
D03*
Y-41122D02*
D03*
X201400Y-194517D02*
D03*
Y-200816D02*
D03*
X99545Y-163915D02*
D03*
Y-157615D02*
D03*
X115293D02*
D03*
Y-163915D02*
D03*
X107419Y-157615D02*
D03*
Y-163915D02*
D03*
X103437Y-266351D02*
D03*
Y-272650D02*
D03*
X88946Y-264325D02*
D03*
Y-258026D02*
D03*
X81537Y-264325D02*
D03*
Y-258026D02*
D03*
X73985Y-264325D02*
D03*
Y-258026D02*
D03*
X101900Y-120050D02*
D03*
Y-113750D02*
D03*
X254400Y-8450D02*
D03*
Y-14750D02*
D03*
X266900Y-95550D02*
D03*
Y-89250D02*
D03*
D20*
X251200Y-45414D02*
D03*
Y-38327D02*
D03*
X118542Y-215925D02*
D03*
Y-208838D02*
D03*
X109364Y-215925D02*
D03*
Y-208838D02*
D03*
D21*
X199511Y-181877D02*
D03*
X190849Y-185617D02*
D03*
Y-178136D02*
D03*
D22*
X210012Y-182100D02*
D03*
X248988D02*
D03*
D23*
X15551Y-100787D02*
D03*
X7283D02*
D03*
X236753Y-128134D02*
D03*
X245021D02*
D03*
X236753Y-141520D02*
D03*
X245021D02*
D03*
X237066Y-153925D02*
D03*
X245334D02*
D03*
D24*
X270400Y-243334D02*
D03*
X62987Y-210229D02*
D03*
X270400Y-232107D02*
D03*
X171537Y-253050D02*
D03*
X201400Y-209407D02*
D03*
X86940Y-157615D02*
D03*
X169500Y-181400D02*
D03*
X161000D02*
D03*
X150724D02*
D03*
X215411Y-37300D02*
D03*
X309828Y-62500D02*
D03*
X190700Y-250716D02*
D03*
X188300Y-237517D02*
D03*
X227165Y-85319D02*
D03*
Y-93503D02*
D03*
X99168Y-84095D02*
D03*
X274946Y-69969D02*
D03*
X283608Y-73261D02*
D03*
X254400Y-93503D02*
D03*
X265261Y-69969D02*
D03*
D25*
X130644Y-33350D02*
D03*
Y-38075D02*
D03*
Y-42799D02*
D03*
Y-47524D02*
D03*
Y-52248D02*
D03*
Y-56972D02*
D03*
Y-61697D02*
D03*
Y-66421D02*
D03*
Y-71146D02*
D03*
Y-75870D02*
D03*
Y-80594D02*
D03*
Y-85319D02*
D03*
Y-90043D02*
D03*
Y-94768D02*
D03*
Y-99492D02*
D03*
Y-104217D02*
D03*
Y-108941D02*
D03*
Y-113665D02*
D03*
Y-118390D02*
D03*
Y-123114D02*
D03*
X183400D02*
D03*
Y-118390D02*
D03*
Y-113665D02*
D03*
Y-108941D02*
D03*
Y-104217D02*
D03*
Y-99492D02*
D03*
Y-94768D02*
D03*
Y-90043D02*
D03*
Y-85319D02*
D03*
Y-80594D02*
D03*
Y-75870D02*
D03*
Y-71146D02*
D03*
Y-66421D02*
D03*
Y-61697D02*
D03*
Y-56972D02*
D03*
Y-52248D02*
D03*
Y-47524D02*
D03*
Y-42799D02*
D03*
Y-38075D02*
D03*
Y-33350D02*
D03*
D26*
X133384Y-128787D02*
D03*
X142833D02*
D03*
X147557D02*
D03*
X152282D02*
D03*
X157006D02*
D03*
X161731D02*
D03*
X166455D02*
D03*
X171179D02*
D03*
X175904D02*
D03*
X180628D02*
D03*
X138109D02*
D03*
D27*
X148812Y-108886D02*
D03*
Y-97646D02*
D03*
X160324Y-108886D02*
D03*
Y-97646D02*
D03*
X152544Y-58126D02*
D03*
Y-49394D02*
D03*
X161135Y-58126D02*
D03*
Y-49394D02*
D03*
D28*
X309828Y-8669D02*
D03*
D29*
X305064Y-7291D02*
D03*
D30*
X300930D02*
D03*
X296600D02*
D03*
X292269D02*
D03*
X287938D02*
D03*
X283608D02*
D03*
X279277D02*
D03*
X274946D02*
D03*
D31*
X265261Y-7783D02*
D03*
D32*
X264572Y-46071D02*
D03*
Y-31504D02*
D03*
D33*
X278352Y-49909D02*
D03*
X301855D02*
D03*
D34*
X172885Y-240603D02*
D03*
X165404D02*
D03*
D35*
X97306Y-235550D02*
D03*
Y-241062D02*
D03*
X91192Y-235485D02*
D03*
Y-240997D02*
D03*
X131064Y-208838D02*
D03*
Y-214350D02*
D03*
X131349Y-230761D02*
D03*
Y-236273D02*
D03*
X125444Y-230761D02*
D03*
Y-236273D02*
D03*
X95637Y-262750D02*
D03*
Y-257238D02*
D03*
X211233Y-232005D02*
D03*
Y-237517D02*
D03*
X217665Y-237795D02*
D03*
Y-232283D02*
D03*
D36*
X57437Y-235150D02*
D03*
X80437D02*
D03*
D37*
X231020Y-61417D02*
D03*
Y-64567D02*
D03*
D38*
X232677Y-47589D02*
D03*
X234646D02*
D03*
X236614D02*
D03*
Y-54774D02*
D03*
X234646D02*
D03*
X232677D02*
D03*
D39*
X239222Y-48228D02*
D03*
Y-50197D02*
D03*
Y-52165D02*
D03*
Y-54134D02*
D03*
X230069D02*
D03*
Y-52165D02*
D03*
Y-50197D02*
D03*
Y-48228D02*
D03*
D40*
X113270Y-109970D02*
D03*
X107364D02*
D03*
D41*
X178081Y-144295D02*
D03*
X184380D02*
D03*
X170223D02*
D03*
X163924D02*
D03*
X205723Y-61417D02*
D03*
X199424D02*
D03*
Y-54847D02*
D03*
X205723D02*
D03*
X251350Y-31800D02*
D03*
X257650D02*
D03*
X98601Y-50900D02*
D03*
X104900D02*
D03*
X205723Y-67558D02*
D03*
X199424D02*
D03*
X212205Y-84095D02*
D03*
X205906D02*
D03*
X212750Y-92200D02*
D03*
X206450D02*
D03*
X202362Y-248228D02*
D03*
X208661D02*
D03*
X209055Y-259157D02*
D03*
X202756D02*
D03*
X210236Y-268504D02*
D03*
X203937D02*
D03*
D42*
X103268Y-175531D02*
D03*
Y-191869D02*
D03*
X111732D02*
D03*
Y-175531D02*
D03*
X97068Y-22731D02*
D03*
Y-39069D02*
D03*
X105532D02*
D03*
Y-22731D02*
D03*
D43*
X179356Y-156106D02*
D03*
X169514D02*
D03*
D44*
X114510Y-129571D02*
D03*
X107424D02*
D03*
X227559Y-277165D02*
D03*
X234646D02*
D03*
D45*
X137937Y-209407D02*
D03*
Y-212950D02*
D03*
X138436Y-235012D02*
D03*
Y-238555D02*
D03*
D46*
X148200Y-233480D02*
D03*
Y-229149D02*
D03*
D47*
X152594Y-240603D02*
D03*
X156530D02*
D03*
D48*
X147413Y-264593D02*
D03*
Y-258090D02*
D03*
X133921Y-264325D02*
D03*
Y-257823D02*
D03*
D49*
X117570Y-238241D02*
D03*
Y-240210D02*
D03*
Y-242178D02*
D03*
Y-244147D02*
D03*
Y-246115D02*
D03*
Y-248084D02*
D03*
Y-250052D02*
D03*
Y-252021D02*
D03*
X104578D02*
D03*
Y-250052D02*
D03*
Y-248084D02*
D03*
Y-246115D02*
D03*
Y-244147D02*
D03*
Y-242178D02*
D03*
Y-240210D02*
D03*
Y-238241D02*
D03*
D50*
X114027Y-236666D02*
D03*
Y-253596D02*
D03*
X108121D02*
D03*
Y-236666D02*
D03*
D51*
X253900Y-255620D02*
D03*
Y-263100D02*
D03*
D52*
X243701Y-255906D02*
D03*
Y-262992D02*
D03*
X110236Y-68110D02*
D03*
Y-61024D02*
D03*
D53*
X243504Y-233858D02*
D03*
X228937D02*
D03*
D54*
X249606Y-54134D02*
D03*
X246457D02*
D03*
D55*
X26772Y-107677D02*
D03*
Y-115551D02*
D03*
D56*
X231890Y-257874D02*
D03*
Y-259842D02*
D03*
Y-261811D02*
D03*
Y-263779D02*
D03*
X220291D02*
D03*
Y-261811D02*
D03*
Y-259842D02*
D03*
Y-257874D02*
D03*
D57*
X229043Y-266626D02*
D03*
X227075D02*
D03*
X225106D02*
D03*
X223138D02*
D03*
Y-255027D02*
D03*
X225106D02*
D03*
X227075D02*
D03*
D58*
X229043D02*
D03*
M02*
