G04*
G04 #@! TF.GenerationSoftware,Altium Limited,Altium Designer,21.1.1 (26)*
G04*
G04 Layer_Physical_Order=3*
G04 Layer_Color=16440176*
%FSLAX25Y25*%
%MOIN*%
G70*
G04*
G04 #@! TF.SameCoordinates,F0776300-378F-46C5-BA81-3E012C389C30*
G04*
G04*
G04 #@! TF.FilePolarity,Positive*
G04*
G01*
G75*
%ADD27R,0.07874X0.07874*%
%ADD102C,0.02000*%
%ADD108C,0.07087*%
G36*
X312921Y-157454D02*
X312721Y-165354D01*
X312123Y-173206D01*
X311993Y-174227D01*
X311024Y-175197D01*
Y-181602D01*
X309739Y-188770D01*
X309288Y-190712D01*
X305118Y-194882D01*
Y-205985D01*
X303524Y-210649D01*
X299213Y-214961D01*
Y-221197D01*
X297035Y-225936D01*
X296323Y-227299D01*
X287402Y-236221D01*
Y-242726D01*
X285060Y-246279D01*
X284625Y-246871D01*
X277559Y-253937D01*
Y-255906D01*
X277559D01*
X255006Y-278458D01*
X252626Y-280399D01*
X248451Y-283465D01*
X242126D01*
X231420Y-294171D01*
X229305Y-295276D01*
X220472D01*
X213193Y-302555D01*
X211705Y-303150D01*
X187008D01*
X186221Y-302362D01*
Y-273361D01*
X186721Y-273027D01*
X187042Y-273160D01*
X187758D01*
X188420Y-272886D01*
X188926Y-272380D01*
X189191Y-271741D01*
X189299Y-271721D01*
X189694Y-271732D01*
X189927Y-272292D01*
X190433Y-272798D01*
X191095Y-273072D01*
X191811D01*
X192472Y-272798D01*
X192979Y-272292D01*
X193226Y-271694D01*
X193439Y-271665D01*
X193513D01*
X193726Y-271694D01*
X193974Y-272292D01*
X194480Y-272798D01*
X195142Y-273072D01*
X195858D01*
X196520Y-272798D01*
X197026Y-272292D01*
X197300Y-271631D01*
Y-270914D01*
X197026Y-270253D01*
X196520Y-269746D01*
X195858Y-269472D01*
X195142D01*
X194480Y-269746D01*
X193974Y-270253D01*
X193726Y-270851D01*
X193513Y-270880D01*
X193439D01*
X193226Y-270851D01*
X192979Y-270253D01*
X192472Y-269746D01*
X191811Y-269472D01*
X191095D01*
X190433Y-269746D01*
X189927Y-270253D01*
X189662Y-270892D01*
X189554Y-270912D01*
X189158Y-270901D01*
X188926Y-270340D01*
X188420Y-269834D01*
X187758Y-269560D01*
X187042D01*
X186721Y-269693D01*
X186221Y-269359D01*
Y-268057D01*
X186721Y-267723D01*
X187042Y-267856D01*
X187758D01*
X188420Y-267582D01*
X188926Y-267075D01*
X189162Y-266506D01*
X189542Y-266489D01*
X189662Y-266507D01*
X189927Y-267146D01*
X190433Y-267652D01*
X191095Y-267926D01*
X191811D01*
X192472Y-267652D01*
X192979Y-267146D01*
X193239Y-266518D01*
X193361Y-266477D01*
X193753Y-266452D01*
X193974Y-266986D01*
X194480Y-267493D01*
X195142Y-267767D01*
X195858D01*
X196520Y-267493D01*
X197026Y-266986D01*
X197300Y-266325D01*
Y-265609D01*
X197026Y-264947D01*
X196520Y-264441D01*
X195858Y-264167D01*
X195142D01*
X194480Y-264441D01*
X193974Y-264947D01*
X193714Y-265575D01*
X193592Y-265616D01*
X193200Y-265641D01*
X192979Y-265107D01*
X192472Y-264600D01*
X191811Y-264326D01*
X191095D01*
X190433Y-264600D01*
X189927Y-265107D01*
X189691Y-265676D01*
X189310Y-265693D01*
X189191Y-265675D01*
X188926Y-265036D01*
X188420Y-264530D01*
X187758Y-264256D01*
X187042D01*
X186721Y-264389D01*
X186221Y-264055D01*
Y-190955D01*
X186721Y-190855D01*
X186774Y-190985D01*
X187280Y-191491D01*
X187942Y-191765D01*
X188658D01*
X189320Y-191491D01*
X189826Y-190985D01*
X190100Y-190323D01*
Y-189607D01*
X189826Y-188945D01*
X189320Y-188439D01*
X188658Y-188165D01*
X187942D01*
X187280Y-188439D01*
X186774Y-188945D01*
X186721Y-189075D01*
X186221Y-188975D01*
Y-177165D01*
X132099D01*
X131458Y-176900D01*
X130742D01*
X130101Y-177165D01*
X127909D01*
Y-176542D01*
X127635Y-175880D01*
X127129Y-175374D01*
X126468Y-175100D01*
X125751D01*
X125090Y-175374D01*
X124583Y-175880D01*
X124309Y-176542D01*
Y-177165D01*
X121299D01*
X120658Y-176900D01*
X119942D01*
X119301Y-177165D01*
X118051D01*
X117844Y-176665D01*
X117959Y-176550D01*
X118233Y-175889D01*
Y-175173D01*
X117959Y-174511D01*
X117452Y-174005D01*
X116791Y-173731D01*
X116075D01*
X115413Y-174005D01*
X114907Y-174511D01*
X114633Y-175173D01*
Y-175889D01*
X114907Y-176550D01*
X115022Y-176665D01*
X114815Y-177165D01*
X104331D01*
X102362Y-175197D01*
Y-27917D01*
X102374Y-27888D01*
X102443Y-27874D01*
X116010D01*
X116288Y-28290D01*
X116200Y-28502D01*
Y-29298D01*
X116505Y-30033D01*
X117067Y-30595D01*
X117802Y-30900D01*
X118598D01*
X119333Y-30595D01*
X119896Y-30033D01*
X120200Y-29298D01*
Y-28502D01*
X120112Y-28290D01*
X120390Y-27874D01*
X125910D01*
X126188Y-28290D01*
X126100Y-28502D01*
Y-29298D01*
X126405Y-30033D01*
X126967Y-30595D01*
X127702Y-30900D01*
X128498D01*
X129233Y-30595D01*
X129796Y-30033D01*
X130100Y-29298D01*
Y-28502D01*
X130012Y-28290D01*
X130290Y-27874D01*
X135919D01*
X136197Y-28290D01*
X136109Y-28502D01*
Y-29298D01*
X136413Y-30033D01*
X136976Y-30595D01*
X137711Y-30900D01*
X138506D01*
X139242Y-30595D01*
X139804Y-30033D01*
X140109Y-29298D01*
Y-28502D01*
X140021Y-28290D01*
X140298Y-27874D01*
X145368D01*
X145645Y-28290D01*
X145557Y-28502D01*
Y-29298D01*
X145862Y-30033D01*
X146425Y-30595D01*
X147160Y-30900D01*
X147955D01*
X148690Y-30595D01*
X149253Y-30033D01*
X149557Y-29298D01*
Y-28502D01*
X149469Y-28290D01*
X149747Y-27874D01*
X154816D01*
X155094Y-28290D01*
X155006Y-28502D01*
Y-29298D01*
X155311Y-30033D01*
X155873Y-30595D01*
X156608Y-30900D01*
X157404D01*
X158139Y-30595D01*
X158702Y-30033D01*
X159006Y-29298D01*
Y-28502D01*
X158918Y-28290D01*
X159196Y-27874D01*
X165311D01*
X165589Y-28290D01*
X165501Y-28502D01*
Y-29298D01*
X165805Y-30033D01*
X166368Y-30595D01*
X167103Y-30900D01*
X167899D01*
X168634Y-30595D01*
X169196Y-30033D01*
X169501Y-29298D01*
Y-28502D01*
X169413Y-28290D01*
X169691Y-27874D01*
X175110D01*
X175388Y-28290D01*
X175300Y-28502D01*
Y-29298D01*
X175604Y-30033D01*
X176167Y-30595D01*
X176902Y-30900D01*
X177698D01*
X178433Y-30595D01*
X178996Y-30033D01*
X179300Y-29298D01*
Y-28502D01*
X179212Y-28290D01*
X179490Y-27874D01*
X185010D01*
X185288Y-28290D01*
X185200Y-28502D01*
Y-29298D01*
X185504Y-30033D01*
X186067Y-30595D01*
X186802Y-30900D01*
X187598D01*
X188333Y-30595D01*
X188895Y-30033D01*
X189200Y-29298D01*
Y-28502D01*
X189112Y-28290D01*
X189390Y-27874D01*
X194910D01*
X195188Y-28290D01*
X195100Y-28502D01*
Y-29298D01*
X195405Y-30033D01*
X195967Y-30595D01*
X196702Y-30900D01*
X197498D01*
X198233Y-30595D01*
X198795Y-30033D01*
X199100Y-29298D01*
Y-28502D01*
X199012Y-28290D01*
X199290Y-27874D01*
X203740D01*
X204724Y-26890D01*
Y-24085D01*
X205093D01*
X205828Y-23780D01*
X206390Y-23218D01*
X206695Y-22483D01*
Y-21687D01*
X206390Y-20952D01*
X205828Y-20390D01*
X205093Y-20085D01*
X204724D01*
Y-14200D01*
X205322D01*
X206057Y-13895D01*
X206620Y-13333D01*
X206924Y-12598D01*
Y-11802D01*
X206620Y-11067D01*
X206057Y-10504D01*
X205322Y-10200D01*
X204724D01*
Y-6200D01*
X205322D01*
X206057Y-5895D01*
X206620Y-5333D01*
X206924Y-4598D01*
Y-3802D01*
X206620Y-3067D01*
X206092Y-2539D01*
X206108Y-2376D01*
X206241Y-2039D01*
X277158D01*
X277436Y-2455D01*
X277400Y-2542D01*
Y-3258D01*
X277674Y-3920D01*
X278180Y-4426D01*
X278842Y-4700D01*
X279558D01*
X280220Y-4426D01*
X280726Y-3920D01*
X281000Y-3258D01*
Y-2542D01*
X281301Y-2139D01*
X281456D01*
X281856Y-2571D01*
Y-3098D01*
X282130Y-3760D01*
X282636Y-4266D01*
X283298Y-4540D01*
X284014D01*
X284675Y-4266D01*
X285182Y-3760D01*
X285456Y-3098D01*
Y-2382D01*
X285685Y-2039D01*
X290348D01*
X290483Y-2242D01*
Y-2958D01*
X290757Y-3619D01*
X291264Y-4126D01*
X291925Y-4400D01*
X292641D01*
X293303Y-4126D01*
X293809Y-3619D01*
X294083Y-2958D01*
Y-2242D01*
X294174Y-2107D01*
X294215D01*
X294700Y-2597D01*
Y-2858D01*
X294974Y-3520D01*
X295480Y-4026D01*
X296142Y-4300D01*
X296858D01*
X297520Y-4026D01*
X298026Y-3520D01*
X298300Y-2858D01*
Y-2142D01*
X298369Y-2039D01*
X299098D01*
X299100Y-2042D01*
Y-2758D01*
X299374Y-3420D01*
X299880Y-3926D01*
X300542Y-4200D01*
X301258D01*
X301920Y-3926D01*
X302426Y-3420D01*
X302700Y-2758D01*
Y-2042D01*
X302702Y-2039D01*
X308028D01*
Y-2720D01*
X308302Y-3382D01*
X308808Y-3888D01*
X309470Y-4162D01*
X310186D01*
X310848Y-3888D01*
X311354Y-3382D01*
X311628Y-2720D01*
Y-2039D01*
X312921D01*
Y-157454D01*
D02*
G37*
G36*
X108950Y-2539D02*
X108800Y-2902D01*
Y-3698D01*
X109105Y-4433D01*
X109667Y-4995D01*
X110402Y-5300D01*
X111198D01*
X111634Y-5119D01*
X112134Y-5448D01*
Y-10013D01*
X111718Y-10291D01*
X111498Y-10200D01*
X110702D01*
X109967Y-10504D01*
X109405Y-11067D01*
X109100Y-11802D01*
Y-12598D01*
X109405Y-13333D01*
X109967Y-13895D01*
X110702Y-14200D01*
X111498D01*
X111718Y-14109D01*
X112134Y-14387D01*
Y-19898D01*
X111718Y-20176D01*
X111498Y-20085D01*
X110702D01*
X109967Y-20390D01*
X109405Y-20952D01*
X109100Y-21687D01*
Y-22483D01*
X109405Y-23218D01*
X109967Y-23780D01*
X110702Y-24085D01*
X111498D01*
X111718Y-23994D01*
X112134Y-24272D01*
Y-25591D01*
X112289Y-26371D01*
X112414Y-26558D01*
X112147Y-27058D01*
X102362D01*
X102050Y-27120D01*
X101785Y-27297D01*
X101609Y-27562D01*
X101576Y-27724D01*
X101300Y-28000D01*
Y-177908D01*
X101246Y-177988D01*
X101184Y-178300D01*
Y-200190D01*
X100980Y-200274D01*
X100474Y-200780D01*
X100200Y-201442D01*
Y-202158D01*
X100474Y-202820D01*
X100980Y-203326D01*
X101184Y-203410D01*
Y-225418D01*
X101200Y-225497D01*
Y-225577D01*
X101231Y-225651D01*
X101246Y-225730D01*
X101291Y-225797D01*
X101300Y-225818D01*
Y-230693D01*
X101291Y-230714D01*
X101246Y-230781D01*
X101231Y-230860D01*
X101200Y-230934D01*
Y-231014D01*
X101184Y-231093D01*
Y-296757D01*
X100711Y-296864D01*
X98700Y-296100D01*
X93700Y-294200D01*
X86300Y-289100D01*
X80435Y-286735D01*
X70400Y-279600D01*
X64400Y-276970D01*
X53400Y-269400D01*
X51500Y-267500D01*
X43677Y-260623D01*
X41900Y-258400D01*
X41600D01*
X36998Y-251116D01*
X34800Y-246400D01*
X26658Y-235040D01*
X23800Y-230100D01*
X18122Y-220285D01*
X16311Y-215417D01*
X15551Y-208635D01*
X2225Y-164801D01*
X2039Y-157454D01*
Y-2039D01*
X108616D01*
X108950Y-2539D01*
D02*
G37*
G36*
X185200Y-307600D02*
X182700Y-310100D01*
X131200D01*
X126882Y-308848D01*
X120264Y-306800D01*
X116291Y-305158D01*
X112900Y-303600D01*
X110937Y-302863D01*
X107122Y-300822D01*
X102000Y-298400D01*
Y-231093D01*
X102500Y-230994D01*
X102713Y-231507D01*
X103332Y-232126D01*
X104140Y-232461D01*
X105015D01*
X105824Y-232126D01*
X106300Y-231650D01*
X106776Y-232126D01*
X107585Y-232461D01*
X108460D01*
X109269Y-232126D01*
X109836Y-231559D01*
X110402Y-232126D01*
X111211Y-232461D01*
X112086D01*
X112895Y-232126D01*
X113337Y-231684D01*
X113659Y-231562D01*
X113982Y-231684D01*
X114424Y-232126D01*
X115232Y-232461D01*
X116107D01*
X116916Y-232126D01*
X117277Y-231765D01*
X117604Y-231552D01*
X117930Y-231765D01*
X118291Y-232126D01*
X119100Y-232461D01*
X119975D01*
X120783Y-232126D01*
X121402Y-231507D01*
X121737Y-230699D01*
Y-229823D01*
X121402Y-229015D01*
X120968Y-228580D01*
X120839Y-228256D01*
X120968Y-227931D01*
X121402Y-227496D01*
X121737Y-226688D01*
Y-225812D01*
X121402Y-225004D01*
X120783Y-224385D01*
X119975Y-224050D01*
X119100D01*
X118291Y-224385D01*
X117675Y-225001D01*
X117060Y-224385D01*
X116251Y-224050D01*
X115376D01*
X114567Y-224385D01*
X114078Y-224874D01*
X113770Y-224956D01*
X113461Y-224874D01*
X112972Y-224385D01*
X112164Y-224050D01*
X111288D01*
X110480Y-224385D01*
X109924Y-224941D01*
X109367Y-224385D01*
X108559Y-224050D01*
X107684D01*
X106875Y-224385D01*
X106349Y-224910D01*
X105824Y-224385D01*
X105015Y-224050D01*
X104140D01*
X103332Y-224385D01*
X102713Y-225004D01*
X102500Y-225517D01*
X102000Y-225418D01*
Y-178300D01*
X118472D01*
X118500Y-178342D01*
Y-179058D01*
X118774Y-179720D01*
X119280Y-180226D01*
X119942Y-180500D01*
X120658D01*
X121320Y-180226D01*
X121826Y-179720D01*
X122100Y-179058D01*
Y-178342D01*
X122128Y-178300D01*
X124964D01*
X125090Y-178426D01*
X125751Y-178700D01*
X126468D01*
X127129Y-178426D01*
X127255Y-178300D01*
X129272D01*
X129300Y-178342D01*
Y-179058D01*
X129574Y-179720D01*
X130080Y-180226D01*
X130742Y-180500D01*
X131458D01*
X132120Y-180226D01*
X132626Y-179720D01*
X132900Y-179058D01*
Y-178342D01*
X132928Y-178300D01*
X185200D01*
Y-307600D01*
D02*
G37*
%LPC*%
G36*
X260194Y-5491D02*
X259478D01*
X258816Y-5765D01*
X258310Y-6271D01*
X258036Y-6933D01*
Y-7649D01*
X258310Y-8311D01*
X258816Y-8817D01*
X259478Y-9091D01*
X260194D01*
X260855Y-8817D01*
X261362Y-8311D01*
X261636Y-7649D01*
Y-6933D01*
X261362Y-6271D01*
X260855Y-5765D01*
X260194Y-5491D01*
D02*
G37*
G36*
X249964Y-6869D02*
X249248D01*
X248587Y-7143D01*
X248080Y-7649D01*
X247806Y-8311D01*
Y-9027D01*
X248080Y-9689D01*
X248587Y-10195D01*
X249248Y-10469D01*
X249964D01*
X250626Y-10195D01*
X251132Y-9689D01*
X251406Y-9027D01*
Y-8311D01*
X251132Y-7649D01*
X250626Y-7143D01*
X249964Y-6869D01*
D02*
G37*
G36*
X232972Y-10406D02*
X232900D01*
Y-14250D01*
X236743D01*
Y-14178D01*
X236447Y-13073D01*
X235876Y-12083D01*
X235067Y-11274D01*
X234076Y-10702D01*
X232972Y-10406D01*
D02*
G37*
G36*
X231900D02*
X231828D01*
X230724Y-10702D01*
X229733Y-11274D01*
X228924Y-12083D01*
X228353Y-13073D01*
X228057Y-14178D01*
Y-14250D01*
X231900D01*
Y-10406D01*
D02*
G37*
G36*
X246743D02*
X238057D01*
Y-19093D01*
X246743D01*
Y-10406D01*
D02*
G37*
G36*
X236743Y-15250D02*
X232900D01*
Y-19093D01*
X232972D01*
X234076Y-18797D01*
X235067Y-18225D01*
X235876Y-17416D01*
X236447Y-16426D01*
X236743Y-15321D01*
Y-15250D01*
D02*
G37*
G36*
X231900D02*
X228057D01*
Y-15321D01*
X228353Y-16426D01*
X228924Y-17416D01*
X229733Y-18225D01*
X230724Y-18797D01*
X231828Y-19093D01*
X231900D01*
Y-15250D01*
D02*
G37*
G36*
X222972Y-10406D02*
X221828D01*
X220724Y-10702D01*
X219733Y-11274D01*
X218924Y-12083D01*
X218353Y-13073D01*
X218057Y-14178D01*
Y-15321D01*
X218353Y-16426D01*
X218924Y-17416D01*
X219733Y-18225D01*
X220724Y-18797D01*
X221828Y-19093D01*
X222972D01*
X224077Y-18797D01*
X225067Y-18225D01*
X225875Y-17416D01*
X226447Y-16426D01*
X226743Y-15321D01*
Y-14178D01*
X226447Y-13073D01*
X225875Y-12083D01*
X225067Y-11274D01*
X224077Y-10702D01*
X222972Y-10406D01*
D02*
G37*
G36*
X212972D02*
X211828D01*
X210723Y-10702D01*
X209733Y-11274D01*
X208925Y-12083D01*
X208353Y-13073D01*
X208057Y-14178D01*
Y-15321D01*
X208353Y-16426D01*
X208925Y-17416D01*
X209733Y-18225D01*
X210723Y-18797D01*
X211828Y-19093D01*
X212972D01*
X214076Y-18797D01*
X215067Y-18225D01*
X215876Y-17416D01*
X216447Y-16426D01*
X216743Y-15321D01*
Y-14178D01*
X216447Y-13073D01*
X215876Y-12083D01*
X215067Y-11274D01*
X214076Y-10702D01*
X212972Y-10406D01*
D02*
G37*
G36*
X243458Y-26000D02*
X242742D01*
X242080Y-26274D01*
X241574Y-26780D01*
X241300Y-27442D01*
Y-28158D01*
X241574Y-28820D01*
X242080Y-29326D01*
X242742Y-29600D01*
X243458D01*
X244120Y-29326D01*
X244626Y-28820D01*
X244900Y-28158D01*
Y-27442D01*
X244626Y-26780D01*
X244120Y-26274D01*
X243458Y-26000D01*
D02*
G37*
G36*
X190613Y-31550D02*
X189897D01*
X189235Y-31824D01*
X188729Y-32331D01*
X188455Y-32992D01*
Y-33708D01*
X188729Y-34370D01*
X189235Y-34876D01*
X189897Y-35150D01*
X190613D01*
X191275Y-34876D01*
X191781Y-34370D01*
X192055Y-33708D01*
Y-32992D01*
X191781Y-32331D01*
X191275Y-31824D01*
X190613Y-31550D01*
D02*
G37*
G36*
X123939D02*
X123223D01*
X122562Y-31824D01*
X122055Y-32331D01*
X121781Y-32992D01*
Y-33708D01*
X122055Y-34370D01*
X122562Y-34876D01*
X123223Y-35150D01*
X123939D01*
X124601Y-34876D01*
X125107Y-34370D01*
X125381Y-33708D01*
Y-32992D01*
X125107Y-32331D01*
X124601Y-31824D01*
X123939Y-31550D01*
D02*
G37*
G36*
X259558Y-38300D02*
X258842D01*
X258180Y-38574D01*
X257674Y-39080D01*
X257400Y-39742D01*
Y-40458D01*
X257674Y-41120D01*
X258180Y-41626D01*
X258842Y-41900D01*
X259558D01*
X260220Y-41626D01*
X260726Y-41120D01*
X261000Y-40458D01*
Y-39742D01*
X260726Y-39080D01*
X260220Y-38574D01*
X259558Y-38300D01*
D02*
G37*
G36*
X238889Y-39300D02*
X238173D01*
X237512Y-39574D01*
X237005Y-40080D01*
X236731Y-40742D01*
Y-41458D01*
X237005Y-42120D01*
X237512Y-42626D01*
X238173Y-42900D01*
X238889D01*
X239551Y-42626D01*
X240057Y-42120D01*
X240331Y-41458D01*
Y-40742D01*
X240057Y-40080D01*
X239551Y-39574D01*
X238889Y-39300D01*
D02*
G37*
G36*
X231158D02*
X230442D01*
X229780Y-39574D01*
X229274Y-40080D01*
X229000Y-40742D01*
Y-41458D01*
X229274Y-42120D01*
X229780Y-42626D01*
X230442Y-42900D01*
X231158D01*
X231820Y-42626D01*
X232326Y-42120D01*
X232600Y-41458D01*
Y-40742D01*
X232326Y-40080D01*
X231820Y-39574D01*
X231158Y-39300D01*
D02*
G37*
G36*
X260194Y-46584D02*
X259478D01*
X258816Y-46858D01*
X258310Y-47364D01*
X258036Y-48025D01*
Y-48741D01*
X258310Y-49403D01*
X258816Y-49909D01*
X259478Y-50183D01*
X260194D01*
X260855Y-49909D01*
X261362Y-49403D01*
X261636Y-48741D01*
Y-48025D01*
X261362Y-47364D01*
X260855Y-46858D01*
X260194Y-46584D01*
D02*
G37*
G36*
X167859Y-47594D02*
X167143D01*
X166481Y-47868D01*
X165975Y-48374D01*
X165701Y-49036D01*
Y-49752D01*
X165975Y-50413D01*
X166481Y-50920D01*
X167143Y-51194D01*
X167859D01*
X168520Y-50920D01*
X169027Y-50413D01*
X169301Y-49752D01*
Y-49036D01*
X169027Y-48374D01*
X168520Y-47868D01*
X167859Y-47594D01*
D02*
G37*
G36*
X145758D02*
X145042D01*
X144380Y-47868D01*
X143874Y-48374D01*
X143600Y-49036D01*
Y-49752D01*
X143874Y-50413D01*
X144380Y-50920D01*
X145042Y-51194D01*
X145758D01*
X146420Y-50920D01*
X146926Y-50413D01*
X147200Y-49752D01*
Y-49036D01*
X146926Y-48374D01*
X146420Y-47868D01*
X145758Y-47594D01*
D02*
G37*
G36*
X221247Y-48397D02*
X220531D01*
X219869Y-48671D01*
X219363Y-49177D01*
X219089Y-49839D01*
Y-50555D01*
X219363Y-51217D01*
X219869Y-51723D01*
X220531Y-51997D01*
X221247D01*
X221908Y-51723D01*
X222415Y-51217D01*
X222689Y-50555D01*
Y-49839D01*
X222415Y-49177D01*
X221908Y-48671D01*
X221247Y-48397D01*
D02*
G37*
G36*
X112289Y-51585D02*
X111573D01*
X110911Y-51859D01*
X110405Y-52365D01*
X110131Y-53027D01*
Y-53743D01*
X110405Y-54405D01*
X110911Y-54911D01*
X111573Y-55185D01*
X112289D01*
X112950Y-54911D01*
X113457Y-54405D01*
X113731Y-53743D01*
Y-53027D01*
X113457Y-52365D01*
X112950Y-51859D01*
X112289Y-51585D01*
D02*
G37*
G36*
X222758Y-52334D02*
X222042D01*
X221380Y-52608D01*
X220874Y-53114D01*
X220600Y-53776D01*
Y-54492D01*
X220874Y-55154D01*
X221380Y-55660D01*
X222042Y-55934D01*
X222758D01*
X223420Y-55660D01*
X223926Y-55154D01*
X224200Y-54492D01*
Y-53776D01*
X223926Y-53114D01*
X223420Y-52608D01*
X222758Y-52334D01*
D02*
G37*
G36*
X194956Y-53047D02*
X194240D01*
X193579Y-53320D01*
X193072Y-53827D01*
X192798Y-54488D01*
Y-55204D01*
X193072Y-55866D01*
X193579Y-56372D01*
X194240Y-56647D01*
X194956D01*
X195618Y-56372D01*
X196124Y-55866D01*
X196398Y-55204D01*
Y-54488D01*
X196124Y-53827D01*
X195618Y-53320D01*
X194956Y-53047D01*
D02*
G37*
G36*
X284058Y-54800D02*
X283342D01*
X282680Y-55074D01*
X282174Y-55580D01*
X281900Y-56242D01*
Y-56958D01*
X282174Y-57620D01*
X282680Y-58126D01*
X283342Y-58400D01*
X284058D01*
X284720Y-58126D01*
X285226Y-57620D01*
X285500Y-56958D01*
Y-56242D01*
X285226Y-55580D01*
X284720Y-55074D01*
X284058Y-54800D01*
D02*
G37*
G36*
X251126Y-54912D02*
X250410D01*
X249749Y-55186D01*
X249242Y-55692D01*
X248968Y-56354D01*
Y-57070D01*
X249242Y-57732D01*
X249749Y-58238D01*
X250410Y-58512D01*
X251126D01*
X251788Y-58238D01*
X252294Y-57732D01*
X252568Y-57070D01*
Y-56354D01*
X252294Y-55692D01*
X251788Y-55186D01*
X251126Y-54912D01*
D02*
G37*
G36*
X190285D02*
X189569D01*
X188907Y-55186D01*
X188401Y-55692D01*
X188127Y-56354D01*
Y-57070D01*
X188401Y-57732D01*
X188907Y-58238D01*
X189569Y-58512D01*
X190285D01*
X190947Y-58238D01*
X191453Y-57732D01*
X191727Y-57070D01*
Y-56354D01*
X191453Y-55692D01*
X190947Y-55186D01*
X190285Y-54912D01*
D02*
G37*
G36*
X122975D02*
X122259D01*
X121598Y-55186D01*
X121091Y-55692D01*
X120817Y-56354D01*
Y-57070D01*
X121091Y-57732D01*
X121598Y-58238D01*
X122259Y-58512D01*
X122975D01*
X123637Y-58238D01*
X124143Y-57732D01*
X124417Y-57070D01*
Y-56354D01*
X124143Y-55692D01*
X123637Y-55186D01*
X122975Y-54912D01*
D02*
G37*
G36*
X167859Y-56273D02*
X167143D01*
X166481Y-56547D01*
X165975Y-57053D01*
X165701Y-57715D01*
Y-58431D01*
X165975Y-59093D01*
X166481Y-59599D01*
X167143Y-59873D01*
X167859D01*
X168520Y-59599D01*
X169027Y-59093D01*
X169301Y-58431D01*
Y-57715D01*
X169027Y-57053D01*
X168520Y-56547D01*
X167859Y-56273D01*
D02*
G37*
G36*
X145758Y-56326D02*
X145042D01*
X144380Y-56600D01*
X143874Y-57106D01*
X143600Y-57768D01*
Y-58484D01*
X143874Y-59146D01*
X144380Y-59652D01*
X145042Y-59926D01*
X145758D01*
X146420Y-59652D01*
X146926Y-59146D01*
X147200Y-58484D01*
Y-57768D01*
X146926Y-57106D01*
X146420Y-56600D01*
X145758Y-56326D01*
D02*
G37*
G36*
X238058Y-59617D02*
X237342D01*
X236680Y-59891D01*
X236427Y-60145D01*
X236100Y-60351D01*
X235773Y-60145D01*
X235520Y-59891D01*
X234858Y-59617D01*
X234142D01*
X233480Y-59891D01*
X232974Y-60398D01*
X232700Y-61059D01*
Y-61775D01*
X232974Y-62437D01*
X233480Y-62943D01*
X234142Y-63217D01*
X234147D01*
X234354Y-63717D01*
X234074Y-63997D01*
X233800Y-64659D01*
Y-65375D01*
X234074Y-66036D01*
X234580Y-66543D01*
X235242Y-66817D01*
X235958D01*
X236620Y-66543D01*
X237126Y-66036D01*
X237400Y-65375D01*
Y-64659D01*
X237126Y-63997D01*
X236620Y-63491D01*
X236102Y-63277D01*
X235990Y-62833D01*
X235998Y-62734D01*
X236223Y-62561D01*
X236427Y-62690D01*
X236680Y-62943D01*
X237342Y-63217D01*
X238058D01*
X238720Y-62943D01*
X239226Y-62437D01*
X239500Y-61775D01*
Y-61059D01*
X239226Y-60398D01*
X238720Y-59891D01*
X238058Y-59617D01*
D02*
G37*
G36*
X301258Y-58100D02*
X300542D01*
X299880Y-58374D01*
X299374Y-58880D01*
X299100Y-59542D01*
Y-60258D01*
X299374Y-60920D01*
X299880Y-61426D01*
X300542Y-61700D01*
X301258D01*
X301920Y-61426D01*
X302426Y-60920D01*
X302700Y-60258D01*
Y-59542D01*
X302426Y-58880D01*
X301920Y-58374D01*
X301258Y-58100D01*
D02*
G37*
G36*
X122975Y-61900D02*
X122259D01*
X121598Y-62174D01*
X121091Y-62680D01*
X120817Y-63342D01*
Y-64058D01*
X121091Y-64720D01*
X121598Y-65226D01*
X122259Y-65500D01*
X122975D01*
X123637Y-65226D01*
X124143Y-64720D01*
X124417Y-64058D01*
Y-63342D01*
X124143Y-62680D01*
X123637Y-62174D01*
X122975Y-61900D01*
D02*
G37*
G36*
X116158D02*
X115442D01*
X114780Y-62174D01*
X114274Y-62680D01*
X114000Y-63342D01*
Y-64058D01*
X114274Y-64720D01*
X114780Y-65226D01*
X115442Y-65500D01*
X116158D01*
X116820Y-65226D01*
X117326Y-64720D01*
X117600Y-64058D01*
Y-63342D01*
X117326Y-62680D01*
X116820Y-62174D01*
X116158Y-61900D01*
D02*
G37*
G36*
X292663Y-62767D02*
X291947D01*
X291286Y-63041D01*
X290779Y-63547D01*
X290505Y-64209D01*
Y-64925D01*
X290779Y-65587D01*
X291286Y-66093D01*
X291947Y-66367D01*
X292663D01*
X293325Y-66093D01*
X293831Y-65587D01*
X294105Y-64925D01*
Y-64209D01*
X293831Y-63547D01*
X293325Y-63041D01*
X292663Y-62767D01*
D02*
G37*
G36*
X284014Y-64800D02*
X283298D01*
X282636Y-65074D01*
X282130Y-65580D01*
X281856Y-66242D01*
Y-66958D01*
X282130Y-67620D01*
X282636Y-68126D01*
X283298Y-68400D01*
X284014D01*
X284675Y-68126D01*
X285182Y-67620D01*
X285456Y-66958D01*
Y-66242D01*
X285182Y-65580D01*
X284675Y-65074D01*
X284014Y-64800D01*
D02*
G37*
G36*
X194237Y-65758D02*
X193521D01*
X192860Y-66032D01*
X192353Y-66539D01*
X192079Y-67200D01*
Y-67916D01*
X192353Y-68578D01*
X192860Y-69084D01*
X193521Y-69358D01*
X194237D01*
X194899Y-69084D01*
X195405Y-68578D01*
X195679Y-67916D01*
Y-67200D01*
X195405Y-66539D01*
X194899Y-66032D01*
X194237Y-65758D01*
D02*
G37*
G36*
X259558Y-68169D02*
X258842D01*
X258180Y-68443D01*
X257674Y-68949D01*
X257400Y-69611D01*
Y-70327D01*
X257674Y-70988D01*
X258180Y-71495D01*
X258842Y-71769D01*
X259558D01*
X260220Y-71495D01*
X260726Y-70988D01*
X261000Y-70327D01*
Y-69611D01*
X260726Y-68949D01*
X260220Y-68443D01*
X259558Y-68169D01*
D02*
G37*
G36*
X245378Y-71461D02*
X244662D01*
X244001Y-71735D01*
X243495Y-72241D01*
X243220Y-72903D01*
Y-73619D01*
X243495Y-74280D01*
X244001Y-74787D01*
X244662Y-75061D01*
X245378D01*
X246040Y-74787D01*
X246546Y-74280D01*
X246820Y-73619D01*
Y-72903D01*
X246546Y-72241D01*
X246040Y-71735D01*
X245378Y-71461D01*
D02*
G37*
G36*
X110594Y-71741D02*
X109878D01*
X109217Y-72015D01*
X108710Y-72522D01*
X108436Y-73183D01*
Y-73899D01*
X108710Y-74561D01*
X109217Y-75067D01*
X109878Y-75341D01*
X110594D01*
X111256Y-75067D01*
X111762Y-74561D01*
X112036Y-73899D01*
Y-73183D01*
X111762Y-72522D01*
X111256Y-72015D01*
X110594Y-71741D01*
D02*
G37*
G36*
X239580Y-74200D02*
X238864D01*
X238203Y-74474D01*
X237697Y-74980D01*
X237422Y-75642D01*
Y-76358D01*
X237697Y-77020D01*
X238203Y-77526D01*
X238864Y-77800D01*
X239580D01*
X240242Y-77526D01*
X240748Y-77020D01*
X241022Y-76358D01*
Y-75642D01*
X240748Y-74980D01*
X240242Y-74474D01*
X239580Y-74200D01*
D02*
G37*
G36*
X190439Y-74618D02*
X189723D01*
X189062Y-74892D01*
X188555Y-75399D01*
X188281Y-76060D01*
Y-76776D01*
X188555Y-77438D01*
X189062Y-77944D01*
X189723Y-78218D01*
X190439D01*
X191101Y-77944D01*
X191607Y-77438D01*
X191881Y-76776D01*
Y-76060D01*
X191607Y-75399D01*
X191101Y-74892D01*
X190439Y-74618D01*
D02*
G37*
G36*
X303950Y-69751D02*
X295263D01*
Y-78438D01*
X303950D01*
Y-69751D01*
D02*
G37*
G36*
X230819Y-77083D02*
X230103D01*
X229441Y-77357D01*
X228935Y-77863D01*
X228661Y-78525D01*
Y-79241D01*
X228935Y-79902D01*
X229441Y-80409D01*
X230103Y-80682D01*
X230819D01*
X231480Y-80409D01*
X231987Y-79902D01*
X232261Y-79241D01*
Y-78525D01*
X231987Y-77863D01*
X231480Y-77357D01*
X230819Y-77083D01*
D02*
G37*
G36*
X190613Y-78794D02*
X189897D01*
X189235Y-79068D01*
X188729Y-79575D01*
X188455Y-80237D01*
Y-80953D01*
X188729Y-81614D01*
X189235Y-82121D01*
X189897Y-82394D01*
X190613D01*
X191275Y-82121D01*
X191781Y-81614D01*
X192055Y-80953D01*
Y-80237D01*
X191781Y-79575D01*
X191275Y-79068D01*
X190613Y-78794D01*
D02*
G37*
G36*
X121181D02*
X120465D01*
X119804Y-79068D01*
X119298Y-79575D01*
X119023Y-80237D01*
Y-80953D01*
X119298Y-81614D01*
X119804Y-82121D01*
X120465Y-82394D01*
X121181D01*
X121843Y-82121D01*
X122349Y-81614D01*
X122623Y-80953D01*
Y-80237D01*
X122349Y-79575D01*
X121843Y-79068D01*
X121181Y-78794D01*
D02*
G37*
G36*
X192813Y-83519D02*
X192097D01*
X191436Y-83793D01*
X190929Y-84299D01*
X190655Y-84961D01*
Y-85677D01*
X190929Y-86339D01*
X191436Y-86845D01*
X192097Y-87119D01*
X192813D01*
X193475Y-86845D01*
X193981Y-86339D01*
X194255Y-85677D01*
Y-84961D01*
X193981Y-84299D01*
X193475Y-83793D01*
X192813Y-83519D01*
D02*
G37*
G36*
X120658D02*
X119942D01*
X119280Y-83793D01*
X118774Y-84299D01*
X118500Y-84961D01*
Y-85677D01*
X118774Y-86339D01*
X119280Y-86845D01*
X119942Y-87119D01*
X120658D01*
X121320Y-86845D01*
X121826Y-86339D01*
X122100Y-85677D01*
Y-84961D01*
X121826Y-84299D01*
X121320Y-83793D01*
X120658Y-83519D01*
D02*
G37*
G36*
X300178Y-79751D02*
X299035D01*
X297930Y-80047D01*
X296939Y-80619D01*
X296131Y-81428D01*
X295559Y-82418D01*
X295263Y-83523D01*
Y-84666D01*
X295559Y-85771D01*
X296131Y-86761D01*
X296939Y-87570D01*
X297930Y-88142D01*
X299035Y-88438D01*
X300178D01*
X301283Y-88142D01*
X302273Y-87570D01*
X303082Y-86761D01*
X303654Y-85771D01*
X303950Y-84666D01*
Y-83523D01*
X303654Y-82418D01*
X303082Y-81428D01*
X302273Y-80619D01*
X301283Y-80047D01*
X300178Y-79751D01*
D02*
G37*
G36*
X121786Y-88243D02*
X121070D01*
X120409Y-88517D01*
X119902Y-89024D01*
X119628Y-89685D01*
Y-90401D01*
X119902Y-91063D01*
X120409Y-91569D01*
X121070Y-91843D01*
X121786D01*
X122448Y-91569D01*
X122954Y-91063D01*
X123228Y-90401D01*
Y-89685D01*
X122954Y-89024D01*
X122448Y-88517D01*
X121786Y-88243D01*
D02*
G37*
G36*
X209019Y-94300D02*
X208303D01*
X207642Y-94574D01*
X207136Y-95080D01*
X206861Y-95742D01*
Y-96458D01*
X207136Y-97120D01*
X207642Y-97626D01*
X208303Y-97900D01*
X209019D01*
X209681Y-97626D01*
X210187Y-97120D01*
X210461Y-96458D01*
Y-95742D01*
X210187Y-95080D01*
X209681Y-94574D01*
X209019Y-94300D01*
D02*
G37*
G36*
X300178Y-89751D02*
X299035D01*
X297930Y-90047D01*
X296939Y-90619D01*
X296131Y-91428D01*
X295559Y-92418D01*
X295263Y-93523D01*
Y-94666D01*
X295559Y-95771D01*
X296131Y-96761D01*
X296939Y-97570D01*
X297930Y-98142D01*
X299035Y-98438D01*
X300178D01*
X301283Y-98142D01*
X302273Y-97570D01*
X303082Y-96761D01*
X303654Y-95771D01*
X303950Y-94666D01*
Y-93523D01*
X303654Y-92418D01*
X303082Y-91428D01*
X302273Y-90619D01*
X301283Y-90047D01*
X300178Y-89751D01*
D02*
G37*
G36*
X166813Y-95846D02*
X166097D01*
X165436Y-96120D01*
X164929Y-96626D01*
X164655Y-97288D01*
Y-98004D01*
X164929Y-98665D01*
X165436Y-99172D01*
X166097Y-99446D01*
X166813D01*
X167475Y-99172D01*
X167981Y-98665D01*
X168255Y-98004D01*
Y-97288D01*
X167981Y-96626D01*
X167475Y-96120D01*
X166813Y-95846D01*
D02*
G37*
G36*
X142695D02*
X141979D01*
X141318Y-96120D01*
X140811Y-96626D01*
X140537Y-97288D01*
Y-98004D01*
X140811Y-98665D01*
X141318Y-99172D01*
X141979Y-99446D01*
X142695D01*
X143357Y-99172D01*
X143863Y-98665D01*
X144137Y-98004D01*
Y-97288D01*
X143863Y-96626D01*
X143357Y-96120D01*
X142695Y-95846D01*
D02*
G37*
G36*
X279558Y-97600D02*
X278842D01*
X278180Y-97874D01*
X277674Y-98380D01*
X277400Y-99042D01*
Y-99758D01*
X277674Y-100420D01*
X278180Y-100926D01*
X278842Y-101200D01*
X279558D01*
X280220Y-100926D01*
X280726Y-100420D01*
X281000Y-99758D01*
Y-99042D01*
X280726Y-98380D01*
X280220Y-97874D01*
X279558Y-97600D01*
D02*
G37*
G36*
X196558Y-98580D02*
X195842D01*
X195180Y-98854D01*
X194674Y-99361D01*
X194399Y-100022D01*
Y-100738D01*
X194674Y-101400D01*
X195180Y-101906D01*
X195842Y-102180D01*
X196558D01*
X197219Y-101906D01*
X197725Y-101400D01*
X198000Y-100738D01*
Y-100022D01*
X197725Y-99361D01*
X197219Y-98854D01*
X196558Y-98580D01*
D02*
G37*
G36*
X198651Y-102980D02*
X197935D01*
X197274Y-103254D01*
X196767Y-103761D01*
X196493Y-104422D01*
Y-105138D01*
X196767Y-105800D01*
X197274Y-106306D01*
X197935Y-106580D01*
X198651D01*
X199313Y-106306D01*
X199323Y-106308D01*
X199448Y-106609D01*
X199954Y-107115D01*
X200616Y-107390D01*
X201332D01*
X201993Y-107115D01*
X202500Y-106609D01*
X202774Y-105948D01*
Y-105231D01*
X202500Y-104570D01*
X201993Y-104064D01*
X201332Y-103790D01*
X200616D01*
X199954Y-104064D01*
X199944Y-104062D01*
X199819Y-103761D01*
X199313Y-103254D01*
X198651Y-102980D01*
D02*
G37*
G36*
X206808Y-104478D02*
X206092D01*
X205431Y-104752D01*
X204924Y-105258D01*
X204650Y-105920D01*
Y-106636D01*
X204924Y-107298D01*
X205431Y-107804D01*
X206092Y-108078D01*
X206808D01*
X207470Y-107804D01*
X207976Y-107298D01*
X208250Y-106636D01*
Y-105920D01*
X207976Y-105258D01*
X207470Y-104752D01*
X206808Y-104478D01*
D02*
G37*
G36*
X300178Y-99751D02*
X299035D01*
X297930Y-100047D01*
X296939Y-100619D01*
X296131Y-101428D01*
X295559Y-102418D01*
X295263Y-103523D01*
Y-104666D01*
X295559Y-105771D01*
X296131Y-106761D01*
X296939Y-107570D01*
X297930Y-108142D01*
X299035Y-108438D01*
X300178D01*
X301283Y-108142D01*
X302273Y-107570D01*
X303082Y-106761D01*
X303654Y-105771D01*
X303950Y-104666D01*
Y-103523D01*
X303654Y-102418D01*
X303082Y-101428D01*
X302273Y-100619D01*
X301283Y-100047D01*
X300178Y-99751D01*
D02*
G37*
G36*
X123939Y-105877D02*
X123223D01*
X122562Y-106151D01*
X122055Y-106658D01*
X121781Y-107319D01*
Y-108035D01*
X122055Y-108697D01*
X122562Y-109203D01*
X123223Y-109477D01*
X123939D01*
X124601Y-109203D01*
X125107Y-108697D01*
X125381Y-108035D01*
Y-107319D01*
X125107Y-106658D01*
X124601Y-106151D01*
X123939Y-105877D01*
D02*
G37*
G36*
X210789Y-106678D02*
X210073D01*
X209412Y-106952D01*
X208905Y-107458D01*
X208631Y-108120D01*
Y-108836D01*
X208905Y-109498D01*
X209412Y-110004D01*
X210073Y-110278D01*
X210789D01*
X211451Y-110004D01*
X211957Y-109498D01*
X212231Y-108836D01*
Y-108120D01*
X211957Y-107458D01*
X211451Y-106952D01*
X210789Y-106678D01*
D02*
G37*
G36*
X142695Y-107017D02*
X141979D01*
X141318Y-107290D01*
X140811Y-107797D01*
X140537Y-108458D01*
Y-109175D01*
X140811Y-109836D01*
X141318Y-110342D01*
X141979Y-110617D01*
X142695D01*
X143357Y-110342D01*
X143863Y-109836D01*
X144137Y-109175D01*
Y-108458D01*
X143863Y-107797D01*
X143357Y-107290D01*
X142695Y-107017D01*
D02*
G37*
G36*
X166813Y-107291D02*
X166097D01*
X165436Y-107565D01*
X164929Y-108071D01*
X164655Y-108733D01*
Y-109449D01*
X164929Y-110110D01*
X165436Y-110617D01*
X166097Y-110891D01*
X166813D01*
X167475Y-110617D01*
X167981Y-110110D01*
X168255Y-109449D01*
Y-108733D01*
X167981Y-108071D01*
X167475Y-107565D01*
X166813Y-107291D01*
D02*
G37*
G36*
X217158Y-108400D02*
X216442D01*
X215780Y-108674D01*
X215274Y-109180D01*
X215000Y-109842D01*
Y-110558D01*
X215274Y-111220D01*
X215780Y-111726D01*
X216442Y-112000D01*
X217158D01*
X217820Y-111726D01*
X218326Y-111220D01*
X218600Y-110558D01*
Y-109842D01*
X218326Y-109180D01*
X217820Y-108674D01*
X217158Y-108400D01*
D02*
G37*
G36*
X222758Y-110000D02*
X222042D01*
X221380Y-110274D01*
X220874Y-110780D01*
X220600Y-111442D01*
Y-112158D01*
X220874Y-112820D01*
X221380Y-113326D01*
X222042Y-113600D01*
X222758D01*
X223420Y-113326D01*
X223926Y-112820D01*
X224200Y-112158D01*
Y-111442D01*
X223926Y-110780D01*
X223420Y-110274D01*
X222758Y-110000D01*
D02*
G37*
G36*
X206579D02*
X205863D01*
X205201Y-110274D01*
X204695Y-110780D01*
X204421Y-111442D01*
Y-112158D01*
X204695Y-112820D01*
X205201Y-113326D01*
X205863Y-113600D01*
X206579D01*
X207240Y-113326D01*
X207747Y-112820D01*
X208021Y-112158D01*
Y-111442D01*
X207747Y-110780D01*
X207240Y-110274D01*
X206579Y-110000D01*
D02*
G37*
G36*
X231378Y-111800D02*
X230662D01*
X230001Y-112074D01*
X229494Y-112580D01*
X229220Y-113242D01*
Y-113958D01*
X229494Y-114620D01*
X230001Y-115126D01*
X230662Y-115400D01*
X231378D01*
X232040Y-115126D01*
X232546Y-114620D01*
X232820Y-113958D01*
Y-113242D01*
X232546Y-112580D01*
X232040Y-112074D01*
X231378Y-111800D01*
D02*
G37*
G36*
X120177Y-111865D02*
X119461D01*
X118799Y-112139D01*
X118293Y-112646D01*
X118019Y-113307D01*
Y-114023D01*
X118293Y-114685D01*
X118799Y-115191D01*
X119461Y-115465D01*
X120177D01*
X120838Y-115191D01*
X121345Y-114685D01*
X121619Y-114023D01*
Y-113307D01*
X121345Y-112646D01*
X120838Y-112139D01*
X120177Y-111865D01*
D02*
G37*
G36*
X192741Y-111950D02*
X192025D01*
X191363Y-112224D01*
X190857Y-112731D01*
X190583Y-113392D01*
Y-114108D01*
X190857Y-114770D01*
X191363Y-115276D01*
X192025Y-115550D01*
X192741D01*
X193403Y-115276D01*
X193909Y-114770D01*
X194183Y-114108D01*
Y-113392D01*
X193909Y-112731D01*
X193403Y-112224D01*
X192741Y-111950D01*
D02*
G37*
G36*
X300178Y-109751D02*
X299035D01*
X297930Y-110047D01*
X296939Y-110619D01*
X296131Y-111428D01*
X295559Y-112418D01*
X295263Y-113523D01*
Y-114666D01*
X295559Y-115771D01*
X296131Y-116761D01*
X296939Y-117570D01*
X297930Y-118142D01*
X299035Y-118438D01*
X300178D01*
X301283Y-118142D01*
X302273Y-117570D01*
X303082Y-116761D01*
X303654Y-115771D01*
X303950Y-114666D01*
Y-113523D01*
X303654Y-112418D01*
X303082Y-111428D01*
X302273Y-110619D01*
X301283Y-110047D01*
X300178Y-109751D01*
D02*
G37*
G36*
X211836Y-116310D02*
X211120D01*
X210458Y-116584D01*
X209952Y-117091D01*
X209678Y-117752D01*
Y-118468D01*
X209952Y-119130D01*
X210458Y-119636D01*
X211120Y-119910D01*
X211836D01*
X212498Y-119636D01*
X213004Y-119130D01*
X213278Y-118468D01*
Y-117752D01*
X213004Y-117091D01*
X212498Y-116584D01*
X211836Y-116310D01*
D02*
G37*
G36*
X119977Y-116730D02*
X119261D01*
X118600Y-117004D01*
X118094Y-117511D01*
X117819Y-118172D01*
Y-118888D01*
X118094Y-119550D01*
X118600Y-120056D01*
X119261Y-120330D01*
X119977D01*
X120639Y-120056D01*
X121145Y-119550D01*
X121419Y-118888D01*
Y-118172D01*
X121145Y-117511D01*
X120639Y-117004D01*
X119977Y-116730D01*
D02*
G37*
G36*
X115758Y-120200D02*
X115042D01*
X114380Y-120474D01*
X113874Y-120980D01*
X113600Y-121642D01*
Y-122358D01*
X113874Y-123020D01*
X114380Y-123526D01*
X115042Y-123800D01*
X115758D01*
X116420Y-123526D01*
X116926Y-123020D01*
X117200Y-122358D01*
Y-121642D01*
X116926Y-120980D01*
X116420Y-120474D01*
X115758Y-120200D01*
D02*
G37*
G36*
X123220Y-121314D02*
X122504D01*
X121843Y-121588D01*
X121336Y-122095D01*
X121062Y-122756D01*
Y-123472D01*
X121336Y-124134D01*
X121843Y-124640D01*
X122504Y-124914D01*
X123220D01*
X123882Y-124640D01*
X124388Y-124134D01*
X124662Y-123472D01*
Y-122756D01*
X124388Y-122095D01*
X123882Y-121588D01*
X123220Y-121314D01*
D02*
G37*
G36*
X107838Y-122216D02*
X107122D01*
X106461Y-122490D01*
X105954Y-122996D01*
X105680Y-123658D01*
Y-124374D01*
X105954Y-125035D01*
X106461Y-125542D01*
X107122Y-125816D01*
X107838D01*
X108500Y-125542D01*
X109006Y-125035D01*
X109280Y-124374D01*
Y-123658D01*
X109006Y-122996D01*
X108500Y-122490D01*
X107838Y-122216D01*
D02*
G37*
G36*
X191106Y-121314D02*
X190390D01*
X189728Y-121588D01*
X189222Y-122095D01*
X188948Y-122756D01*
Y-123472D01*
X189222Y-124134D01*
X189728Y-124640D01*
X189770Y-124851D01*
X189456Y-125165D01*
X189182Y-125826D01*
Y-126542D01*
X189456Y-127204D01*
X189962Y-127710D01*
X190624Y-127984D01*
X191340D01*
X192002Y-127710D01*
X192508Y-127204D01*
X192782Y-126542D01*
Y-125826D01*
X192508Y-125165D01*
X192002Y-124658D01*
X191960Y-124448D01*
X192274Y-124134D01*
X192548Y-123472D01*
Y-122756D01*
X192274Y-122095D01*
X191767Y-121588D01*
X191106Y-121314D01*
D02*
G37*
G36*
X300178Y-119751D02*
X299035D01*
X297930Y-120047D01*
X296939Y-120619D01*
X296131Y-121428D01*
X295559Y-122418D01*
X295263Y-123523D01*
Y-124666D01*
X295559Y-125771D01*
X296131Y-126761D01*
X296939Y-127570D01*
X297930Y-128142D01*
X299035Y-128438D01*
X300178D01*
X301283Y-128142D01*
X302273Y-127570D01*
X303082Y-126761D01*
X303654Y-125771D01*
X303950Y-124666D01*
Y-123523D01*
X303654Y-122418D01*
X303082Y-121428D01*
X302273Y-120619D01*
X301283Y-120047D01*
X300178Y-119751D01*
D02*
G37*
G36*
X250497Y-126334D02*
X249781D01*
X249119Y-126608D01*
X248613Y-127114D01*
X248339Y-127776D01*
Y-128492D01*
X248613Y-129154D01*
X249119Y-129660D01*
X249781Y-129934D01*
X250497D01*
X251158Y-129660D01*
X251665Y-129154D01*
X251939Y-128492D01*
Y-127776D01*
X251665Y-127114D01*
X251158Y-126608D01*
X250497Y-126334D01*
D02*
G37*
G36*
X166813Y-135731D02*
X166097D01*
X165436Y-136005D01*
X164929Y-136512D01*
X164655Y-137173D01*
Y-137889D01*
X164929Y-138551D01*
X165436Y-139057D01*
X166097Y-139331D01*
X166813D01*
X167475Y-139057D01*
X167981Y-138551D01*
X168255Y-137889D01*
Y-137173D01*
X167981Y-136512D01*
X167475Y-136005D01*
X166813Y-135731D01*
D02*
G37*
G36*
X146618Y-136080D02*
X145902D01*
X145240Y-136354D01*
X144734Y-136860D01*
X144460Y-137522D01*
Y-138238D01*
X144734Y-138900D01*
X145240Y-139406D01*
X145902Y-139680D01*
X146618D01*
X147280Y-139406D01*
X147786Y-138900D01*
X148060Y-138238D01*
Y-137522D01*
X147786Y-136860D01*
X147280Y-136354D01*
X146618Y-136080D01*
D02*
G37*
G36*
X141634D02*
X140918D01*
X140256Y-136354D01*
X139750Y-136860D01*
X139476Y-137522D01*
Y-138238D01*
X139750Y-138900D01*
X140256Y-139406D01*
X140918Y-139680D01*
X141634D01*
X142295Y-139406D01*
X142801Y-138900D01*
X143076Y-138238D01*
Y-137522D01*
X142801Y-136860D01*
X142295Y-136354D01*
X141634Y-136080D01*
D02*
G37*
G36*
X129704D02*
X128988D01*
X128327Y-136354D01*
X127821Y-136860D01*
X127547Y-137522D01*
Y-138238D01*
X127821Y-138900D01*
X128327Y-139406D01*
X128988Y-139680D01*
X129704D01*
X130366Y-139406D01*
X130872Y-138900D01*
X131147Y-138238D01*
Y-137522D01*
X130872Y-136860D01*
X130366Y-136354D01*
X129704Y-136080D01*
D02*
G37*
G36*
X180948Y-137734D02*
X180232D01*
X179570Y-138008D01*
X179064Y-138514D01*
X178790Y-139176D01*
Y-139892D01*
X179064Y-140553D01*
X179570Y-141060D01*
X180232Y-141334D01*
X180948D01*
X181610Y-141060D01*
X182116Y-140553D01*
X182390Y-139892D01*
Y-139176D01*
X182116Y-138514D01*
X181610Y-138008D01*
X180948Y-137734D01*
D02*
G37*
G36*
X162958D02*
X162242D01*
X161580Y-138008D01*
X161074Y-138514D01*
X160800Y-139176D01*
Y-139892D01*
X161074Y-140553D01*
X161580Y-141060D01*
X162242Y-141334D01*
X162958D01*
X163620Y-141060D01*
X164126Y-140553D01*
X164400Y-139892D01*
Y-139176D01*
X164126Y-138514D01*
X163620Y-138008D01*
X162958Y-137734D01*
D02*
G37*
G36*
X150958Y-135900D02*
X150242D01*
X149580Y-136174D01*
X149074Y-136680D01*
X148800Y-137342D01*
Y-138058D01*
X149074Y-138720D01*
X149580Y-139226D01*
X150242Y-139500D01*
X150636D01*
X150972Y-139994D01*
X150900Y-140169D01*
Y-140885D01*
X151174Y-141546D01*
X151680Y-142053D01*
X152342Y-142327D01*
X153058D01*
X153720Y-142053D01*
X154226Y-141546D01*
X154500Y-140885D01*
Y-140169D01*
X154226Y-139507D01*
X153720Y-139001D01*
X153058Y-138727D01*
X152664D01*
X152328Y-138233D01*
X152400Y-138058D01*
Y-137342D01*
X152126Y-136680D01*
X151620Y-136174D01*
X150958Y-135900D01*
D02*
G37*
G36*
X206458Y-138900D02*
X205742D01*
X205080Y-139174D01*
X204574Y-139680D01*
X204300Y-140342D01*
Y-141058D01*
X204574Y-141720D01*
X205080Y-142226D01*
X205742Y-142500D01*
X206458D01*
X207120Y-142226D01*
X207626Y-141720D01*
X207900Y-141058D01*
Y-140342D01*
X207626Y-139680D01*
X207120Y-139174D01*
X206458Y-138900D01*
D02*
G37*
G36*
X306312Y-134082D02*
X297625D01*
Y-142769D01*
X306312D01*
Y-134082D01*
D02*
G37*
G36*
X251570Y-139720D02*
X250853D01*
X250192Y-139994D01*
X249686Y-140500D01*
X249411Y-141162D01*
Y-141878D01*
X249686Y-142539D01*
X250192Y-143046D01*
X250853Y-143320D01*
X251570D01*
X252231Y-143046D01*
X252737Y-142539D01*
X253011Y-141878D01*
Y-141162D01*
X252737Y-140500D01*
X252231Y-139994D01*
X251570Y-139720D01*
D02*
G37*
G36*
X115868Y-140608D02*
X115152D01*
X114491Y-140882D01*
X113984Y-141388D01*
X113710Y-142050D01*
Y-142766D01*
X113984Y-143428D01*
X114491Y-143934D01*
X115152Y-144208D01*
X115868D01*
X116530Y-143934D01*
X117036Y-143428D01*
X117310Y-142766D01*
Y-142050D01*
X117036Y-141388D01*
X116530Y-140882D01*
X115868Y-140608D01*
D02*
G37*
G36*
X122975Y-140927D02*
X122259D01*
X121598Y-141201D01*
X121091Y-141707D01*
X120817Y-142369D01*
Y-143085D01*
X121091Y-143746D01*
X121598Y-144253D01*
X122259Y-144527D01*
X122975D01*
X123637Y-144253D01*
X124143Y-143746D01*
X124417Y-143085D01*
Y-142369D01*
X124143Y-141707D01*
X123637Y-141201D01*
X122975Y-140927D01*
D02*
G37*
G36*
X189857Y-142495D02*
X189140D01*
X188479Y-142769D01*
X187972Y-143276D01*
X187698Y-143937D01*
Y-144653D01*
X187972Y-145315D01*
X188479Y-145821D01*
X189140Y-146095D01*
X189857D01*
X190518Y-145821D01*
X191024Y-145315D01*
X191298Y-144653D01*
Y-143937D01*
X191024Y-143276D01*
X190518Y-142769D01*
X189857Y-142495D01*
D02*
G37*
G36*
X159558D02*
X158842D01*
X158180Y-142769D01*
X157674Y-143276D01*
X157400Y-143937D01*
Y-144653D01*
X157674Y-145315D01*
X158180Y-145821D01*
X158842Y-146095D01*
X159558D01*
X160220Y-145821D01*
X160726Y-145315D01*
X161000Y-144653D01*
Y-143937D01*
X160726Y-143276D01*
X160220Y-142769D01*
X159558Y-142495D01*
D02*
G37*
G36*
X146618Y-147580D02*
X145902D01*
X145240Y-147854D01*
X144734Y-148361D01*
X144460Y-149022D01*
Y-149738D01*
X144734Y-150400D01*
X145240Y-150906D01*
X145902Y-151180D01*
X146618D01*
X147280Y-150906D01*
X147786Y-150400D01*
X148060Y-149738D01*
Y-149022D01*
X147786Y-148361D01*
X147280Y-147854D01*
X146618Y-147580D01*
D02*
G37*
G36*
X302540Y-144082D02*
X301397D01*
X300292Y-144378D01*
X299302Y-144950D01*
X298493Y-145758D01*
X297921Y-146749D01*
X297625Y-147853D01*
Y-148997D01*
X297921Y-150102D01*
X298493Y-151092D01*
X299302Y-151901D01*
X300292Y-152472D01*
X301397Y-152769D01*
X302540D01*
X303645Y-152472D01*
X304635Y-151901D01*
X305444Y-151092D01*
X306016Y-150102D01*
X306312Y-148997D01*
Y-147853D01*
X306016Y-146749D01*
X305444Y-145758D01*
X304635Y-144950D01*
X303645Y-144378D01*
X302540Y-144082D01*
D02*
G37*
G36*
X251401Y-152125D02*
X250684D01*
X250023Y-152399D01*
X249517Y-152906D01*
X249242Y-153567D01*
Y-154283D01*
X249517Y-154945D01*
X250023Y-155451D01*
X250684Y-155725D01*
X251401D01*
X252062Y-155451D01*
X252569Y-154945D01*
X252842Y-154283D01*
Y-153567D01*
X252569Y-152906D01*
X252062Y-152399D01*
X251401Y-152125D01*
D02*
G37*
G36*
X211258D02*
X210542D01*
X209880Y-152399D01*
X209374Y-152906D01*
X209100Y-153567D01*
Y-154283D01*
X209374Y-154945D01*
X209880Y-155451D01*
X210542Y-155725D01*
X211258D01*
X211920Y-155451D01*
X212426Y-154945D01*
X212700Y-154283D01*
Y-153567D01*
X212426Y-152906D01*
X211920Y-152399D01*
X211258Y-152125D01*
D02*
G37*
G36*
X201420Y-156600D02*
X200704D01*
X200042Y-156874D01*
X199536Y-157380D01*
X199262Y-158042D01*
Y-158758D01*
X199536Y-159420D01*
X200042Y-159926D01*
X200704Y-160200D01*
X201420D01*
X202081Y-159926D01*
X202588Y-159420D01*
X202862Y-158758D01*
Y-158042D01*
X202588Y-157380D01*
X202081Y-156874D01*
X201420Y-156600D01*
D02*
G37*
G36*
X146618Y-157580D02*
X145902D01*
X145240Y-157854D01*
X144734Y-158361D01*
X144460Y-159022D01*
Y-159738D01*
X144734Y-160400D01*
X145240Y-160906D01*
X145902Y-161180D01*
X146618D01*
X147280Y-160906D01*
X147786Y-160400D01*
X148060Y-159738D01*
Y-159022D01*
X147786Y-158361D01*
X147280Y-157854D01*
X146618Y-157580D01*
D02*
G37*
G36*
X302540Y-154082D02*
X301397D01*
X300292Y-154378D01*
X299302Y-154950D01*
X298493Y-155758D01*
X297921Y-156749D01*
X297625Y-157853D01*
Y-158997D01*
X297921Y-160102D01*
X298493Y-161092D01*
X299302Y-161901D01*
X300292Y-162472D01*
X301397Y-162768D01*
X302540D01*
X303645Y-162472D01*
X304635Y-161901D01*
X305444Y-161092D01*
X306016Y-160102D01*
X306312Y-158997D01*
Y-157853D01*
X306016Y-156749D01*
X305444Y-155758D01*
X304635Y-154950D01*
X303645Y-154378D01*
X302540Y-154082D01*
D02*
G37*
G36*
X146618Y-162580D02*
X145902D01*
X145240Y-162854D01*
X144734Y-163361D01*
X144460Y-164022D01*
Y-164738D01*
X144734Y-165400D01*
X145240Y-165906D01*
X145902Y-166180D01*
X146618D01*
X147280Y-165906D01*
X147786Y-165400D01*
X148060Y-164738D01*
Y-164022D01*
X147786Y-163361D01*
X147280Y-162854D01*
X146618Y-162580D01*
D02*
G37*
G36*
X125374D02*
X124658D01*
X123996Y-162854D01*
X123490Y-163361D01*
X123216Y-164022D01*
Y-164738D01*
X123490Y-165400D01*
X123996Y-165906D01*
X124658Y-166180D01*
X125374D01*
X126035Y-165906D01*
X126542Y-165400D01*
X126816Y-164738D01*
Y-164022D01*
X126542Y-163361D01*
X126035Y-162854D01*
X125374Y-162580D01*
D02*
G37*
G36*
X150958Y-162115D02*
X150242D01*
X149580Y-162389D01*
X149074Y-162895D01*
X148800Y-163557D01*
Y-164273D01*
X149074Y-164934D01*
X149580Y-165440D01*
X150242Y-165715D01*
X150958D01*
X151253Y-165593D01*
X151265Y-165601D01*
X151539Y-166262D01*
X152045Y-166769D01*
X152707Y-167043D01*
X153423D01*
X154085Y-166769D01*
X154591Y-166262D01*
X154865Y-165601D01*
Y-164885D01*
X154591Y-164223D01*
X154085Y-163717D01*
X153423Y-163443D01*
X152707D01*
X152412Y-163565D01*
X152400Y-163557D01*
X152126Y-162895D01*
X151620Y-162389D01*
X150958Y-162115D01*
D02*
G37*
G36*
X257558Y-166500D02*
X256842D01*
X256180Y-166774D01*
X255674Y-167280D01*
X255400Y-167942D01*
Y-168658D01*
X255674Y-169320D01*
X256180Y-169826D01*
X256842Y-170100D01*
X257558D01*
X258220Y-169826D01*
X258726Y-169320D01*
X259000Y-168658D01*
Y-167942D01*
X258726Y-167280D01*
X258220Y-166774D01*
X257558Y-166500D01*
D02*
G37*
G36*
X107777Y-166839D02*
X107061D01*
X106399Y-167113D01*
X105893Y-167619D01*
X105619Y-168281D01*
Y-168997D01*
X105893Y-169659D01*
X106399Y-170165D01*
X107061Y-170439D01*
X107777D01*
X108438Y-170165D01*
X108945Y-169659D01*
X109219Y-168997D01*
Y-168281D01*
X108945Y-167619D01*
X108438Y-167113D01*
X107777Y-166839D01*
D02*
G37*
G36*
X123174Y-167580D02*
X122458D01*
X121796Y-167854D01*
X121290Y-168361D01*
X121016Y-169022D01*
Y-169738D01*
X121290Y-170400D01*
X121796Y-170906D01*
X122458Y-171180D01*
X123174D01*
X123835Y-170906D01*
X124342Y-170400D01*
X124616Y-169738D01*
Y-169022D01*
X124342Y-168361D01*
X123835Y-167854D01*
X123174Y-167580D01*
D02*
G37*
G36*
X115558Y-167800D02*
X114842D01*
X114180Y-168074D01*
X113674Y-168580D01*
X113400Y-169242D01*
Y-169958D01*
X113674Y-170620D01*
X114180Y-171126D01*
X114842Y-171400D01*
X115558D01*
X116220Y-171126D01*
X116726Y-170620D01*
X117000Y-169958D01*
Y-169242D01*
X116726Y-168580D01*
X116220Y-168074D01*
X115558Y-167800D01*
D02*
G37*
G36*
X134153Y-142895D02*
X133437D01*
X132776Y-143169D01*
X132269Y-143676D01*
X131995Y-144337D01*
Y-145053D01*
X132269Y-145715D01*
X132776Y-146221D01*
X132829Y-146243D01*
X132795Y-146770D01*
X132722Y-146790D01*
X132088Y-147156D01*
X131571Y-147673D01*
X131205Y-148307D01*
X131015Y-149014D01*
Y-149746D01*
X131205Y-150453D01*
X131571Y-151087D01*
X132072Y-151588D01*
X132132Y-151660D01*
Y-152101D01*
X132072Y-152173D01*
X131571Y-152673D01*
X131205Y-153307D01*
X131015Y-154014D01*
Y-154746D01*
X131205Y-155453D01*
X131571Y-156087D01*
X132072Y-156588D01*
X132132Y-156660D01*
Y-157101D01*
X132072Y-157173D01*
X131571Y-157673D01*
X131205Y-158307D01*
X131015Y-159014D01*
Y-159746D01*
X131205Y-160453D01*
X131571Y-161087D01*
X132072Y-161588D01*
X132132Y-161660D01*
Y-162101D01*
X132072Y-162172D01*
X131571Y-162673D01*
X131205Y-163307D01*
X131015Y-164014D01*
Y-164746D01*
X131205Y-165453D01*
X131571Y-166087D01*
X132072Y-166588D01*
X132132Y-166660D01*
Y-167101D01*
X132072Y-167173D01*
X131571Y-167673D01*
X131205Y-168307D01*
X131015Y-169014D01*
Y-169746D01*
X131205Y-170453D01*
X131571Y-171087D01*
X132088Y-171605D01*
X132722Y-171971D01*
X133429Y-172160D01*
X134161D01*
X134868Y-171971D01*
X135502Y-171605D01*
X136003Y-171104D01*
X136075Y-171043D01*
X136516D01*
X136588Y-171104D01*
X137088Y-171605D01*
X137722Y-171971D01*
X138429Y-172160D01*
X139161D01*
X139868Y-171971D01*
X140502Y-171605D01*
X141020Y-171087D01*
X141386Y-170453D01*
X141575Y-169746D01*
Y-169014D01*
X141386Y-168307D01*
X141020Y-167673D01*
X140519Y-167173D01*
X140458Y-167101D01*
Y-166660D01*
X140519Y-166588D01*
X141020Y-166087D01*
X141386Y-165453D01*
X141575Y-164746D01*
Y-164014D01*
X141386Y-163307D01*
X141020Y-162673D01*
X140519Y-162172D01*
X140458Y-162101D01*
Y-161660D01*
X140519Y-161588D01*
X141020Y-161087D01*
X141386Y-160453D01*
X141575Y-159746D01*
Y-159014D01*
X141386Y-158307D01*
X141020Y-157673D01*
X140519Y-157173D01*
X140458Y-157101D01*
Y-156660D01*
X140519Y-156588D01*
X141020Y-156087D01*
X141386Y-155453D01*
X141575Y-154746D01*
Y-154014D01*
X141386Y-153307D01*
X141020Y-152673D01*
X140519Y-152173D01*
X140458Y-152101D01*
Y-151660D01*
X140519Y-151588D01*
X141020Y-151087D01*
X141386Y-150453D01*
X141575Y-149746D01*
Y-149014D01*
X141386Y-148307D01*
X141020Y-147673D01*
X140502Y-147156D01*
X139868Y-146790D01*
X139161Y-146600D01*
X138429D01*
X137722Y-146790D01*
X137088Y-147156D01*
X136588Y-147657D01*
X136516Y-147717D01*
X136075D01*
X136003Y-147657D01*
X135502Y-147156D01*
X134868Y-146790D01*
X134796Y-146770D01*
X134761Y-146243D01*
X134815Y-146221D01*
X135321Y-145715D01*
X135595Y-145053D01*
Y-144337D01*
X135321Y-143676D01*
X134815Y-143169D01*
X134153Y-142895D01*
D02*
G37*
G36*
X175658Y-169400D02*
X174942D01*
X174280Y-169674D01*
X173774Y-170180D01*
X173500Y-170842D01*
Y-171558D01*
X173774Y-172220D01*
X174280Y-172726D01*
X174942Y-173000D01*
X175658D01*
X176320Y-172726D01*
X176826Y-172220D01*
X177100Y-171558D01*
Y-170842D01*
X176826Y-170180D01*
X176320Y-169674D01*
X175658Y-169400D01*
D02*
G37*
G36*
X279558Y-171200D02*
X278842D01*
X278180Y-171474D01*
X277674Y-171980D01*
X277400Y-172642D01*
Y-173358D01*
X277674Y-174020D01*
X278180Y-174526D01*
X278842Y-174800D01*
X279558D01*
X280220Y-174526D01*
X280726Y-174020D01*
X281000Y-173358D01*
Y-172642D01*
X280726Y-171980D01*
X280220Y-171474D01*
X279558Y-171200D01*
D02*
G37*
G36*
X256658Y-171500D02*
X255942D01*
X255280Y-171774D01*
X254774Y-172280D01*
X254500Y-172942D01*
Y-173658D01*
X254774Y-174320D01*
X255280Y-174826D01*
X255942Y-175100D01*
X256658D01*
X257320Y-174826D01*
X257826Y-174320D01*
X258100Y-173658D01*
Y-172942D01*
X257826Y-172280D01*
X257320Y-171774D01*
X256658Y-171500D01*
D02*
G37*
G36*
X300343Y-170557D02*
X291657D01*
Y-179243D01*
X300343D01*
Y-170557D01*
D02*
G37*
G36*
X296572Y-180557D02*
X295428D01*
X294323Y-180853D01*
X293333Y-181424D01*
X292525Y-182233D01*
X291953Y-183224D01*
X291657Y-184328D01*
Y-185472D01*
X291953Y-186576D01*
X292525Y-187567D01*
X293333Y-188375D01*
X294323Y-188947D01*
X295428Y-189243D01*
X296572D01*
X297676Y-188947D01*
X298667Y-188375D01*
X299476Y-187567D01*
X300047Y-186576D01*
X300343Y-185472D01*
Y-184328D01*
X300047Y-183224D01*
X299476Y-182233D01*
X298667Y-181424D01*
X297676Y-180853D01*
X296572Y-180557D01*
D02*
G37*
G36*
Y-190557D02*
X295428D01*
X294323Y-190853D01*
X293333Y-191425D01*
X292525Y-192233D01*
X291953Y-193224D01*
X291657Y-194328D01*
Y-195472D01*
X291953Y-196576D01*
X292525Y-197567D01*
X293333Y-198375D01*
X294323Y-198947D01*
X295428Y-199243D01*
X296572D01*
X297676Y-198947D01*
X298667Y-198375D01*
X299476Y-197567D01*
X300047Y-196576D01*
X300343Y-195472D01*
Y-194328D01*
X300047Y-193224D01*
X299476Y-192233D01*
X298667Y-191425D01*
X297676Y-190853D01*
X296572Y-190557D01*
D02*
G37*
G36*
X240158Y-224914D02*
X232283D01*
X231874Y-224995D01*
X231526Y-225227D01*
X231294Y-225575D01*
X231213Y-225984D01*
Y-241732D01*
X231294Y-242142D01*
X231526Y-242489D01*
X231874Y-242721D01*
X232283Y-242803D01*
X240158D01*
X240567Y-242721D01*
X240915Y-242489D01*
X241147Y-242142D01*
X241228Y-241732D01*
Y-225984D01*
X241147Y-225575D01*
X240915Y-225227D01*
X240567Y-224995D01*
X240158Y-224914D01*
D02*
G37*
G36*
X223496Y-242591D02*
X222779D01*
X222118Y-242865D01*
X221612Y-243371D01*
X221338Y-244033D01*
Y-244749D01*
X221612Y-245410D01*
X222118Y-245917D01*
X222779Y-246191D01*
X223496D01*
X224157Y-245917D01*
X224663Y-245410D01*
X224938Y-244749D01*
Y-244033D01*
X224663Y-243371D01*
X224157Y-242865D01*
X223496Y-242591D01*
D02*
G37*
G36*
X244559Y-266753D02*
X243843D01*
X243181Y-267027D01*
X242675Y-267533D01*
X242401Y-268195D01*
Y-268911D01*
X242675Y-269572D01*
X243181Y-270079D01*
X243843Y-270353D01*
X244559D01*
X245220Y-270079D01*
X245727Y-269572D01*
X246001Y-268911D01*
Y-268195D01*
X245727Y-267533D01*
X245220Y-267027D01*
X244559Y-266753D01*
D02*
G37*
G36*
X238068D02*
X237351D01*
X236690Y-267027D01*
X236184Y-267533D01*
X235910Y-268195D01*
Y-268911D01*
X236184Y-269572D01*
X236690Y-270079D01*
X237351Y-270353D01*
X238068D01*
X238729Y-270079D01*
X239235Y-269572D01*
X239510Y-268911D01*
Y-268195D01*
X239235Y-267533D01*
X238729Y-267027D01*
X238068Y-266753D01*
D02*
G37*
G36*
X248153Y-271454D02*
X247437D01*
X246776Y-271728D01*
X246269Y-272234D01*
X245995Y-272896D01*
Y-273612D01*
X246269Y-274274D01*
X246776Y-274780D01*
X247437Y-275054D01*
X248153D01*
X248815Y-274780D01*
X249321Y-274274D01*
X249595Y-273612D01*
Y-272896D01*
X249321Y-272234D01*
X248815Y-271728D01*
X248153Y-271454D01*
D02*
G37*
G36*
X222058Y-283800D02*
X221342D01*
X220680Y-284074D01*
X220174Y-284580D01*
X219900Y-285242D01*
Y-285958D01*
X220174Y-286620D01*
X220680Y-287126D01*
X221342Y-287400D01*
X222058D01*
X222720Y-287126D01*
X223226Y-286620D01*
X223500Y-285958D01*
Y-285242D01*
X223226Y-284580D01*
X222720Y-284074D01*
X222058Y-283800D01*
D02*
G37*
%LPD*%
G36*
X239087Y-240662D02*
X233354D01*
Y-227055D01*
X239087D01*
Y-240662D01*
D02*
G37*
%LPC*%
G36*
X34958Y-6800D02*
X34242D01*
X33580Y-7074D01*
X33074Y-7580D01*
X32800Y-8242D01*
Y-8958D01*
X33074Y-9620D01*
X33580Y-10126D01*
X34242Y-10400D01*
X34958D01*
X35620Y-10126D01*
X36126Y-9620D01*
X36400Y-8958D01*
Y-8242D01*
X36126Y-7580D01*
X35620Y-7074D01*
X34958Y-6800D01*
D02*
G37*
G36*
X81438Y-7468D02*
X81366D01*
Y-11311D01*
X85209D01*
Y-11239D01*
X84913Y-10135D01*
X84342Y-9144D01*
X83533Y-8336D01*
X82543Y-7764D01*
X81438Y-7468D01*
D02*
G37*
G36*
X80366D02*
X80294D01*
X79190Y-7764D01*
X78199Y-8336D01*
X77391Y-9144D01*
X76819Y-10135D01*
X76523Y-11239D01*
Y-11311D01*
X80366D01*
Y-7468D01*
D02*
G37*
G36*
X18123Y-3531D02*
X9436D01*
Y-12217D01*
X18123D01*
Y-3531D01*
D02*
G37*
G36*
X85209Y-12311D02*
X81366D01*
Y-16154D01*
X81438D01*
X82543Y-15858D01*
X83533Y-15286D01*
X84342Y-14478D01*
X84913Y-13487D01*
X85209Y-12383D01*
Y-12311D01*
D02*
G37*
G36*
X80366D02*
X76523D01*
Y-12383D01*
X76819Y-13487D01*
X77391Y-14478D01*
X78199Y-15286D01*
X79190Y-15858D01*
X80294Y-16154D01*
X80366D01*
Y-12311D01*
D02*
G37*
G36*
X71438Y-7468D02*
X70294D01*
X69190Y-7764D01*
X68199Y-8336D01*
X67391Y-9144D01*
X66819Y-10135D01*
X66523Y-11239D01*
Y-12383D01*
X66819Y-13487D01*
X67391Y-14478D01*
X68199Y-15286D01*
X69190Y-15858D01*
X70294Y-16154D01*
X71438D01*
X72543Y-15858D01*
X73533Y-15286D01*
X74342Y-14478D01*
X74914Y-13487D01*
X75209Y-12383D01*
Y-11239D01*
X74914Y-10135D01*
X74342Y-9144D01*
X73533Y-8336D01*
X72543Y-7764D01*
X71438Y-7468D01*
D02*
G37*
G36*
X65209D02*
X56523D01*
Y-16154D01*
X65209D01*
Y-7468D01*
D02*
G37*
G36*
X52327Y-15916D02*
X51610D01*
X50949Y-16191D01*
X50442Y-16697D01*
X50169Y-17358D01*
Y-18075D01*
X50442Y-18736D01*
X50949Y-19242D01*
X51610Y-19516D01*
X52327D01*
X52988Y-19242D01*
X53495Y-18736D01*
X53768Y-18075D01*
Y-17358D01*
X53495Y-16697D01*
X52988Y-16191D01*
X52327Y-15916D01*
D02*
G37*
G36*
X32248D02*
X31532D01*
X30870Y-16191D01*
X30364Y-16697D01*
X30090Y-17358D01*
Y-18075D01*
X30364Y-18736D01*
X30870Y-19242D01*
X31532Y-19516D01*
X32248D01*
X32909Y-19242D01*
X33416Y-18736D01*
X33690Y-18075D01*
Y-17358D01*
X33416Y-16697D01*
X32909Y-16191D01*
X32248Y-15916D01*
D02*
G37*
G36*
X14351Y-13531D02*
X13208D01*
X12103Y-13827D01*
X11113Y-14399D01*
X10304Y-15207D01*
X9732Y-16198D01*
X9436Y-17302D01*
Y-18446D01*
X9732Y-19550D01*
X10304Y-20541D01*
X11113Y-21350D01*
X12103Y-21921D01*
X13208Y-22217D01*
X14351D01*
X15456Y-21921D01*
X16446Y-21350D01*
X17255Y-20541D01*
X17827Y-19550D01*
X18123Y-18446D01*
Y-17302D01*
X17827Y-16198D01*
X17255Y-15207D01*
X16446Y-14399D01*
X15456Y-13827D01*
X14351Y-13531D01*
D02*
G37*
G36*
X91958Y-22800D02*
X91242D01*
X90580Y-23074D01*
X90074Y-23580D01*
X89800Y-24242D01*
Y-24958D01*
X90074Y-25620D01*
X90580Y-26126D01*
X91242Y-26400D01*
X91958D01*
X92620Y-26126D01*
X93126Y-25620D01*
X93400Y-24958D01*
Y-24242D01*
X93126Y-23580D01*
X92620Y-23074D01*
X91958Y-22800D01*
D02*
G37*
G36*
X88858Y-27100D02*
X88142D01*
X87480Y-27374D01*
X86974Y-27880D01*
X86700Y-28542D01*
Y-29258D01*
X86974Y-29920D01*
X87480Y-30426D01*
X88142Y-30700D01*
X88858D01*
X89520Y-30426D01*
X90026Y-29920D01*
X90300Y-29258D01*
Y-28542D01*
X90026Y-27880D01*
X89520Y-27374D01*
X88858Y-27100D01*
D02*
G37*
G36*
X14351Y-23531D02*
X13208D01*
X12103Y-23827D01*
X11113Y-24398D01*
X10304Y-25207D01*
X9732Y-26198D01*
X9436Y-27302D01*
Y-28446D01*
X9732Y-29550D01*
X10304Y-30541D01*
X11113Y-31350D01*
X12103Y-31921D01*
X13208Y-32217D01*
X14351D01*
X15456Y-31921D01*
X16446Y-31350D01*
X17255Y-30541D01*
X17827Y-29550D01*
X18123Y-28446D01*
Y-27302D01*
X17827Y-26198D01*
X17255Y-25207D01*
X16446Y-24398D01*
X15456Y-23827D01*
X14351Y-23531D01*
D02*
G37*
G36*
X85458Y-31200D02*
X84742D01*
X84080Y-31474D01*
X83574Y-31980D01*
X83300Y-32642D01*
Y-33358D01*
X83574Y-34020D01*
X84080Y-34526D01*
X84742Y-34800D01*
X85458D01*
X86120Y-34526D01*
X86626Y-34020D01*
X86900Y-33358D01*
Y-32642D01*
X86626Y-31980D01*
X86120Y-31474D01*
X85458Y-31200D01*
D02*
G37*
G36*
X14351Y-33531D02*
X13208D01*
X12103Y-33827D01*
X11113Y-34398D01*
X10304Y-35207D01*
X9732Y-36198D01*
X9436Y-37302D01*
Y-38446D01*
X9732Y-39551D01*
X10304Y-40541D01*
X11113Y-41350D01*
X12103Y-41921D01*
X13208Y-42217D01*
X14351D01*
X15456Y-41921D01*
X16446Y-41350D01*
X17255Y-40541D01*
X17827Y-39551D01*
X18123Y-38446D01*
Y-37302D01*
X17827Y-36198D01*
X17255Y-35207D01*
X16446Y-34398D01*
X15456Y-33827D01*
X14351Y-33531D01*
D02*
G37*
G36*
X96458Y-43100D02*
X95742D01*
X95080Y-43374D01*
X94574Y-43880D01*
X94300Y-44542D01*
Y-45258D01*
X94574Y-45920D01*
X95080Y-46426D01*
X95742Y-46700D01*
X96458D01*
X97120Y-46426D01*
X97626Y-45920D01*
X97900Y-45258D01*
Y-44542D01*
X97626Y-43880D01*
X97120Y-43374D01*
X96458Y-43100D01*
D02*
G37*
G36*
X41254Y-41523D02*
X40006D01*
X38802Y-41846D01*
X37721Y-42469D01*
X36839Y-43351D01*
X36216Y-44431D01*
X35893Y-45636D01*
Y-46883D01*
X36216Y-48088D01*
X36839Y-49168D01*
X37721Y-50050D01*
X38802Y-50674D01*
X40006Y-50997D01*
X41254D01*
X42458Y-50674D01*
X43538Y-50050D01*
X44420Y-49168D01*
X45044Y-48088D01*
X45367Y-46883D01*
Y-45636D01*
X45044Y-44431D01*
X44420Y-43351D01*
X43538Y-42469D01*
X42458Y-41846D01*
X41254Y-41523D01*
D02*
G37*
G36*
X14351Y-43531D02*
X13208D01*
X12103Y-43827D01*
X11113Y-44398D01*
X10304Y-45207D01*
X9732Y-46198D01*
X9436Y-47302D01*
Y-48446D01*
X9732Y-49551D01*
X10304Y-50541D01*
X11113Y-51350D01*
X12103Y-51921D01*
X13208Y-52217D01*
X14351D01*
X15456Y-51921D01*
X16446Y-51350D01*
X17255Y-50541D01*
X17827Y-49551D01*
X18123Y-48446D01*
Y-47302D01*
X17827Y-46198D01*
X17255Y-45207D01*
X16446Y-44398D01*
X15456Y-43827D01*
X14351Y-43531D01*
D02*
G37*
G36*
X78758Y-57038D02*
X78042D01*
X77380Y-57313D01*
X76874Y-57819D01*
X76600Y-58480D01*
Y-59197D01*
X76874Y-59858D01*
X77380Y-60364D01*
X78042Y-60638D01*
X78758D01*
X79420Y-60364D01*
X79926Y-59858D01*
X80200Y-59197D01*
Y-58480D01*
X79926Y-57819D01*
X79420Y-57313D01*
X78758Y-57038D01*
D02*
G37*
G36*
X14351Y-53531D02*
X13208D01*
X12103Y-53827D01*
X11113Y-54399D01*
X10304Y-55207D01*
X9732Y-56198D01*
X9436Y-57302D01*
Y-58446D01*
X9732Y-59550D01*
X10304Y-60541D01*
X11113Y-61349D01*
X12103Y-61921D01*
X13208Y-62217D01*
X14351D01*
X15456Y-61921D01*
X16446Y-61349D01*
X17255Y-60541D01*
X17827Y-59550D01*
X18123Y-58446D01*
Y-57302D01*
X17827Y-56198D01*
X17255Y-55207D01*
X16446Y-54399D01*
X15456Y-53827D01*
X14351Y-53531D01*
D02*
G37*
G36*
X97123Y-59224D02*
X96407D01*
X95745Y-59498D01*
X95239Y-60004D01*
X94965Y-60666D01*
Y-61382D01*
X95239Y-62043D01*
X95745Y-62550D01*
X96407Y-62824D01*
X97123D01*
X97784Y-62550D01*
X98290Y-62043D01*
X98565Y-61382D01*
Y-60666D01*
X98290Y-60004D01*
X97784Y-59498D01*
X97123Y-59224D01*
D02*
G37*
G36*
X71017Y-54121D02*
X69770D01*
X68565Y-54444D01*
X67485Y-55068D01*
X66603Y-55950D01*
X65979Y-57030D01*
X65657Y-58235D01*
Y-59482D01*
X65979Y-60687D01*
X66603Y-61767D01*
X67485Y-62649D01*
X68565Y-63273D01*
X69770Y-63595D01*
X71017D01*
X72222Y-63273D01*
X73302Y-62649D01*
X74184Y-61767D01*
X74808Y-60687D01*
X75131Y-59482D01*
Y-58235D01*
X74808Y-57030D01*
X74184Y-55950D01*
X73302Y-55068D01*
X72222Y-54444D01*
X71017Y-54121D01*
D02*
G37*
G36*
X41254Y-66720D02*
X40006D01*
X38802Y-67042D01*
X37721Y-67666D01*
X36839Y-68548D01*
X36216Y-69628D01*
X35893Y-70833D01*
Y-72080D01*
X36216Y-73285D01*
X36839Y-74365D01*
X37721Y-75247D01*
X38802Y-75871D01*
X40006Y-76194D01*
X41254D01*
X42458Y-75871D01*
X43538Y-75247D01*
X44420Y-74365D01*
X45044Y-73285D01*
X45367Y-72080D01*
Y-70833D01*
X45044Y-69628D01*
X44420Y-68548D01*
X43538Y-67666D01*
X42458Y-67042D01*
X41254Y-66720D01*
D02*
G37*
G36*
X18812Y-71976D02*
X11109D01*
Y-79678D01*
X18812D01*
Y-71976D01*
D02*
G37*
G36*
X15468Y-81976D02*
X14454D01*
X13474Y-82238D01*
X12596Y-82745D01*
X11879Y-83462D01*
X11372Y-84340D01*
X11109Y-85320D01*
Y-86334D01*
X11372Y-87313D01*
X11879Y-88191D01*
X12596Y-88908D01*
X13474Y-89416D01*
X14454Y-89678D01*
X15468D01*
X16447Y-89416D01*
X17325Y-88908D01*
X18042Y-88191D01*
X18549Y-87313D01*
X18812Y-86334D01*
Y-85320D01*
X18549Y-84340D01*
X18042Y-83462D01*
X17325Y-82745D01*
X16447Y-82238D01*
X15468Y-81976D01*
D02*
G37*
G36*
X93528Y-89241D02*
X92812D01*
X92150Y-89515D01*
X91644Y-90022D01*
X91370Y-90683D01*
Y-91399D01*
X91644Y-92061D01*
X92150Y-92567D01*
X92812Y-92841D01*
X93528D01*
X94190Y-92567D01*
X94696Y-92061D01*
X94970Y-91399D01*
Y-90683D01*
X94696Y-90022D01*
X94190Y-89515D01*
X93528Y-89241D01*
D02*
G37*
G36*
X89728Y-95363D02*
X89012D01*
X88350Y-95637D01*
X87844Y-96144D01*
X87570Y-96805D01*
Y-97521D01*
X87844Y-98183D01*
X88350Y-98689D01*
X89012Y-98963D01*
X89728D01*
X90390Y-98689D01*
X90896Y-98183D01*
X91170Y-97521D01*
Y-96805D01*
X90896Y-96144D01*
X90390Y-95637D01*
X89728Y-95363D01*
D02*
G37*
G36*
X12582Y-127172D02*
X11827D01*
X11098Y-127368D01*
X10444Y-127745D01*
X9911Y-128279D01*
X9533Y-128933D01*
X9338Y-129662D01*
Y-130417D01*
X9533Y-131146D01*
X9911Y-131800D01*
X10339Y-132229D01*
X10402Y-132539D01*
X10339Y-132850D01*
X9911Y-133279D01*
X9533Y-133933D01*
X9338Y-134662D01*
Y-135417D01*
X9533Y-136146D01*
X9837Y-136672D01*
X9638Y-137172D01*
X9338D01*
Y-142906D01*
X15072D01*
Y-137172D01*
X14772D01*
X14572Y-136672D01*
X14876Y-136146D01*
X15072Y-135417D01*
Y-134662D01*
X14876Y-133933D01*
X14499Y-133279D01*
X14070Y-132850D01*
X14007Y-132539D01*
X14070Y-132229D01*
X14499Y-131800D01*
X14876Y-131146D01*
X15072Y-130417D01*
Y-129662D01*
X14876Y-128933D01*
X14499Y-128279D01*
X13965Y-127745D01*
X13311Y-127368D01*
X12582Y-127172D01*
D02*
G37*
G36*
X75131Y-141129D02*
X70894D01*
Y-145366D01*
X75131D01*
Y-141129D01*
D02*
G37*
G36*
X69894D02*
X65657D01*
Y-145366D01*
X69894D01*
Y-141129D01*
D02*
G37*
G36*
X18030Y-145050D02*
X17314D01*
X16652Y-145324D01*
X16146Y-145831D01*
X15872Y-146492D01*
Y-147208D01*
X16146Y-147870D01*
X16652Y-148376D01*
X17314Y-148650D01*
X18030D01*
X18691Y-148376D01*
X19198Y-147870D01*
X19472Y-147208D01*
Y-146492D01*
X19198Y-145831D01*
X18691Y-145324D01*
X18030Y-145050D01*
D02*
G37*
G36*
X75131Y-146366D02*
X70894D01*
Y-150603D01*
X75131D01*
Y-146366D01*
D02*
G37*
G36*
X69894D02*
X65657D01*
Y-150603D01*
X69894D01*
Y-146366D01*
D02*
G37*
G36*
X41254Y-141129D02*
X40006D01*
X38802Y-141452D01*
X37721Y-142076D01*
X36839Y-142957D01*
X36216Y-144038D01*
X35893Y-145243D01*
Y-146490D01*
X36216Y-147695D01*
X36839Y-148775D01*
X37721Y-149657D01*
X38802Y-150280D01*
X40006Y-150603D01*
X41254D01*
X42458Y-150280D01*
X43538Y-149657D01*
X44420Y-148775D01*
X45044Y-147695D01*
X45367Y-146490D01*
Y-145243D01*
X45044Y-144038D01*
X44420Y-142957D01*
X43538Y-142076D01*
X42458Y-141452D01*
X41254Y-141129D01*
D02*
G37*
G36*
X12563Y-149775D02*
X11847D01*
X11185Y-150049D01*
X10679Y-150555D01*
X10405Y-151217D01*
Y-151933D01*
X10679Y-152594D01*
X11185Y-153101D01*
X11847Y-153375D01*
X12563D01*
X13224Y-153101D01*
X13731Y-152594D01*
X14005Y-151933D01*
Y-151217D01*
X13731Y-150555D01*
X13224Y-150049D01*
X12563Y-149775D01*
D02*
G37*
G36*
X93857Y-266996D02*
X93141D01*
X92479Y-267270D01*
X91973Y-267776D01*
X91707Y-268418D01*
X91629Y-268446D01*
X91199Y-268495D01*
X90971Y-267946D01*
X90465Y-267440D01*
X89804Y-267165D01*
X89087D01*
X88426Y-267440D01*
X88015Y-267850D01*
X87716Y-267907D01*
X87418Y-267850D01*
X87007Y-267440D01*
X86345Y-267165D01*
X85629D01*
X84968Y-267440D01*
X84461Y-267946D01*
X84299Y-268337D01*
X83762Y-268327D01*
X83563Y-267846D01*
X83057Y-267340D01*
X82395Y-267066D01*
X81679D01*
X81018Y-267340D01*
X80511Y-267846D01*
X80237Y-268508D01*
Y-268565D01*
X79755Y-268607D01*
X79481Y-267946D01*
X78974Y-267440D01*
X78313Y-267165D01*
X77597D01*
X76935Y-267440D01*
X76429Y-267946D01*
X76240Y-268401D01*
X75699D01*
X75511Y-267946D01*
X75005Y-267440D01*
X74343Y-267165D01*
X73627D01*
X72965Y-267440D01*
X72459Y-267946D01*
X72185Y-268607D01*
Y-269323D01*
X72459Y-269985D01*
X72874Y-270401D01*
X72904Y-270764D01*
X72855Y-270987D01*
X72411Y-271430D01*
X72137Y-272092D01*
Y-272808D01*
X72411Y-273470D01*
X72918Y-273976D01*
X73579Y-274250D01*
X74295D01*
X74957Y-273976D01*
X75463Y-273470D01*
X75693Y-272915D01*
X76199D01*
X76429Y-273470D01*
X76935Y-273976D01*
X77597Y-274250D01*
X78313D01*
X78974Y-273976D01*
X79481Y-273470D01*
X79755Y-272808D01*
X80237D01*
X80511Y-273470D01*
X81018Y-273976D01*
X81679Y-274250D01*
X82395D01*
X83057Y-273976D01*
X83563Y-273470D01*
X83837Y-272808D01*
Y-272092D01*
X83563Y-271430D01*
X83057Y-270924D01*
X83018Y-270908D01*
Y-270408D01*
X83057Y-270392D01*
X83563Y-269885D01*
X83725Y-269494D01*
X84262Y-269504D01*
X84461Y-269985D01*
X84968Y-270491D01*
X84981Y-270497D01*
X85025Y-271056D01*
X84651Y-271430D01*
X84377Y-272092D01*
Y-272808D01*
X84651Y-273470D01*
X85157Y-273976D01*
X85819Y-274250D01*
X86535D01*
X87197Y-273976D01*
X87485Y-273688D01*
X87811Y-273524D01*
X88138Y-273688D01*
X88426Y-273976D01*
X89087Y-274250D01*
X89804D01*
X90465Y-273976D01*
X90971Y-273470D01*
X91246Y-272808D01*
Y-272092D01*
X90971Y-271430D01*
X90542Y-271001D01*
X90498Y-270708D01*
X90542Y-270415D01*
X90971Y-269985D01*
X91237Y-269344D01*
X91315Y-269316D01*
X91746Y-269266D01*
X91973Y-269816D01*
X92479Y-270322D01*
X92599Y-270372D01*
Y-270913D01*
X92573Y-270924D01*
X92066Y-271430D01*
X91792Y-272092D01*
Y-272808D01*
X92066Y-273470D01*
X92573Y-273976D01*
X93234Y-274250D01*
X93950D01*
X94612Y-273976D01*
X95118Y-273470D01*
X95178Y-273324D01*
X95719D01*
X95780Y-273470D01*
X96286Y-273976D01*
X96947Y-274250D01*
X97664D01*
X98325Y-273976D01*
X98831Y-273470D01*
X99106Y-272808D01*
Y-272092D01*
X98831Y-271430D01*
X98325Y-270924D01*
X98286Y-270908D01*
Y-270408D01*
X98325Y-270392D01*
X98831Y-269885D01*
X99106Y-269224D01*
Y-268508D01*
X98831Y-267846D01*
X98325Y-267340D01*
X97664Y-267066D01*
X96947D01*
X96286Y-267340D01*
X95780Y-267846D01*
X95687Y-268069D01*
X95146D01*
X95025Y-267776D01*
X94519Y-267270D01*
X93857Y-266996D01*
D02*
G37*
G36*
X136758Y-181800D02*
X136042D01*
X135380Y-182074D01*
X134874Y-182580D01*
X134600Y-183242D01*
Y-183958D01*
X134874Y-184620D01*
X135380Y-185126D01*
X136042Y-185400D01*
X136758D01*
X137420Y-185126D01*
X137926Y-184620D01*
X138200Y-183958D01*
Y-183242D01*
X137926Y-182580D01*
X137420Y-182074D01*
X136758Y-181800D01*
D02*
G37*
G36*
X142258Y-184300D02*
X141542D01*
X140880Y-184574D01*
X140374Y-185080D01*
X140100Y-185742D01*
Y-186458D01*
X140374Y-187120D01*
X140880Y-187626D01*
X141542Y-187900D01*
X142258D01*
X142920Y-187626D01*
X143426Y-187120D01*
X143700Y-186458D01*
Y-185742D01*
X143426Y-185080D01*
X142920Y-184574D01*
X142258Y-184300D01*
D02*
G37*
G36*
X153758Y-187300D02*
X153042D01*
X152380Y-187574D01*
X151874Y-188080D01*
X151600Y-188742D01*
Y-189458D01*
X151874Y-190120D01*
X152380Y-190626D01*
X153042Y-190900D01*
X153758D01*
X154420Y-190626D01*
X154926Y-190120D01*
X155200Y-189458D01*
Y-188742D01*
X154926Y-188080D01*
X154420Y-187574D01*
X153758Y-187300D01*
D02*
G37*
G36*
X116791Y-190069D02*
X116075D01*
X115413Y-190343D01*
X114907Y-190850D01*
X114633Y-191511D01*
Y-192227D01*
X114907Y-192889D01*
X115413Y-193395D01*
X116075Y-193669D01*
X116791D01*
X117452Y-193395D01*
X117959Y-192889D01*
X118233Y-192227D01*
Y-191511D01*
X117959Y-190850D01*
X117452Y-190343D01*
X116791Y-190069D01*
D02*
G37*
G36*
X111432Y-238311D02*
X110716D01*
X110054Y-238585D01*
X109548Y-239092D01*
X109274Y-239753D01*
Y-240469D01*
X109548Y-241131D01*
X110005Y-241588D01*
X109548Y-242044D01*
X109042Y-241538D01*
X108381Y-241264D01*
X107665D01*
X107003Y-241538D01*
X106497Y-242044D01*
X106223Y-242706D01*
Y-243422D01*
X106497Y-244084D01*
X107003Y-244590D01*
X107665Y-244864D01*
X108381D01*
X109042Y-244590D01*
X109548Y-244084D01*
X110054Y-244590D01*
X110716Y-244864D01*
X111432D01*
X112093Y-244590D01*
X112599Y-244084D01*
X113105Y-244590D01*
X113767Y-244864D01*
X114483D01*
X115145Y-244590D01*
X115651Y-244084D01*
X115925Y-243422D01*
Y-242706D01*
X115651Y-242044D01*
X115145Y-241538D01*
X114483Y-241264D01*
X113767D01*
X113105Y-241538D01*
X112599Y-242044D01*
X112143Y-241588D01*
X112600Y-241131D01*
X112874Y-240469D01*
Y-239753D01*
X112600Y-239092D01*
X112093Y-238585D01*
X111432Y-238311D01*
D02*
G37*
G36*
X114483Y-245398D02*
X113767D01*
X113105Y-245672D01*
X112599Y-246178D01*
X112093Y-245672D01*
X111432Y-245398D01*
X110716D01*
X110054Y-245672D01*
X109548Y-246178D01*
X109042Y-245672D01*
X108381Y-245398D01*
X107665D01*
X107003Y-245672D01*
X106497Y-246178D01*
X106223Y-246840D01*
Y-247556D01*
X106497Y-248218D01*
X107003Y-248724D01*
X107665Y-248998D01*
X108381D01*
X109042Y-248724D01*
X109548Y-248218D01*
X110005Y-248674D01*
X109548Y-249131D01*
X109274Y-249793D01*
Y-250509D01*
X109548Y-251170D01*
X110054Y-251677D01*
X110716Y-251951D01*
X111432D01*
X112093Y-251677D01*
X112600Y-251170D01*
X112874Y-250509D01*
Y-249793D01*
X112600Y-249131D01*
X112143Y-248674D01*
X112599Y-248218D01*
X113105Y-248724D01*
X113767Y-248998D01*
X114483D01*
X115145Y-248724D01*
X115651Y-248218D01*
X115925Y-247556D01*
Y-246840D01*
X115651Y-246178D01*
X115145Y-245672D01*
X114483Y-245398D01*
D02*
G37*
G36*
X117075Y-256050D02*
X116200D01*
X115391Y-256385D01*
X114957Y-256819D01*
X114710Y-256979D01*
X114306Y-256821D01*
X113943Y-256457D01*
X113134Y-256122D01*
X112259D01*
X111450Y-256457D01*
X110831Y-257076D01*
X110677Y-257107D01*
X110230Y-256661D01*
X109422Y-256326D01*
X108546D01*
X107738Y-256661D01*
X107119Y-257279D01*
X106784Y-258088D01*
Y-258963D01*
X107119Y-259772D01*
X107602Y-260255D01*
X107576Y-260385D01*
X106957Y-261004D01*
X106622Y-261812D01*
Y-262688D01*
X106957Y-263496D01*
X107576Y-264115D01*
X108384Y-264450D01*
X109259D01*
X110068Y-264115D01*
X110533Y-263650D01*
X110903Y-263578D01*
X111155Y-263674D01*
X111653Y-264172D01*
X112461Y-264507D01*
X113337D01*
X114145Y-264172D01*
X114764Y-263553D01*
X114901Y-263526D01*
X115391Y-264015D01*
X116200Y-264350D01*
X117075D01*
X117884Y-264015D01*
X118502Y-263396D01*
X118837Y-262588D01*
Y-261712D01*
X118502Y-260904D01*
X118125Y-260527D01*
X117933Y-260200D01*
X118125Y-259873D01*
X118502Y-259496D01*
X118837Y-258688D01*
Y-257812D01*
X118502Y-257004D01*
X117884Y-256385D01*
X117075Y-256050D01*
D02*
G37*
G36*
X154914Y-267450D02*
X154039D01*
X153230Y-267785D01*
X152838Y-268177D01*
X152511Y-268351D01*
X152184Y-268177D01*
X151792Y-267785D01*
X150983Y-267450D01*
X150108D01*
X149299Y-267785D01*
X148729Y-268355D01*
X148159Y-267785D01*
X147350Y-267450D01*
X146475D01*
X145666Y-267785D01*
X145047Y-268404D01*
X144845Y-268891D01*
X144304D01*
X144102Y-268404D01*
X143483Y-267785D01*
X142675Y-267450D01*
X141800D01*
X140991Y-267785D01*
X140587Y-268189D01*
X140182Y-267785D01*
X139374Y-267450D01*
X138498D01*
X137690Y-267785D01*
X137093Y-268382D01*
X136496Y-267785D01*
X135687Y-267450D01*
X134812D01*
X134003Y-267785D01*
X133385Y-268404D01*
X133353Y-268481D01*
X132853D01*
X132821Y-268404D01*
X132202Y-267785D01*
X131393Y-267450D01*
X130518D01*
X129709Y-267785D01*
X129323Y-268171D01*
X128997Y-268352D01*
X128670Y-268171D01*
X128284Y-267785D01*
X127475Y-267450D01*
X126600D01*
X125791Y-267785D01*
X125172Y-268404D01*
X124837Y-269212D01*
Y-270088D01*
X125172Y-270896D01*
X125728Y-271452D01*
X125172Y-272008D01*
X124837Y-272816D01*
Y-273692D01*
X125172Y-274500D01*
X125791Y-275119D01*
X126600Y-275454D01*
X127475D01*
X128284Y-275119D01*
X128670Y-274733D01*
X128997Y-274552D01*
X129323Y-274733D01*
X129709Y-275119D01*
X130518Y-275454D01*
X131393D01*
X132202Y-275119D01*
X132821Y-274500D01*
X132853Y-274423D01*
X133353D01*
X133385Y-274500D01*
X134003Y-275119D01*
X134812Y-275454D01*
X135687D01*
X136496Y-275119D01*
X137115Y-274500D01*
X137451Y-274433D01*
X137690Y-274672D01*
X138498Y-275007D01*
X139374D01*
X139976Y-274757D01*
X140182Y-274672D01*
X140699Y-274827D01*
X140991Y-275119D01*
X141800Y-275454D01*
X142675D01*
X143483Y-275119D01*
X144102Y-274500D01*
X144304Y-274012D01*
X144845D01*
X145047Y-274500D01*
X145666Y-275119D01*
X146475Y-275454D01*
X147350D01*
X148159Y-275119D01*
X148695Y-274583D01*
X149230Y-275119D01*
X150039Y-275454D01*
X150914D01*
X151723Y-275119D01*
X152271Y-274571D01*
X152562Y-274531D01*
X152853Y-274571D01*
X153402Y-275119D01*
X154210Y-275454D01*
X155086D01*
X155894Y-275119D01*
X156513Y-274500D01*
X156848Y-273692D01*
Y-272816D01*
X156513Y-272008D01*
X155894Y-271389D01*
X155886Y-271351D01*
X156341Y-270896D01*
X156676Y-270088D01*
Y-269212D01*
X156341Y-268404D01*
X155722Y-267785D01*
X154914Y-267450D01*
D02*
G37*
%LPD*%
D27*
X70394Y-145866D02*
D03*
D102*
X259200Y-182000D02*
D03*
X28100Y-94600D02*
D03*
X111732Y-100380D02*
D03*
X62400Y-36200D02*
D03*
X67700Y-36000D02*
D03*
X111732Y-118110D02*
D03*
X265700Y-238635D02*
D03*
X232400Y-27800D02*
D03*
X287938Y-2977D02*
D03*
X88446Y-211503D02*
D03*
X84244Y-211427D02*
D03*
X80437D02*
D03*
X76753Y-211503D02*
D03*
X72890D02*
D03*
X88446Y-207386D02*
D03*
X84244D02*
D03*
X80437D02*
D03*
X76753Y-207588D02*
D03*
X72890D02*
D03*
X102000Y-201800D02*
D03*
X178594Y-241003D02*
D03*
X168737Y-260655D02*
D03*
X217915Y-84095D02*
D03*
X227165Y-61417D02*
D03*
X219700Y-37300D02*
D03*
X27800Y-99000D02*
D03*
X243200Y-32800D02*
D03*
X251200Y-26500D02*
D03*
X97068Y-288000D02*
D03*
Y-283633D02*
D03*
Y-279700D02*
D03*
X93400Y-288000D02*
D03*
X93355Y-283633D02*
D03*
X93400Y-279700D02*
D03*
X253400Y-269834D02*
D03*
X83100Y-41100D02*
D03*
X266900Y-84095D02*
D03*
X254500Y-19100D02*
D03*
X256800Y-53700D02*
D03*
X288200Y-54800D02*
D03*
X217915Y-92439D02*
D03*
X246457Y-50197D02*
D03*
X89370Y-11811D02*
D03*
D108*
X80866D02*
D03*
X232400Y-14750D02*
D03*
M02*
