M48
;Layer_Color=9474304
;FILE_FORMAT=2:5
INCH,LZ
;TYPE=PLATED
T1F00S00C0.00800
T2F00S00C0.00984
T3F00S00C0.02560
T4F00S00C0.02800
T5F00S00C0.03150
T6F00S00C0.04016
T7F00S00C0.05000
T8F00S00C0.05118
%
T01
X0108023Y-0247198
X0111074
Y-0250151
X0114125Y-0247198
Y-0243064
X0111074
Y-0240111
X0108023Y-0243064
X0178594Y-0241003
X0168737Y-0260655
X02534Y-0269834
X02592Y-0182
X02563Y-01733
X02572Y-01683
X0251043Y-0153925
X0251211Y-014152
X0250139Y-0128134
X02792Y-00994
X02669Y-0084095
X02792Y-0173
X02109Y-0153925
X0201062Y-01584
X02061Y-01407
X0189498Y-0144295
X018059Y-0139534
X0166455Y-0137531
X01626Y-0139534
X01592Y-0144295
X01527Y-0140527
X01506Y-01377
X014626Y-013788
X0141276
X0129347
X0133795Y-0144695
X0122617Y-0142727
X011551Y-0142408
X010748Y-0124016
X0096564Y-012025
X0119619Y-011853
X0119819Y-0113665
X0122862Y-0123114
X0142337Y-0108817
Y-0097646
X0166455
Y-0109091
X0192383Y-011375
X0190748Y-0123114
X0190982Y-0126184
X0211478Y-011811
X0210431Y-0108478
X020645Y-0106278
X0206221Y-01118
X0200974Y-010559
X0198293Y-010478
X01962Y-010038
X0208661Y-00961
X0217915Y-0092439
Y-0084095
X0192455Y-0085319
X02168Y-01102
X02224Y-01118
X023102Y-01136
X01976Y-0188
X01753Y-01712
X0153065Y-0165243
X01506Y-0163915
X014626Y-016438
Y-015938
Y-014938
X0125016Y-016438
X0122816Y-016938
X01152Y-01696
X0116433Y-0175531
X01203Y-01787
X0126109Y-01769
X01311Y-01787
X01364Y-01836
X01419Y-01861
X01534Y-01891
X0116433Y-0191869
X0102Y-02018
X0107419Y-0168639
X008937Y-0097163
X009244Y-0091041
X0121428Y-0090043
X01203Y-0085319
X00281Y-00946
X00278Y-0099
X0017672Y-014685
X0012205Y-0151575
X003189Y-0017717
X00315Y-00079
X0051968Y-0017717
X00624Y-00362
X00677Y-0036
X00831Y-00411
X00784Y-0058838
X0096765Y-0061024
X00961Y-00449
X00851Y-00363
Y-0033
X00885Y-00289
X00916Y-00246
X008937Y-0011811
X0123581Y-003335
X0122617Y-00637
X0121394Y-0067558
X0120823Y-0080594
X0110236Y-0073541
X0111931Y-0053385
X01454Y-0049394
Y-0058126
X0167501Y-0058073
Y-0049394
X0189927Y-0056712
X0194598Y-0054847
X0193879Y-0067558
X0190081Y-0076418
X0190255Y-0080594
X0230461Y-0078882
X0239222Y-0076
X02356Y-0065017
X02345Y-0061417
X02377
X0227165
X02224Y-0054134
X0220889Y-0050197
X02197Y-00373
X02308Y-00411
X0238531
Y-002665
X02284Y-00268
X0190255Y-003335
X02432Y-00328
X02512Y-00265
X02545Y-00191
X0249606Y-0008669
X0259836Y-0007291
X02792Y-00029
X0283656Y-000274
X0287938Y-0002977
X0292284Y-00026
X02965Y-00025
X03009Y-00024
X0309828Y-0002362
X03009Y-00599
X0292305Y-0064567
X02882Y-00548
X02837Y-00566
X02568Y-00537
X0259836Y-0048384
X02592Y-00401
X0246457Y-0050197
X0250768Y-0056712
X02592Y-0069969
X0245021Y-0073261
T02
X0111931Y-0022185
Y-0012342
Y-00025
X0118288Y-0028091
X0128131
X0137973
X0147816
X0157658
X0167501
X0177343
X0187186
X0197028
X02034Y-0022085
Y-0012242
Y-00024
T03
X0133795Y-016938
Y-016438
Y-015938
X0138795
Y-015438
Y-014938
X0133795
Y-015438
X0138795Y-016438
Y-016938
T04
X0073937Y-027245
X0073985Y-0268966
X0077955
Y-027245
X0082037
Y-0268866
X0085987Y-0268966
X0089446
Y-027245
X0086177
X0093592
X0097306
Y-0268866
X0093499Y-0268796
X00934Y-02797
X0097068
Y-0283633
X0093355
X00934Y-0288
X0097068
X0108822Y-026225
X0108984Y-0258526
X0112696Y-0258323
X0116637Y-025825
Y-026215
X0112899Y-0262307
X0127037Y-026965
Y-0273254
X0130956
Y-026965
X013525
Y-0273254
X0138936Y-0272807
Y-026965
X0142237
Y-0273254
X0146913
X0150476
X0150546Y-026965
X0146913
X0154476
X0154648Y-0273254
X0119537Y-0230261
X011567
X0111649
X0108023
X0104578
Y-022625
X0108121
X0111726
X0115813
X0119537
T05
X0012205Y-0140039
Y-0135039
Y-0130039
T06
X0014961Y-0085827
Y-0075827
T07
X0296Y-01949
Y-01849
Y-01749
X0301969Y-0158425
Y-0148425
Y-0138425
X0080866Y-0011811
X0070866
X0060866
X0211142Y-001475
X0221142
X0231142
X0241142
T08
X0299606Y-0124094
Y-0114094
Y-0104095
Y-0094095
Y-0084095
X0070394Y-0145866
X004063
Y-0071457
Y-004626
X001378Y-0047874
Y-0057874
Y-0037874
Y-0027874
Y-0017874
Y-0007874
X0070394Y-0058858
X0299606Y-0074094
M30
